<svg width="398" height="282" viewBox="0 0 398 282" fill="none" xmlns="http://www.w3.org/2000/svg">
<g filter="url(#filter0_dddd_1_7829)">
<rect x="14" y="6" width="370" height="247" rx="6" fill="#23262B"/>
<rect x="14.5" y="6.5" width="369" height="246" rx="5.5" stroke="#303030"/>
<path d="M197.75 22C207.685 22 215.816 29.7275 216.459 39.5H216.5V42H216.459C215.816 51.7725 207.685 59.5 197.75 59.5C187.815 59.5 179.684 51.7725 179.041 42H179V39.5H179.041C179.684 29.7275 187.815 22 197.75 22ZM193.404 52C194.615 55.0992 196.234 57 197.75 57C199.266 57 200.885 55.0992 202.096 52H193.404ZM186.024 52C187.878 53.9313 190.204 55.4057 192.816 56.2373C192.024 55.0759 191.325 53.6426 190.749 52H186.024ZM204.751 52C204.175 53.6426 203.476 55.0759 202.684 56.2373C205.296 55.4057 207.622 53.9313 209.476 52H204.751ZM181.547 42C181.756 44.7475 182.649 47.304 184.055 49.5H190.009C189.45 47.2351 189.102 44.6953 189.02 42H181.547ZM191.521 42C191.613 44.7669 192.007 47.3171 192.592 49.5H202.908C203.493 47.3171 203.887 44.7669 203.979 42H191.521ZM206.48 42C206.398 44.6953 206.05 47.2351 205.491 49.5H211.445C212.851 47.304 213.744 44.7475 213.953 42H206.48ZM184.055 32C182.649 34.196 181.756 36.7525 181.547 39.5H189.02C189.102 36.8047 189.45 34.2649 190.009 32H184.055ZM192.592 32C192.007 34.1829 191.613 36.7331 191.521 39.5H203.979C203.887 36.7331 203.493 34.1829 202.908 32H192.592ZM205.491 32C206.05 34.2649 206.398 36.8047 206.48 39.5H213.953C213.744 36.7525 212.851 34.196 211.445 32H205.491ZM192.816 25.2627C190.204 26.0943 187.878 27.5687 186.024 29.5H190.749C191.325 27.8574 192.024 26.4241 192.816 25.2627ZM197.75 24.5C196.234 24.5 194.615 26.4008 193.404 29.5H202.096C200.885 26.4008 199.266 24.5 197.75 24.5ZM202.684 25.2627C203.476 26.4241 204.175 27.8574 204.751 29.5H209.476C207.622 27.5687 205.296 26.0943 202.684 25.2627Z" fill="#006AA2"/>
<path d="M134.716 102L130.138 86H133.833L136.481 97.1172H136.614L139.536 86H142.7L145.614 97.1406H145.755L148.403 86H152.099L147.521 102H144.224L141.177 91.5391H141.052L138.013 102H134.716ZM158.026 102.234C156.792 102.234 155.729 101.984 154.839 101.484C153.953 100.979 153.271 100.266 152.792 99.3437C152.313 98.4167 152.073 97.3203 152.073 96.0547C152.073 94.8203 152.313 93.737 152.792 92.8047C153.271 91.8724 153.946 91.1458 154.815 90.625C155.69 90.1042 156.716 89.8438 157.894 89.8438C158.685 89.8438 159.422 89.9714 160.104 90.2266C160.792 90.4766 161.391 90.8542 161.901 91.3594C162.417 91.8646 162.818 92.5 163.104 93.2656C163.391 94.026 163.534 94.9167 163.534 95.9375V96.8516H153.401V94.7891H160.401C160.401 94.3099 160.297 93.8854 160.089 93.5156C159.881 93.1458 159.591 92.8568 159.222 92.6484C158.857 92.4349 158.433 92.3281 157.948 92.3281C157.443 92.3281 156.995 92.4453 156.604 92.6797C156.219 92.9089 155.917 93.2187 155.698 93.6094C155.479 93.9948 155.368 94.4245 155.362 94.8984V96.8594C155.362 97.4531 155.472 97.9661 155.69 98.3984C155.914 98.8307 156.229 99.1641 156.636 99.3984C157.042 99.6328 157.524 99.75 158.081 99.75C158.451 99.75 158.789 99.6979 159.097 99.5938C159.404 99.4896 159.667 99.3333 159.886 99.125C160.104 98.9167 160.271 98.6615 160.386 98.3594L163.464 98.5625C163.308 99.3021 162.987 99.9479 162.503 100.5C162.024 101.047 161.404 101.474 160.644 101.781C159.888 102.083 159.016 102.234 158.026 102.234ZM165.769 102V86H169.097V92.0156H169.198C169.344 91.6927 169.555 91.3646 169.831 91.0312C170.112 90.6927 170.477 90.4115 170.925 90.1875C171.378 89.9583 171.94 89.8438 172.612 89.8438C173.487 89.8438 174.295 90.0729 175.034 90.5313C175.774 90.9844 176.365 91.6693 176.808 92.5859C177.25 93.4974 177.472 94.6406 177.472 96.0156C177.472 97.3542 177.256 98.4844 176.823 99.4062C176.396 100.323 175.813 101.018 175.073 101.492C174.339 101.961 173.516 102.195 172.604 102.195C171.959 102.195 171.409 102.089 170.956 101.875C170.508 101.661 170.141 101.393 169.854 101.07C169.568 100.742 169.349 100.411 169.198 100.078H169.05V102H165.769ZM169.026 96C169.026 96.7135 169.125 97.3359 169.323 97.8672C169.521 98.3984 169.808 98.8125 170.183 99.1094C170.558 99.401 171.013 99.5469 171.55 99.5469C172.091 99.5469 172.55 99.3984 172.925 99.1016C173.3 98.7995 173.584 98.3828 173.776 97.8516C173.974 97.3151 174.073 96.6979 174.073 96C174.073 95.3073 173.977 94.6979 173.784 94.1719C173.591 93.6458 173.308 93.2344 172.933 92.9375C172.558 92.6406 172.097 92.4922 171.55 92.4922C171.008 92.4922 170.55 92.6354 170.175 92.9219C169.805 93.2083 169.521 93.6146 169.323 94.1406C169.125 94.6667 169.026 95.2865 169.026 96ZM198.964 91.6016H195.542C195.479 91.1589 195.352 90.7656 195.159 90.4219C194.966 90.0729 194.719 89.776 194.417 89.5312C194.115 89.2865 193.766 89.099 193.37 88.9687C192.979 88.8385 192.555 88.7734 192.097 88.7734C191.269 88.7734 190.547 88.9792 189.933 89.3906C189.318 89.7969 188.841 90.3906 188.503 91.1719C188.164 91.9479 187.995 92.8906 187.995 94C187.995 95.1406 188.164 96.099 188.503 96.875C188.847 97.651 189.326 98.237 189.94 98.6328C190.555 99.0286 191.266 99.2266 192.073 99.2266C192.526 99.2266 192.946 99.1667 193.331 99.0469C193.722 98.9271 194.068 98.7526 194.37 98.5234C194.672 98.2891 194.922 98.0052 195.12 97.6719C195.323 97.3385 195.464 96.9583 195.542 96.5312L198.964 96.5469C198.875 97.2812 198.654 97.9896 198.3 98.6719C197.951 99.349 197.479 99.9557 196.886 100.492C196.297 101.023 195.594 101.445 194.776 101.758C193.964 102.065 193.045 102.219 192.019 102.219C190.591 102.219 189.315 101.896 188.19 101.25C187.071 100.604 186.185 99.6693 185.534 98.4453C184.888 97.2214 184.565 95.7396 184.565 94C184.565 92.2552 184.894 90.7708 185.55 89.5469C186.206 88.3229 187.097 87.3906 188.222 86.75C189.347 86.1042 190.612 85.7812 192.019 85.7812C192.946 85.7812 193.805 85.9115 194.597 86.1719C195.394 86.4323 196.099 86.8125 196.714 87.3125C197.328 87.8073 197.828 88.4141 198.214 89.1328C198.604 89.8516 198.854 90.6745 198.964 91.6016ZM201.327 102V90H204.554V92.0937H204.679C204.897 91.349 205.265 90.7865 205.78 90.4063C206.296 90.0208 206.89 89.8281 207.562 89.8281C207.728 89.8281 207.908 89.8385 208.101 89.8594C208.293 89.8802 208.463 89.9089 208.608 89.9453V92.8984C208.452 92.8516 208.236 92.8099 207.96 92.7734C207.684 92.737 207.431 92.7188 207.202 92.7188C206.713 92.7188 206.275 92.8255 205.89 93.0391C205.509 93.2474 205.207 93.5391 204.983 93.9141C204.765 94.2891 204.655 94.7214 204.655 95.2109V102H201.327ZM213.407 102.227C212.642 102.227 211.959 102.094 211.36 101.828C210.761 101.557 210.287 101.159 209.938 100.633C209.595 100.102 209.423 99.4401 209.423 98.6484C209.423 97.9818 209.545 97.4219 209.79 96.9687C210.035 96.5156 210.368 96.151 210.79 95.875C211.212 95.599 211.691 95.3906 212.228 95.25C212.769 95.1094 213.337 95.0104 213.931 94.9531C214.629 94.8802 215.191 94.8125 215.618 94.75C216.045 94.6823 216.355 94.5833 216.548 94.4531C216.741 94.3229 216.837 94.1302 216.837 93.875V93.8281C216.837 93.3333 216.681 92.9505 216.368 92.6797C216.061 92.4089 215.623 92.2734 215.056 92.2734C214.457 92.2734 213.98 92.4062 213.626 92.6719C213.272 92.9323 213.037 93.2604 212.923 93.6562L209.845 93.4062C210.001 92.6771 210.308 92.0469 210.767 91.5156C211.225 90.9792 211.816 90.5677 212.54 90.2812C213.269 89.9896 214.113 89.8438 215.071 89.8438C215.738 89.8438 216.376 89.9219 216.985 90.0781C217.6 90.2344 218.144 90.4766 218.618 90.8047C219.097 91.1328 219.475 91.5547 219.751 92.0703C220.027 92.5807 220.165 93.1927 220.165 93.9062V102H217.009V100.336H216.915C216.722 100.711 216.465 101.042 216.142 101.328C215.819 101.609 215.431 101.831 214.978 101.992C214.524 102.148 214.001 102.227 213.407 102.227ZM214.36 99.9297C214.85 99.9297 215.282 99.8333 215.657 99.6406C216.032 99.4427 216.326 99.1771 216.54 98.8438C216.754 98.5104 216.86 98.1328 216.86 97.7109V96.4375C216.756 96.5052 216.613 96.5677 216.431 96.625C216.254 96.6771 216.053 96.7266 215.829 96.7734C215.605 96.8151 215.381 96.8542 215.157 96.8906C214.933 96.9219 214.73 96.9505 214.548 96.9766C214.157 97.0339 213.816 97.125 213.524 97.25C213.233 97.375 213.006 97.5443 212.845 97.7578C212.683 97.9661 212.603 98.2266 212.603 98.5391C212.603 98.9922 212.767 99.3385 213.095 99.5781C213.428 99.8125 213.85 99.9297 214.36 99.9297ZM225.114 102L221.849 90H225.216L227.075 98.0625H227.185L229.122 90H232.427L234.396 98.0156H234.497L236.325 90H239.685L236.427 102H232.903L230.841 94.4531H230.692L228.63 102H225.114ZM244.788 86V102H241.46V86H244.788ZM252.923 102.234C251.688 102.234 250.626 101.984 249.735 101.484C248.85 100.979 248.168 100.266 247.688 99.3437C247.209 98.4167 246.97 97.3203 246.97 96.0547C246.97 94.8203 247.209 93.737 247.688 92.8047C248.168 91.8724 248.842 91.1458 249.712 90.625C250.587 90.1042 251.613 89.8438 252.79 89.8438C253.582 89.8438 254.319 89.9714 255.001 90.2266C255.688 90.4766 256.287 90.8542 256.798 91.3594C257.313 91.8646 257.715 92.5 258.001 93.2656C258.287 94.026 258.431 94.9167 258.431 95.9375V96.8516H248.298V94.7891H255.298C255.298 94.3099 255.194 93.8854 254.985 93.5156C254.777 93.1458 254.488 92.8568 254.118 92.6484C253.754 92.4349 253.329 92.3281 252.845 92.3281C252.34 92.3281 251.892 92.4453 251.501 92.6797C251.116 92.9089 250.813 93.2187 250.595 93.6094C250.376 93.9948 250.264 94.4245 250.259 94.8984V96.8594C250.259 97.4531 250.368 97.9661 250.587 98.3984C250.811 98.8307 251.126 99.1641 251.532 99.3984C251.938 99.6328 252.42 99.75 252.978 99.75C253.347 99.75 253.686 99.6979 253.993 99.5938C254.3 99.4896 254.563 99.3333 254.782 99.125C255.001 98.9167 255.168 98.6615 255.282 98.3594L258.36 98.5625C258.204 99.3021 257.884 99.9479 257.399 100.5C256.92 101.047 256.3 101.474 255.54 101.781C254.785 102.083 253.912 102.234 252.923 102.234ZM260.603 102V90H263.829V92.0937H263.954C264.173 91.349 264.54 90.7865 265.056 90.4063C265.571 90.0208 266.165 89.8281 266.837 89.8281C267.004 89.8281 267.183 89.8385 267.376 89.8594C267.569 89.8802 267.738 89.9089 267.884 89.9453V92.8984C267.728 92.8516 267.511 92.8099 267.235 92.7734C266.959 92.737 266.707 92.7188 266.478 92.7188C265.988 92.7188 265.55 92.8255 265.165 93.0391C264.785 93.2474 264.483 93.5391 264.259 93.9141C264.04 94.2891 263.931 94.7214 263.931 95.2109V102H260.603Z" fill="white"/>
<g clip-path="url(#clip0_1_7829)">
<path d="M36.5713 123.929L33.2764 133H31.9297L35.7236 123.047H36.5918L36.5713 123.929ZM39.333 133L36.0312 123.929L36.0107 123.047H36.8789L40.6865 133H39.333ZM39.1621 129.315V130.396H33.5703V129.315H39.1621ZM46.4902 131.564V122.5H47.7617V133H46.5996L46.4902 131.564ZM41.5137 129.384V129.24C41.5137 128.675 41.582 128.162 41.7188 127.702C41.86 127.237 42.0583 126.839 42.3135 126.506C42.5732 126.173 42.8809 125.918 43.2363 125.74C43.5964 125.558 43.9974 125.467 44.4395 125.467C44.9043 125.467 45.3099 125.549 45.6562 125.713C46.0072 125.872 46.3034 126.107 46.5449 126.417C46.791 126.722 46.9847 127.091 47.126 127.524C47.2673 127.957 47.3652 128.447 47.4199 128.994V129.623C47.3698 130.165 47.2718 130.653 47.126 131.086C46.9847 131.519 46.791 131.888 46.5449 132.193C46.3034 132.499 46.0072 132.733 45.6562 132.897C45.3053 133.057 44.8952 133.137 44.4258 133.137C43.9928 133.137 43.5964 133.043 43.2363 132.856C42.8809 132.67 42.5732 132.408 42.3135 132.07C42.0583 131.733 41.86 131.337 41.7188 130.881C41.582 130.421 41.5137 129.922 41.5137 129.384ZM42.7852 129.24V129.384C42.7852 129.753 42.8216 130.099 42.8945 130.423C42.972 130.746 43.0905 131.031 43.25 131.277C43.4095 131.523 43.6123 131.717 43.8584 131.858C44.1045 131.995 44.3984 132.063 44.7402 132.063C45.1595 132.063 45.5036 131.975 45.7725 131.797C46.0459 131.619 46.2646 131.384 46.4287 131.093C46.5928 130.801 46.7204 130.484 46.8115 130.143V128.495C46.7568 128.244 46.6771 128.003 46.5723 127.771C46.472 127.534 46.3398 127.324 46.1758 127.142C46.0163 126.955 45.818 126.807 45.5811 126.697C45.3486 126.588 45.0729 126.533 44.7539 126.533C44.4076 126.533 44.109 126.606 43.8584 126.752C43.6123 126.893 43.4095 127.089 43.25 127.34C43.0905 127.586 42.972 127.873 42.8945 128.201C42.8216 128.525 42.7852 128.871 42.7852 129.24ZM54.3926 131.564V122.5H55.6641V133H54.502L54.3926 131.564ZM49.416 129.384V129.24C49.416 128.675 49.4844 128.162 49.6211 127.702C49.7624 127.237 49.9606 126.839 50.2158 126.506C50.4756 126.173 50.7832 125.918 51.1387 125.74C51.4987 125.558 51.8997 125.467 52.3418 125.467C52.8066 125.467 53.2122 125.549 53.5586 125.713C53.9095 125.872 54.2057 126.107 54.4473 126.417C54.6934 126.722 54.887 127.091 55.0283 127.524C55.1696 127.957 55.2676 128.447 55.3223 128.994V129.623C55.2721 130.165 55.1742 130.653 55.0283 131.086C54.887 131.519 54.6934 131.888 54.4473 132.193C54.2057 132.499 53.9095 132.733 53.5586 132.897C53.2077 133.057 52.7975 133.137 52.3281 133.137C51.8952 133.137 51.4987 133.043 51.1387 132.856C50.7832 132.67 50.4756 132.408 50.2158 132.07C49.9606 131.733 49.7624 131.337 49.6211 130.881C49.4844 130.421 49.416 129.922 49.416 129.384ZM50.6875 129.24V129.384C50.6875 129.753 50.724 130.099 50.7969 130.423C50.8743 130.746 50.9928 131.031 51.1523 131.277C51.3118 131.523 51.5146 131.717 51.7607 131.858C52.0068 131.995 52.3008 132.063 52.6426 132.063C53.0618 132.063 53.4059 131.975 53.6748 131.797C53.9482 131.619 54.167 131.384 54.3311 131.093C54.4951 130.801 54.6227 130.484 54.7139 130.143V128.495C54.6592 128.244 54.5794 128.003 54.4746 127.771C54.3743 127.534 54.2422 127.324 54.0781 127.142C53.9186 126.955 53.7204 126.807 53.4834 126.697C53.251 126.588 52.9753 126.533 52.6562 126.533C52.3099 126.533 52.0114 126.606 51.7607 126.752C51.5146 126.893 51.3118 127.089 51.1523 127.34C50.9928 127.586 50.8743 127.873 50.7969 128.201C50.724 128.525 50.6875 128.871 50.6875 129.24ZM65.4121 131.038C65.4121 130.856 65.3711 130.687 65.2891 130.532C65.2116 130.373 65.0498 130.229 64.8037 130.102C64.5622 129.969 64.1976 129.855 63.71 129.76C63.2998 129.673 62.9284 129.571 62.5957 129.452C62.2676 129.334 61.9873 129.19 61.7549 129.021C61.527 128.853 61.3516 128.655 61.2285 128.427C61.1055 128.199 61.0439 127.932 61.0439 127.627C61.0439 127.335 61.1077 127.06 61.2354 126.8C61.3675 126.54 61.5521 126.31 61.7891 126.109C62.0306 125.909 62.32 125.752 62.6572 125.638C62.9945 125.524 63.3704 125.467 63.7852 125.467C64.3776 125.467 64.8835 125.572 65.3027 125.781C65.722 125.991 66.0433 126.271 66.2666 126.622C66.4899 126.968 66.6016 127.354 66.6016 127.777H65.3369C65.3369 127.572 65.2754 127.374 65.1523 127.183C65.0339 126.987 64.8584 126.825 64.626 126.697C64.3981 126.57 64.1178 126.506 63.7852 126.506C63.4342 126.506 63.1494 126.561 62.9307 126.67C62.7165 126.775 62.5592 126.909 62.459 127.073C62.3633 127.237 62.3154 127.41 62.3154 127.593C62.3154 127.729 62.3382 127.853 62.3838 127.962C62.4339 128.067 62.5205 128.165 62.6436 128.256C62.7666 128.342 62.9398 128.424 63.1631 128.502C63.3864 128.579 63.6712 128.657 64.0176 128.734C64.6237 128.871 65.1227 129.035 65.5146 129.227C65.9066 129.418 66.1982 129.653 66.3896 129.931C66.5811 130.209 66.6768 130.546 66.6768 130.942C66.6768 131.266 66.6084 131.562 66.4717 131.831C66.3395 132.1 66.1458 132.332 65.8906 132.528C65.64 132.72 65.3392 132.87 64.9883 132.979C64.6419 133.084 64.2523 133.137 63.8193 133.137C63.1676 133.137 62.6162 133.021 62.165 132.788C61.7139 132.556 61.3721 132.255 61.1396 131.886C60.9072 131.517 60.791 131.127 60.791 130.717H62.0625C62.0807 131.063 62.181 131.339 62.3633 131.544C62.5456 131.744 62.7689 131.888 63.0332 131.975C63.2975 132.057 63.5596 132.098 63.8193 132.098C64.1657 132.098 64.4551 132.052 64.6875 131.961C64.9245 131.87 65.1045 131.744 65.2275 131.585C65.3506 131.425 65.4121 131.243 65.4121 131.038ZM71.4072 133.137C70.8923 133.137 70.4251 133.05 70.0059 132.877C69.5911 132.699 69.2334 132.451 68.9326 132.132C68.6364 131.813 68.4085 131.435 68.249 130.997C68.0895 130.56 68.0098 130.081 68.0098 129.562V129.274C68.0098 128.673 68.0986 128.137 68.2764 127.668C68.4541 127.194 68.6956 126.793 69.001 126.465C69.3063 126.137 69.6527 125.888 70.04 125.72C70.4274 125.551 70.8285 125.467 71.2432 125.467C71.7718 125.467 72.2275 125.558 72.6104 125.74C72.9977 125.923 73.3145 126.178 73.5605 126.506C73.8066 126.829 73.9889 127.212 74.1074 127.654C74.2259 128.092 74.2852 128.57 74.2852 129.09V129.657H68.7617V128.625H73.0205V128.529C73.0023 128.201 72.9339 127.882 72.8154 127.572C72.7015 127.262 72.5192 127.007 72.2686 126.807C72.0179 126.606 71.6761 126.506 71.2432 126.506C70.9561 126.506 70.6917 126.567 70.4502 126.69C70.2087 126.809 70.0013 126.987 69.8281 127.224C69.6549 127.461 69.5205 127.75 69.4248 128.092C69.3291 128.434 69.2812 128.828 69.2812 129.274V129.562C69.2812 129.912 69.3291 130.243 69.4248 130.553C69.5251 130.858 69.6686 131.127 69.8555 131.359C70.0469 131.592 70.277 131.774 70.5459 131.906C70.8193 132.038 71.1292 132.104 71.4756 132.104C71.9222 132.104 72.3005 132.013 72.6104 131.831C72.9202 131.649 73.1914 131.405 73.4238 131.1L74.1895 131.708C74.0299 131.95 73.8271 132.18 73.5811 132.398C73.335 132.617 73.0319 132.795 72.6719 132.932C72.3164 133.068 71.8949 133.137 71.4072 133.137ZM80.123 131.735V127.928C80.123 127.636 80.0638 127.383 79.9453 127.169C79.8314 126.95 79.6582 126.782 79.4258 126.663C79.1934 126.545 78.9062 126.485 78.5645 126.485C78.2454 126.485 77.9652 126.54 77.7236 126.649C77.4867 126.759 77.2998 126.902 77.1631 127.08C77.0309 127.258 76.9648 127.449 76.9648 127.654H75.7002C75.7002 127.39 75.7686 127.128 75.9053 126.868C76.042 126.608 76.238 126.374 76.4932 126.164C76.7529 125.95 77.0628 125.781 77.4229 125.658C77.7874 125.531 78.193 125.467 78.6396 125.467C79.1774 125.467 79.6514 125.558 80.0615 125.74C80.4762 125.923 80.7998 126.198 81.0322 126.567C81.2692 126.932 81.3877 127.39 81.3877 127.941V131.387C81.3877 131.633 81.4082 131.895 81.4492 132.173C81.4948 132.451 81.5609 132.69 81.6475 132.891V133H80.3281C80.2643 132.854 80.2142 132.66 80.1777 132.419C80.1413 132.173 80.123 131.945 80.123 131.735ZM80.3418 128.516L80.3555 129.404H79.0771C78.7171 129.404 78.3958 129.434 78.1133 129.493C77.8307 129.548 77.5938 129.632 77.4023 129.746C77.2109 129.86 77.0651 130.004 76.9648 130.177C76.8646 130.345 76.8145 130.544 76.8145 130.771C76.8145 131.004 76.8669 131.216 76.9717 131.407C77.0765 131.599 77.2337 131.751 77.4434 131.865C77.6576 131.975 77.9196 132.029 78.2295 132.029C78.6169 132.029 78.9587 131.947 79.2549 131.783C79.5511 131.619 79.7858 131.419 79.959 131.182C80.1367 130.945 80.2324 130.715 80.2461 130.491L80.7861 131.1C80.7542 131.291 80.6676 131.503 80.5264 131.735C80.3851 131.968 80.196 132.191 79.959 132.405C79.7266 132.615 79.4486 132.79 79.125 132.932C78.806 133.068 78.446 133.137 78.0449 133.137C77.5436 133.137 77.1038 133.039 76.7256 132.843C76.3519 132.647 76.0602 132.385 75.8506 132.057C75.6455 131.724 75.543 131.353 75.543 130.942C75.543 130.546 75.6204 130.197 75.7754 129.896C75.9303 129.591 76.1536 129.338 76.4453 129.138C76.737 128.933 77.0879 128.778 77.498 128.673C77.9082 128.568 78.3662 128.516 78.8721 128.516H80.3418ZM84.6416 126.766V133H83.377V125.604H84.6074L84.6416 126.766ZM86.9521 125.562L86.9453 126.738C86.8405 126.715 86.7402 126.702 86.6445 126.697C86.5534 126.688 86.4486 126.684 86.3301 126.684C86.0384 126.684 85.7809 126.729 85.5576 126.82C85.3343 126.911 85.1452 127.039 84.9902 127.203C84.8353 127.367 84.7122 127.563 84.6211 127.791C84.5345 128.014 84.4775 128.26 84.4502 128.529L84.0947 128.734C84.0947 128.288 84.138 127.868 84.2246 127.477C84.3158 127.085 84.4548 126.738 84.6416 126.438C84.8285 126.132 85.0654 125.895 85.3525 125.727C85.6442 125.553 85.9906 125.467 86.3916 125.467C86.4827 125.467 86.5876 125.478 86.7061 125.501C86.8245 125.519 86.9066 125.54 86.9521 125.562ZM90.9443 132.098C91.2451 132.098 91.5231 132.036 91.7783 131.913C92.0335 131.79 92.2432 131.621 92.4072 131.407C92.5713 131.188 92.6647 130.94 92.6875 130.662H93.8906C93.8678 131.1 93.7197 131.507 93.4463 131.886C93.1774 132.259 92.8242 132.562 92.3867 132.795C91.9492 133.023 91.4684 133.137 90.9443 133.137C90.3883 133.137 89.903 133.039 89.4883 132.843C89.0781 132.647 88.7363 132.378 88.4629 132.036C88.194 131.694 87.9912 131.302 87.8545 130.86C87.7223 130.414 87.6562 129.942 87.6562 129.445V129.158C87.6562 128.661 87.7223 128.192 87.8545 127.75C87.9912 127.303 88.194 126.909 88.4629 126.567C88.7363 126.226 89.0781 125.957 89.4883 125.761C89.903 125.565 90.3883 125.467 90.9443 125.467C91.5231 125.467 92.029 125.585 92.4619 125.822C92.8949 126.055 93.2344 126.374 93.4805 126.779C93.7311 127.18 93.8678 127.636 93.8906 128.146H92.6875C92.6647 127.841 92.5781 127.565 92.4277 127.319C92.2819 127.073 92.0814 126.877 91.8262 126.731C91.5755 126.581 91.2816 126.506 90.9443 126.506C90.557 126.506 90.2311 126.583 89.9668 126.738C89.707 126.889 89.4997 127.094 89.3447 127.354C89.1943 127.609 89.085 127.894 89.0166 128.208C88.9528 128.518 88.9209 128.835 88.9209 129.158V129.445C88.9209 129.769 88.9528 130.088 89.0166 130.402C89.0804 130.717 89.1875 131.002 89.3379 131.257C89.4928 131.512 89.7002 131.717 89.96 131.872C90.2243 132.022 90.5524 132.098 90.9443 132.098ZM96.5771 122.5V133H95.3125V122.5H96.5771ZM96.2764 129.021L95.75 129.001C95.7546 128.495 95.8298 128.028 95.9756 127.6C96.1214 127.167 96.3265 126.791 96.5908 126.472C96.8551 126.153 97.1696 125.907 97.5342 125.733C97.9033 125.556 98.3112 125.467 98.7578 125.467C99.1224 125.467 99.4505 125.517 99.7422 125.617C100.034 125.713 100.282 125.868 100.487 126.082C100.697 126.296 100.856 126.574 100.966 126.916C101.075 127.253 101.13 127.666 101.13 128.153V133H99.8584V128.14C99.8584 127.752 99.8014 127.442 99.6875 127.21C99.5736 126.973 99.4072 126.802 99.1885 126.697C98.9697 126.588 98.7008 126.533 98.3818 126.533C98.0674 126.533 97.7803 126.599 97.5205 126.731C97.2653 126.864 97.0443 127.046 96.8574 127.278C96.6751 127.511 96.5316 127.777 96.4268 128.078C96.3265 128.374 96.2764 128.689 96.2764 129.021ZM109.593 125.604V126.574H105.594V125.604H109.593ZM106.947 123.806H108.212V131.168C108.212 131.419 108.251 131.608 108.328 131.735C108.406 131.863 108.506 131.947 108.629 131.988C108.752 132.029 108.884 132.05 109.025 132.05C109.13 132.05 109.24 132.041 109.354 132.022C109.472 132 109.561 131.981 109.62 131.968L109.627 133C109.527 133.032 109.395 133.062 109.23 133.089C109.071 133.121 108.877 133.137 108.649 133.137C108.34 133.137 108.055 133.075 107.795 132.952C107.535 132.829 107.328 132.624 107.173 132.337C107.022 132.045 106.947 131.653 106.947 131.161V123.806ZM110.604 129.384V129.227C110.604 128.693 110.682 128.199 110.837 127.743C110.992 127.283 111.215 126.884 111.507 126.547C111.799 126.205 112.152 125.941 112.566 125.754C112.981 125.562 113.446 125.467 113.961 125.467C114.48 125.467 114.948 125.562 115.362 125.754C115.782 125.941 116.137 126.205 116.429 126.547C116.725 126.884 116.951 127.283 117.105 127.743C117.26 128.199 117.338 128.693 117.338 129.227V129.384C117.338 129.917 117.26 130.411 117.105 130.867C116.951 131.323 116.725 131.722 116.429 132.063C116.137 132.401 115.784 132.665 115.369 132.856C114.959 133.043 114.494 133.137 113.975 133.137C113.455 133.137 112.988 133.043 112.573 132.856C112.159 132.665 111.803 132.401 111.507 132.063C111.215 131.722 110.992 131.323 110.837 130.867C110.682 130.411 110.604 129.917 110.604 129.384ZM111.869 129.227V129.384C111.869 129.753 111.912 130.102 111.999 130.43C112.086 130.753 112.215 131.04 112.389 131.291C112.566 131.542 112.787 131.74 113.052 131.886C113.316 132.027 113.624 132.098 113.975 132.098C114.321 132.098 114.624 132.027 114.884 131.886C115.148 131.74 115.367 131.542 115.54 131.291C115.713 131.04 115.843 130.753 115.93 130.43C116.021 130.102 116.066 129.753 116.066 129.384V129.227C116.066 128.862 116.021 128.518 115.93 128.194C115.843 127.866 115.711 127.577 115.533 127.326C115.36 127.071 115.141 126.87 114.877 126.725C114.617 126.579 114.312 126.506 113.961 126.506C113.615 126.506 113.309 126.579 113.045 126.725C112.785 126.87 112.566 127.071 112.389 127.326C112.215 127.577 112.086 127.866 111.999 128.194C111.912 128.518 111.869 128.862 111.869 129.227ZM124.475 132.234L126.532 125.604H127.886L124.919 134.142C124.851 134.324 124.759 134.52 124.646 134.729C124.536 134.944 124.395 135.146 124.222 135.338C124.049 135.529 123.839 135.684 123.593 135.803C123.351 135.926 123.062 135.987 122.725 135.987C122.624 135.987 122.497 135.974 122.342 135.946C122.187 135.919 122.077 135.896 122.014 135.878L122.007 134.853C122.043 134.857 122.1 134.862 122.178 134.866C122.26 134.875 122.317 134.88 122.349 134.88C122.636 134.88 122.88 134.841 123.08 134.764C123.281 134.691 123.449 134.565 123.586 134.388C123.727 134.215 123.848 133.975 123.948 133.67L124.475 132.234ZM122.964 125.604L124.885 131.346L125.213 132.679L124.304 133.144L121.583 125.604H122.964ZM128.583 129.384V129.227C128.583 128.693 128.66 128.199 128.815 127.743C128.97 127.283 129.194 126.884 129.485 126.547C129.777 126.205 130.13 125.941 130.545 125.754C130.96 125.562 131.424 125.467 131.939 125.467C132.459 125.467 132.926 125.562 133.341 125.754C133.76 125.941 134.116 126.205 134.407 126.547C134.703 126.884 134.929 127.283 135.084 127.743C135.239 128.199 135.316 128.693 135.316 129.227V129.384C135.316 129.917 135.239 130.411 135.084 130.867C134.929 131.323 134.703 131.722 134.407 132.063C134.116 132.401 133.762 132.665 133.348 132.856C132.938 133.043 132.473 133.137 131.953 133.137C131.434 133.137 130.966 133.043 130.552 132.856C130.137 132.665 129.782 132.401 129.485 132.063C129.194 131.722 128.97 131.323 128.815 130.867C128.66 130.411 128.583 129.917 128.583 129.384ZM129.848 129.227V129.384C129.848 129.753 129.891 130.102 129.978 130.43C130.064 130.753 130.194 131.04 130.367 131.291C130.545 131.542 130.766 131.74 131.03 131.886C131.295 132.027 131.602 132.098 131.953 132.098C132.299 132.098 132.603 132.027 132.862 131.886C133.127 131.74 133.345 131.542 133.519 131.291C133.692 131.04 133.822 130.753 133.908 130.43C133.999 130.102 134.045 129.753 134.045 129.384V129.227C134.045 128.862 133.999 128.518 133.908 128.194C133.822 127.866 133.689 127.577 133.512 127.326C133.339 127.071 133.12 126.87 132.855 126.725C132.596 126.579 132.29 126.506 131.939 126.506C131.593 126.506 131.288 126.579 131.023 126.725C130.764 126.87 130.545 127.071 130.367 127.326C130.194 127.577 130.064 127.866 129.978 128.194C129.891 128.518 129.848 128.862 129.848 129.227ZM141.428 131.291V125.604H142.699V133H141.489L141.428 131.291ZM141.667 129.732L142.193 129.719C142.193 130.211 142.141 130.667 142.036 131.086C141.936 131.501 141.772 131.861 141.544 132.166C141.316 132.471 141.018 132.711 140.648 132.884C140.279 133.052 139.83 133.137 139.302 133.137C138.942 133.137 138.611 133.084 138.311 132.979C138.014 132.875 137.759 132.713 137.545 132.494C137.331 132.275 137.164 131.991 137.046 131.64C136.932 131.289 136.875 130.867 136.875 130.375V125.604H138.14V130.389C138.14 130.721 138.176 130.997 138.249 131.216C138.326 131.43 138.429 131.601 138.557 131.729C138.689 131.852 138.835 131.938 138.994 131.988C139.158 132.038 139.327 132.063 139.5 132.063C140.038 132.063 140.464 131.961 140.778 131.756C141.093 131.546 141.318 131.266 141.455 130.915C141.596 130.56 141.667 130.165 141.667 129.732ZM145.892 126.766V133H144.627V125.604H145.857L145.892 126.766ZM148.202 125.562L148.195 126.738C148.09 126.715 147.99 126.702 147.895 126.697C147.803 126.688 147.699 126.684 147.58 126.684C147.288 126.684 147.031 126.729 146.808 126.82C146.584 126.911 146.395 127.039 146.24 127.203C146.085 127.367 145.962 127.563 145.871 127.791C145.785 128.014 145.728 128.26 145.7 128.529L145.345 128.734C145.345 128.288 145.388 127.868 145.475 127.477C145.566 127.085 145.705 126.738 145.892 126.438C146.078 126.132 146.315 125.895 146.603 125.727C146.894 125.553 147.241 125.467 147.642 125.467C147.733 125.467 147.838 125.478 147.956 125.501C148.075 125.519 148.157 125.54 148.202 125.562ZM154.717 131.688L156.617 125.604H157.451L157.287 126.813L155.353 133H154.539L154.717 131.688ZM153.438 125.604L155.059 131.756L155.175 133H154.32L152.174 125.604H153.438ZM159.27 131.708L160.814 125.604H162.072L159.926 133H159.078L159.27 131.708ZM157.636 125.604L159.495 131.585L159.707 133H158.9L156.911 126.8L156.747 125.604H157.636ZM166.44 133.137C165.925 133.137 165.458 133.05 165.039 132.877C164.624 132.699 164.267 132.451 163.966 132.132C163.67 131.813 163.442 131.435 163.282 130.997C163.123 130.56 163.043 130.081 163.043 129.562V129.274C163.043 128.673 163.132 128.137 163.31 127.668C163.487 127.194 163.729 126.793 164.034 126.465C164.34 126.137 164.686 125.888 165.073 125.72C165.461 125.551 165.862 125.467 166.276 125.467C166.805 125.467 167.261 125.558 167.644 125.74C168.031 125.923 168.348 126.178 168.594 126.506C168.84 126.829 169.022 127.212 169.141 127.654C169.259 128.092 169.318 128.57 169.318 129.09V129.657H163.795V128.625H168.054V128.529C168.035 128.201 167.967 127.882 167.849 127.572C167.735 127.262 167.552 127.007 167.302 126.807C167.051 126.606 166.709 126.506 166.276 126.506C165.989 126.506 165.725 126.567 165.483 126.69C165.242 126.809 165.035 126.987 164.861 127.224C164.688 127.461 164.554 127.75 164.458 128.092C164.362 128.434 164.314 128.828 164.314 129.274V129.562C164.314 129.912 164.362 130.243 164.458 130.553C164.558 130.858 164.702 131.127 164.889 131.359C165.08 131.592 165.31 131.774 165.579 131.906C165.853 132.038 166.162 132.104 166.509 132.104C166.955 132.104 167.334 132.013 167.644 131.831C167.953 131.649 168.225 131.405 168.457 131.1L169.223 131.708C169.063 131.95 168.86 132.18 168.614 132.398C168.368 132.617 168.065 132.795 167.705 132.932C167.35 133.068 166.928 133.137 166.44 133.137ZM170.788 122.5H172.06V131.564L171.95 133H170.788V122.5ZM177.057 129.24V129.384C177.057 129.922 176.993 130.421 176.865 130.881C176.738 131.337 176.551 131.733 176.305 132.07C176.059 132.408 175.758 132.67 175.402 132.856C175.047 133.043 174.639 133.137 174.179 133.137C173.709 133.137 173.297 133.057 172.941 132.897C172.59 132.733 172.294 132.499 172.053 132.193C171.811 131.888 171.618 131.519 171.472 131.086C171.33 130.653 171.232 130.165 171.178 129.623V128.994C171.232 128.447 171.33 127.957 171.472 127.524C171.618 127.091 171.811 126.722 172.053 126.417C172.294 126.107 172.59 125.872 172.941 125.713C173.292 125.549 173.7 125.467 174.165 125.467C174.63 125.467 175.042 125.558 175.402 125.74C175.762 125.918 176.063 126.173 176.305 126.506C176.551 126.839 176.738 127.237 176.865 127.702C176.993 128.162 177.057 128.675 177.057 129.24ZM175.785 129.384V129.24C175.785 128.871 175.751 128.525 175.683 128.201C175.614 127.873 175.505 127.586 175.354 127.34C175.204 127.089 175.006 126.893 174.76 126.752C174.514 126.606 174.211 126.533 173.851 126.533C173.532 126.533 173.254 126.588 173.017 126.697C172.784 126.807 172.586 126.955 172.422 127.142C172.258 127.324 172.123 127.534 172.019 127.771C171.918 128.003 171.843 128.244 171.793 128.495V130.143C171.866 130.462 171.984 130.769 172.148 131.065C172.317 131.357 172.54 131.596 172.818 131.783C173.101 131.97 173.45 132.063 173.864 132.063C174.206 132.063 174.498 131.995 174.739 131.858C174.985 131.717 175.184 131.523 175.334 131.277C175.489 131.031 175.603 130.746 175.676 130.423C175.749 130.099 175.785 129.753 175.785 129.384ZM182.963 131.038C182.963 130.856 182.922 130.687 182.84 130.532C182.762 130.373 182.601 130.229 182.354 130.102C182.113 129.969 181.748 129.855 181.261 129.76C180.851 129.673 180.479 129.571 180.146 129.452C179.818 129.334 179.538 129.19 179.306 129.021C179.078 128.853 178.902 128.655 178.779 128.427C178.656 128.199 178.595 127.932 178.595 127.627C178.595 127.335 178.659 127.06 178.786 126.8C178.918 126.54 179.103 126.31 179.34 126.109C179.581 125.909 179.871 125.752 180.208 125.638C180.545 125.524 180.921 125.467 181.336 125.467C181.928 125.467 182.434 125.572 182.854 125.781C183.273 125.991 183.594 126.271 183.817 126.622C184.041 126.968 184.152 127.354 184.152 127.777H182.888C182.888 127.572 182.826 127.374 182.703 127.183C182.585 126.987 182.409 126.825 182.177 126.697C181.949 126.57 181.669 126.506 181.336 126.506C180.985 126.506 180.7 126.561 180.481 126.67C180.267 126.775 180.11 126.909 180.01 127.073C179.914 127.237 179.866 127.41 179.866 127.593C179.866 127.729 179.889 127.853 179.935 127.962C179.985 128.067 180.071 128.165 180.194 128.256C180.317 128.342 180.491 128.424 180.714 128.502C180.937 128.579 181.222 128.657 181.568 128.734C182.174 128.871 182.674 129.035 183.065 129.227C183.457 129.418 183.749 129.653 183.94 129.931C184.132 130.209 184.228 130.546 184.228 130.942C184.228 131.266 184.159 131.562 184.022 131.831C183.89 132.1 183.697 132.332 183.441 132.528C183.191 132.72 182.89 132.87 182.539 132.979C182.193 133.084 181.803 133.137 181.37 133.137C180.718 133.137 180.167 133.021 179.716 132.788C179.265 132.556 178.923 132.255 178.69 131.886C178.458 131.517 178.342 131.127 178.342 130.717H179.613C179.632 131.063 179.732 131.339 179.914 131.544C180.096 131.744 180.32 131.888 180.584 131.975C180.848 132.057 181.11 132.098 181.37 132.098C181.716 132.098 182.006 132.052 182.238 131.961C182.475 131.87 182.655 131.744 182.778 131.585C182.901 131.425 182.963 131.243 182.963 131.038ZM187.263 125.604V133H185.991V125.604H187.263ZM185.896 123.642C185.896 123.437 185.957 123.263 186.08 123.122C186.208 122.981 186.395 122.91 186.641 122.91C186.882 122.91 187.067 122.981 187.194 123.122C187.326 123.263 187.393 123.437 187.393 123.642C187.393 123.838 187.326 124.006 187.194 124.147C187.067 124.284 186.882 124.353 186.641 124.353C186.395 124.353 186.208 124.284 186.08 124.147C185.957 124.006 185.896 123.838 185.896 123.642ZM192.39 125.604V126.574H188.391V125.604H192.39ZM189.744 123.806H191.009V131.168C191.009 131.419 191.048 131.608 191.125 131.735C191.202 131.863 191.303 131.947 191.426 131.988C191.549 132.029 191.681 132.05 191.822 132.05C191.927 132.05 192.036 132.041 192.15 132.022C192.269 132 192.358 131.981 192.417 131.968L192.424 133C192.324 133.032 192.191 133.062 192.027 133.089C191.868 133.121 191.674 133.137 191.446 133.137C191.136 133.137 190.852 133.075 190.592 132.952C190.332 132.829 190.125 132.624 189.97 132.337C189.819 132.045 189.744 131.653 189.744 131.161V123.806ZM196.942 133.137C196.427 133.137 195.96 133.05 195.541 132.877C195.126 132.699 194.769 132.451 194.468 132.132C194.172 131.813 193.944 131.435 193.784 130.997C193.625 130.56 193.545 130.081 193.545 129.562V129.274C193.545 128.673 193.634 128.137 193.812 127.668C193.989 127.194 194.231 126.793 194.536 126.465C194.841 126.137 195.188 125.888 195.575 125.72C195.963 125.551 196.364 125.467 196.778 125.467C197.307 125.467 197.763 125.558 198.146 125.74C198.533 125.923 198.85 126.178 199.096 126.506C199.342 126.829 199.524 127.212 199.643 127.654C199.761 128.092 199.82 128.57 199.82 129.09V129.657H194.297V128.625H198.556V128.529C198.537 128.201 198.469 127.882 198.351 127.572C198.237 127.262 198.054 127.007 197.804 126.807C197.553 126.606 197.211 126.506 196.778 126.506C196.491 126.506 196.227 126.567 195.985 126.69C195.744 126.809 195.536 126.987 195.363 127.224C195.19 127.461 195.056 127.75 194.96 128.092C194.864 128.434 194.816 128.828 194.816 129.274V129.562C194.816 129.912 194.864 130.243 194.96 130.553C195.06 130.858 195.204 131.127 195.391 131.359C195.582 131.592 195.812 131.774 196.081 131.906C196.354 132.038 196.664 132.104 197.011 132.104C197.457 132.104 197.836 132.013 198.146 131.831C198.455 131.649 198.727 131.405 198.959 131.1L199.725 131.708C199.565 131.95 199.362 132.18 199.116 132.398C198.87 132.617 198.567 132.795 198.207 132.932C197.852 133.068 197.43 133.137 196.942 133.137ZM206.643 131.688L208.543 125.604H209.377L209.213 126.813L207.278 133H206.465L206.643 131.688ZM205.364 125.604L206.984 131.756L207.101 133H206.246L204.1 125.604H205.364ZM211.195 131.708L212.74 125.604H213.998L211.852 133H211.004L211.195 131.708ZM209.562 125.604L211.421 131.585L211.633 133H210.826L208.837 126.8L208.673 125.604H209.562ZM216.671 125.604V133H215.399V125.604H216.671ZM215.304 123.642C215.304 123.437 215.365 123.263 215.488 123.122C215.616 122.981 215.803 122.91 216.049 122.91C216.29 122.91 216.475 122.981 216.603 123.122C216.735 123.263 216.801 123.437 216.801 123.642C216.801 123.838 216.735 124.006 216.603 124.147C216.475 124.284 216.29 124.353 216.049 124.353C215.803 124.353 215.616 124.284 215.488 124.147C215.365 124.006 215.304 123.838 215.304 123.642ZM221.798 125.604V126.574H217.799V125.604H221.798ZM219.152 123.806H220.417V131.168C220.417 131.419 220.456 131.608 220.533 131.735C220.611 131.863 220.711 131.947 220.834 131.988C220.957 132.029 221.089 132.05 221.23 132.05C221.335 132.05 221.445 132.041 221.559 132.022C221.677 132 221.766 131.981 221.825 131.968L221.832 133C221.732 133.032 221.6 133.062 221.436 133.089C221.276 133.121 221.082 133.137 220.854 133.137C220.545 133.137 220.26 133.075 220 132.952C219.74 132.829 219.533 132.624 219.378 132.337C219.228 132.045 219.152 131.653 219.152 131.161V123.806ZM224.546 122.5V133H223.281V122.5H224.546ZM224.245 129.021L223.719 129.001C223.723 128.495 223.799 128.028 223.944 127.6C224.09 127.167 224.295 126.791 224.56 126.472C224.824 126.153 225.138 125.907 225.503 125.733C225.872 125.556 226.28 125.467 226.727 125.467C227.091 125.467 227.419 125.517 227.711 125.617C228.003 125.713 228.251 125.868 228.456 126.082C228.666 126.296 228.825 126.574 228.935 126.916C229.044 127.253 229.099 127.666 229.099 128.153V133H227.827V128.14C227.827 127.752 227.77 127.442 227.656 127.21C227.542 126.973 227.376 126.802 227.157 126.697C226.938 126.588 226.67 126.533 226.351 126.533C226.036 126.533 225.749 126.599 225.489 126.731C225.234 126.864 225.013 127.046 224.826 127.278C224.644 127.511 224.5 127.777 224.396 128.078C224.295 128.374 224.245 128.689 224.245 129.021ZM237.562 125.604V126.574H233.562V125.604H237.562ZM234.916 123.806H236.181V131.168C236.181 131.419 236.219 131.608 236.297 131.735C236.374 131.863 236.475 131.947 236.598 131.988C236.721 132.029 236.853 132.05 236.994 132.05C237.099 132.05 237.208 132.041 237.322 132.022C237.441 132 237.53 131.981 237.589 131.968L237.596 133C237.495 133.032 237.363 133.062 237.199 133.089C237.04 133.121 236.846 133.137 236.618 133.137C236.308 133.137 236.023 133.075 235.764 132.952C235.504 132.829 235.297 132.624 235.142 132.337C234.991 132.045 234.916 131.653 234.916 131.161V123.806ZM240.31 122.5V133H239.045V122.5H240.31ZM240.009 129.021L239.482 129.001C239.487 128.495 239.562 128.028 239.708 127.6C239.854 127.167 240.059 126.791 240.323 126.472C240.588 126.153 240.902 125.907 241.267 125.733C241.636 125.556 242.044 125.467 242.49 125.467C242.855 125.467 243.183 125.517 243.475 125.617C243.766 125.713 244.015 125.868 244.22 126.082C244.429 126.296 244.589 126.574 244.698 126.916C244.808 127.253 244.862 127.666 244.862 128.153V133H243.591V128.14C243.591 127.752 243.534 127.442 243.42 127.21C243.306 126.973 243.14 126.802 242.921 126.697C242.702 126.588 242.433 126.533 242.114 126.533C241.8 126.533 241.513 126.599 241.253 126.731C240.998 126.864 240.777 127.046 240.59 127.278C240.408 127.511 240.264 127.777 240.159 128.078C240.059 128.374 240.009 128.689 240.009 129.021ZM249.825 133.137C249.31 133.137 248.843 133.05 248.424 132.877C248.009 132.699 247.651 132.451 247.351 132.132C247.054 131.813 246.826 131.435 246.667 130.997C246.507 130.56 246.428 130.081 246.428 129.562V129.274C246.428 128.673 246.517 128.137 246.694 127.668C246.872 127.194 247.114 126.793 247.419 126.465C247.724 126.137 248.071 125.888 248.458 125.72C248.845 125.551 249.246 125.467 249.661 125.467C250.19 125.467 250.646 125.558 251.028 125.74C251.416 125.923 251.732 126.178 251.979 126.506C252.225 126.829 252.407 127.212 252.525 127.654C252.644 128.092 252.703 128.57 252.703 129.09V129.657H247.18V128.625H251.438V128.529C251.42 128.201 251.352 127.882 251.233 127.572C251.119 127.262 250.937 127.007 250.687 126.807C250.436 126.606 250.094 126.506 249.661 126.506C249.374 126.506 249.11 126.567 248.868 126.69C248.627 126.809 248.419 126.987 248.246 127.224C248.073 127.461 247.938 127.75 247.843 128.092C247.747 128.434 247.699 128.828 247.699 129.274V129.562C247.699 129.912 247.747 130.243 247.843 130.553C247.943 130.858 248.087 131.127 248.273 131.359C248.465 131.592 248.695 131.774 248.964 131.906C249.237 132.038 249.547 132.104 249.894 132.104C250.34 132.104 250.718 132.013 251.028 131.831C251.338 131.649 251.609 131.405 251.842 131.1L252.607 131.708C252.448 131.95 252.245 132.18 251.999 132.398C251.753 132.617 251.45 132.795 251.09 132.932C250.734 133.068 250.313 133.137 249.825 133.137ZM264.167 131.927V133H258.896V131.927H264.167ZM259.163 123.047V133H257.844V123.047H259.163ZM263.47 127.326V128.399H258.896V127.326H263.47ZM264.099 123.047V124.127H258.896V123.047H264.099ZM266.874 127.183V133H265.609V125.604H266.806L266.874 127.183ZM266.573 129.021L266.047 129.001C266.051 128.495 266.127 128.028 266.272 127.6C266.418 127.167 266.623 126.791 266.888 126.472C267.152 126.153 267.466 125.907 267.831 125.733C268.2 125.556 268.608 125.467 269.055 125.467C269.419 125.467 269.747 125.517 270.039 125.617C270.331 125.713 270.579 125.868 270.784 126.082C270.994 126.296 271.153 126.574 271.263 126.916C271.372 127.253 271.427 127.666 271.427 128.153V133H270.155V128.14C270.155 127.752 270.098 127.442 269.984 127.21C269.87 126.973 269.704 126.802 269.485 126.697C269.267 126.588 268.998 126.533 268.679 126.533C268.364 126.533 268.077 126.599 267.817 126.731C267.562 126.864 267.341 127.046 267.154 127.278C266.972 127.511 266.828 127.777 266.724 128.078C266.623 128.374 266.573 128.689 266.573 129.021ZM276.444 125.604V126.574H272.445V125.604H276.444ZM273.799 123.806H275.063V131.168C275.063 131.419 275.102 131.608 275.18 131.735C275.257 131.863 275.357 131.947 275.48 131.988C275.604 132.029 275.736 132.05 275.877 132.05C275.982 132.05 276.091 132.041 276.205 132.022C276.324 132 276.412 131.981 276.472 131.968L276.479 133C276.378 133.032 276.246 133.062 276.082 133.089C275.923 133.121 275.729 133.137 275.501 133.137C275.191 133.137 274.906 133.075 274.646 132.952C274.387 132.829 274.179 132.624 274.024 132.337C273.874 132.045 273.799 131.653 273.799 131.161V123.806ZM280.997 133.137C280.482 133.137 280.015 133.05 279.596 132.877C279.181 132.699 278.823 132.451 278.522 132.132C278.226 131.813 277.998 131.435 277.839 130.997C277.679 130.56 277.6 130.081 277.6 129.562V129.274C277.6 128.673 277.688 128.137 277.866 127.668C278.044 127.194 278.285 126.793 278.591 126.465C278.896 126.137 279.243 125.888 279.63 125.72C280.017 125.551 280.418 125.467 280.833 125.467C281.362 125.467 281.817 125.558 282.2 125.74C282.588 125.923 282.904 126.178 283.15 126.506C283.396 126.829 283.579 127.212 283.697 127.654C283.816 128.092 283.875 128.57 283.875 129.09V129.657H278.352V128.625H282.61V128.529C282.592 128.201 282.524 127.882 282.405 127.572C282.291 127.262 282.109 127.007 281.858 126.807C281.608 126.606 281.266 126.506 280.833 126.506C280.546 126.506 280.282 126.567 280.04 126.69C279.799 126.809 279.591 126.987 279.418 127.224C279.245 127.461 279.11 127.75 279.015 128.092C278.919 128.434 278.871 128.828 278.871 129.274V129.562C278.871 129.912 278.919 130.243 279.015 130.553C279.115 130.858 279.258 131.127 279.445 131.359C279.637 131.592 279.867 131.774 280.136 131.906C280.409 132.038 280.719 132.104 281.065 132.104C281.512 132.104 281.89 132.013 282.2 131.831C282.51 131.649 282.781 131.405 283.014 131.1L283.779 131.708C283.62 131.95 283.417 132.18 283.171 132.398C282.925 132.617 282.622 132.795 282.262 132.932C281.906 133.068 281.485 133.137 280.997 133.137ZM286.616 126.766V133H285.352V125.604H286.582L286.616 126.766ZM288.927 125.562L288.92 126.738C288.815 126.715 288.715 126.702 288.619 126.697C288.528 126.688 288.423 126.684 288.305 126.684C288.013 126.684 287.756 126.729 287.532 126.82C287.309 126.911 287.12 127.039 286.965 127.203C286.81 127.367 286.687 127.563 286.596 127.791C286.509 128.014 286.452 128.26 286.425 128.529L286.069 128.734C286.069 128.288 286.113 127.868 286.199 127.477C286.29 127.085 286.429 126.738 286.616 126.438C286.803 126.132 287.04 125.895 287.327 125.727C287.619 125.553 287.965 125.467 288.366 125.467C288.457 125.467 288.562 125.478 288.681 125.501C288.799 125.519 288.881 125.54 288.927 125.562ZM291.36 127.025V135.844H290.089V125.604H291.251L291.36 127.025ZM296.344 129.24V129.384C296.344 129.922 296.28 130.421 296.152 130.881C296.025 131.337 295.838 131.733 295.592 132.07C295.35 132.408 295.052 132.67 294.696 132.856C294.341 133.043 293.933 133.137 293.473 133.137C293.003 133.137 292.589 133.059 292.229 132.904C291.868 132.749 291.563 132.524 291.312 132.228C291.062 131.931 290.861 131.576 290.711 131.161C290.565 130.746 290.465 130.279 290.41 129.76V128.994C290.465 128.447 290.567 127.957 290.718 127.524C290.868 127.091 291.066 126.722 291.312 126.417C291.563 126.107 291.866 125.872 292.222 125.713C292.577 125.549 292.987 125.467 293.452 125.467C293.917 125.467 294.329 125.558 294.689 125.74C295.049 125.918 295.353 126.173 295.599 126.506C295.845 126.839 296.029 127.237 296.152 127.702C296.28 128.162 296.344 128.675 296.344 129.24ZM295.072 129.384V129.24C295.072 128.871 295.034 128.525 294.956 128.201C294.879 127.873 294.758 127.586 294.594 127.34C294.434 127.089 294.229 126.893 293.979 126.752C293.728 126.606 293.429 126.533 293.083 126.533C292.764 126.533 292.486 126.588 292.249 126.697C292.017 126.807 291.818 126.955 291.654 127.142C291.49 127.324 291.356 127.534 291.251 127.771C291.151 128.003 291.076 128.244 291.025 128.495V130.266C291.117 130.585 291.244 130.885 291.408 131.168C291.572 131.446 291.791 131.672 292.064 131.845C292.338 132.013 292.682 132.098 293.097 132.098C293.438 132.098 293.732 132.027 293.979 131.886C294.229 131.74 294.434 131.542 294.594 131.291C294.758 131.04 294.879 130.753 294.956 130.43C295.034 130.102 295.072 129.753 295.072 129.384ZM299.222 126.766V133H297.957V125.604H299.188L299.222 126.766ZM301.532 125.562L301.525 126.738C301.421 126.715 301.32 126.702 301.225 126.697C301.133 126.688 301.029 126.684 300.91 126.684C300.618 126.684 300.361 126.729 300.138 126.82C299.914 126.911 299.725 127.039 299.57 127.203C299.415 127.367 299.292 127.563 299.201 127.791C299.115 128.014 299.058 128.26 299.03 128.529L298.675 128.734C298.675 128.288 298.718 127.868 298.805 127.477C298.896 127.085 299.035 126.738 299.222 126.438C299.409 126.132 299.646 125.895 299.933 125.727C300.224 125.553 300.571 125.467 300.972 125.467C301.063 125.467 301.168 125.478 301.286 125.501C301.405 125.519 301.487 125.54 301.532 125.562ZM304.075 125.604V133H302.804V125.604H304.075ZM302.708 123.642C302.708 123.437 302.77 123.263 302.893 123.122C303.02 122.981 303.207 122.91 303.453 122.91C303.695 122.91 303.879 122.981 304.007 123.122C304.139 123.263 304.205 123.437 304.205 123.642C304.205 123.838 304.139 124.006 304.007 124.147C303.879 124.284 303.695 124.353 303.453 124.353C303.207 124.353 303.02 124.284 302.893 124.147C302.77 124.006 302.708 123.838 302.708 123.642ZM310.412 131.038C310.412 130.856 310.371 130.687 310.289 130.532C310.212 130.373 310.05 130.229 309.804 130.102C309.562 129.969 309.198 129.855 308.71 129.76C308.3 129.673 307.928 129.571 307.596 129.452C307.268 129.334 306.987 129.19 306.755 129.021C306.527 128.853 306.352 128.655 306.229 128.427C306.105 128.199 306.044 127.932 306.044 127.627C306.044 127.335 306.108 127.06 306.235 126.8C306.368 126.54 306.552 126.31 306.789 126.109C307.031 125.909 307.32 125.752 307.657 125.638C307.994 125.524 308.37 125.467 308.785 125.467C309.378 125.467 309.883 125.572 310.303 125.781C310.722 125.991 311.043 126.271 311.267 126.622C311.49 126.968 311.602 127.354 311.602 127.777H310.337C310.337 127.572 310.275 127.374 310.152 127.183C310.034 126.987 309.858 126.825 309.626 126.697C309.398 126.57 309.118 126.506 308.785 126.506C308.434 126.506 308.149 126.561 307.931 126.67C307.716 126.775 307.559 126.909 307.459 127.073C307.363 127.237 307.315 127.41 307.315 127.593C307.315 127.729 307.338 127.853 307.384 127.962C307.434 128.067 307.521 128.165 307.644 128.256C307.767 128.342 307.94 128.424 308.163 128.502C308.386 128.579 308.671 128.657 309.018 128.734C309.624 128.871 310.123 129.035 310.515 129.227C310.907 129.418 311.198 129.653 311.39 129.931C311.581 130.209 311.677 130.546 311.677 130.942C311.677 131.266 311.608 131.562 311.472 131.831C311.34 132.1 311.146 132.332 310.891 132.528C310.64 132.72 310.339 132.87 309.988 132.979C309.642 133.084 309.252 133.137 308.819 133.137C308.168 133.137 307.616 133.021 307.165 132.788C306.714 132.556 306.372 132.255 306.14 131.886C305.907 131.517 305.791 131.127 305.791 130.717H307.062C307.081 131.063 307.181 131.339 307.363 131.544C307.546 131.744 307.769 131.888 308.033 131.975C308.298 132.057 308.56 132.098 308.819 132.098C309.166 132.098 309.455 132.052 309.688 131.961C309.924 131.87 310.104 131.744 310.228 131.585C310.351 131.425 310.412 131.243 310.412 131.038ZM316.407 133.137C315.892 133.137 315.425 133.05 315.006 132.877C314.591 132.699 314.233 132.451 313.933 132.132C313.636 131.813 313.409 131.435 313.249 130.997C313.09 130.56 313.01 130.081 313.01 129.562V129.274C313.01 128.673 313.099 128.137 313.276 127.668C313.454 127.194 313.696 126.793 314.001 126.465C314.306 126.137 314.653 125.888 315.04 125.72C315.427 125.551 315.828 125.467 316.243 125.467C316.772 125.467 317.228 125.558 317.61 125.74C317.998 125.923 318.314 126.178 318.561 126.506C318.807 126.829 318.989 127.212 319.107 127.654C319.226 128.092 319.285 128.57 319.285 129.09V129.657H313.762V128.625H318.021V128.529C318.002 128.201 317.934 127.882 317.815 127.572C317.701 127.262 317.519 127.007 317.269 126.807C317.018 126.606 316.676 126.506 316.243 126.506C315.956 126.506 315.692 126.567 315.45 126.69C315.209 126.809 315.001 126.987 314.828 127.224C314.655 127.461 314.521 127.75 314.425 128.092C314.329 128.434 314.281 128.828 314.281 129.274V129.562C314.281 129.912 314.329 130.243 314.425 130.553C314.525 130.858 314.669 131.127 314.855 131.359C315.047 131.592 315.277 131.774 315.546 131.906C315.819 132.038 316.129 132.104 316.476 132.104C316.922 132.104 317.3 132.013 317.61 131.831C317.92 131.649 318.191 131.405 318.424 131.1L319.189 131.708C319.03 131.95 318.827 132.18 318.581 132.398C318.335 132.617 318.032 132.795 317.672 132.932C317.316 133.068 316.895 133.137 316.407 133.137ZM329.73 130.484C329.73 130.252 329.694 130.047 329.621 129.869C329.553 129.687 329.43 129.523 329.252 129.377C329.079 129.231 328.837 129.092 328.527 128.96C328.222 128.828 327.835 128.693 327.365 128.557C326.873 128.411 326.429 128.249 326.032 128.071C325.636 127.889 325.296 127.682 325.014 127.449C324.731 127.217 324.515 126.95 324.364 126.649C324.214 126.349 324.139 126.005 324.139 125.617C324.139 125.23 324.218 124.872 324.378 124.544C324.537 124.216 324.765 123.931 325.062 123.689C325.362 123.443 325.72 123.252 326.135 123.115C326.549 122.979 327.012 122.91 327.522 122.91C328.27 122.91 328.903 123.054 329.423 123.341C329.947 123.623 330.346 123.995 330.619 124.455C330.893 124.911 331.029 125.398 331.029 125.918H329.717C329.717 125.544 329.637 125.214 329.478 124.927C329.318 124.635 329.076 124.407 328.753 124.243C328.429 124.075 328.019 123.99 327.522 123.99C327.053 123.99 326.666 124.061 326.36 124.202C326.055 124.343 325.827 124.535 325.677 124.776C325.531 125.018 325.458 125.294 325.458 125.604C325.458 125.813 325.501 126.005 325.588 126.178C325.679 126.346 325.818 126.504 326.005 126.649C326.196 126.795 326.438 126.93 326.729 127.053C327.026 127.176 327.379 127.294 327.789 127.408C328.354 127.568 328.842 127.745 329.252 127.941C329.662 128.137 329.999 128.358 330.264 128.604C330.533 128.846 330.731 129.122 330.858 129.432C330.991 129.737 331.057 130.083 331.057 130.471C331.057 130.876 330.975 131.243 330.811 131.571C330.646 131.899 330.412 132.18 330.106 132.412C329.801 132.645 329.434 132.825 329.006 132.952C328.582 133.075 328.108 133.137 327.584 133.137C327.124 133.137 326.67 133.073 326.224 132.945C325.782 132.818 325.378 132.626 325.014 132.371C324.654 132.116 324.364 131.801 324.146 131.428C323.931 131.049 323.824 130.612 323.824 130.115H325.137C325.137 130.457 325.203 130.751 325.335 130.997C325.467 131.239 325.647 131.439 325.875 131.599C326.107 131.758 326.369 131.877 326.661 131.954C326.957 132.027 327.265 132.063 327.584 132.063C328.044 132.063 328.434 132 328.753 131.872C329.072 131.744 329.313 131.562 329.478 131.325C329.646 131.088 329.73 130.808 329.73 130.484ZM335.616 133.137C335.101 133.137 334.634 133.05 334.215 132.877C333.8 132.699 333.442 132.451 333.142 132.132C332.845 131.813 332.618 131.435 332.458 130.997C332.299 130.56 332.219 130.081 332.219 129.562V129.274C332.219 128.673 332.308 128.137 332.485 127.668C332.663 127.194 332.905 126.793 333.21 126.465C333.515 126.137 333.862 125.888 334.249 125.72C334.636 125.551 335.037 125.467 335.452 125.467C335.981 125.467 336.437 125.558 336.819 125.74C337.207 125.923 337.523 126.178 337.77 126.506C338.016 126.829 338.198 127.212 338.316 127.654C338.435 128.092 338.494 128.57 338.494 129.09V129.657H332.971V128.625H337.229V128.529C337.211 128.201 337.143 127.882 337.024 127.572C336.91 127.262 336.728 127.007 336.478 126.807C336.227 126.606 335.885 126.506 335.452 126.506C335.165 126.506 334.901 126.567 334.659 126.69C334.418 126.809 334.21 126.987 334.037 127.224C333.864 127.461 333.729 127.75 333.634 128.092C333.538 128.434 333.49 128.828 333.49 129.274V129.562C333.49 129.912 333.538 130.243 333.634 130.553C333.734 130.858 333.878 131.127 334.064 131.359C334.256 131.592 334.486 131.774 334.755 131.906C335.028 132.038 335.338 132.104 335.685 132.104C336.131 132.104 336.509 132.013 336.819 131.831C337.129 131.649 337.4 131.405 337.633 131.1L338.398 131.708C338.239 131.95 338.036 132.18 337.79 132.398C337.544 132.617 337.241 132.795 336.881 132.932C336.525 133.068 336.104 133.137 335.616 133.137ZM344.332 131.735V127.928C344.332 127.636 344.273 127.383 344.154 127.169C344.04 126.95 343.867 126.782 343.635 126.663C343.402 126.545 343.115 126.485 342.773 126.485C342.454 126.485 342.174 126.54 341.933 126.649C341.696 126.759 341.509 126.902 341.372 127.08C341.24 127.258 341.174 127.449 341.174 127.654H339.909C339.909 127.39 339.978 127.128 340.114 126.868C340.251 126.608 340.447 126.374 340.702 126.164C340.962 125.95 341.272 125.781 341.632 125.658C341.996 125.531 342.402 125.467 342.849 125.467C343.386 125.467 343.86 125.558 344.271 125.74C344.685 125.923 345.009 126.198 345.241 126.567C345.478 126.932 345.597 127.39 345.597 127.941V131.387C345.597 131.633 345.617 131.895 345.658 132.173C345.704 132.451 345.77 132.69 345.856 132.891V133H344.537C344.473 132.854 344.423 132.66 344.387 132.419C344.35 132.173 344.332 131.945 344.332 131.735ZM344.551 128.516L344.564 129.404H343.286C342.926 129.404 342.605 129.434 342.322 129.493C342.04 129.548 341.803 129.632 341.611 129.746C341.42 129.86 341.274 130.004 341.174 130.177C341.074 130.345 341.023 130.544 341.023 130.771C341.023 131.004 341.076 131.216 341.181 131.407C341.285 131.599 341.443 131.751 341.652 131.865C341.867 131.975 342.129 132.029 342.438 132.029C342.826 132.029 343.168 131.947 343.464 131.783C343.76 131.619 343.995 131.419 344.168 131.182C344.346 130.945 344.441 130.715 344.455 130.491L344.995 131.1C344.963 131.291 344.877 131.503 344.735 131.735C344.594 131.968 344.405 132.191 344.168 132.405C343.936 132.615 343.658 132.79 343.334 132.932C343.015 133.068 342.655 133.137 342.254 133.137C341.753 133.137 341.313 133.039 340.935 132.843C340.561 132.647 340.269 132.385 340.06 132.057C339.854 131.724 339.752 131.353 339.752 130.942C339.752 130.546 339.829 130.197 339.984 129.896C340.139 129.591 340.363 129.338 340.654 129.138C340.946 128.933 341.297 128.778 341.707 128.673C342.117 128.568 342.575 128.516 343.081 128.516H344.551ZM348.851 126.766V133H347.586V125.604H348.816L348.851 126.766ZM351.161 125.562L351.154 126.738C351.049 126.715 350.949 126.702 350.854 126.697C350.762 126.688 350.658 126.684 350.539 126.684C350.247 126.684 349.99 126.729 349.767 126.82C349.543 126.911 349.354 127.039 349.199 127.203C349.044 127.367 348.921 127.563 348.83 127.791C348.743 128.014 348.687 128.26 348.659 128.529L348.304 128.734C348.304 128.288 348.347 127.868 348.434 127.477C348.525 127.085 348.664 126.738 348.851 126.438C349.037 126.132 349.274 125.895 349.562 125.727C349.853 125.553 350.2 125.467 350.601 125.467C350.692 125.467 350.797 125.478 350.915 125.501C351.034 125.519 351.116 125.54 351.161 125.562ZM355.153 132.098C355.454 132.098 355.732 132.036 355.987 131.913C356.243 131.79 356.452 131.621 356.616 131.407C356.78 131.188 356.874 130.94 356.896 130.662H358.1C358.077 131.1 357.929 131.507 357.655 131.886C357.386 132.259 357.033 132.562 356.596 132.795C356.158 133.023 355.677 133.137 355.153 133.137C354.597 133.137 354.112 133.039 353.697 132.843C353.287 132.647 352.945 132.378 352.672 132.036C352.403 131.694 352.2 131.302 352.063 130.86C351.931 130.414 351.865 129.942 351.865 129.445V129.158C351.865 128.661 351.931 128.192 352.063 127.75C352.2 127.303 352.403 126.909 352.672 126.567C352.945 126.226 353.287 125.957 353.697 125.761C354.112 125.565 354.597 125.467 355.153 125.467C355.732 125.467 356.238 125.585 356.671 125.822C357.104 126.055 357.443 126.374 357.689 126.779C357.94 127.18 358.077 127.636 358.1 128.146H356.896C356.874 127.841 356.787 127.565 356.637 127.319C356.491 127.073 356.29 126.877 356.035 126.731C355.785 126.581 355.491 126.506 355.153 126.506C354.766 126.506 354.44 126.583 354.176 126.738C353.916 126.889 353.709 127.094 353.554 127.354C353.403 127.609 353.294 127.894 353.226 128.208C353.162 128.518 353.13 128.835 353.13 129.158V129.445C353.13 129.769 353.162 130.088 353.226 130.402C353.289 130.717 353.396 131.002 353.547 131.257C353.702 131.512 353.909 131.717 354.169 131.872C354.433 132.022 354.761 132.098 355.153 132.098ZM360.786 122.5V133H359.521V122.5H360.786ZM360.485 129.021L359.959 129.001C359.964 128.495 360.039 128.028 360.185 127.6C360.33 127.167 360.535 126.791 360.8 126.472C361.064 126.153 361.379 125.907 361.743 125.733C362.112 125.556 362.52 125.467 362.967 125.467C363.331 125.467 363.66 125.517 363.951 125.617C364.243 125.713 364.491 125.868 364.696 126.082C364.906 126.296 365.065 126.574 365.175 126.916C365.284 127.253 365.339 127.666 365.339 128.153V133H364.067V128.14C364.067 127.752 364.01 127.442 363.896 127.21C363.783 126.973 363.616 126.802 363.397 126.697C363.179 126.588 362.91 126.533 362.591 126.533C362.276 126.533 361.989 126.599 361.729 126.731C361.474 126.864 361.253 127.046 361.066 127.278C360.884 127.511 360.741 127.777 360.636 128.078C360.535 128.374 360.485 128.689 360.485 129.021ZM163.638 150.992L165.613 144.047H166.57L166.017 146.747L163.891 154H162.94L163.638 150.992ZM161.594 144.047L163.166 150.855L163.638 154H162.694L160.281 144.047H161.594ZM169.127 150.849L170.665 144.047H171.984L169.578 154H168.635L169.127 150.849ZM166.714 144.047L168.635 150.992L169.332 154H168.382L166.331 146.747L165.771 144.047H166.714ZM176.106 154.137C175.591 154.137 175.124 154.05 174.705 153.877C174.29 153.699 173.933 153.451 173.632 153.132C173.336 152.813 173.108 152.435 172.948 151.997C172.789 151.56 172.709 151.081 172.709 150.562V150.274C172.709 149.673 172.798 149.137 172.976 148.668C173.153 148.194 173.395 147.793 173.7 147.465C174.006 147.137 174.352 146.888 174.739 146.72C175.127 146.551 175.528 146.467 175.942 146.467C176.471 146.467 176.927 146.558 177.31 146.74C177.697 146.923 178.014 147.178 178.26 147.506C178.506 147.829 178.688 148.212 178.807 148.654C178.925 149.092 178.984 149.57 178.984 150.09V150.657H173.461V149.625H177.72V149.529C177.701 149.201 177.633 148.882 177.515 148.572C177.401 148.262 177.218 148.007 176.968 147.807C176.717 147.606 176.375 147.506 175.942 147.506C175.655 147.506 175.391 147.567 175.149 147.69C174.908 147.809 174.701 147.987 174.527 148.224C174.354 148.461 174.22 148.75 174.124 149.092C174.028 149.434 173.98 149.828 173.98 150.274V150.562C173.98 150.912 174.028 151.243 174.124 151.553C174.224 151.858 174.368 152.127 174.555 152.359C174.746 152.592 174.976 152.774 175.245 152.906C175.519 153.038 175.828 153.104 176.175 153.104C176.621 153.104 177 153.013 177.31 152.831C177.619 152.649 177.891 152.405 178.123 152.1L178.889 152.708C178.729 152.95 178.526 153.18 178.28 153.398C178.034 153.617 177.731 153.795 177.371 153.932C177.016 154.068 176.594 154.137 176.106 154.137ZM180.454 143.5H181.726V152.564L181.616 154H180.454V143.5ZM186.723 150.24V150.384C186.723 150.922 186.659 151.421 186.531 151.881C186.404 152.337 186.217 152.733 185.971 153.07C185.725 153.408 185.424 153.67 185.068 153.856C184.713 154.043 184.305 154.137 183.845 154.137C183.375 154.137 182.963 154.057 182.607 153.897C182.257 153.733 181.96 153.499 181.719 153.193C181.477 152.888 181.284 152.519 181.138 152.086C180.996 151.653 180.898 151.165 180.844 150.623V149.994C180.898 149.447 180.996 148.957 181.138 148.524C181.284 148.091 181.477 147.722 181.719 147.417C181.96 147.107 182.257 146.872 182.607 146.713C182.958 146.549 183.366 146.467 183.831 146.467C184.296 146.467 184.708 146.558 185.068 146.74C185.428 146.918 185.729 147.173 185.971 147.506C186.217 147.839 186.404 148.237 186.531 148.702C186.659 149.162 186.723 149.675 186.723 150.24ZM185.451 150.384V150.24C185.451 149.871 185.417 149.525 185.349 149.201C185.28 148.873 185.171 148.586 185.021 148.34C184.87 148.089 184.672 147.893 184.426 147.752C184.18 147.606 183.877 147.533 183.517 147.533C183.198 147.533 182.92 147.588 182.683 147.697C182.45 147.807 182.252 147.955 182.088 148.142C181.924 148.324 181.789 148.534 181.685 148.771C181.584 149.003 181.509 149.244 181.459 149.495V151.143C181.532 151.462 181.65 151.769 181.814 152.065C181.983 152.357 182.206 152.596 182.484 152.783C182.767 152.97 183.116 153.063 183.53 153.063C183.872 153.063 184.164 152.995 184.405 152.858C184.651 152.717 184.85 152.523 185 152.277C185.155 152.031 185.269 151.746 185.342 151.423C185.415 151.099 185.451 150.753 185.451 150.384ZM197.995 150.835H199.308C199.239 151.464 199.059 152.027 198.768 152.523C198.476 153.02 198.063 153.414 197.53 153.706C196.997 153.993 196.332 154.137 195.534 154.137C194.951 154.137 194.42 154.027 193.941 153.809C193.467 153.59 193.06 153.28 192.718 152.879C192.376 152.473 192.112 151.988 191.925 151.423C191.743 150.853 191.651 150.22 191.651 149.522V148.531C191.651 147.834 191.743 147.203 191.925 146.638C192.112 146.068 192.378 145.58 192.725 145.175C193.076 144.769 193.497 144.457 193.989 144.238C194.481 144.02 195.035 143.91 195.65 143.91C196.402 143.91 197.038 144.051 197.558 144.334C198.077 144.617 198.48 145.008 198.768 145.51C199.059 146.007 199.239 146.583 199.308 147.239H197.995C197.931 146.774 197.813 146.376 197.64 146.043C197.466 145.706 197.22 145.446 196.901 145.264C196.582 145.081 196.165 144.99 195.65 144.99C195.208 144.99 194.819 145.075 194.481 145.243C194.149 145.412 193.868 145.651 193.641 145.961C193.417 146.271 193.249 146.642 193.135 147.075C193.021 147.508 192.964 147.989 192.964 148.518V149.522C192.964 150.01 193.014 150.468 193.114 150.896C193.219 151.325 193.376 151.701 193.586 152.024C193.796 152.348 194.062 152.603 194.386 152.79C194.709 152.972 195.092 153.063 195.534 153.063C196.095 153.063 196.541 152.975 196.874 152.797C197.207 152.619 197.457 152.364 197.626 152.031C197.799 151.699 197.922 151.3 197.995 150.835ZM202.179 147.766V154H200.914V146.604H202.145L202.179 147.766ZM204.489 146.562L204.482 147.738C204.378 147.715 204.277 147.702 204.182 147.697C204.09 147.688 203.986 147.684 203.867 147.684C203.576 147.684 203.318 147.729 203.095 147.82C202.871 147.911 202.682 148.039 202.527 148.203C202.372 148.367 202.249 148.563 202.158 148.791C202.072 149.014 202.015 149.26 201.987 149.529L201.632 149.734C201.632 149.288 201.675 148.868 201.762 148.477C201.853 148.085 201.992 147.738 202.179 147.438C202.366 147.132 202.603 146.895 202.89 146.727C203.181 146.553 203.528 146.467 203.929 146.467C204.02 146.467 204.125 146.478 204.243 146.501C204.362 146.519 204.444 146.54 204.489 146.562ZM209.746 152.735V148.928C209.746 148.636 209.687 148.383 209.568 148.169C209.454 147.95 209.281 147.782 209.049 147.663C208.816 147.545 208.529 147.485 208.188 147.485C207.868 147.485 207.588 147.54 207.347 147.649C207.11 147.759 206.923 147.902 206.786 148.08C206.654 148.258 206.588 148.449 206.588 148.654H205.323C205.323 148.39 205.392 148.128 205.528 147.868C205.665 147.608 205.861 147.374 206.116 147.164C206.376 146.95 206.686 146.781 207.046 146.658C207.41 146.531 207.816 146.467 208.263 146.467C208.8 146.467 209.274 146.558 209.685 146.74C210.099 146.923 210.423 147.198 210.655 147.567C210.892 147.932 211.011 148.39 211.011 148.941V152.387C211.011 152.633 211.031 152.895 211.072 153.173C211.118 153.451 211.184 153.69 211.271 153.891V154H209.951C209.887 153.854 209.837 153.66 209.801 153.419C209.764 153.173 209.746 152.945 209.746 152.735ZM209.965 149.516L209.979 150.404H208.7C208.34 150.404 208.019 150.434 207.736 150.493C207.454 150.548 207.217 150.632 207.025 150.746C206.834 150.86 206.688 151.004 206.588 151.177C206.488 151.345 206.438 151.544 206.438 151.771C206.438 152.004 206.49 152.216 206.595 152.407C206.7 152.599 206.857 152.751 207.066 152.865C207.281 152.975 207.543 153.029 207.853 153.029C208.24 153.029 208.582 152.947 208.878 152.783C209.174 152.619 209.409 152.419 209.582 152.182C209.76 151.945 209.855 151.715 209.869 151.491L210.409 152.1C210.377 152.291 210.291 152.503 210.149 152.735C210.008 152.968 209.819 153.191 209.582 153.405C209.35 153.615 209.072 153.79 208.748 153.932C208.429 154.068 208.069 154.137 207.668 154.137C207.167 154.137 206.727 154.039 206.349 153.843C205.975 153.647 205.683 153.385 205.474 153.057C205.269 152.724 205.166 152.353 205.166 151.942C205.166 151.546 205.243 151.197 205.398 150.896C205.553 150.591 205.777 150.338 206.068 150.138C206.36 149.933 206.711 149.778 207.121 149.673C207.531 149.568 207.989 149.516 208.495 149.516H209.965ZM214.873 152.688L216.773 146.604H217.607L217.443 147.813L215.509 154H214.695L214.873 152.688ZM213.595 146.604L215.215 152.756L215.331 154H214.477L212.33 146.604H213.595ZM219.426 152.708L220.971 146.604H222.229L220.082 154H219.234L219.426 152.708ZM217.792 146.604L219.651 152.585L219.863 154H219.057L217.067 147.8L216.903 146.604H217.792ZM224.901 143.5V154H223.63V143.5H224.901ZM230.001 154.137C229.486 154.137 229.019 154.05 228.6 153.877C228.185 153.699 227.827 153.451 227.526 153.132C227.23 152.813 227.002 152.435 226.843 151.997C226.683 151.56 226.604 151.081 226.604 150.562V150.274C226.604 149.673 226.692 149.137 226.87 148.668C227.048 148.194 227.289 147.793 227.595 147.465C227.9 147.137 228.246 146.888 228.634 146.72C229.021 146.551 229.422 146.467 229.837 146.467C230.366 146.467 230.821 146.558 231.204 146.74C231.591 146.923 231.908 147.178 232.154 147.506C232.4 147.829 232.583 148.212 232.701 148.654C232.82 149.092 232.879 149.57 232.879 150.09V150.657H227.355V149.625H231.614V149.529C231.596 149.201 231.528 148.882 231.409 148.572C231.295 148.262 231.113 148.007 230.862 147.807C230.612 147.606 230.27 147.506 229.837 147.506C229.55 147.506 229.285 147.567 229.044 147.69C228.802 147.809 228.595 147.987 228.422 148.224C228.249 148.461 228.114 148.75 228.019 149.092C227.923 149.434 227.875 149.828 227.875 150.274V150.562C227.875 150.912 227.923 151.243 228.019 151.553C228.119 151.858 228.262 152.127 228.449 152.359C228.641 152.592 228.871 152.774 229.14 152.906C229.413 153.038 229.723 153.104 230.069 153.104C230.516 153.104 230.894 153.013 231.204 152.831C231.514 152.649 231.785 152.405 232.018 152.1L232.783 152.708C232.624 152.95 232.421 153.18 232.175 153.398C231.929 153.617 231.626 153.795 231.266 153.932C230.91 154.068 230.489 154.137 230.001 154.137ZM235.62 147.766V154H234.355V146.604H235.586L235.62 147.766ZM237.931 146.562L237.924 147.738C237.819 147.715 237.719 147.702 237.623 147.697C237.532 147.688 237.427 147.684 237.309 147.684C237.017 147.684 236.759 147.729 236.536 147.82C236.313 147.911 236.124 148.039 235.969 148.203C235.814 148.367 235.691 148.563 235.6 148.791C235.513 149.014 235.456 149.26 235.429 149.529L235.073 149.734C235.073 149.288 235.117 148.868 235.203 148.477C235.294 148.085 235.433 147.738 235.62 147.438C235.807 147.132 236.044 146.895 236.331 146.727C236.623 146.553 236.969 146.467 237.37 146.467C237.461 146.467 237.566 146.478 237.685 146.501C237.803 146.519 237.885 146.54 237.931 146.562Z" fill="white"/>
</g>
<rect x="30" y="197" width="338" height="40" rx="6" fill="#006AA2"/>
<path d="M184.631 214.993C184.578 214.522 184.359 214.158 183.975 213.899C183.59 213.637 183.106 213.506 182.523 213.506C182.105 213.506 181.744 213.573 181.439 213.705C181.134 213.835 180.897 214.014 180.728 214.242C180.562 214.468 180.48 214.724 180.48 215.013C180.48 215.255 180.536 215.464 180.649 215.639C180.765 215.815 180.915 215.962 181.101 216.082C181.29 216.198 181.492 216.295 181.708 216.375C181.923 216.451 182.13 216.514 182.329 216.564L183.323 216.822C183.648 216.902 183.981 217.01 184.323 217.146C184.664 217.282 184.981 217.46 185.272 217.683C185.564 217.905 185.799 218.18 185.978 218.508C186.16 218.836 186.252 219.229 186.252 219.686C186.252 220.263 186.102 220.775 185.804 221.222C185.509 221.67 185.08 222.023 184.517 222.281C183.956 222.54 183.279 222.669 182.483 222.669C181.721 222.669 181.061 222.548 180.504 222.306C179.948 222.064 179.512 221.721 179.197 221.277C178.882 220.83 178.708 220.299 178.675 219.686H180.216C180.246 220.054 180.365 220.361 180.574 220.606C180.786 220.848 181.056 221.028 181.384 221.148C181.716 221.264 182.079 221.322 182.473 221.322C182.907 221.322 183.294 221.254 183.632 221.118C183.973 220.979 184.241 220.786 184.437 220.541C184.633 220.293 184.73 220.003 184.73 219.671C184.73 219.37 184.644 219.123 184.472 218.93C184.303 218.738 184.072 218.579 183.781 218.453C183.492 218.327 183.166 218.216 182.801 218.12L181.598 217.792C180.783 217.57 180.137 217.243 179.659 216.813C179.185 216.382 178.948 215.812 178.948 215.102C178.948 214.516 179.107 214.004 179.426 213.566C179.744 213.129 180.175 212.789 180.718 212.547C181.262 212.302 181.875 212.179 182.558 212.179C183.247 212.179 183.855 212.3 184.382 212.542C184.913 212.784 185.33 213.117 185.635 213.541C185.94 213.962 186.099 214.446 186.112 214.993H184.631ZM191.259 222.654C190.507 222.654 189.859 222.493 189.315 222.172C188.775 221.847 188.357 221.391 188.062 220.805C187.771 220.215 187.625 219.524 187.625 218.732C187.625 217.949 187.771 217.26 188.062 216.663C188.357 216.067 188.768 215.601 189.295 215.266C189.826 214.932 190.446 214.764 191.155 214.764C191.586 214.764 192.003 214.835 192.408 214.978C192.812 215.121 193.175 215.344 193.496 215.649C193.818 215.954 194.071 216.35 194.257 216.837C194.443 217.321 194.536 217.91 194.536 218.602V219.129H188.465V218.016H193.079C193.079 217.625 192.999 217.278 192.84 216.977C192.681 216.672 192.457 216.431 192.169 216.256C191.884 216.08 191.549 215.992 191.165 215.992C190.747 215.992 190.383 216.095 190.071 216.3C189.763 216.503 189.524 216.768 189.355 217.096C189.189 217.421 189.107 217.774 189.107 218.155V219.025C189.107 219.535 189.196 219.969 189.375 220.327C189.557 220.685 189.811 220.959 190.136 221.148C190.46 221.333 190.84 221.426 191.274 221.426C191.556 221.426 191.813 221.386 192.045 221.307C192.277 221.224 192.477 221.101 192.646 220.939C192.815 220.777 192.945 220.576 193.034 220.337L194.441 220.591C194.328 221.005 194.126 221.368 193.835 221.68C193.546 221.988 193.183 222.228 192.746 222.401C192.312 222.57 191.816 222.654 191.259 222.654ZM197.671 212.318V222.5H196.185V212.318H197.671ZM202.962 222.654C202.21 222.654 201.562 222.493 201.018 222.172C200.478 221.847 200.061 221.391 199.766 220.805C199.474 220.215 199.328 219.524 199.328 218.732C199.328 217.949 199.474 217.26 199.766 216.663C200.061 216.067 200.472 215.601 200.999 215.266C201.529 214.932 202.149 214.764 202.858 214.764C203.289 214.764 203.706 214.835 204.111 214.978C204.515 215.121 204.878 215.344 205.2 215.649C205.521 215.954 205.775 216.35 205.96 216.837C206.146 217.321 206.239 217.91 206.239 218.602V219.129H200.168V218.016H204.782C204.782 217.625 204.702 217.278 204.543 216.977C204.384 216.672 204.161 216.431 203.872 216.256C203.587 216.08 203.252 215.992 202.868 215.992C202.45 215.992 202.086 216.095 201.774 216.3C201.466 216.503 201.227 216.768 201.058 217.096C200.893 217.421 200.81 217.774 200.81 218.155V219.025C200.81 219.535 200.899 219.969 201.078 220.327C201.26 220.685 201.514 220.959 201.839 221.148C202.164 221.333 202.543 221.426 202.977 221.426C203.259 221.426 203.516 221.386 203.748 221.307C203.98 221.224 204.18 221.101 204.349 220.939C204.518 220.777 204.648 220.576 204.737 220.337L206.144 220.591C206.031 221.005 205.829 221.368 205.538 221.68C205.249 221.988 204.886 222.228 204.449 222.401C204.015 222.57 203.519 222.654 202.962 222.654ZM211.105 222.654C210.365 222.654 209.729 222.487 209.195 222.152C208.665 221.814 208.258 221.348 207.972 220.755C207.687 220.162 207.545 219.482 207.545 218.717C207.545 217.941 207.691 217.257 207.982 216.663C208.274 216.067 208.685 215.601 209.215 215.266C209.746 214.932 210.37 214.764 211.09 214.764C211.67 214.764 212.187 214.872 212.641 215.087C213.095 215.3 213.461 215.598 213.74 215.982C214.021 216.367 214.189 216.816 214.242 217.33H212.795C212.715 216.972 212.533 216.663 212.248 216.405C211.966 216.146 211.588 216.017 211.115 216.017C210.7 216.017 210.337 216.126 210.026 216.345C209.718 216.561 209.477 216.869 209.305 217.27C209.133 217.668 209.046 218.138 209.046 218.682C209.046 219.239 209.131 219.719 209.3 220.124C209.469 220.528 209.708 220.841 210.016 221.063C210.327 221.285 210.694 221.396 211.115 221.396C211.396 221.396 211.651 221.345 211.88 221.242C212.112 221.136 212.306 220.985 212.462 220.79C212.621 220.594 212.732 220.359 212.795 220.084H214.242C214.189 220.578 214.028 221.018 213.759 221.406C213.491 221.794 213.131 222.099 212.681 222.321C212.233 222.543 211.708 222.654 211.105 222.654ZM219.396 214.864V216.057H215.225V214.864H219.396ZM216.343 213.034H217.83V220.258C217.83 220.546 217.873 220.763 217.959 220.909C218.045 221.052 218.156 221.149 218.292 221.202C218.431 221.252 218.582 221.277 218.745 221.277C218.864 221.277 218.968 221.269 219.058 221.252C219.147 221.236 219.217 221.222 219.267 221.212L219.535 222.44C219.449 222.474 219.326 222.507 219.167 222.54C219.008 222.576 218.809 222.596 218.571 222.599C218.18 222.606 217.815 222.536 217.477 222.391C217.139 222.245 216.865 222.019 216.657 221.715C216.448 221.41 216.343 221.027 216.343 220.566V213.034Z" fill="#F0F0FF"/>
</g>
<defs>
<filter id="filter0_dddd_1_7829" x="0" y="0.7" width="398" height="281.3" filterUnits="userSpaceOnUse" color-interpolation-filters="sRGB">
<feFlood flood-opacity="0" result="BackgroundImageFix"/>
<feColorMatrix in="SourceAlpha" type="matrix" values="0 0 0 0 0 0 0 0 0 0 0 0 0 0 0 0 0 0 127 0" result="hardAlpha"/>
<feMorphology radius="1" operator="erode" in="SourceAlpha" result="effect1_dropShadow_1_7829"/>
<feOffset dy="15"/>
<feGaussianBlur stdDeviation="7.5"/>
<feColorMatrix type="matrix" values="0 0 0 0 0 0 0 0 0 0 0 0 0 0 0 0 0 0 0.04 0"/>
<feBlend mode="normal" in2="BackgroundImageFix" result="effect1_dropShadow_1_7829"/>
<feColorMatrix in="SourceAlpha" type="matrix" values="0 0 0 0 0 0 0 0 0 0 0 0 0 0 0 0 0 0 127 0" result="hardAlpha"/>
<feMorphology radius="1" operator="erode" in="SourceAlpha" result="effect2_dropShadow_1_7829"/>
<feOffset dy="5.7"/>
<feGaussianBlur stdDeviation="6"/>
<feColorMatrix type="matrix" values="0 0 0 0 0 0 0 0 0 0 0 0 0 0 0 0 0 0 0.05 0"/>
<feBlend mode="normal" in2="effect1_dropShadow_1_7829" result="effect2_dropShadow_1_7829"/>
<feColorMatrix in="SourceAlpha" type="matrix" values="0 0 0 0 0 0 0 0 0 0 0 0 0 0 0 0 0 0 127 0" result="hardAlpha"/>
<feMorphology radius="1" operator="erode" in="SourceAlpha" result="effect3_dropShadow_1_7829"/>
<feOffset dy="2.6"/>
<feGaussianBlur stdDeviation="4"/>
<feColorMatrix type="matrix" values="0 0 0 0 0 0 0 0 0 0 0 0 0 0 0 0 0 0 0.06 0"/>
<feBlend mode="normal" in2="effect2_dropShadow_1_7829" result="effect3_dropShadow_1_7829"/>
<feColorMatrix in="SourceAlpha" type="matrix" values="0 0 0 0 0 0 0 0 0 0 0 0 0 0 0 0 0 0 127 0" result="hardAlpha"/>
<feMorphology radius="1" operator="erode" in="SourceAlpha" result="effect4_dropShadow_1_7829"/>
<feOffset dy="0.9"/>
<feGaussianBlur stdDeviation="2"/>
<feColorMatrix type="matrix" values="0 0 0 0 0 0 0 0 0 0 0 0 0 0 0 0 0 0 0.08 0"/>
<feBlend mode="normal" in2="effect3_dropShadow_1_7829" result="effect4_dropShadow_1_7829"/>
<feBlend mode="normal" in="SourceGraphic" in2="effect4_dropShadow_1_7829" result="shape"/>
</filter>
<clipPath id="clip0_1_7829">
<rect width="338" height="63" fill="white" transform="translate(30 118)"/>
</clipPath>
</defs>
</svg>
