<svg width="399" height="282" viewBox="0 0 399 282" fill="none" xmlns="http://www.w3.org/2000/svg">
<g filter="url(#filter0_dddd_1_7830)">
<rect x="14.5" y="6" width="370" height="247" rx="6" fill="#23262B"/>
<rect x="15" y="6.5" width="369" height="246" rx="5.5" stroke="#303030"/>
<path d="M180.75 24.5C181.44 24.5 182 25.0596 182 25.75V59.5H215.75C216.44 59.5 217 60.0596 217 60.75C217 61.4404 216.44 62 215.75 62H180.75C180.06 62 179.5 61.4404 179.5 60.75V25.75C179.5 25.0596 180.06 24.5 180.75 24.5ZM191.217 40.7715C191.844 41.3178 192.609 41.7098 193.452 41.8896L188.118 52.5586C187.809 53.1759 187.059 53.4266 186.441 53.1182C185.824 52.8095 185.573 52.0588 185.882 51.4414L191.217 40.7715ZM204.5 47C205.881 47 207 48.1193 207 49.5C207 50.8807 205.881 52 204.5 52C203.119 52 202 50.8807 202 49.5C202 48.1193 203.119 47 204.5 47ZM202.365 44.9775C201.597 45.341 200.935 45.8942 200.442 46.5771L196.512 41.5791C197.291 41.2364 197.965 40.7002 198.476 40.0322L202.365 44.9775ZM211.136 30.6982C211.754 31.261 212.514 31.671 213.355 31.8682L207.599 45.5762C206.948 45.0616 206.166 44.7049 205.312 44.5654L211.136 30.6982ZM194.5 34.5C195.881 34.5 197 35.6193 197 37C197 38.3807 195.881 39.5 194.5 39.5C193.119 39.5 192 38.3807 192 37C192 35.6193 193.119 34.5 194.5 34.5ZM214.5 24.5C215.881 24.5 217 25.6193 217 27C217 28.3807 215.881 29.5 214.5 29.5C213.119 29.5 212 28.3807 212 27C212 25.6193 213.119 24.5 214.5 24.5Z" fill="#006AA2"/>
<path d="M130.701 102V86H141.482V88.7891H134.084V92.6016H140.928V95.3906H134.084V99.2109H141.514V102H130.701ZM147.438 86V102H144.109V86H147.438ZM152.158 106.5C151.736 106.5 151.34 106.466 150.971 106.398C150.606 106.336 150.304 106.255 150.064 106.156L150.814 103.672C151.205 103.792 151.557 103.857 151.869 103.867C152.187 103.878 152.46 103.805 152.689 103.648C152.924 103.492 153.114 103.227 153.26 102.852L153.455 102.344L149.15 90H152.65L155.135 98.8125H155.26L157.768 90H161.291L156.627 103.297C156.403 103.943 156.098 104.505 155.713 104.984C155.333 105.469 154.851 105.841 154.268 106.102C153.684 106.367 152.981 106.5 152.158 106.5ZM172.979 93.4219L169.932 93.6094C169.88 93.349 169.768 93.1146 169.596 92.9062C169.424 92.6927 169.197 92.5234 168.916 92.3984C168.64 92.2682 168.309 92.2031 167.924 92.2031C167.408 92.2031 166.973 92.3125 166.619 92.5312C166.265 92.7448 166.088 93.0312 166.088 93.3906C166.088 93.6771 166.202 93.9193 166.432 94.1172C166.661 94.3151 167.054 94.474 167.611 94.5937L169.783 95.0312C170.95 95.2708 171.82 95.6562 172.393 96.1875C172.965 96.7187 173.252 97.4167 173.252 98.2812C173.252 99.0677 173.02 99.7578 172.557 100.352C172.098 100.945 171.468 101.409 170.666 101.742C169.869 102.07 168.95 102.234 167.908 102.234C166.32 102.234 165.054 101.904 164.111 101.242C163.174 100.576 162.624 99.6693 162.463 98.5234L165.736 98.3516C165.835 98.8359 166.075 99.2057 166.455 99.4609C166.835 99.7109 167.322 99.8359 167.916 99.8359C168.499 99.8359 168.968 99.724 169.322 99.5C169.682 99.2708 169.864 98.9766 169.869 98.6172C169.864 98.3151 169.736 98.0677 169.486 97.875C169.236 97.6771 168.851 97.526 168.33 97.4219L166.252 97.0078C165.08 96.7734 164.208 96.3672 163.635 95.7891C163.067 95.2109 162.783 94.474 162.783 93.5781C162.783 92.8073 162.992 92.1432 163.408 91.5859C163.83 91.0286 164.421 90.599 165.182 90.2969C165.947 89.9948 166.843 89.8438 167.869 89.8438C169.385 89.8438 170.577 90.1641 171.447 90.8047C172.322 91.4453 172.833 92.3177 172.979 93.4219ZM175.348 102V90H178.676V102H175.348ZM177.02 88.4531C176.525 88.4531 176.1 88.2891 175.746 87.9609C175.397 87.6276 175.223 87.2292 175.223 86.7656C175.223 86.3073 175.397 85.9141 175.746 85.5859C176.1 85.2526 176.525 85.0859 177.02 85.0859C177.514 85.0859 177.936 85.2526 178.285 85.5859C178.639 85.9141 178.816 86.3073 178.816 86.7656C178.816 87.2292 178.639 87.6276 178.285 87.9609C177.936 88.2891 177.514 88.4531 177.02 88.4531ZM189.037 96.8906V90H192.365V102H189.17V99.8203H189.045C188.774 100.523 188.324 101.089 187.693 101.516C187.068 101.943 186.305 102.156 185.404 102.156C184.602 102.156 183.896 101.974 183.287 101.609C182.678 101.245 182.201 100.727 181.857 100.055C181.519 99.3828 181.347 98.5781 181.342 97.6406V90H184.67V97.0469C184.675 97.7552 184.865 98.3151 185.24 98.7266C185.615 99.138 186.118 99.3437 186.748 99.3437C187.149 99.3437 187.524 99.2526 187.873 99.0703C188.222 98.8828 188.503 98.6068 188.717 98.2422C188.936 97.8776 189.042 97.4271 189.037 96.8906ZM195.027 102V90H198.199V92.1172H198.34C198.59 91.4141 199.007 90.8594 199.59 90.4531C200.173 90.0469 200.871 89.8438 201.684 89.8438C202.507 89.8438 203.207 90.0495 203.785 90.4609C204.363 90.8672 204.749 91.4193 204.941 92.1172H205.066C205.311 91.4297 205.754 90.8802 206.395 90.4687C207.04 90.0521 207.803 89.8438 208.684 89.8438C209.803 89.8438 210.712 90.2005 211.41 90.9141C212.113 91.6224 212.465 92.6276 212.465 93.9297V102H209.145V94.5859C209.145 93.9193 208.967 93.4193 208.613 93.0859C208.259 92.7526 207.816 92.5859 207.285 92.5859C206.681 92.5859 206.21 92.7786 205.871 93.1641C205.533 93.5443 205.363 94.0469 205.363 94.6719V102H202.137V94.5156C202.137 93.9271 201.967 93.4583 201.629 93.1094C201.296 92.7604 200.855 92.5859 200.309 92.5859C199.939 92.5859 199.605 92.6797 199.309 92.8672C199.017 93.0495 198.785 93.3073 198.613 93.6406C198.441 93.9687 198.355 94.3542 198.355 94.7969V102H195.027ZM223.006 102H219.381L224.904 86H229.264L234.779 102H231.154L227.146 89.6562H227.021L223.006 102ZM222.779 95.7109H231.342V98.3516H222.779V95.7109ZM236.705 102V86H243.018C244.231 86 245.265 86.2318 246.119 86.6953C246.973 87.1536 247.624 87.7917 248.072 88.6094C248.525 89.4219 248.752 90.3594 248.752 91.4219C248.752 92.4844 248.523 93.4219 248.064 94.2344C247.606 95.0469 246.942 95.6797 246.072 96.1328C245.208 96.5859 244.161 96.8125 242.932 96.8125H238.908V94.1016H242.385C243.036 94.1016 243.572 93.9896 243.994 93.7656C244.421 93.5365 244.739 93.2214 244.947 92.8203C245.161 92.4141 245.268 91.9479 245.268 91.4219C245.268 90.8906 245.161 90.4271 244.947 90.0312C244.739 89.6302 244.421 89.3203 243.994 89.1016C243.567 88.8776 243.025 88.7656 242.369 88.7656H240.088V102H236.705ZM250.949 86H255.121L259.527 96.75H259.715L264.121 86H268.293V102H265.012V91.5859H264.879L260.738 101.922H258.504L254.363 91.5469H254.23V102H250.949V86Z" fill="white"/>
<g clip-path="url(#clip0_1_7830)">
<path d="M46.334 123.047H47.6123L50.873 131.161L54.127 123.047H55.4121L51.3652 133H50.3672L46.334 123.047ZM45.917 123.047H47.0449L47.2295 129.117V133H45.917V123.047ZM54.6943 123.047H55.8223V133H54.5098V129.117L54.6943 123.047ZM57.6133 129.384V129.227C57.6133 128.693 57.6908 128.199 57.8457 127.743C58.0007 127.283 58.224 126.884 58.5156 126.547C58.8073 126.205 59.1605 125.941 59.5752 125.754C59.9899 125.562 60.4548 125.467 60.9697 125.467C61.4893 125.467 61.9564 125.562 62.3711 125.754C62.7904 125.941 63.1458 126.205 63.4375 126.547C63.7337 126.884 63.9593 127.283 64.1143 127.743C64.2692 128.199 64.3467 128.693 64.3467 129.227V129.384C64.3467 129.917 64.2692 130.411 64.1143 130.867C63.9593 131.323 63.7337 131.722 63.4375 132.063C63.1458 132.401 62.7926 132.665 62.3779 132.856C61.9678 133.043 61.5029 133.137 60.9834 133.137C60.4639 133.137 59.9967 133.043 59.582 132.856C59.1673 132.665 58.8118 132.401 58.5156 132.063C58.224 131.722 58.0007 131.323 57.8457 130.867C57.6908 130.411 57.6133 129.917 57.6133 129.384ZM58.8779 129.227V129.384C58.8779 129.753 58.9212 130.102 59.0078 130.43C59.0944 130.753 59.2243 131.04 59.3975 131.291C59.5752 131.542 59.7962 131.74 60.0605 131.886C60.3249 132.027 60.6325 132.098 60.9834 132.098C61.3298 132.098 61.6328 132.027 61.8926 131.886C62.1569 131.74 62.3757 131.542 62.5488 131.291C62.722 131.04 62.8519 130.753 62.9385 130.43C63.0296 130.102 63.0752 129.753 63.0752 129.384V129.227C63.0752 128.862 63.0296 128.518 62.9385 128.194C62.8519 127.866 62.7197 127.577 62.542 127.326C62.3688 127.071 62.1501 126.87 61.8857 126.725C61.626 126.579 61.3206 126.506 60.9697 126.506C60.6234 126.506 60.318 126.579 60.0537 126.725C59.7939 126.87 59.5752 127.071 59.3975 127.326C59.2243 127.577 59.0944 127.866 59.0078 128.194C58.9212 128.518 58.8779 128.862 58.8779 129.227ZM67.1973 127.183V133H65.9326V125.604H67.1289L67.1973 127.183ZM66.8965 129.021L66.3701 129.001C66.3747 128.495 66.4499 128.028 66.5957 127.6C66.7415 127.167 66.9466 126.791 67.2109 126.472C67.4753 126.153 67.7897 125.907 68.1543 125.733C68.5234 125.556 68.9313 125.467 69.3779 125.467C69.7425 125.467 70.0706 125.517 70.3623 125.617C70.654 125.713 70.9023 125.868 71.1074 126.082C71.3171 126.296 71.4766 126.574 71.5859 126.916C71.6953 127.253 71.75 127.666 71.75 128.153V133H70.4785V128.14C70.4785 127.752 70.4215 127.442 70.3076 127.21C70.1937 126.973 70.0273 126.802 69.8086 126.697C69.5898 126.588 69.321 126.533 69.002 126.533C68.6875 126.533 68.4004 126.599 68.1406 126.731C67.8854 126.864 67.6644 127.046 67.4775 127.278C67.2952 127.511 67.1517 127.777 67.0469 128.078C66.9466 128.374 66.8965 128.689 66.8965 129.021ZM75.0449 125.604V133H73.7734V125.604H75.0449ZM73.6777 123.642C73.6777 123.437 73.7393 123.263 73.8623 123.122C73.9899 122.981 74.1768 122.91 74.4229 122.91C74.6644 122.91 74.849 122.981 74.9766 123.122C75.1087 123.263 75.1748 123.437 75.1748 123.642C75.1748 123.838 75.1087 124.006 74.9766 124.147C74.849 124.284 74.6644 124.353 74.4229 124.353C74.1768 124.353 73.9899 124.284 73.8623 124.147C73.7393 124.006 73.6777 123.838 73.6777 123.642ZM80.1719 125.604V126.574H76.1729V125.604H80.1719ZM77.5264 123.806H78.791V131.168C78.791 131.419 78.8298 131.608 78.9072 131.735C78.9847 131.863 79.085 131.947 79.208 131.988C79.3311 132.029 79.4632 132.05 79.6045 132.05C79.7093 132.05 79.8187 132.041 79.9326 132.022C80.0511 132 80.14 131.981 80.1992 131.968L80.2061 133C80.1058 133.032 79.9736 133.062 79.8096 133.089C79.6501 133.121 79.4564 133.137 79.2285 133.137C78.9186 133.137 78.6338 133.075 78.374 132.952C78.1143 132.829 77.9069 132.624 77.752 132.337C77.6016 132.045 77.5264 131.653 77.5264 131.161V123.806ZM81.1836 129.384V129.227C81.1836 128.693 81.2611 128.199 81.416 127.743C81.571 127.283 81.7943 126.884 82.0859 126.547C82.3776 126.205 82.7308 125.941 83.1455 125.754C83.5602 125.562 84.0251 125.467 84.54 125.467C85.0596 125.467 85.5267 125.562 85.9414 125.754C86.3607 125.941 86.7161 126.205 87.0078 126.547C87.304 126.884 87.5296 127.283 87.6846 127.743C87.8395 128.199 87.917 128.693 87.917 129.227V129.384C87.917 129.917 87.8395 130.411 87.6846 130.867C87.5296 131.323 87.304 131.722 87.0078 132.063C86.7161 132.401 86.363 132.665 85.9482 132.856C85.5381 133.043 85.0732 133.137 84.5537 133.137C84.0342 133.137 83.5671 133.043 83.1523 132.856C82.7376 132.665 82.3822 132.401 82.0859 132.063C81.7943 131.722 81.571 131.323 81.416 130.867C81.2611 130.411 81.1836 129.917 81.1836 129.384ZM82.4482 129.227V129.384C82.4482 129.753 82.4915 130.102 82.5781 130.43C82.6647 130.753 82.7946 131.04 82.9678 131.291C83.1455 131.542 83.3665 131.74 83.6309 131.886C83.8952 132.027 84.2028 132.098 84.5537 132.098C84.9001 132.098 85.2031 132.027 85.4629 131.886C85.7272 131.74 85.946 131.542 86.1191 131.291C86.2923 131.04 86.4222 130.753 86.5088 130.43C86.5999 130.102 86.6455 129.753 86.6455 129.384V129.227C86.6455 128.862 86.5999 128.518 86.5088 128.194C86.4222 127.866 86.29 127.577 86.1123 127.326C85.9391 127.071 85.7204 126.87 85.4561 126.725C85.1963 126.579 84.891 126.506 84.54 126.506C84.1937 126.506 83.8883 126.579 83.624 126.725C83.3643 126.87 83.1455 127.071 82.9678 127.326C82.7946 127.577 82.6647 127.866 82.5781 128.194C82.4915 128.518 82.4482 128.862 82.4482 129.227ZM90.7676 126.766V133H89.5029V125.604H90.7334L90.7676 126.766ZM93.0781 125.562L93.0713 126.738C92.9665 126.715 92.8662 126.702 92.7705 126.697C92.6794 126.688 92.5745 126.684 92.4561 126.684C92.1644 126.684 91.9069 126.729 91.6836 126.82C91.4603 126.911 91.2712 127.039 91.1162 127.203C90.9613 127.367 90.8382 127.563 90.7471 127.791C90.6605 128.014 90.6035 128.26 90.5762 128.529L90.2207 128.734C90.2207 128.288 90.264 127.868 90.3506 127.477C90.4417 127.085 90.5807 126.738 90.7676 126.438C90.9544 126.132 91.1914 125.895 91.4785 125.727C91.7702 125.553 92.1165 125.467 92.5176 125.467C92.6087 125.467 92.7135 125.478 92.832 125.501C92.9505 125.519 93.0326 125.54 93.0781 125.562ZM94.5479 131.496V132.515C94.5479 132.929 94.443 133.367 94.2334 133.827C94.0238 134.292 93.7298 134.679 93.3516 134.989L92.6338 134.49C92.7796 134.29 92.9027 134.085 93.0029 133.875C93.1032 133.67 93.1784 133.456 93.2285 133.232C93.2832 133.014 93.3105 132.781 93.3105 132.535V131.496H94.5479ZM104.296 131.564V122.5H105.567V133H104.405L104.296 131.564ZM99.3193 129.384V129.24C99.3193 128.675 99.3877 128.162 99.5244 127.702C99.6657 127.237 99.8639 126.839 100.119 126.506C100.379 126.173 100.687 125.918 101.042 125.74C101.402 125.558 101.803 125.467 102.245 125.467C102.71 125.467 103.116 125.549 103.462 125.713C103.813 125.872 104.109 126.107 104.351 126.417C104.597 126.722 104.79 127.091 104.932 127.524C105.073 127.957 105.171 128.447 105.226 128.994V129.623C105.175 130.165 105.077 130.653 104.932 131.086C104.79 131.519 104.597 131.888 104.351 132.193C104.109 132.499 103.813 132.733 103.462 132.897C103.111 133.057 102.701 133.137 102.231 133.137C101.799 133.137 101.402 133.043 101.042 132.856C100.687 132.67 100.379 132.408 100.119 132.07C99.8639 131.733 99.6657 131.337 99.5244 130.881C99.3877 130.421 99.3193 129.922 99.3193 129.384ZM100.591 129.24V129.384C100.591 129.753 100.627 130.099 100.7 130.423C100.778 130.746 100.896 131.031 101.056 131.277C101.215 131.523 101.418 131.717 101.664 131.858C101.91 131.995 102.204 132.063 102.546 132.063C102.965 132.063 103.309 131.975 103.578 131.797C103.852 131.619 104.07 131.384 104.234 131.093C104.398 130.801 104.526 130.484 104.617 130.143V128.495C104.562 128.244 104.483 128.003 104.378 127.771C104.278 127.534 104.146 127.324 103.981 127.142C103.822 126.955 103.624 126.807 103.387 126.697C103.154 126.588 102.879 126.533 102.56 126.533C102.213 126.533 101.915 126.606 101.664 126.752C101.418 126.893 101.215 127.089 101.056 127.34C100.896 127.586 100.778 127.873 100.7 128.201C100.627 128.525 100.591 128.871 100.591 129.24ZM110.605 133.137C110.09 133.137 109.623 133.05 109.204 132.877C108.789 132.699 108.432 132.451 108.131 132.132C107.835 131.813 107.607 131.435 107.447 130.997C107.288 130.56 107.208 130.081 107.208 129.562V129.274C107.208 128.673 107.297 128.137 107.475 127.668C107.652 127.194 107.894 126.793 108.199 126.465C108.505 126.137 108.851 125.888 109.238 125.72C109.626 125.551 110.027 125.467 110.441 125.467C110.97 125.467 111.426 125.558 111.809 125.74C112.196 125.923 112.513 126.178 112.759 126.506C113.005 126.829 113.187 127.212 113.306 127.654C113.424 128.092 113.483 128.57 113.483 129.09V129.657H107.96V128.625H112.219V128.529C112.201 128.201 112.132 127.882 112.014 127.572C111.9 127.262 111.717 127.007 111.467 126.807C111.216 126.606 110.874 126.506 110.441 126.506C110.154 126.506 109.89 126.567 109.648 126.69C109.407 126.809 109.2 126.987 109.026 127.224C108.853 127.461 108.719 127.75 108.623 128.092C108.527 128.434 108.479 128.828 108.479 129.274V129.562C108.479 129.912 108.527 130.243 108.623 130.553C108.723 130.858 108.867 131.127 109.054 131.359C109.245 131.592 109.475 131.774 109.744 131.906C110.018 132.038 110.327 132.104 110.674 132.104C111.12 132.104 111.499 132.013 111.809 131.831C112.118 131.649 112.39 131.405 112.622 131.1L113.388 131.708C113.228 131.95 113.025 132.18 112.779 132.398C112.533 132.617 112.23 132.795 111.87 132.932C111.515 133.068 111.093 133.137 110.605 133.137ZM118.057 125.604V126.574H114.058V125.604H118.057ZM115.411 123.806H116.676V131.168C116.676 131.419 116.715 131.608 116.792 131.735C116.869 131.863 116.97 131.947 117.093 131.988C117.216 132.029 117.348 132.05 117.489 132.05C117.594 132.05 117.703 132.041 117.817 132.022C117.936 132 118.025 131.981 118.084 131.968L118.091 133C117.991 133.032 117.858 133.062 117.694 133.089C117.535 133.121 117.341 133.137 117.113 133.137C116.803 133.137 116.519 133.075 116.259 132.952C115.999 132.829 115.792 132.624 115.637 132.337C115.486 132.045 115.411 131.653 115.411 131.161V123.806ZM122.609 133.137C122.094 133.137 121.627 133.05 121.208 132.877C120.793 132.699 120.436 132.451 120.135 132.132C119.839 131.813 119.611 131.435 119.451 130.997C119.292 130.56 119.212 130.081 119.212 129.562V129.274C119.212 128.673 119.301 128.137 119.479 127.668C119.656 127.194 119.898 126.793 120.203 126.465C120.508 126.137 120.855 125.888 121.242 125.72C121.63 125.551 122.031 125.467 122.445 125.467C122.974 125.467 123.43 125.558 123.812 125.74C124.2 125.923 124.517 126.178 124.763 126.506C125.009 126.829 125.191 127.212 125.31 127.654C125.428 128.092 125.487 128.57 125.487 129.09V129.657H119.964V128.625H124.223V128.529C124.204 128.201 124.136 127.882 124.018 127.572C123.904 127.262 123.721 127.007 123.471 126.807C123.22 126.606 122.878 126.506 122.445 126.506C122.158 126.506 121.894 126.567 121.652 126.69C121.411 126.809 121.203 126.987 121.03 127.224C120.857 127.461 120.723 127.75 120.627 128.092C120.531 128.434 120.483 128.828 120.483 129.274V129.562C120.483 129.912 120.531 130.243 120.627 130.553C120.727 130.858 120.871 131.127 121.058 131.359C121.249 131.592 121.479 131.774 121.748 131.906C122.021 132.038 122.331 132.104 122.678 132.104C123.124 132.104 123.503 132.013 123.812 131.831C124.122 131.649 124.394 131.405 124.626 131.1L125.392 131.708C125.232 131.95 125.029 132.18 124.783 132.398C124.537 132.617 124.234 132.795 123.874 132.932C123.519 133.068 123.097 133.137 122.609 133.137ZM129.924 132.098C130.225 132.098 130.503 132.036 130.758 131.913C131.013 131.79 131.223 131.621 131.387 131.407C131.551 131.188 131.644 130.94 131.667 130.662H132.87C132.847 131.1 132.699 131.507 132.426 131.886C132.157 132.259 131.804 132.562 131.366 132.795C130.929 133.023 130.448 133.137 129.924 133.137C129.368 133.137 128.882 133.039 128.468 132.843C128.058 132.647 127.716 132.378 127.442 132.036C127.174 131.694 126.971 131.302 126.834 130.86C126.702 130.414 126.636 129.942 126.636 129.445V129.158C126.636 128.661 126.702 128.192 126.834 127.75C126.971 127.303 127.174 126.909 127.442 126.567C127.716 126.226 128.058 125.957 128.468 125.761C128.882 125.565 129.368 125.467 129.924 125.467C130.503 125.467 131.008 125.585 131.441 125.822C131.874 126.055 132.214 126.374 132.46 126.779C132.711 127.18 132.847 127.636 132.87 128.146H131.667C131.644 127.841 131.558 127.565 131.407 127.319C131.261 127.073 131.061 126.877 130.806 126.731C130.555 126.581 130.261 126.506 129.924 126.506C129.536 126.506 129.211 126.583 128.946 126.738C128.687 126.889 128.479 127.094 128.324 127.354C128.174 127.609 128.064 127.894 127.996 128.208C127.932 128.518 127.9 128.835 127.9 129.158V129.445C127.9 129.769 127.932 130.088 127.996 130.402C128.06 130.717 128.167 131.002 128.317 131.257C128.472 131.512 128.68 131.717 128.939 131.872C129.204 132.022 129.532 132.098 129.924 132.098ZM137.389 125.604V126.574H133.39V125.604H137.389ZM134.743 123.806H136.008V131.168C136.008 131.419 136.047 131.608 136.124 131.735C136.201 131.863 136.302 131.947 136.425 131.988C136.548 132.029 136.68 132.05 136.821 132.05C136.926 132.05 137.035 132.041 137.149 132.022C137.268 132 137.357 131.981 137.416 131.968L137.423 133C137.323 133.032 137.19 133.062 137.026 133.089C136.867 133.121 136.673 133.137 136.445 133.137C136.135 133.137 135.851 133.075 135.591 132.952C135.331 132.829 135.124 132.624 134.969 132.337C134.818 132.045 134.743 131.653 134.743 131.161V123.806ZM146.706 131.735V127.928C146.706 127.636 146.647 127.383 146.528 127.169C146.414 126.95 146.241 126.782 146.009 126.663C145.776 126.545 145.489 126.485 145.147 126.485C144.828 126.485 144.548 126.54 144.307 126.649C144.07 126.759 143.883 126.902 143.746 127.08C143.614 127.258 143.548 127.449 143.548 127.654H142.283C142.283 127.39 142.352 127.128 142.488 126.868C142.625 126.608 142.821 126.374 143.076 126.164C143.336 125.95 143.646 125.781 144.006 125.658C144.37 125.531 144.776 125.467 145.223 125.467C145.76 125.467 146.234 125.558 146.645 125.74C147.059 125.923 147.383 126.198 147.615 126.567C147.852 126.932 147.971 127.39 147.971 127.941V131.387C147.971 131.633 147.991 131.895 148.032 132.173C148.078 132.451 148.144 132.69 148.23 132.891V133H146.911C146.847 132.854 146.797 132.66 146.761 132.419C146.724 132.173 146.706 131.945 146.706 131.735ZM146.925 128.516L146.938 129.404H145.66C145.3 129.404 144.979 129.434 144.696 129.493C144.414 129.548 144.177 129.632 143.985 129.746C143.794 129.86 143.648 130.004 143.548 130.177C143.448 130.345 143.397 130.544 143.397 130.771C143.397 131.004 143.45 131.216 143.555 131.407C143.66 131.599 143.817 131.751 144.026 131.865C144.241 131.975 144.503 132.029 144.812 132.029C145.2 132.029 145.542 131.947 145.838 131.783C146.134 131.619 146.369 131.419 146.542 131.182C146.72 130.945 146.815 130.715 146.829 130.491L147.369 131.1C147.337 131.291 147.251 131.503 147.109 131.735C146.968 131.968 146.779 132.191 146.542 132.405C146.31 132.615 146.032 132.79 145.708 132.932C145.389 133.068 145.029 133.137 144.628 133.137C144.127 133.137 143.687 133.039 143.309 132.843C142.935 132.647 142.643 132.385 142.434 132.057C142.229 131.724 142.126 131.353 142.126 130.942C142.126 130.546 142.203 130.197 142.358 129.896C142.513 129.591 142.737 129.338 143.028 129.138C143.32 128.933 143.671 128.778 144.081 128.673C144.491 128.568 144.949 128.516 145.455 128.516H146.925ZM151.225 127.183V133H149.96V125.604H151.156L151.225 127.183ZM150.924 129.021L150.397 129.001C150.402 128.495 150.477 128.028 150.623 127.6C150.769 127.167 150.974 126.791 151.238 126.472C151.503 126.153 151.817 125.907 152.182 125.733C152.551 125.556 152.959 125.467 153.405 125.467C153.77 125.467 154.098 125.517 154.39 125.617C154.681 125.713 154.93 125.868 155.135 126.082C155.344 126.296 155.504 126.574 155.613 126.916C155.723 127.253 155.777 127.666 155.777 128.153V133H154.506V128.14C154.506 127.752 154.449 127.442 154.335 127.21C154.221 126.973 154.055 126.802 153.836 126.697C153.617 126.588 153.348 126.533 153.029 126.533C152.715 126.533 152.428 126.599 152.168 126.731C151.913 126.864 151.692 127.046 151.505 127.278C151.323 127.511 151.179 127.777 151.074 128.078C150.974 128.374 150.924 128.689 150.924 129.021ZM162.36 131.564V122.5H163.632V133H162.47L162.36 131.564ZM157.384 129.384V129.24C157.384 128.675 157.452 128.162 157.589 127.702C157.73 127.237 157.928 126.839 158.184 126.506C158.443 126.173 158.751 125.918 159.106 125.74C159.466 125.558 159.868 125.467 160.31 125.467C160.774 125.467 161.18 125.549 161.526 125.713C161.877 125.872 162.174 126.107 162.415 126.417C162.661 126.722 162.855 127.091 162.996 127.524C163.137 127.957 163.235 128.447 163.29 128.994V129.623C163.24 130.165 163.142 130.653 162.996 131.086C162.855 131.519 162.661 131.888 162.415 132.193C162.174 132.499 161.877 132.733 161.526 132.897C161.175 133.057 160.765 133.137 160.296 133.137C159.863 133.137 159.466 133.043 159.106 132.856C158.751 132.67 158.443 132.408 158.184 132.07C157.928 131.733 157.73 131.337 157.589 130.881C157.452 130.421 157.384 129.922 157.384 129.384ZM158.655 129.24V129.384C158.655 129.753 158.692 130.099 158.765 130.423C158.842 130.746 158.961 131.031 159.12 131.277C159.28 131.523 159.482 131.717 159.729 131.858C159.975 131.995 160.269 132.063 160.61 132.063C161.03 132.063 161.374 131.975 161.643 131.797C161.916 131.619 162.135 131.384 162.299 131.093C162.463 130.801 162.59 130.484 162.682 130.143V128.495C162.627 128.244 162.547 128.003 162.442 127.771C162.342 127.534 162.21 127.324 162.046 127.142C161.886 126.955 161.688 126.807 161.451 126.697C161.219 126.588 160.943 126.533 160.624 126.533C160.278 126.533 159.979 126.606 159.729 126.752C159.482 126.893 159.28 127.089 159.12 127.34C158.961 127.586 158.842 127.873 158.765 128.201C158.692 128.525 158.655 128.871 158.655 129.24ZM173.735 131.564V122.5H175.007V133H173.845L173.735 131.564ZM168.759 129.384V129.24C168.759 128.675 168.827 128.162 168.964 127.702C169.105 127.237 169.303 126.839 169.559 126.506C169.818 126.173 170.126 125.918 170.481 125.74C170.841 125.558 171.243 125.467 171.685 125.467C172.149 125.467 172.555 125.549 172.901 125.713C173.252 125.872 173.549 126.107 173.79 126.417C174.036 126.722 174.23 127.091 174.371 127.524C174.512 127.957 174.61 128.447 174.665 128.994V129.623C174.615 130.165 174.517 130.653 174.371 131.086C174.23 131.519 174.036 131.888 173.79 132.193C173.549 132.499 173.252 132.733 172.901 132.897C172.55 133.057 172.14 133.137 171.671 133.137C171.238 133.137 170.841 133.043 170.481 132.856C170.126 132.67 169.818 132.408 169.559 132.07C169.303 131.733 169.105 131.337 168.964 130.881C168.827 130.421 168.759 129.922 168.759 129.384ZM170.03 129.24V129.384C170.03 129.753 170.067 130.099 170.14 130.423C170.217 130.746 170.336 131.031 170.495 131.277C170.655 131.523 170.857 131.717 171.104 131.858C171.35 131.995 171.644 132.063 171.985 132.063C172.405 132.063 172.749 131.975 173.018 131.797C173.291 131.619 173.51 131.384 173.674 131.093C173.838 130.801 173.965 130.484 174.057 130.143V128.495C174.002 128.244 173.922 128.003 173.817 127.771C173.717 127.534 173.585 127.324 173.421 127.142C173.261 126.955 173.063 126.807 172.826 126.697C172.594 126.588 172.318 126.533 171.999 126.533C171.653 126.533 171.354 126.606 171.104 126.752C170.857 126.893 170.655 127.089 170.495 127.34C170.336 127.586 170.217 127.873 170.14 128.201C170.067 128.525 170.03 128.871 170.03 129.24ZM178.35 125.604V133H177.078V125.604H178.35ZM176.982 123.642C176.982 123.437 177.044 123.263 177.167 123.122C177.295 122.981 177.481 122.91 177.728 122.91C177.969 122.91 178.154 122.981 178.281 123.122C178.413 123.263 178.479 123.437 178.479 123.642C178.479 123.838 178.413 124.006 178.281 124.147C178.154 124.284 177.969 124.353 177.728 124.353C177.481 124.353 177.295 124.284 177.167 124.147C177.044 124.006 176.982 123.838 176.982 123.642ZM184.741 131.735V127.928C184.741 127.636 184.682 127.383 184.563 127.169C184.45 126.95 184.276 126.782 184.044 126.663C183.812 126.545 183.524 126.485 183.183 126.485C182.864 126.485 182.583 126.54 182.342 126.649C182.105 126.759 181.918 126.902 181.781 127.08C181.649 127.258 181.583 127.449 181.583 127.654H180.318C180.318 127.39 180.387 127.128 180.523 126.868C180.66 126.608 180.856 126.374 181.111 126.164C181.371 125.95 181.681 125.781 182.041 125.658C182.406 125.531 182.811 125.467 183.258 125.467C183.796 125.467 184.27 125.558 184.68 125.74C185.094 125.923 185.418 126.198 185.65 126.567C185.887 126.932 186.006 127.39 186.006 127.941V131.387C186.006 131.633 186.026 131.895 186.067 132.173C186.113 132.451 186.179 132.69 186.266 132.891V133H184.946C184.882 132.854 184.832 132.66 184.796 132.419C184.759 132.173 184.741 131.945 184.741 131.735ZM184.96 128.516L184.974 129.404H183.695C183.335 129.404 183.014 129.434 182.731 129.493C182.449 129.548 182.212 129.632 182.021 129.746C181.829 129.86 181.683 130.004 181.583 130.177C181.483 130.345 181.433 130.544 181.433 130.771C181.433 131.004 181.485 131.216 181.59 131.407C181.695 131.599 181.852 131.751 182.062 131.865C182.276 131.975 182.538 132.029 182.848 132.029C183.235 132.029 183.577 131.947 183.873 131.783C184.169 131.619 184.404 131.419 184.577 131.182C184.755 130.945 184.851 130.715 184.864 130.491L185.404 131.1C185.372 131.291 185.286 131.503 185.145 131.735C185.003 131.968 184.814 132.191 184.577 132.405C184.345 132.615 184.067 132.79 183.743 132.932C183.424 133.068 183.064 133.137 182.663 133.137C182.162 133.137 181.722 133.039 181.344 132.843C180.97 132.647 180.678 132.385 180.469 132.057C180.264 131.724 180.161 131.353 180.161 130.942C180.161 130.546 180.239 130.197 180.394 129.896C180.549 129.591 180.772 129.338 181.063 129.138C181.355 128.933 181.706 128.778 182.116 128.673C182.526 128.568 182.984 128.516 183.49 128.516H184.96ZM192.787 125.604H193.936V132.843C193.936 133.494 193.803 134.05 193.539 134.511C193.275 134.971 192.906 135.32 192.432 135.557C191.962 135.798 191.42 135.919 190.805 135.919C190.549 135.919 190.249 135.878 189.902 135.796C189.561 135.718 189.223 135.584 188.891 135.393C188.562 135.206 188.287 134.953 188.063 134.634L188.727 133.882C189.036 134.256 189.36 134.515 189.697 134.661C190.039 134.807 190.376 134.88 190.709 134.88C191.11 134.88 191.456 134.805 191.748 134.654C192.04 134.504 192.265 134.281 192.425 133.984C192.589 133.693 192.671 133.333 192.671 132.904V127.23L192.787 125.604ZM187.694 129.384V129.24C187.694 128.675 187.76 128.162 187.893 127.702C188.029 127.237 188.223 126.839 188.474 126.506C188.729 126.173 189.036 125.918 189.396 125.74C189.757 125.558 190.162 125.467 190.613 125.467C191.078 125.467 191.484 125.549 191.83 125.713C192.181 125.872 192.477 126.107 192.719 126.417C192.965 126.722 193.159 127.091 193.3 127.524C193.441 127.957 193.539 128.447 193.594 128.994V129.623C193.544 130.165 193.446 130.653 193.3 131.086C193.159 131.519 192.965 131.888 192.719 132.193C192.477 132.499 192.181 132.733 191.83 132.897C191.479 133.057 191.069 133.137 190.6 133.137C190.158 133.137 189.757 133.043 189.396 132.856C189.041 132.67 188.736 132.408 188.48 132.07C188.225 131.733 188.029 131.337 187.893 130.881C187.76 130.421 187.694 129.922 187.694 129.384ZM188.959 129.24V129.384C188.959 129.753 188.995 130.099 189.068 130.423C189.146 130.746 189.262 131.031 189.417 131.277C189.576 131.523 189.779 131.717 190.025 131.858C190.271 131.995 190.565 132.063 190.907 132.063C191.326 132.063 191.673 131.975 191.946 131.797C192.22 131.619 192.436 131.384 192.596 131.093C192.76 130.801 192.887 130.484 192.979 130.143V128.495C192.928 128.244 192.851 128.003 192.746 127.771C192.646 127.534 192.514 127.324 192.35 127.142C192.19 126.955 191.992 126.807 191.755 126.697C191.518 126.588 191.24 126.533 190.921 126.533C190.575 126.533 190.276 126.606 190.025 126.752C189.779 126.893 189.576 127.089 189.417 127.34C189.262 127.586 189.146 127.873 189.068 128.201C188.995 128.525 188.959 128.871 188.959 129.24ZM197.121 127.183V133H195.856V125.604H197.053L197.121 127.183ZM196.82 129.021L196.294 129.001C196.299 128.495 196.374 128.028 196.52 127.6C196.665 127.167 196.87 126.791 197.135 126.472C197.399 126.153 197.714 125.907 198.078 125.733C198.447 125.556 198.855 125.467 199.302 125.467C199.666 125.467 199.994 125.517 200.286 125.617C200.578 125.713 200.826 125.868 201.031 126.082C201.241 126.296 201.4 126.574 201.51 126.916C201.619 127.253 201.674 127.666 201.674 128.153V133H200.402V128.14C200.402 127.752 200.345 127.442 200.231 127.21C200.118 126.973 199.951 126.802 199.732 126.697C199.514 126.588 199.245 126.533 198.926 126.533C198.611 126.533 198.324 126.599 198.064 126.731C197.809 126.864 197.588 127.046 197.401 127.278C197.219 127.511 197.076 127.777 196.971 128.078C196.87 128.374 196.82 128.689 196.82 129.021ZM203.26 129.384V129.227C203.26 128.693 203.337 128.199 203.492 127.743C203.647 127.283 203.87 126.884 204.162 126.547C204.454 126.205 204.807 125.941 205.222 125.754C205.636 125.562 206.101 125.467 206.616 125.467C207.136 125.467 207.603 125.562 208.018 125.754C208.437 125.941 208.792 126.205 209.084 126.547C209.38 126.884 209.606 127.283 209.761 127.743C209.916 128.199 209.993 128.693 209.993 129.227V129.384C209.993 129.917 209.916 130.411 209.761 130.867C209.606 131.323 209.38 131.722 209.084 132.063C208.792 132.401 208.439 132.665 208.024 132.856C207.614 133.043 207.149 133.137 206.63 133.137C206.11 133.137 205.643 133.043 205.229 132.856C204.814 132.665 204.458 132.401 204.162 132.063C203.87 131.722 203.647 131.323 203.492 130.867C203.337 130.411 203.26 129.917 203.26 129.384ZM204.524 129.227V129.384C204.524 129.753 204.568 130.102 204.654 130.43C204.741 130.753 204.871 131.04 205.044 131.291C205.222 131.542 205.443 131.74 205.707 131.886C205.971 132.027 206.279 132.098 206.63 132.098C206.976 132.098 207.279 132.027 207.539 131.886C207.803 131.74 208.022 131.542 208.195 131.291C208.368 131.04 208.498 130.753 208.585 130.43C208.676 130.102 208.722 129.753 208.722 129.384V129.227C208.722 128.862 208.676 128.518 208.585 128.194C208.498 127.866 208.366 127.577 208.188 127.326C208.015 127.071 207.797 126.87 207.532 126.725C207.272 126.579 206.967 126.506 206.616 126.506C206.27 126.506 205.965 126.579 205.7 126.725C205.44 126.87 205.222 127.071 205.044 127.326C204.871 127.577 204.741 127.866 204.654 128.194C204.568 128.518 204.524 128.862 204.524 129.227ZM215.886 131.038C215.886 130.856 215.845 130.687 215.763 130.532C215.685 130.373 215.523 130.229 215.277 130.102C215.036 129.969 214.671 129.855 214.184 129.76C213.773 129.673 213.402 129.571 213.069 129.452C212.741 129.334 212.461 129.19 212.229 129.021C212.001 128.853 211.825 128.655 211.702 128.427C211.579 128.199 211.518 127.932 211.518 127.627C211.518 127.335 211.581 127.06 211.709 126.8C211.841 126.54 212.026 126.31 212.263 126.109C212.504 125.909 212.794 125.752 213.131 125.638C213.468 125.524 213.844 125.467 214.259 125.467C214.851 125.467 215.357 125.572 215.776 125.781C216.196 125.991 216.517 126.271 216.74 126.622C216.964 126.968 217.075 127.354 217.075 127.777H215.811C215.811 127.572 215.749 127.374 215.626 127.183C215.507 126.987 215.332 126.825 215.1 126.697C214.872 126.57 214.591 126.506 214.259 126.506C213.908 126.506 213.623 126.561 213.404 126.67C213.19 126.775 213.033 126.909 212.933 127.073C212.837 127.237 212.789 127.41 212.789 127.593C212.789 127.729 212.812 127.853 212.857 127.962C212.908 128.067 212.994 128.165 213.117 128.256C213.24 128.342 213.413 128.424 213.637 128.502C213.86 128.579 214.145 128.657 214.491 128.734C215.097 128.871 215.596 129.035 215.988 129.227C216.38 129.418 216.672 129.653 216.863 129.931C217.055 130.209 217.15 130.546 217.15 130.942C217.15 131.266 217.082 131.562 216.945 131.831C216.813 132.1 216.619 132.332 216.364 132.528C216.114 132.72 215.813 132.87 215.462 132.979C215.116 133.084 214.726 133.137 214.293 133.137C213.641 133.137 213.09 133.021 212.639 132.788C212.188 132.556 211.846 132.255 211.613 131.886C211.381 131.517 211.265 131.127 211.265 130.717H212.536C212.554 131.063 212.655 131.339 212.837 131.544C213.019 131.744 213.243 131.888 213.507 131.975C213.771 132.057 214.033 132.098 214.293 132.098C214.639 132.098 214.929 132.052 215.161 131.961C215.398 131.87 215.578 131.744 215.701 131.585C215.824 131.425 215.886 131.243 215.886 131.038ZM221.881 133.137C221.366 133.137 220.899 133.05 220.479 132.877C220.065 132.699 219.707 132.451 219.406 132.132C219.11 131.813 218.882 131.435 218.723 130.997C218.563 130.56 218.483 130.081 218.483 129.562V129.274C218.483 128.673 218.572 128.137 218.75 127.668C218.928 127.194 219.169 126.793 219.475 126.465C219.78 126.137 220.126 125.888 220.514 125.72C220.901 125.551 221.302 125.467 221.717 125.467C222.245 125.467 222.701 125.558 223.084 125.74C223.471 125.923 223.788 126.178 224.034 126.506C224.28 126.829 224.463 127.212 224.581 127.654C224.7 128.092 224.759 128.57 224.759 129.09V129.657H219.235V128.625H223.494V128.529C223.476 128.201 223.408 127.882 223.289 127.572C223.175 127.262 222.993 127.007 222.742 126.807C222.492 126.606 222.15 126.506 221.717 126.506C221.43 126.506 221.165 126.567 220.924 126.69C220.682 126.809 220.475 126.987 220.302 127.224C220.129 127.461 219.994 127.75 219.898 128.092C219.803 128.434 219.755 128.828 219.755 129.274V129.562C219.755 129.912 219.803 130.243 219.898 130.553C219.999 130.858 220.142 131.127 220.329 131.359C220.521 131.592 220.751 131.774 221.02 131.906C221.293 132.038 221.603 132.104 221.949 132.104C222.396 132.104 222.774 132.013 223.084 131.831C223.394 131.649 223.665 131.405 223.897 131.1L224.663 131.708C224.504 131.95 224.301 132.18 224.055 132.398C223.809 132.617 223.506 132.795 223.146 132.932C222.79 133.068 222.368 133.137 221.881 133.137ZM232.668 132.098C232.969 132.098 233.247 132.036 233.502 131.913C233.757 131.79 233.967 131.621 234.131 131.407C234.295 131.188 234.388 130.94 234.411 130.662H235.614C235.591 131.1 235.443 131.507 235.17 131.886C234.901 132.259 234.548 132.562 234.11 132.795C233.673 133.023 233.192 133.137 232.668 133.137C232.112 133.137 231.627 133.039 231.212 132.843C230.802 132.647 230.46 132.378 230.187 132.036C229.918 131.694 229.715 131.302 229.578 130.86C229.446 130.414 229.38 129.942 229.38 129.445V129.158C229.38 128.661 229.446 128.192 229.578 127.75C229.715 127.303 229.918 126.909 230.187 126.567C230.46 126.226 230.802 125.957 231.212 125.761C231.627 125.565 232.112 125.467 232.668 125.467C233.247 125.467 233.753 125.585 234.186 125.822C234.618 126.055 234.958 126.374 235.204 126.779C235.455 127.18 235.591 127.636 235.614 128.146H234.411C234.388 127.841 234.302 127.565 234.151 127.319C234.006 127.073 233.805 126.877 233.55 126.731C233.299 126.581 233.005 126.506 232.668 126.506C232.281 126.506 231.955 126.583 231.69 126.738C231.431 126.889 231.223 127.094 231.068 127.354C230.918 127.609 230.809 127.894 230.74 128.208C230.676 128.518 230.645 128.835 230.645 129.158V129.445C230.645 129.769 230.676 130.088 230.74 130.402C230.804 130.717 230.911 131.002 231.062 131.257C231.216 131.512 231.424 131.717 231.684 131.872C231.948 132.022 232.276 132.098 232.668 132.098ZM236.701 129.384V129.227C236.701 128.693 236.779 128.199 236.934 127.743C237.089 127.283 237.312 126.884 237.604 126.547C237.895 126.205 238.248 125.941 238.663 125.754C239.078 125.562 239.543 125.467 240.058 125.467C240.577 125.467 241.044 125.562 241.459 125.754C241.878 125.941 242.234 126.205 242.525 126.547C242.822 126.884 243.047 127.283 243.202 127.743C243.357 128.199 243.435 128.693 243.435 129.227V129.384C243.435 129.917 243.357 130.411 243.202 130.867C243.047 131.323 242.822 131.722 242.525 132.063C242.234 132.401 241.881 132.665 241.466 132.856C241.056 133.043 240.591 133.137 240.071 133.137C239.552 133.137 239.085 133.043 238.67 132.856C238.255 132.665 237.9 132.401 237.604 132.063C237.312 131.722 237.089 131.323 236.934 130.867C236.779 130.411 236.701 129.917 236.701 129.384ZM237.966 129.227V129.384C237.966 129.753 238.009 130.102 238.096 130.43C238.182 130.753 238.312 131.04 238.485 131.291C238.663 131.542 238.884 131.74 239.148 131.886C239.413 132.027 239.72 132.098 240.071 132.098C240.418 132.098 240.721 132.027 240.98 131.886C241.245 131.74 241.464 131.542 241.637 131.291C241.81 131.04 241.94 130.753 242.026 130.43C242.118 130.102 242.163 129.753 242.163 129.384V129.227C242.163 128.862 242.118 128.518 242.026 128.194C241.94 127.866 241.808 127.577 241.63 127.326C241.457 127.071 241.238 126.87 240.974 126.725C240.714 126.579 240.409 126.506 240.058 126.506C239.711 126.506 239.406 126.579 239.142 126.725C238.882 126.87 238.663 127.071 238.485 127.326C238.312 127.577 238.182 127.866 238.096 128.194C238.009 128.518 237.966 128.862 237.966 129.227ZM246.278 127.073V133H245.007V125.604H246.21L246.278 127.073ZM246.019 129.021L245.431 129.001C245.435 128.495 245.501 128.028 245.629 127.6C245.757 127.167 245.946 126.791 246.196 126.472C246.447 126.153 246.759 125.907 247.133 125.733C247.507 125.556 247.939 125.467 248.432 125.467C248.778 125.467 249.097 125.517 249.389 125.617C249.68 125.713 249.933 125.866 250.147 126.075C250.362 126.285 250.528 126.554 250.646 126.882C250.765 127.21 250.824 127.606 250.824 128.071V133H249.56V128.133C249.56 127.745 249.493 127.436 249.361 127.203C249.234 126.971 249.051 126.802 248.814 126.697C248.577 126.588 248.299 126.533 247.98 126.533C247.607 126.533 247.295 126.599 247.044 126.731C246.793 126.864 246.593 127.046 246.442 127.278C246.292 127.511 246.183 127.777 246.114 128.078C246.05 128.374 246.019 128.689 246.019 129.021ZM250.811 128.324L249.963 128.584C249.967 128.178 250.034 127.789 250.161 127.415C250.293 127.041 250.482 126.709 250.729 126.417C250.979 126.125 251.287 125.895 251.651 125.727C252.016 125.553 252.433 125.467 252.902 125.467C253.299 125.467 253.65 125.519 253.955 125.624C254.265 125.729 254.525 125.891 254.734 126.109C254.949 126.324 255.11 126.599 255.22 126.937C255.329 127.274 255.384 127.675 255.384 128.14V133H254.112V128.126C254.112 127.711 254.046 127.39 253.914 127.162C253.786 126.93 253.604 126.768 253.367 126.677C253.135 126.581 252.857 126.533 252.533 126.533C252.255 126.533 252.009 126.581 251.795 126.677C251.581 126.772 251.401 126.905 251.255 127.073C251.109 127.237 250.997 127.426 250.92 127.641C250.847 127.855 250.811 128.083 250.811 128.324ZM258.562 127.025V135.844H257.291V125.604H258.453L258.562 127.025ZM263.546 129.24V129.384C263.546 129.922 263.482 130.421 263.354 130.881C263.227 131.337 263.04 131.733 262.794 132.07C262.552 132.408 262.254 132.67 261.898 132.856C261.543 133.043 261.135 133.137 260.675 133.137C260.205 133.137 259.791 133.059 259.431 132.904C259.071 132.749 258.765 132.524 258.515 132.228C258.264 131.931 258.063 131.576 257.913 131.161C257.767 130.746 257.667 130.279 257.612 129.76V128.994C257.667 128.447 257.77 127.957 257.92 127.524C258.07 127.091 258.269 126.722 258.515 126.417C258.765 126.107 259.068 125.872 259.424 125.713C259.779 125.549 260.189 125.467 260.654 125.467C261.119 125.467 261.532 125.558 261.892 125.74C262.252 125.918 262.555 126.173 262.801 126.506C263.047 126.839 263.231 127.237 263.354 127.702C263.482 128.162 263.546 128.675 263.546 129.24ZM262.274 129.384V129.24C262.274 128.871 262.236 128.525 262.158 128.201C262.081 127.873 261.96 127.586 261.796 127.34C261.636 127.089 261.431 126.893 261.181 126.752C260.93 126.606 260.632 126.533 260.285 126.533C259.966 126.533 259.688 126.588 259.451 126.697C259.219 126.807 259.021 126.955 258.856 127.142C258.692 127.324 258.558 127.534 258.453 127.771C258.353 128.003 258.278 128.244 258.228 128.495V130.266C258.319 130.585 258.446 130.885 258.61 131.168C258.774 131.446 258.993 131.672 259.267 131.845C259.54 132.013 259.884 132.098 260.299 132.098C260.641 132.098 260.935 132.027 261.181 131.886C261.431 131.74 261.636 131.542 261.796 131.291C261.96 131.04 262.081 130.753 262.158 130.43C262.236 130.102 262.274 129.753 262.274 129.384ZM266.533 122.5V133H265.262V122.5H266.533ZM271.633 133.137C271.118 133.137 270.651 133.05 270.231 132.877C269.817 132.699 269.459 132.451 269.158 132.132C268.862 131.813 268.634 131.435 268.475 130.997C268.315 130.56 268.235 130.081 268.235 129.562V129.274C268.235 128.673 268.324 128.137 268.502 127.668C268.68 127.194 268.921 126.793 269.227 126.465C269.532 126.137 269.878 125.888 270.266 125.72C270.653 125.551 271.054 125.467 271.469 125.467C271.997 125.467 272.453 125.558 272.836 125.74C273.223 125.923 273.54 126.178 273.786 126.506C274.032 126.829 274.215 127.212 274.333 127.654C274.451 128.092 274.511 128.57 274.511 129.09V129.657H268.987V128.625H273.246V128.529C273.228 128.201 273.16 127.882 273.041 127.572C272.927 127.262 272.745 127.007 272.494 126.807C272.243 126.606 271.902 126.506 271.469 126.506C271.182 126.506 270.917 126.567 270.676 126.69C270.434 126.809 270.227 126.987 270.054 127.224C269.881 127.461 269.746 127.75 269.65 128.092C269.555 128.434 269.507 128.828 269.507 129.274V129.562C269.507 129.912 269.555 130.243 269.65 130.553C269.751 130.858 269.894 131.127 270.081 131.359C270.272 131.592 270.503 131.774 270.771 131.906C271.045 132.038 271.355 132.104 271.701 132.104C272.148 132.104 272.526 132.013 272.836 131.831C273.146 131.649 273.417 131.405 273.649 131.1L274.415 131.708C274.256 131.95 274.053 132.18 273.807 132.398C273.561 132.617 273.257 132.795 272.897 132.932C272.542 133.068 272.12 133.137 271.633 133.137ZM276.842 125.604L278.462 128.297L280.103 125.604H281.586L279.166 129.254L281.661 133H280.198L278.489 130.225L276.78 133H275.311L277.799 129.254L275.386 125.604H276.842ZM290.767 131.735V127.928C290.767 127.636 290.707 127.383 290.589 127.169C290.475 126.95 290.302 126.782 290.069 126.663C289.837 126.545 289.55 126.485 289.208 126.485C288.889 126.485 288.609 126.54 288.367 126.649C288.13 126.759 287.943 126.902 287.807 127.08C287.674 127.258 287.608 127.449 287.608 127.654H286.344C286.344 127.39 286.412 127.128 286.549 126.868C286.686 126.608 286.882 126.374 287.137 126.164C287.396 125.95 287.706 125.781 288.066 125.658C288.431 125.531 288.837 125.467 289.283 125.467C289.821 125.467 290.295 125.558 290.705 125.74C291.12 125.923 291.443 126.198 291.676 126.567C291.913 126.932 292.031 127.39 292.031 127.941V131.387C292.031 131.633 292.052 131.895 292.093 132.173C292.138 132.451 292.204 132.69 292.291 132.891V133H290.972C290.908 132.854 290.858 132.66 290.821 132.419C290.785 132.173 290.767 131.945 290.767 131.735ZM290.985 128.516L290.999 129.404H289.721C289.361 129.404 289.039 129.434 288.757 129.493C288.474 129.548 288.237 129.632 288.046 129.746C287.854 129.86 287.709 130.004 287.608 130.177C287.508 130.345 287.458 130.544 287.458 130.771C287.458 131.004 287.51 131.216 287.615 131.407C287.72 131.599 287.877 131.751 288.087 131.865C288.301 131.975 288.563 132.029 288.873 132.029C289.26 132.029 289.602 131.947 289.898 131.783C290.195 131.619 290.429 131.419 290.603 131.182C290.78 130.945 290.876 130.715 290.89 130.491L291.43 131.1C291.398 131.291 291.311 131.503 291.17 131.735C291.029 131.968 290.84 132.191 290.603 132.405C290.37 132.615 290.092 132.79 289.769 132.932C289.45 133.068 289.09 133.137 288.688 133.137C288.187 133.137 287.747 133.039 287.369 132.843C286.995 132.647 286.704 132.385 286.494 132.057C286.289 131.724 286.187 131.353 286.187 130.942C286.187 130.546 286.264 130.197 286.419 129.896C286.574 129.591 286.797 129.338 287.089 129.138C287.381 128.933 287.731 128.778 288.142 128.673C288.552 128.568 289.01 128.516 289.516 128.516H290.985ZM295.285 127.025V135.844H294.014V125.604H295.176L295.285 127.025ZM300.269 129.24V129.384C300.269 129.922 300.205 130.421 300.077 130.881C299.95 131.337 299.763 131.733 299.517 132.07C299.275 132.408 298.977 132.67 298.621 132.856C298.266 133.043 297.858 133.137 297.397 133.137C296.928 133.137 296.513 133.059 296.153 132.904C295.793 132.749 295.488 132.524 295.237 132.228C294.987 131.931 294.786 131.576 294.636 131.161C294.49 130.746 294.39 130.279 294.335 129.76V128.994C294.39 128.447 294.492 127.957 294.643 127.524C294.793 127.091 294.991 126.722 295.237 126.417C295.488 126.107 295.791 125.872 296.146 125.713C296.502 125.549 296.912 125.467 297.377 125.467C297.842 125.467 298.254 125.558 298.614 125.74C298.974 125.918 299.277 126.173 299.523 126.506C299.77 126.839 299.954 127.237 300.077 127.702C300.205 128.162 300.269 128.675 300.269 129.24ZM298.997 129.384V129.24C298.997 128.871 298.958 128.525 298.881 128.201C298.803 127.873 298.683 127.586 298.519 127.34C298.359 127.089 298.154 126.893 297.903 126.752C297.653 126.606 297.354 126.533 297.008 126.533C296.689 126.533 296.411 126.588 296.174 126.697C295.941 126.807 295.743 126.955 295.579 127.142C295.415 127.324 295.281 127.534 295.176 127.771C295.076 128.003 295 128.244 294.95 128.495V130.266C295.041 130.585 295.169 130.885 295.333 131.168C295.497 131.446 295.716 131.672 295.989 131.845C296.263 132.013 296.607 132.098 297.021 132.098C297.363 132.098 297.657 132.027 297.903 131.886C298.154 131.74 298.359 131.542 298.519 131.291C298.683 131.04 298.803 130.753 298.881 130.43C298.958 130.102 298.997 129.753 298.997 129.384ZM303.146 127.025V135.844H301.875V125.604H303.037L303.146 127.025ZM308.13 129.24V129.384C308.13 129.922 308.066 130.421 307.938 130.881C307.811 131.337 307.624 131.733 307.378 132.07C307.136 132.408 306.838 132.67 306.482 132.856C306.127 133.043 305.719 133.137 305.259 133.137C304.789 133.137 304.375 133.059 304.015 132.904C303.655 132.749 303.349 132.524 303.099 132.228C302.848 131.931 302.647 131.576 302.497 131.161C302.351 130.746 302.251 130.279 302.196 129.76V128.994C302.251 128.447 302.354 127.957 302.504 127.524C302.654 127.091 302.853 126.722 303.099 126.417C303.349 126.107 303.652 125.872 304.008 125.713C304.363 125.549 304.773 125.467 305.238 125.467C305.703 125.467 306.116 125.558 306.476 125.74C306.836 125.918 307.139 126.173 307.385 126.506C307.631 126.839 307.815 127.237 307.938 127.702C308.066 128.162 308.13 128.675 308.13 129.24ZM306.858 129.384V129.24C306.858 128.871 306.82 128.525 306.742 128.201C306.665 127.873 306.544 127.586 306.38 127.34C306.22 127.089 306.015 126.893 305.765 126.752C305.514 126.606 305.215 126.533 304.869 126.533C304.55 126.533 304.272 126.588 304.035 126.697C303.803 126.807 303.604 126.955 303.44 127.142C303.276 127.324 303.142 127.534 303.037 127.771C302.937 128.003 302.862 128.244 302.812 128.495V130.266C302.903 130.585 303.03 130.885 303.194 131.168C303.358 131.446 303.577 131.672 303.851 131.845C304.124 132.013 304.468 132.098 304.883 132.098C305.225 132.098 305.519 132.027 305.765 131.886C306.015 131.74 306.22 131.542 306.38 131.291C306.544 131.04 306.665 130.753 306.742 130.43C306.82 130.102 306.858 129.753 306.858 129.384ZM311.117 122.5V133H309.846V122.5H311.117ZM314.521 125.604V133H313.25V125.604H314.521ZM313.154 123.642C313.154 123.437 313.216 123.263 313.339 123.122C313.466 122.981 313.653 122.91 313.899 122.91C314.141 122.91 314.326 122.981 314.453 123.122C314.585 123.263 314.651 123.437 314.651 123.642C314.651 123.838 314.585 124.006 314.453 124.147C314.326 124.284 314.141 124.353 313.899 124.353C313.653 124.353 313.466 124.284 313.339 124.147C313.216 124.006 313.154 123.838 313.154 123.642ZM319.512 132.098C319.812 132.098 320.09 132.036 320.346 131.913C320.601 131.79 320.811 131.621 320.975 131.407C321.139 131.188 321.232 130.94 321.255 130.662H322.458C322.435 131.1 322.287 131.507 322.014 131.886C321.745 132.259 321.392 132.562 320.954 132.795C320.517 133.023 320.036 133.137 319.512 133.137C318.956 133.137 318.47 133.039 318.056 132.843C317.646 132.647 317.304 132.378 317.03 132.036C316.761 131.694 316.559 131.302 316.422 130.86C316.29 130.414 316.224 129.942 316.224 129.445V129.158C316.224 128.661 316.29 128.192 316.422 127.75C316.559 127.303 316.761 126.909 317.03 126.567C317.304 126.226 317.646 125.957 318.056 125.761C318.47 125.565 318.956 125.467 319.512 125.467C320.09 125.467 320.596 125.585 321.029 125.822C321.462 126.055 321.802 126.374 322.048 126.779C322.299 127.18 322.435 127.636 322.458 128.146H321.255C321.232 127.841 321.146 127.565 320.995 127.319C320.849 127.073 320.649 126.877 320.394 126.731C320.143 126.581 319.849 126.506 319.512 126.506C319.124 126.506 318.799 126.583 318.534 126.738C318.274 126.889 318.067 127.094 317.912 127.354C317.762 127.609 317.652 127.894 317.584 128.208C317.52 128.518 317.488 128.835 317.488 129.158V129.445C317.488 129.769 317.52 130.088 317.584 130.402C317.648 130.717 317.755 131.002 317.905 131.257C318.06 131.512 318.268 131.717 318.527 131.872C318.792 132.022 319.12 132.098 319.512 132.098ZM328.241 131.735V127.928C328.241 127.636 328.182 127.383 328.063 127.169C327.95 126.95 327.776 126.782 327.544 126.663C327.312 126.545 327.024 126.485 326.683 126.485C326.364 126.485 326.083 126.54 325.842 126.649C325.605 126.759 325.418 126.902 325.281 127.08C325.149 127.258 325.083 127.449 325.083 127.654H323.818C323.818 127.39 323.887 127.128 324.023 126.868C324.16 126.608 324.356 126.374 324.611 126.164C324.871 125.95 325.181 125.781 325.541 125.658C325.906 125.531 326.311 125.467 326.758 125.467C327.296 125.467 327.77 125.558 328.18 125.74C328.594 125.923 328.918 126.198 329.15 126.567C329.387 126.932 329.506 127.39 329.506 127.941V131.387C329.506 131.633 329.526 131.895 329.567 132.173C329.613 132.451 329.679 132.69 329.766 132.891V133H328.446C328.382 132.854 328.332 132.66 328.296 132.419C328.259 132.173 328.241 131.945 328.241 131.735ZM328.46 128.516L328.474 129.404H327.195C326.835 129.404 326.514 129.434 326.231 129.493C325.949 129.548 325.712 129.632 325.521 129.746C325.329 129.86 325.183 130.004 325.083 130.177C324.983 130.345 324.933 130.544 324.933 130.771C324.933 131.004 324.985 131.216 325.09 131.407C325.195 131.599 325.352 131.751 325.562 131.865C325.776 131.975 326.038 132.029 326.348 132.029C326.735 132.029 327.077 131.947 327.373 131.783C327.669 131.619 327.904 131.419 328.077 131.182C328.255 130.945 328.351 130.715 328.364 130.491L328.904 131.1C328.872 131.291 328.786 131.503 328.645 131.735C328.503 131.968 328.314 132.191 328.077 132.405C327.845 132.615 327.567 132.79 327.243 132.932C326.924 133.068 326.564 133.137 326.163 133.137C325.662 133.137 325.222 133.039 324.844 132.843C324.47 132.647 324.178 132.385 323.969 132.057C323.764 131.724 323.661 131.353 323.661 130.942C323.661 130.546 323.739 130.197 323.894 129.896C324.049 129.591 324.272 129.338 324.563 129.138C324.855 128.933 325.206 128.778 325.616 128.673C326.026 128.568 326.484 128.516 326.99 128.516H328.46ZM334.592 125.604V126.574H330.593V125.604H334.592ZM331.946 123.806H333.211V131.168C333.211 131.419 333.25 131.608 333.327 131.735C333.405 131.863 333.505 131.947 333.628 131.988C333.751 132.029 333.883 132.05 334.024 132.05C334.129 132.05 334.239 132.041 334.353 132.022C334.471 132 334.56 131.981 334.619 131.968L334.626 133C334.526 133.032 334.394 133.062 334.229 133.089C334.07 133.121 333.876 133.137 333.648 133.137C333.339 133.137 333.054 133.075 332.794 132.952C332.534 132.829 332.327 132.624 332.172 132.337C332.021 132.045 331.946 131.653 331.946 131.161V123.806ZM337.449 125.604V133H336.178V125.604H337.449ZM336.082 123.642C336.082 123.437 336.144 123.263 336.267 123.122C336.394 122.981 336.581 122.91 336.827 122.91C337.069 122.91 337.253 122.981 337.381 123.122C337.513 123.263 337.579 123.437 337.579 123.642C337.579 123.838 337.513 124.006 337.381 124.147C337.253 124.284 337.069 124.353 336.827 124.353C336.581 124.353 336.394 124.284 336.267 124.147C336.144 124.006 336.082 123.838 336.082 123.642ZM339.145 129.384V129.227C339.145 128.693 339.222 128.199 339.377 127.743C339.532 127.283 339.755 126.884 340.047 126.547C340.339 126.205 340.692 125.941 341.106 125.754C341.521 125.562 341.986 125.467 342.501 125.467C343.021 125.467 343.488 125.562 343.902 125.754C344.322 125.941 344.677 126.205 344.969 126.547C345.265 126.884 345.491 127.283 345.646 127.743C345.8 128.199 345.878 128.693 345.878 129.227V129.384C345.878 129.917 345.8 130.411 345.646 130.867C345.491 131.323 345.265 131.722 344.969 132.063C344.677 132.401 344.324 132.665 343.909 132.856C343.499 133.043 343.034 133.137 342.515 133.137C341.995 133.137 341.528 133.043 341.113 132.856C340.699 132.665 340.343 132.401 340.047 132.063C339.755 131.722 339.532 131.323 339.377 130.867C339.222 130.411 339.145 129.917 339.145 129.384ZM340.409 129.227V129.384C340.409 129.753 340.452 130.102 340.539 130.43C340.626 130.753 340.756 131.04 340.929 131.291C341.106 131.542 341.327 131.74 341.592 131.886C341.856 132.027 342.164 132.098 342.515 132.098C342.861 132.098 343.164 132.027 343.424 131.886C343.688 131.74 343.907 131.542 344.08 131.291C344.253 131.04 344.383 130.753 344.47 130.43C344.561 130.102 344.606 129.753 344.606 129.384V129.227C344.606 128.862 344.561 128.518 344.47 128.194C344.383 127.866 344.251 127.577 344.073 127.326C343.9 127.071 343.681 126.87 343.417 126.725C343.157 126.579 342.852 126.506 342.501 126.506C342.155 126.506 341.849 126.579 341.585 126.725C341.325 126.87 341.106 127.071 340.929 127.326C340.756 127.577 340.626 127.866 340.539 128.194C340.452 128.518 340.409 128.862 340.409 129.227ZM348.729 127.183V133H347.464V125.604H348.66L348.729 127.183ZM348.428 129.021L347.901 129.001C347.906 128.495 347.981 128.028 348.127 127.6C348.273 127.167 348.478 126.791 348.742 126.472C349.007 126.153 349.321 125.907 349.686 125.733C350.055 125.556 350.463 125.467 350.909 125.467C351.274 125.467 351.602 125.517 351.894 125.617C352.185 125.713 352.434 125.868 352.639 126.082C352.848 126.296 353.008 126.574 353.117 126.916C353.227 127.253 353.281 127.666 353.281 128.153V133H352.01V128.14C352.01 127.752 351.953 127.442 351.839 127.21C351.725 126.973 351.559 126.802 351.34 126.697C351.121 126.588 350.852 126.533 350.533 126.533C350.219 126.533 349.932 126.599 349.672 126.731C349.417 126.864 349.196 127.046 349.009 127.278C348.826 127.511 348.683 127.777 348.578 128.078C348.478 128.374 348.428 128.689 348.428 129.021ZM139.809 148.025V156.844H138.537V146.604H139.699L139.809 148.025ZM144.792 150.24V150.384C144.792 150.922 144.728 151.421 144.601 151.881C144.473 152.337 144.286 152.733 144.04 153.07C143.799 153.408 143.5 153.67 143.145 153.856C142.789 154.043 142.381 154.137 141.921 154.137C141.451 154.137 141.037 154.059 140.677 153.904C140.317 153.749 140.011 153.524 139.761 153.228C139.51 152.931 139.31 152.576 139.159 152.161C139.013 151.746 138.913 151.279 138.858 150.76V149.994C138.913 149.447 139.016 148.957 139.166 148.524C139.316 148.091 139.515 147.722 139.761 147.417C140.011 147.107 140.314 146.872 140.67 146.713C141.025 146.549 141.436 146.467 141.9 146.467C142.365 146.467 142.778 146.558 143.138 146.74C143.498 146.918 143.801 147.173 144.047 147.506C144.293 147.839 144.478 148.237 144.601 148.702C144.728 149.162 144.792 149.675 144.792 150.24ZM143.521 150.384V150.24C143.521 149.871 143.482 149.525 143.404 149.201C143.327 148.873 143.206 148.586 143.042 148.34C142.882 148.089 142.677 147.893 142.427 147.752C142.176 147.606 141.878 147.533 141.531 147.533C141.212 147.533 140.934 147.588 140.697 147.697C140.465 147.807 140.267 147.955 140.103 148.142C139.938 148.324 139.804 148.534 139.699 148.771C139.599 149.003 139.524 149.244 139.474 149.495V151.266C139.565 151.585 139.692 151.885 139.856 152.168C140.021 152.446 140.239 152.672 140.513 152.845C140.786 153.013 141.13 153.098 141.545 153.098C141.887 153.098 142.181 153.027 142.427 152.886C142.677 152.74 142.882 152.542 143.042 152.291C143.206 152.04 143.327 151.753 143.404 151.43C143.482 151.102 143.521 150.753 143.521 150.384ZM149.475 154.137C148.96 154.137 148.493 154.05 148.073 153.877C147.659 153.699 147.301 153.451 147 153.132C146.704 152.813 146.476 152.435 146.316 151.997C146.157 151.56 146.077 151.081 146.077 150.562V150.274C146.077 149.673 146.166 149.137 146.344 148.668C146.521 148.194 146.763 147.793 147.068 147.465C147.374 147.137 147.72 146.888 148.107 146.72C148.495 146.551 148.896 146.467 149.311 146.467C149.839 146.467 150.295 146.558 150.678 146.74C151.065 146.923 151.382 147.178 151.628 147.506C151.874 147.829 152.056 148.212 152.175 148.654C152.293 149.092 152.353 149.57 152.353 150.09V150.657H146.829V149.625H151.088V149.529C151.07 149.201 151.001 148.882 150.883 148.572C150.769 148.262 150.587 148.007 150.336 147.807C150.085 147.606 149.743 147.506 149.311 147.506C149.023 147.506 148.759 147.567 148.518 147.69C148.276 147.809 148.069 147.987 147.896 148.224C147.722 148.461 147.588 148.75 147.492 149.092C147.396 149.434 147.349 149.828 147.349 150.274V150.562C147.349 150.912 147.396 151.243 147.492 151.553C147.592 151.858 147.736 152.127 147.923 152.359C148.114 152.592 148.344 152.774 148.613 152.906C148.887 153.038 149.197 153.104 149.543 153.104C149.99 153.104 150.368 153.013 150.678 152.831C150.988 152.649 151.259 152.405 151.491 152.1L152.257 152.708C152.097 152.95 151.895 153.18 151.648 153.398C151.402 153.617 151.099 153.795 150.739 153.932C150.384 154.068 149.962 154.137 149.475 154.137ZM155.094 147.766V154H153.829V146.604H155.06L155.094 147.766ZM157.404 146.562L157.397 147.738C157.293 147.715 157.192 147.702 157.097 147.697C157.006 147.688 156.901 147.684 156.782 147.684C156.491 147.684 156.233 147.729 156.01 147.82C155.786 147.911 155.597 148.039 155.442 148.203C155.287 148.367 155.164 148.563 155.073 148.791C154.987 149.014 154.93 149.26 154.902 149.529L154.547 149.734C154.547 149.288 154.59 148.868 154.677 148.477C154.768 148.085 154.907 147.738 155.094 147.438C155.281 147.132 155.518 146.895 155.805 146.727C156.096 146.553 156.443 146.467 156.844 146.467C156.935 146.467 157.04 146.478 157.158 146.501C157.277 146.519 157.359 146.54 157.404 146.562ZM160.569 154H159.305V145.824C159.305 145.291 159.4 144.842 159.592 144.478C159.788 144.108 160.068 143.83 160.433 143.644C160.797 143.452 161.23 143.356 161.731 143.356C161.877 143.356 162.023 143.366 162.169 143.384C162.319 143.402 162.465 143.429 162.606 143.466L162.538 144.498C162.442 144.475 162.333 144.459 162.21 144.45C162.091 144.441 161.973 144.437 161.854 144.437C161.586 144.437 161.353 144.491 161.157 144.601C160.966 144.705 160.82 144.86 160.72 145.065C160.619 145.271 160.569 145.523 160.569 145.824V154ZM162.142 146.604V147.574H158.136V146.604H162.142ZM163.215 150.384V150.227C163.215 149.693 163.292 149.199 163.447 148.743C163.602 148.283 163.826 147.884 164.117 147.547C164.409 147.205 164.762 146.941 165.177 146.754C165.591 146.562 166.056 146.467 166.571 146.467C167.091 146.467 167.558 146.562 167.973 146.754C168.392 146.941 168.747 147.205 169.039 147.547C169.335 147.884 169.561 148.283 169.716 148.743C169.871 149.199 169.948 149.693 169.948 150.227V150.384C169.948 150.917 169.871 151.411 169.716 151.867C169.561 152.323 169.335 152.722 169.039 153.063C168.747 153.401 168.394 153.665 167.979 153.856C167.569 154.043 167.104 154.137 166.585 154.137C166.065 154.137 165.598 154.043 165.184 153.856C164.769 153.665 164.413 153.401 164.117 153.063C163.826 152.722 163.602 152.323 163.447 151.867C163.292 151.411 163.215 150.917 163.215 150.384ZM164.479 150.227V150.384C164.479 150.753 164.523 151.102 164.609 151.43C164.696 151.753 164.826 152.04 164.999 152.291C165.177 152.542 165.398 152.74 165.662 152.886C165.926 153.027 166.234 153.098 166.585 153.098C166.931 153.098 167.234 153.027 167.494 152.886C167.758 152.74 167.977 152.542 168.15 152.291C168.324 152.04 168.453 151.753 168.54 151.43C168.631 151.102 168.677 150.753 168.677 150.384V150.227C168.677 149.862 168.631 149.518 168.54 149.194C168.453 148.866 168.321 148.577 168.144 148.326C167.97 148.071 167.752 147.87 167.487 147.725C167.228 147.579 166.922 147.506 166.571 147.506C166.225 147.506 165.92 147.579 165.655 147.725C165.396 147.87 165.177 148.071 164.999 148.326C164.826 148.577 164.696 148.866 164.609 149.194C164.523 149.518 164.479 149.862 164.479 150.227ZM172.799 147.766V154H171.534V146.604H172.765L172.799 147.766ZM175.109 146.562L175.103 147.738C174.998 147.715 174.897 147.702 174.802 147.697C174.711 147.688 174.606 147.684 174.487 147.684C174.196 147.684 173.938 147.729 173.715 147.82C173.492 147.911 173.302 148.039 173.147 148.203C172.993 148.367 172.869 148.563 172.778 148.791C172.692 149.014 172.635 149.26 172.607 149.529L172.252 149.734C172.252 149.288 172.295 148.868 172.382 148.477C172.473 148.085 172.612 147.738 172.799 147.438C172.986 147.132 173.223 146.895 173.51 146.727C173.801 146.553 174.148 146.467 174.549 146.467C174.64 146.467 174.745 146.478 174.863 146.501C174.982 146.519 175.064 146.54 175.109 146.562ZM177.536 148.073V154H176.265V146.604H177.468L177.536 148.073ZM177.276 150.021L176.688 150.001C176.693 149.495 176.759 149.028 176.887 148.6C177.014 148.167 177.203 147.791 177.454 147.472C177.705 147.153 178.017 146.907 178.391 146.733C178.764 146.556 179.197 146.467 179.689 146.467C180.036 146.467 180.355 146.517 180.646 146.617C180.938 146.713 181.191 146.866 181.405 147.075C181.619 147.285 181.786 147.554 181.904 147.882C182.023 148.21 182.082 148.606 182.082 149.071V154H180.817V149.133C180.817 148.745 180.751 148.436 180.619 148.203C180.492 147.971 180.309 147.802 180.072 147.697C179.835 147.588 179.557 147.533 179.238 147.533C178.865 147.533 178.552 147.599 178.302 147.731C178.051 147.864 177.851 148.046 177.7 148.278C177.55 148.511 177.44 148.777 177.372 149.078C177.308 149.374 177.276 149.689 177.276 150.021ZM182.068 149.324L181.221 149.584C181.225 149.178 181.291 148.789 181.419 148.415C181.551 148.041 181.74 147.709 181.986 147.417C182.237 147.125 182.545 146.895 182.909 146.727C183.274 146.553 183.691 146.467 184.16 146.467C184.557 146.467 184.908 146.519 185.213 146.624C185.523 146.729 185.783 146.891 185.992 147.109C186.206 147.324 186.368 147.599 186.478 147.937C186.587 148.274 186.642 148.675 186.642 149.14V154H185.37V149.126C185.37 148.711 185.304 148.39 185.172 148.162C185.044 147.93 184.862 147.768 184.625 147.677C184.393 147.581 184.115 147.533 183.791 147.533C183.513 147.533 183.267 147.581 183.053 147.677C182.839 147.772 182.659 147.905 182.513 148.073C182.367 148.237 182.255 148.426 182.178 148.641C182.105 148.855 182.068 149.083 182.068 149.324ZM192.917 152.735V148.928C192.917 148.636 192.858 148.383 192.739 148.169C192.625 147.95 192.452 147.782 192.22 147.663C191.987 147.545 191.7 147.485 191.358 147.485C191.039 147.485 190.759 147.54 190.518 147.649C190.281 147.759 190.094 147.902 189.957 148.08C189.825 148.258 189.759 148.449 189.759 148.654H188.494C188.494 148.39 188.562 148.128 188.699 147.868C188.836 147.608 189.032 147.374 189.287 147.164C189.547 146.95 189.857 146.781 190.217 146.658C190.581 146.531 190.987 146.467 191.434 146.467C191.971 146.467 192.445 146.558 192.855 146.74C193.27 146.923 193.594 147.198 193.826 147.567C194.063 147.932 194.182 148.39 194.182 148.941V152.387C194.182 152.633 194.202 152.895 194.243 153.173C194.289 153.451 194.355 153.69 194.441 153.891V154H193.122C193.058 153.854 193.008 153.66 192.972 153.419C192.935 153.173 192.917 152.945 192.917 152.735ZM193.136 149.516L193.149 150.404H191.871C191.511 150.404 191.19 150.434 190.907 150.493C190.625 150.548 190.388 150.632 190.196 150.746C190.005 150.86 189.859 151.004 189.759 151.177C189.659 151.345 189.608 151.544 189.608 151.771C189.608 152.004 189.661 152.216 189.766 152.407C189.87 152.599 190.028 152.751 190.237 152.865C190.451 152.975 190.714 153.029 191.023 153.029C191.411 153.029 191.753 152.947 192.049 152.783C192.345 152.619 192.58 152.419 192.753 152.182C192.931 151.945 193.026 151.715 193.04 151.491L193.58 152.1C193.548 152.291 193.462 152.503 193.32 152.735C193.179 152.968 192.99 153.191 192.753 153.405C192.521 153.615 192.243 153.79 191.919 153.932C191.6 154.068 191.24 154.137 190.839 154.137C190.338 154.137 189.898 154.039 189.52 153.843C189.146 153.647 188.854 153.385 188.645 153.057C188.439 152.724 188.337 152.353 188.337 151.942C188.337 151.546 188.414 151.197 188.569 150.896C188.724 150.591 188.948 150.338 189.239 150.138C189.531 149.933 189.882 149.778 190.292 149.673C190.702 149.568 191.16 149.516 191.666 149.516H193.136ZM197.436 148.183V154H196.171V146.604H197.367L197.436 148.183ZM197.135 150.021L196.608 150.001C196.613 149.495 196.688 149.028 196.834 148.6C196.98 148.167 197.185 147.791 197.449 147.472C197.714 147.153 198.028 146.907 198.393 146.733C198.762 146.556 199.17 146.467 199.616 146.467C199.981 146.467 200.309 146.517 200.601 146.617C200.892 146.713 201.141 146.868 201.346 147.082C201.555 147.296 201.715 147.574 201.824 147.916C201.934 148.253 201.988 148.666 201.988 149.153V154H200.717V149.14C200.717 148.752 200.66 148.442 200.546 148.21C200.432 147.973 200.266 147.802 200.047 147.697C199.828 147.588 199.559 147.533 199.24 147.533C198.926 147.533 198.639 147.599 198.379 147.731C198.124 147.864 197.903 148.046 197.716 148.278C197.534 148.511 197.39 148.777 197.285 149.078C197.185 149.374 197.135 149.689 197.135 150.021ZM206.869 153.098C207.17 153.098 207.448 153.036 207.703 152.913C207.958 152.79 208.168 152.621 208.332 152.407C208.496 152.188 208.59 151.94 208.612 151.662H209.815C209.793 152.1 209.645 152.507 209.371 152.886C209.102 153.259 208.749 153.562 208.312 153.795C207.874 154.023 207.393 154.137 206.869 154.137C206.313 154.137 205.828 154.039 205.413 153.843C205.003 153.647 204.661 153.378 204.388 153.036C204.119 152.694 203.916 152.302 203.779 151.86C203.647 151.414 203.581 150.942 203.581 150.445V150.158C203.581 149.661 203.647 149.192 203.779 148.75C203.916 148.303 204.119 147.909 204.388 147.567C204.661 147.226 205.003 146.957 205.413 146.761C205.828 146.565 206.313 146.467 206.869 146.467C207.448 146.467 207.954 146.585 208.387 146.822C208.82 147.055 209.159 147.374 209.405 147.779C209.656 148.18 209.793 148.636 209.815 149.146H208.612C208.59 148.841 208.503 148.565 208.353 148.319C208.207 148.073 208.006 147.877 207.751 147.731C207.5 147.581 207.206 147.506 206.869 147.506C206.482 147.506 206.156 147.583 205.892 147.738C205.632 147.889 205.424 148.094 205.27 148.354C205.119 148.609 205.01 148.894 204.941 149.208C204.878 149.518 204.846 149.835 204.846 150.158V150.445C204.846 150.769 204.878 151.088 204.941 151.402C205.005 151.717 205.112 152.002 205.263 152.257C205.418 152.512 205.625 152.717 205.885 152.872C206.149 153.022 206.477 153.098 206.869 153.098ZM214.307 154.137C213.792 154.137 213.325 154.05 212.905 153.877C212.491 153.699 212.133 153.451 211.832 153.132C211.536 152.813 211.308 152.435 211.148 151.997C210.989 151.56 210.909 151.081 210.909 150.562V150.274C210.909 149.673 210.998 149.137 211.176 148.668C211.354 148.194 211.595 147.793 211.9 147.465C212.206 147.137 212.552 146.888 212.939 146.72C213.327 146.551 213.728 146.467 214.143 146.467C214.671 146.467 215.127 146.558 215.51 146.74C215.897 146.923 216.214 147.178 216.46 147.506C216.706 147.829 216.888 148.212 217.007 148.654C217.125 149.092 217.185 149.57 217.185 150.09V150.657H211.661V149.625H215.92V149.529C215.902 149.201 215.833 148.882 215.715 148.572C215.601 148.262 215.419 148.007 215.168 147.807C214.917 147.606 214.576 147.506 214.143 147.506C213.855 147.506 213.591 147.567 213.35 147.69C213.108 147.809 212.901 147.987 212.728 148.224C212.554 148.461 212.42 148.75 212.324 149.092C212.229 149.434 212.181 149.828 212.181 150.274V150.562C212.181 150.912 212.229 151.243 212.324 151.553C212.424 151.858 212.568 152.127 212.755 152.359C212.946 152.592 213.176 152.774 213.445 152.906C213.719 153.038 214.029 153.104 214.375 153.104C214.822 153.104 215.2 153.013 215.51 152.831C215.82 152.649 216.091 152.405 216.323 152.1L217.089 152.708C216.929 152.95 216.727 153.18 216.48 153.398C216.234 153.617 215.931 153.795 215.571 153.932C215.216 154.068 214.794 154.137 214.307 154.137ZM223.508 146.604V154H222.236V146.604H223.508ZM222.141 144.642C222.141 144.437 222.202 144.263 222.325 144.122C222.453 143.981 222.64 143.91 222.886 143.91C223.127 143.91 223.312 143.981 223.439 144.122C223.572 144.263 223.638 144.437 223.638 144.642C223.638 144.838 223.572 145.006 223.439 145.147C223.312 145.284 223.127 145.353 222.886 145.353C222.64 145.353 222.453 145.284 222.325 145.147C222.202 145.006 222.141 144.838 222.141 144.642ZM229.845 152.038C229.845 151.856 229.804 151.687 229.722 151.532C229.644 151.373 229.482 151.229 229.236 151.102C228.995 150.969 228.63 150.855 228.143 150.76C227.732 150.673 227.361 150.571 227.028 150.452C226.7 150.334 226.42 150.19 226.188 150.021C225.96 149.853 225.784 149.655 225.661 149.427C225.538 149.199 225.477 148.932 225.477 148.627C225.477 148.335 225.54 148.06 225.668 147.8C225.8 147.54 225.985 147.31 226.222 147.109C226.463 146.909 226.753 146.752 227.09 146.638C227.427 146.524 227.803 146.467 228.218 146.467C228.81 146.467 229.316 146.572 229.735 146.781C230.155 146.991 230.476 147.271 230.699 147.622C230.923 147.968 231.034 148.354 231.034 148.777H229.77C229.77 148.572 229.708 148.374 229.585 148.183C229.466 147.987 229.291 147.825 229.059 147.697C228.831 147.57 228.55 147.506 228.218 147.506C227.867 147.506 227.582 147.561 227.363 147.67C227.149 147.775 226.992 147.909 226.892 148.073C226.796 148.237 226.748 148.41 226.748 148.593C226.748 148.729 226.771 148.853 226.816 148.962C226.867 149.067 226.953 149.165 227.076 149.256C227.199 149.342 227.372 149.424 227.596 149.502C227.819 149.579 228.104 149.657 228.45 149.734C229.056 149.871 229.555 150.035 229.947 150.227C230.339 150.418 230.631 150.653 230.822 150.931C231.014 151.209 231.109 151.546 231.109 151.942C231.109 152.266 231.041 152.562 230.904 152.831C230.772 153.1 230.578 153.332 230.323 153.528C230.073 153.72 229.772 153.87 229.421 153.979C229.075 154.084 228.685 154.137 228.252 154.137C227.6 154.137 227.049 154.021 226.598 153.788C226.146 153.556 225.805 153.255 225.572 152.886C225.34 152.517 225.224 152.127 225.224 151.717H226.495C226.513 152.063 226.614 152.339 226.796 152.544C226.978 152.744 227.201 152.888 227.466 152.975C227.73 153.057 227.992 153.098 228.252 153.098C228.598 153.098 228.888 153.052 229.12 152.961C229.357 152.87 229.537 152.744 229.66 152.585C229.783 152.425 229.845 152.243 229.845 152.038ZM237.077 152.038C237.077 151.856 237.036 151.687 236.954 151.532C236.877 151.373 236.715 151.229 236.469 151.102C236.227 150.969 235.863 150.855 235.375 150.76C234.965 150.673 234.593 150.571 234.261 150.452C233.933 150.334 233.652 150.19 233.42 150.021C233.192 149.853 233.017 149.655 232.894 149.427C232.771 149.199 232.709 148.932 232.709 148.627C232.709 148.335 232.773 148.06 232.9 147.8C233.033 147.54 233.217 147.31 233.454 147.109C233.696 146.909 233.985 146.752 234.322 146.638C234.66 146.524 235.035 146.467 235.45 146.467C236.043 146.467 236.549 146.572 236.968 146.781C237.387 146.991 237.708 147.271 237.932 147.622C238.155 147.968 238.267 148.354 238.267 148.777H237.002C237.002 148.572 236.94 148.374 236.817 148.183C236.699 147.987 236.523 147.825 236.291 147.697C236.063 147.57 235.783 147.506 235.45 147.506C235.099 147.506 234.814 147.561 234.596 147.67C234.382 147.775 234.224 147.909 234.124 148.073C234.028 148.237 233.98 148.41 233.98 148.593C233.98 148.729 234.003 148.853 234.049 148.962C234.099 149.067 234.186 149.165 234.309 149.256C234.432 149.342 234.605 149.424 234.828 149.502C235.051 149.579 235.336 149.657 235.683 149.734C236.289 149.871 236.788 150.035 237.18 150.227C237.572 150.418 237.863 150.653 238.055 150.931C238.246 151.209 238.342 151.546 238.342 151.942C238.342 152.266 238.273 152.562 238.137 152.831C238.005 153.1 237.811 153.332 237.556 153.528C237.305 153.72 237.004 153.87 236.653 153.979C236.307 154.084 235.917 154.137 235.484 154.137C234.833 154.137 234.281 154.021 233.83 153.788C233.379 153.556 233.037 153.255 232.805 152.886C232.572 152.517 232.456 152.127 232.456 151.717H233.728C233.746 152.063 233.846 152.339 234.028 152.544C234.211 152.744 234.434 152.888 234.698 152.975C234.963 153.057 235.225 153.098 235.484 153.098C235.831 153.098 236.12 153.052 236.353 152.961C236.59 152.87 236.77 152.744 236.893 152.585C237.016 152.425 237.077 152.243 237.077 152.038ZM244.528 152.291V146.604H245.8V154H244.59L244.528 152.291ZM244.768 150.732L245.294 150.719C245.294 151.211 245.242 151.667 245.137 152.086C245.036 152.501 244.872 152.861 244.645 153.166C244.417 153.471 244.118 153.711 243.749 153.884C243.38 154.052 242.931 154.137 242.402 154.137C242.042 154.137 241.712 154.084 241.411 153.979C241.115 153.875 240.86 153.713 240.646 153.494C240.431 153.275 240.265 152.991 240.146 152.64C240.033 152.289 239.976 151.867 239.976 151.375V146.604H241.24V151.389C241.24 151.721 241.277 151.997 241.35 152.216C241.427 152.43 241.53 152.601 241.657 152.729C241.789 152.852 241.935 152.938 242.095 152.988C242.259 153.038 242.427 153.063 242.601 153.063C243.138 153.063 243.564 152.961 243.879 152.756C244.193 152.546 244.419 152.266 244.556 151.915C244.697 151.56 244.768 151.165 244.768 150.732ZM250.797 154.137C250.282 154.137 249.815 154.05 249.396 153.877C248.981 153.699 248.623 153.451 248.322 153.132C248.026 152.813 247.798 152.435 247.639 151.997C247.479 151.56 247.399 151.081 247.399 150.562V150.274C247.399 149.673 247.488 149.137 247.666 148.668C247.844 148.194 248.085 147.793 248.391 147.465C248.696 147.137 249.042 146.888 249.43 146.72C249.817 146.551 250.218 146.467 250.633 146.467C251.161 146.467 251.617 146.558 252 146.74C252.387 146.923 252.704 147.178 252.95 147.506C253.196 147.829 253.379 148.212 253.497 148.654C253.616 149.092 253.675 149.57 253.675 150.09V150.657H248.151V149.625H252.41V149.529C252.392 149.201 252.324 148.882 252.205 148.572C252.091 148.262 251.909 148.007 251.658 147.807C251.408 147.606 251.066 147.506 250.633 147.506C250.346 147.506 250.081 147.567 249.84 147.69C249.598 147.809 249.391 147.987 249.218 148.224C249.045 148.461 248.91 148.75 248.814 149.092C248.719 149.434 248.671 149.828 248.671 150.274V150.562C248.671 150.912 248.719 151.243 248.814 151.553C248.915 151.858 249.058 152.127 249.245 152.359C249.437 152.592 249.667 152.774 249.936 152.906C250.209 153.038 250.519 153.104 250.865 153.104C251.312 153.104 251.69 153.013 252 152.831C252.31 152.649 252.581 152.405 252.813 152.1L253.579 152.708C253.42 152.95 253.217 153.18 252.971 153.398C252.725 153.617 252.422 153.795 252.062 153.932C251.706 154.068 251.285 154.137 250.797 154.137ZM259.458 152.038C259.458 151.856 259.417 151.687 259.335 151.532C259.257 151.373 259.096 151.229 258.85 151.102C258.608 150.969 258.243 150.855 257.756 150.76C257.346 150.673 256.974 150.571 256.642 150.452C256.313 150.334 256.033 150.19 255.801 150.021C255.573 149.853 255.397 149.655 255.274 149.427C255.151 149.199 255.09 148.932 255.09 148.627C255.09 148.335 255.154 148.06 255.281 147.8C255.413 147.54 255.598 147.31 255.835 147.109C256.076 146.909 256.366 146.752 256.703 146.638C257.04 146.524 257.416 146.467 257.831 146.467C258.424 146.467 258.929 146.572 259.349 146.781C259.768 146.991 260.089 147.271 260.312 147.622C260.536 147.968 260.647 148.354 260.647 148.777H259.383C259.383 148.572 259.321 148.374 259.198 148.183C259.08 147.987 258.904 147.825 258.672 147.697C258.444 147.57 258.164 147.506 257.831 147.506C257.48 147.506 257.195 147.561 256.977 147.67C256.762 147.775 256.605 147.909 256.505 148.073C256.409 148.237 256.361 148.41 256.361 148.593C256.361 148.729 256.384 148.853 256.43 148.962C256.48 149.067 256.566 149.165 256.689 149.256C256.812 149.342 256.986 149.424 257.209 149.502C257.432 149.579 257.717 149.657 258.063 149.734C258.67 149.871 259.169 150.035 259.561 150.227C259.952 150.418 260.244 150.653 260.436 150.931C260.627 151.209 260.723 151.546 260.723 151.942C260.723 152.266 260.654 152.562 260.518 152.831C260.385 153.1 260.192 153.332 259.937 153.528C259.686 153.72 259.385 153.87 259.034 153.979C258.688 154.084 258.298 154.137 257.865 154.137C257.214 154.137 256.662 154.021 256.211 153.788C255.76 153.556 255.418 153.255 255.186 152.886C254.953 152.517 254.837 152.127 254.837 151.717H256.108C256.127 152.063 256.227 152.339 256.409 152.544C256.591 152.744 256.815 152.888 257.079 152.975C257.343 153.057 257.605 153.098 257.865 153.098C258.212 153.098 258.501 153.052 258.733 152.961C258.97 152.87 259.15 152.744 259.273 152.585C259.396 152.425 259.458 152.243 259.458 152.038Z" fill="white"/>
</g>
<rect x="30.5" y="197" width="338" height="40" rx="6" fill="#006AA2"/>
<path d="M185.131 214.993C185.078 214.522 184.859 214.158 184.475 213.899C184.09 213.637 183.606 213.506 183.023 213.506C182.605 213.506 182.244 213.573 181.939 213.705C181.634 213.835 181.397 214.014 181.228 214.242C181.062 214.468 180.98 214.724 180.98 215.013C180.98 215.255 181.036 215.464 181.149 215.639C181.265 215.815 181.415 215.962 181.601 216.082C181.79 216.198 181.992 216.295 182.208 216.375C182.423 216.451 182.63 216.514 182.829 216.564L183.823 216.822C184.148 216.902 184.481 217.01 184.823 217.146C185.164 217.282 185.481 217.46 185.772 217.683C186.064 217.905 186.299 218.18 186.478 218.508C186.66 218.836 186.752 219.229 186.752 219.686C186.752 220.263 186.602 220.775 186.304 221.222C186.009 221.67 185.58 222.023 185.017 222.281C184.456 222.54 183.779 222.669 182.983 222.669C182.221 222.669 181.561 222.548 181.004 222.306C180.448 222.064 180.012 221.721 179.697 221.277C179.382 220.83 179.208 220.299 179.175 219.686H180.716C180.746 220.054 180.865 220.361 181.074 220.606C181.286 220.848 181.556 221.028 181.884 221.148C182.216 221.264 182.579 221.322 182.973 221.322C183.407 221.322 183.794 221.254 184.132 221.118C184.473 220.979 184.741 220.786 184.937 220.541C185.133 220.293 185.23 220.003 185.23 219.671C185.23 219.37 185.144 219.123 184.972 218.93C184.803 218.738 184.572 218.579 184.281 218.453C183.992 218.327 183.666 218.216 183.301 218.12L182.098 217.792C181.283 217.57 180.637 217.243 180.159 216.813C179.685 216.382 179.448 215.812 179.448 215.102C179.448 214.516 179.607 214.004 179.926 213.566C180.244 213.129 180.675 212.789 181.218 212.547C181.762 212.302 182.375 212.179 183.058 212.179C183.747 212.179 184.355 212.3 184.882 212.542C185.413 212.784 185.83 213.117 186.135 213.541C186.44 213.962 186.599 214.446 186.612 214.993H185.131ZM191.759 222.654C191.007 222.654 190.359 222.493 189.815 222.172C189.275 221.847 188.857 221.391 188.562 220.805C188.271 220.215 188.125 219.524 188.125 218.732C188.125 217.949 188.271 217.26 188.562 216.663C188.857 216.067 189.268 215.601 189.795 215.266C190.326 214.932 190.946 214.764 191.655 214.764C192.086 214.764 192.503 214.835 192.908 214.978C193.312 215.121 193.675 215.344 193.996 215.649C194.318 215.954 194.571 216.35 194.757 216.837C194.943 217.321 195.036 217.91 195.036 218.602V219.129H188.965V218.016H193.579C193.579 217.625 193.499 217.278 193.34 216.977C193.181 216.672 192.957 216.431 192.669 216.256C192.384 216.08 192.049 215.992 191.665 215.992C191.247 215.992 190.883 216.095 190.571 216.3C190.263 216.503 190.024 216.768 189.855 217.096C189.689 217.421 189.607 217.774 189.607 218.155V219.025C189.607 219.535 189.696 219.969 189.875 220.327C190.057 220.685 190.311 220.959 190.636 221.148C190.96 221.333 191.34 221.426 191.774 221.426C192.056 221.426 192.313 221.386 192.545 221.307C192.777 221.224 192.977 221.101 193.146 220.939C193.315 220.777 193.445 220.576 193.534 220.337L194.941 220.591C194.828 221.005 194.626 221.368 194.335 221.68C194.046 221.988 193.683 222.228 193.246 222.401C192.812 222.57 192.316 222.654 191.759 222.654ZM198.171 212.318V222.5H196.685V212.318H198.171ZM203.462 222.654C202.71 222.654 202.062 222.493 201.518 222.172C200.978 221.847 200.561 221.391 200.266 220.805C199.974 220.215 199.828 219.524 199.828 218.732C199.828 217.949 199.974 217.26 200.266 216.663C200.561 216.067 200.972 215.601 201.499 215.266C202.029 214.932 202.649 214.764 203.358 214.764C203.789 214.764 204.206 214.835 204.611 214.978C205.015 215.121 205.378 215.344 205.7 215.649C206.021 215.954 206.275 216.35 206.46 216.837C206.646 217.321 206.739 217.91 206.739 218.602V219.129H200.668V218.016H205.282C205.282 217.625 205.202 217.278 205.043 216.977C204.884 216.672 204.661 216.431 204.372 216.256C204.087 216.08 203.752 215.992 203.368 215.992C202.95 215.992 202.586 216.095 202.274 216.3C201.966 216.503 201.727 216.768 201.558 217.096C201.393 217.421 201.31 217.774 201.31 218.155V219.025C201.31 219.535 201.399 219.969 201.578 220.327C201.76 220.685 202.014 220.959 202.339 221.148C202.664 221.333 203.043 221.426 203.477 221.426C203.759 221.426 204.016 221.386 204.248 221.307C204.48 221.224 204.68 221.101 204.849 220.939C205.018 220.777 205.148 220.576 205.237 220.337L206.644 220.591C206.531 221.005 206.329 221.368 206.038 221.68C205.749 221.988 205.386 222.228 204.949 222.401C204.515 222.57 204.019 222.654 203.462 222.654ZM211.605 222.654C210.865 222.654 210.229 222.487 209.695 222.152C209.165 221.814 208.758 221.348 208.472 220.755C208.187 220.162 208.045 219.482 208.045 218.717C208.045 217.941 208.191 217.257 208.482 216.663C208.774 216.067 209.185 215.601 209.715 215.266C210.246 214.932 210.87 214.764 211.59 214.764C212.17 214.764 212.687 214.872 213.141 215.087C213.595 215.3 213.961 215.598 214.24 215.982C214.521 216.367 214.689 216.816 214.742 217.33H213.295C213.215 216.972 213.033 216.663 212.748 216.405C212.466 216.146 212.088 216.017 211.615 216.017C211.2 216.017 210.837 216.126 210.526 216.345C210.218 216.561 209.977 216.869 209.805 217.27C209.633 217.668 209.546 218.138 209.546 218.682C209.546 219.239 209.631 219.719 209.8 220.124C209.969 220.528 210.208 220.841 210.516 221.063C210.827 221.285 211.194 221.396 211.615 221.396C211.896 221.396 212.151 221.345 212.38 221.242C212.612 221.136 212.806 220.985 212.962 220.79C213.121 220.594 213.232 220.359 213.295 220.084H214.742C214.689 220.578 214.528 221.018 214.259 221.406C213.991 221.794 213.631 222.099 213.181 222.321C212.733 222.543 212.208 222.654 211.605 222.654ZM219.896 214.864V216.057H215.725V214.864H219.896ZM216.843 213.034H218.33V220.258C218.33 220.546 218.373 220.763 218.459 220.909C218.545 221.052 218.656 221.149 218.792 221.202C218.931 221.252 219.082 221.277 219.245 221.277C219.364 221.277 219.468 221.269 219.558 221.252C219.647 221.236 219.717 221.222 219.767 221.212L220.035 222.44C219.949 222.474 219.826 222.507 219.667 222.54C219.508 222.576 219.309 222.596 219.071 222.599C218.68 222.606 218.315 222.536 217.977 222.391C217.639 222.245 217.365 222.019 217.157 221.715C216.948 221.41 216.843 221.027 216.843 220.566V213.034Z" fill="#F0F0FF"/>
</g>
<defs>
<filter id="filter0_dddd_1_7830" x="0.5" y="0.7" width="398" height="281.3" filterUnits="userSpaceOnUse" color-interpolation-filters="sRGB">
<feFlood flood-opacity="0" result="BackgroundImageFix"/>
<feColorMatrix in="SourceAlpha" type="matrix" values="0 0 0 0 0 0 0 0 0 0 0 0 0 0 0 0 0 0 127 0" result="hardAlpha"/>
<feMorphology radius="1" operator="erode" in="SourceAlpha" result="effect1_dropShadow_1_7830"/>
<feOffset dy="15"/>
<feGaussianBlur stdDeviation="7.5"/>
<feColorMatrix type="matrix" values="0 0 0 0 0 0 0 0 0 0 0 0 0 0 0 0 0 0 0.04 0"/>
<feBlend mode="normal" in2="BackgroundImageFix" result="effect1_dropShadow_1_7830"/>
<feColorMatrix in="SourceAlpha" type="matrix" values="0 0 0 0 0 0 0 0 0 0 0 0 0 0 0 0 0 0 127 0" result="hardAlpha"/>
<feMorphology radius="1" operator="erode" in="SourceAlpha" result="effect2_dropShadow_1_7830"/>
<feOffset dy="5.7"/>
<feGaussianBlur stdDeviation="6"/>
<feColorMatrix type="matrix" values="0 0 0 0 0 0 0 0 0 0 0 0 0 0 0 0 0 0 0.05 0"/>
<feBlend mode="normal" in2="effect1_dropShadow_1_7830" result="effect2_dropShadow_1_7830"/>
<feColorMatrix in="SourceAlpha" type="matrix" values="0 0 0 0 0 0 0 0 0 0 0 0 0 0 0 0 0 0 127 0" result="hardAlpha"/>
<feMorphology radius="1" operator="erode" in="SourceAlpha" result="effect3_dropShadow_1_7830"/>
<feOffset dy="2.6"/>
<feGaussianBlur stdDeviation="4"/>
<feColorMatrix type="matrix" values="0 0 0 0 0 0 0 0 0 0 0 0 0 0 0 0 0 0 0.06 0"/>
<feBlend mode="normal" in2="effect2_dropShadow_1_7830" result="effect3_dropShadow_1_7830"/>
<feColorMatrix in="SourceAlpha" type="matrix" values="0 0 0 0 0 0 0 0 0 0 0 0 0 0 0 0 0 0 127 0" result="hardAlpha"/>
<feMorphology radius="1" operator="erode" in="SourceAlpha" result="effect4_dropShadow_1_7830"/>
<feOffset dy="0.9"/>
<feGaussianBlur stdDeviation="2"/>
<feColorMatrix type="matrix" values="0 0 0 0 0 0 0 0 0 0 0 0 0 0 0 0 0 0 0.08 0"/>
<feBlend mode="normal" in2="effect3_dropShadow_1_7830" result="effect4_dropShadow_1_7830"/>
<feBlend mode="normal" in="SourceGraphic" in2="effect4_dropShadow_1_7830" result="shape"/>
</filter>
<clipPath id="clip0_1_7830">
<rect width="338" height="63" fill="white" transform="translate(30.5 118)"/>
</clipPath>
</defs>
</svg>
