<svg width="16" height="16" viewBox="0 0 16 16" fill="none" xmlns="http://www.w3.org/2000/svg">
<g clip-path="url(#clip0_0_4841)">
<path d="M0.331417 10.2788L1.99962 8L0.330078 5.71936C0.505391 5.13169 0.751536 4.55498 1.07157 4.00067C1.39161 3.44635 1.76797 2.94483 2.18926 2.49917L4.99912 2.80472L6.13852 0.220606C7.34486 -0.0680498 8.61932 -0.0781576 9.85766 0.218216L10.9981 2.80472L13.8083 2.49913C14.6842 3.42338 15.3126 4.53215 15.6658 5.72119L13.9976 8L15.6672 10.2806C15.4918 10.8683 15.2457 11.445 14.9257 11.9993C14.6056 12.5536 14.2293 13.0552 13.808 13.5008L10.9981 13.1953L9.85872 15.7794C8.65238 16.0681 7.37792 16.0782 6.13958 15.7818L4.99912 13.1953L2.18892 13.5009C1.31308 12.5766 0.684601 11.4679 0.331417 10.2788ZM4.89334 12.2225C5.31735 12.1764 5.72238 12.4103 5.89445 12.8005L6.83101 14.9246C7.6046 15.0549 8.3943 15.0534 9.16716 14.9225L10.1028 12.8005C10.2749 12.4103 10.6799 12.1764 11.1039 12.2225L13.4106 12.4734C13.6576 12.1737 13.8808 11.852 14.0783 11.5101C14.2757 11.1681 14.4426 10.8139 14.5786 10.4502L13.2081 8.57799C12.9561 8.23384 12.9561 7.76616 13.2081 7.42201L14.5779 5.55076C14.3049 4.81595 13.9113 4.13133 13.4117 3.52653L11.1039 3.77748C10.6799 3.82359 10.2749 3.58975 10.1028 3.19949L9.16623 1.07543C8.39263 0.945125 7.60294 0.946557 6.83007 1.07755L5.89445 3.19949C5.72238 3.58975 5.31735 3.82359 4.89334 3.77748L2.58664 3.52665C2.33966 3.82628 2.11641 4.14797 1.91898 4.48992C1.72155 4.83187 1.55459 5.18606 1.41859 5.54976L2.78917 7.42201C3.04111 7.76616 3.04111 8.23384 2.78917 8.57799L1.41932 10.4492C1.69232 11.1841 2.08592 11.8687 2.58557 12.4735L4.89334 12.2225ZM7.99862 10.9355C6.37738 10.9355 5.06311 9.62124 5.06311 8C5.06311 6.37876 6.37738 5.06449 7.99862 5.06449C9.61985 5.06449 10.9341 6.37876 10.9341 8C10.9341 9.62124 9.61985 10.9355 7.99862 10.9355ZM7.99862 9.95701C9.07944 9.95701 9.95562 9.08083 9.95562 8C9.95562 6.91918 9.07944 6.04299 7.99862 6.04299C6.91779 6.04299 6.04161 6.91918 6.04161 8C6.04161 9.08083 6.91779 9.95701 7.99862 9.95701Z" fill="#B5B5B5"/>
</g>
<defs>
<clipPath id="clip0_0_4841">
<rect width="16" height="16" fill="white"/>
</clipPath>
</defs>
</svg>
