<svg width="16" height="16" viewBox="0 0 16 16" fill="none" xmlns="http://www.w3.org/2000/svg">
<g clip-path="url(#clip0_0_4155)">
<path d="M9.03554 9C9.27816 7.30386 10.7369 6 12.5001 6C13.4794 6 14.3648 6.40224 15.0001 7.05051V4.5C15.0001 3.42809 14.3524 2.78036 12.902 2.4903C12.6313 2.43614 12.4556 2.17273 12.5098 1.90195C12.564 1.63117 12.8274 1.45556 13.0982 1.50971C14.9812 1.88632 16.0001 2.90525 16.0001 4.5V8.75C16.0001 8.822 15.9849 8.89044 15.9575 8.95228C15.9855 9.13074 16.0001 9.31367 16.0001 9.5C16.0001 11.433 14.4331 13 12.5001 13C10.7369 13 9.27816 11.6962 9.03554 10H6.96465C6.72204 11.6962 5.26333 13 3.5001 13C1.5671 13 9.64204e-05 11.433 9.64204e-05 9.5C9.64204e-05 9.31373 0.0146486 9.13085 0.0426781 8.95244C0.0152421 8.89056 0 8.82206 0 8.75V4.5C0 2.90525 1.01894 1.88632 2.90194 1.50971C3.17272 1.45556 3.43613 1.63117 3.49029 1.90195C3.54445 2.17273 3.36884 2.43614 3.09806 2.4903C1.64773 2.78036 1 3.42809 1 4.5V7.05061C1.63527 6.40228 2.5207 6 3.5001 6C5.26333 6 6.72204 7.30386 6.96465 9H9.03554ZM3.5001 12C4.88081 12 6.0001 10.8807 6.0001 9.5C6.0001 8.11929 4.88081 7 3.5001 7C2.11938 7 1.0001 8.11929 1.0001 9.5C1.0001 10.8807 2.11938 12 3.5001 12ZM12.5001 12C13.8808 12 15.0001 10.8807 15.0001 9.5C15.0001 8.11929 13.8808 7 12.5001 7C11.1194 7 10.0001 8.11929 10.0001 9.5C10.0001 10.8807 11.1194 12 12.5001 12Z" fill="#B5B5B5"/>
</g>
<defs>
<clipPath id="clip0_0_4155">
<rect width="16" height="16" fill="white"/>
</clipPath>
</defs>
</svg>
