<svg width="1440" height="48" viewBox="0 0 1440 48" fill="none" xmlns="http://www.w3.org/2000/svg">
<g clip-path="url(#clip0_4294_59570)">
<rect width="41" height="24" transform="translate(8 12)" fill="#69707D" fill-opacity="0.2"/>
<path d="M22.4746 22.9902V24.2559H17.9863V22.9902H22.4746ZM18.4258 19.4688V28H16.8145V19.4688H18.4258ZM23.6699 19.4688V28H22.0586V19.4688H23.6699ZM24.918 24.8945V24.7715C24.918 24.3066 24.9844 23.8789 25.1172 23.4883C25.25 23.0938 25.4434 22.752 25.6973 22.4629C25.9512 22.1738 26.2617 21.9492 26.6289 21.7891C26.9961 21.625 27.4141 21.543 27.8828 21.543C28.3594 21.543 28.7812 21.625 29.1484 21.7891C29.5195 21.9492 29.832 22.1738 30.0859 22.4629C30.3398 22.752 30.5332 23.0938 30.666 23.4883C30.7988 23.8789 30.8652 24.3066 30.8652 24.7715V24.8945C30.8652 25.3555 30.7988 25.7832 30.666 26.1777C30.5332 26.5684 30.3398 26.9102 30.0859 27.2031C29.832 27.4922 29.5215 27.7168 29.1543 27.877C28.7871 28.0371 28.3672 28.1172 27.8945 28.1172C27.4258 28.1172 27.0059 28.0371 26.6348 27.877C26.2637 27.7168 25.9512 27.4922 25.6973 27.2031C25.4434 26.9102 25.25 26.5684 25.1172 26.1777C24.9844 25.7832 24.918 25.3555 24.918 24.8945ZM26.4648 24.7715V24.8945C26.4648 25.1719 26.4922 25.4316 26.5469 25.6738C26.6016 25.916 26.6855 26.1289 26.7988 26.3125C26.9121 26.4961 27.0586 26.6406 27.2383 26.7461C27.4219 26.8477 27.6406 26.8984 27.8945 26.8984C28.1445 26.8984 28.3594 26.8477 28.5391 26.7461C28.7188 26.6406 28.8652 26.4961 28.9785 26.3125C29.0957 26.1289 29.1816 25.916 29.2363 25.6738C29.291 25.4316 29.3184 25.1719 29.3184 24.8945V24.7715C29.3184 24.498 29.291 24.2422 29.2363 24.0039C29.1816 23.7617 29.0957 23.5488 28.9785 23.3652C28.8652 23.1777 28.7168 23.0312 28.5332 22.9258C28.3535 22.8164 28.1367 22.7617 27.8828 22.7617C27.6328 22.7617 27.418 22.8164 27.2383 22.9258C27.0586 23.0312 26.9121 23.1777 26.7988 23.3652C26.6855 23.5488 26.6016 23.7617 26.5469 24.0039C26.4922 24.2422 26.4648 24.498 26.4648 24.7715ZM33.5312 22.9609V28H31.9844V21.6602H33.4434L33.5312 22.9609ZM33.3027 24.6016H32.8281C32.8281 24.1602 32.8809 23.7539 32.9863 23.3828C33.0957 23.0117 33.2559 22.6895 33.4668 22.416C33.6777 22.1387 33.9375 21.9238 34.2461 21.7715C34.5586 21.6191 34.9199 21.543 35.3301 21.543C35.6152 21.543 35.877 21.5859 36.1152 21.6719C36.3535 21.7539 36.5586 21.8848 36.7305 22.0645C36.9062 22.2402 37.041 22.4707 37.1348 22.7559C37.2285 23.0371 37.2754 23.375 37.2754 23.7695V28H35.7285V23.9277C35.7285 23.6309 35.6855 23.3984 35.5996 23.2305C35.5176 23.0625 35.3984 22.9453 35.2422 22.8789C35.0859 22.8086 34.8984 22.7734 34.6797 22.7734C34.4375 22.7734 34.2285 22.8223 34.0527 22.9199C33.8809 23.0137 33.7383 23.1445 33.625 23.3125C33.5156 23.4805 33.4336 23.6738 33.3789 23.8926C33.3281 24.1113 33.3027 24.3477 33.3027 24.6016ZM37.1582 24.3145L36.5195 24.4316C36.5234 24.0332 36.5781 23.6602 36.6836 23.3125C36.7891 22.9609 36.9434 22.6543 37.1465 22.3926C37.3535 22.127 37.6094 21.9199 37.9141 21.7715C38.2227 21.6191 38.5781 21.543 38.9805 21.543C39.293 21.543 39.5742 21.5879 39.8242 21.6777C40.0781 21.7637 40.2949 21.9023 40.4746 22.0938C40.6543 22.2812 40.791 22.5254 40.8848 22.8262C40.9824 23.127 41.0312 23.4941 41.0312 23.9277V28H39.4727V23.9219C39.4727 23.6133 39.4297 23.377 39.3438 23.2129C39.2617 23.0488 39.1426 22.9355 38.9863 22.873C38.8301 22.8066 38.6465 22.7734 38.4355 22.7734C38.2207 22.7734 38.0332 22.8145 37.873 22.8965C37.7168 22.9746 37.584 23.084 37.4746 23.2246C37.3691 23.3652 37.2891 23.5293 37.2344 23.7168C37.1836 23.9004 37.1582 24.0996 37.1582 24.3145ZM45.2676 28.1172C44.7871 28.1172 44.3555 28.0391 43.9727 27.8828C43.5898 27.7266 43.2637 27.5098 42.9941 27.2324C42.7285 26.9512 42.5234 26.625 42.3789 26.2539C42.2383 25.8789 42.168 25.4766 42.168 25.0469V24.8125C42.168 24.3242 42.2383 23.8809 42.3789 23.4824C42.5195 23.0801 42.7188 22.7344 42.9766 22.4453C43.2344 22.1562 43.543 21.9336 43.9023 21.7773C44.2617 21.6211 44.6582 21.543 45.0918 21.543C45.541 21.543 45.9375 21.6191 46.2812 21.7715C46.625 21.9199 46.9121 22.1309 47.1426 22.4043C47.373 22.6777 47.5469 23.0059 47.6641 23.3887C47.7812 23.7676 47.8398 24.1875 47.8398 24.6484V25.2988H42.8711V24.2324H46.3164V24.1152C46.3086 23.8691 46.2617 23.6445 46.1758 23.4414C46.0898 23.2344 45.957 23.0703 45.7773 22.9492C45.5977 22.8242 45.3652 22.7617 45.0801 22.7617C44.8496 22.7617 44.6484 22.8125 44.4766 22.9141C44.3086 23.0117 44.168 23.1523 44.0547 23.3359C43.9453 23.5156 43.8633 23.7305 43.8086 23.9805C43.7539 24.2305 43.7266 24.5078 43.7266 24.8125V25.0469C43.7266 25.3125 43.7617 25.5586 43.832 25.7852C43.9062 26.0117 44.0137 26.209 44.1543 26.377C44.2988 26.541 44.4707 26.6699 44.6699 26.7637C44.873 26.8535 45.1035 26.8984 45.3613 26.8984C45.6855 26.8984 45.9785 26.8359 46.2402 26.7109C46.5059 26.582 46.7363 26.3926 46.9316 26.1426L47.7109 26.9512C47.5781 27.1465 47.3984 27.334 47.1719 27.5137C46.9492 27.6934 46.6797 27.8398 46.3633 27.9531C46.0469 28.0625 45.6816 28.1172 45.2676 28.1172Z" fill="#69707D"/>
<path d="M61 24L53 36H49V12H53L61 24Z" fill="#69707D" fill-opacity="0.2"/>
</g>
<path d="M73 12H57L65 24L57 36H73V12Z" fill="#69707D" fill-opacity="0.2"/>
<rect width="53" height="24" transform="translate(73 12)" fill="#69707D" fill-opacity="0.2"/>
<path d="M78.8066 25.1934H80.418C80.375 25.7637 80.2168 26.2695 79.9434 26.7109C79.6699 27.1484 79.2891 27.4922 78.8008 27.7422C78.3125 27.9922 77.7207 28.1172 77.0254 28.1172C76.4902 28.1172 76.0078 28.0234 75.5781 27.8359C75.1523 27.6445 74.7871 27.373 74.4824 27.0215C74.1816 26.666 73.9512 26.2402 73.791 25.7441C73.6309 25.2441 73.5508 24.6836 73.5508 24.0625V23.4121C73.5508 22.791 73.6328 22.2305 73.7969 21.7305C73.9609 21.2305 74.1953 20.8047 74.5 20.4531C74.8086 20.0977 75.1777 19.8242 75.6074 19.6328C76.041 19.4414 76.5254 19.3457 77.0605 19.3457C77.7559 19.3457 78.3438 19.4746 78.8242 19.7324C79.3047 19.9863 79.6777 20.3359 79.9434 20.7812C80.209 21.2266 80.3691 21.7383 80.4238 22.3164H78.8125C78.7812 21.957 78.7031 21.6523 78.5781 21.4023C78.457 21.1523 78.2734 20.9629 78.0273 20.834C77.7852 20.7012 77.4629 20.6348 77.0605 20.6348C76.748 20.6348 76.4727 20.6934 76.2344 20.8105C76 20.9277 75.8047 21.1035 75.6484 21.3379C75.4922 21.5684 75.375 21.8574 75.2969 22.2051C75.2188 22.5488 75.1797 22.9473 75.1797 23.4004V24.0625C75.1797 24.4961 75.2148 24.8848 75.2852 25.2285C75.3555 25.5723 75.4648 25.8633 75.6133 26.1016C75.7617 26.3398 75.9531 26.5215 76.1875 26.6465C76.4219 26.7715 76.7012 26.834 77.0254 26.834C77.4199 26.834 77.7402 26.7715 77.9863 26.6465C78.2363 26.5215 78.4258 26.3379 78.5547 26.0957C78.6875 25.8535 78.7715 25.5527 78.8066 25.1934ZM81.2734 24.8945V24.7715C81.2734 24.3066 81.3398 23.8789 81.4727 23.4883C81.6055 23.0938 81.7988 22.752 82.0527 22.4629C82.3066 22.1738 82.6172 21.9492 82.9844 21.7891C83.3516 21.625 83.7695 21.543 84.2383 21.543C84.7148 21.543 85.1367 21.625 85.5039 21.7891C85.875 21.9492 86.1875 22.1738 86.4414 22.4629C86.6953 22.752 86.8887 23.0938 87.0215 23.4883C87.1543 23.8789 87.2207 24.3066 87.2207 24.7715V24.8945C87.2207 25.3555 87.1543 25.7832 87.0215 26.1777C86.8887 26.5684 86.6953 26.9102 86.4414 27.2031C86.1875 27.4922 85.877 27.7168 85.5098 27.877C85.1426 28.0371 84.7227 28.1172 84.25 28.1172C83.7812 28.1172 83.3613 28.0371 82.9902 27.877C82.6191 27.7168 82.3066 27.4922 82.0527 27.2031C81.7988 26.9102 81.6055 26.5684 81.4727 26.1777C81.3398 25.7832 81.2734 25.3555 81.2734 24.8945ZM82.8203 24.7715V24.8945C82.8203 25.1719 82.8477 25.4316 82.9023 25.6738C82.957 25.916 83.041 26.1289 83.1543 26.3125C83.2676 26.4961 83.4141 26.6406 83.5938 26.7461C83.7773 26.8477 83.9961 26.8984 84.25 26.8984C84.5 26.8984 84.7148 26.8477 84.8945 26.7461C85.0742 26.6406 85.2207 26.4961 85.334 26.3125C85.4512 26.1289 85.5371 25.916 85.5918 25.6738C85.6465 25.4316 85.6738 25.1719 85.6738 24.8945V24.7715C85.6738 24.498 85.6465 24.2422 85.5918 24.0039C85.5371 23.7617 85.4512 23.5488 85.334 23.3652C85.2207 23.1777 85.0723 23.0312 84.8887 22.9258C84.709 22.8164 84.4922 22.7617 84.2383 22.7617C83.9883 22.7617 83.7734 22.8164 83.5938 22.9258C83.4141 23.0312 83.2676 23.1777 83.1543 23.3652C83.041 23.5488 82.957 23.7617 82.9023 24.0039C82.8477 24.2422 82.8203 24.498 82.8203 24.7715ZM89.8633 23.0137V28H88.3164V21.6602H89.7695L89.8633 23.0137ZM89.6172 24.6016H89.1602C89.1641 24.1406 89.2266 23.7227 89.3477 23.3477C89.4688 22.9727 89.6387 22.6504 89.8574 22.3809C90.0801 22.1113 90.3438 21.9043 90.6484 21.7598C90.9531 21.6152 91.293 21.543 91.668 21.543C91.9727 21.543 92.248 21.5859 92.4941 21.6719C92.7402 21.7578 92.9512 21.8945 93.127 22.082C93.3066 22.2695 93.4434 22.5156 93.5371 22.8203C93.6348 23.1211 93.6836 23.4922 93.6836 23.9336V28H92.125V23.9219C92.125 23.6328 92.082 23.4043 91.9961 23.2363C91.9141 23.0684 91.793 22.9492 91.6328 22.8789C91.4766 22.8086 91.2832 22.7734 91.0527 22.7734C90.8145 22.7734 90.6055 22.8223 90.4258 22.9199C90.25 23.0137 90.1016 23.1445 89.9805 23.3125C89.8633 23.4805 89.7734 23.6738 89.7109 23.8926C89.6484 24.1113 89.6172 24.3477 89.6172 24.6016ZM97.0059 28H95.4473V21.3086C95.4473 20.7852 95.5527 20.3438 95.7637 19.9844C95.9785 19.6211 96.2852 19.3457 96.6836 19.1582C97.0859 18.9707 97.5645 18.877 98.1191 18.877C98.4434 18.877 98.7559 18.9102 99.0566 18.9766C99.3613 19.0391 99.6738 19.1211 99.9941 19.2227L99.7656 20.4766C99.5586 20.4102 99.332 20.3477 99.0859 20.2891C98.8438 20.2305 98.5566 20.2012 98.2246 20.2012C97.8145 20.2012 97.5078 20.2949 97.3047 20.4824C97.1055 20.6699 97.0059 20.9453 97.0059 21.3086V28ZM98.2715 21.6602V22.7734H94.4922V21.6602H98.2715ZM100.721 21.6602V28H99.168V21.6602H100.721ZM106.252 21.6602H107.658V27.8066C107.658 28.3809 107.533 28.8672 107.283 29.2656C107.037 29.668 106.691 29.9727 106.246 30.1797C105.801 30.3906 105.283 30.4961 104.693 30.4961C104.439 30.4961 104.164 30.4609 103.867 30.3906C103.574 30.3203 103.291 30.209 103.018 30.0566C102.748 29.9082 102.523 29.7148 102.344 29.4766L103.041 28.5625C103.252 28.8086 103.49 28.9941 103.756 29.1191C104.021 29.248 104.309 29.3125 104.617 29.3125C104.93 29.3125 105.195 29.2539 105.414 29.1367C105.637 29.0234 105.807 28.8555 105.924 28.6328C106.045 28.4141 106.105 28.1445 106.105 27.8242V23.1074L106.252 21.6602ZM101.969 24.9062V24.7832C101.969 24.2988 102.027 23.8594 102.145 23.4648C102.262 23.0664 102.43 22.7246 102.648 22.4395C102.871 22.1543 103.139 21.9336 103.451 21.7773C103.768 21.6211 104.123 21.543 104.518 21.543C104.936 21.543 105.287 21.6191 105.572 21.7715C105.861 21.9238 106.1 22.1406 106.287 22.4219C106.479 22.7031 106.627 23.0371 106.732 23.4238C106.842 23.8066 106.926 24.2285 106.984 24.6895V25.0234C106.93 25.4727 106.842 25.8848 106.721 26.2598C106.604 26.6348 106.447 26.9629 106.252 27.2441C106.057 27.5215 105.814 27.7363 105.525 27.8887C105.236 28.041 104.896 28.1172 104.506 28.1172C104.115 28.1172 103.764 28.0371 103.451 27.877C103.139 27.7168 102.871 27.4922 102.648 27.2031C102.43 26.9141 102.262 26.5742 102.145 26.1836C102.027 25.793 101.969 25.3672 101.969 24.9062ZM103.516 24.7832V24.9062C103.516 25.1797 103.543 25.4355 103.598 25.6738C103.652 25.9121 103.736 26.123 103.85 26.3066C103.963 26.4863 104.105 26.627 104.277 26.7285C104.449 26.8301 104.654 26.8809 104.893 26.8809C105.213 26.8809 105.475 26.8145 105.678 26.6816C105.885 26.5449 106.041 26.3594 106.146 26.125C106.256 25.8867 106.326 25.6191 106.357 25.3223V24.4023C106.338 24.168 106.295 23.9512 106.229 23.752C106.166 23.5527 106.078 23.3809 105.965 23.2363C105.852 23.0918 105.707 22.9785 105.531 22.8965C105.355 22.8145 105.146 22.7734 104.904 22.7734C104.67 22.7734 104.465 22.8262 104.289 22.9316C104.113 23.0332 103.969 23.1758 103.855 23.3594C103.742 23.543 103.656 23.7559 103.598 23.998C103.543 24.2402 103.516 24.502 103.516 24.7832ZM112.826 26.4941V21.6602H114.385V28H112.92L112.826 26.4941ZM113.025 25.1816L113.506 25.1699C113.506 25.5957 113.459 25.9883 113.365 26.3477C113.271 26.707 113.125 27.0195 112.926 27.2852C112.73 27.5469 112.482 27.752 112.182 27.9004C111.881 28.0449 111.525 28.1172 111.115 28.1172C110.803 28.1172 110.518 28.0742 110.26 27.9883C110.002 27.8984 109.779 27.7598 109.592 27.5723C109.408 27.3809 109.266 27.1367 109.164 26.8398C109.062 26.5391 109.012 26.1777 109.012 25.7559V21.6602H110.559V25.7676C110.559 25.9785 110.582 26.1543 110.629 26.2949C110.68 26.4355 110.748 26.5508 110.834 26.6406C110.924 26.7266 111.027 26.7891 111.145 26.8281C111.266 26.8633 111.395 26.8809 111.531 26.8809C111.906 26.8809 112.201 26.8066 112.416 26.6582C112.635 26.5059 112.791 26.3027 112.885 26.0488C112.979 25.791 113.025 25.502 113.025 25.1816ZM117.303 22.9551V28H115.756V21.6602H117.221L117.303 22.9551ZM119.23 21.6191L119.207 23.0605C119.121 23.0449 119.023 23.0332 118.914 23.0254C118.809 23.0176 118.709 23.0137 118.615 23.0137C118.377 23.0137 118.168 23.0469 117.988 23.1133C117.809 23.1758 117.658 23.2676 117.537 23.3887C117.42 23.5098 117.33 23.6582 117.268 23.834C117.205 24.0059 117.17 24.2012 117.162 24.4199L116.828 24.3789C116.828 23.9766 116.869 23.6035 116.951 23.2598C117.033 22.916 117.152 22.6152 117.309 22.3574C117.465 22.0996 117.66 21.9004 117.895 21.7598C118.133 21.6152 118.406 21.543 118.715 21.543C118.801 21.543 118.893 21.5508 118.99 21.5664C119.092 21.5781 119.172 21.5957 119.23 21.6191ZM122.811 28.1172C122.33 28.1172 121.898 28.0391 121.516 27.8828C121.133 27.7266 120.807 27.5098 120.537 27.2324C120.271 26.9512 120.066 26.625 119.922 26.2539C119.781 25.8789 119.711 25.4766 119.711 25.0469V24.8125C119.711 24.3242 119.781 23.8809 119.922 23.4824C120.062 23.0801 120.262 22.7344 120.52 22.4453C120.777 22.1562 121.086 21.9336 121.445 21.7773C121.805 21.6211 122.201 21.543 122.635 21.543C123.084 21.543 123.48 21.6191 123.824 21.7715C124.168 21.9199 124.455 22.1309 124.686 22.4043C124.916 22.6777 125.09 23.0059 125.207 23.3887C125.324 23.7676 125.383 24.1875 125.383 24.6484V25.2988H120.414V24.2324H123.859V24.1152C123.852 23.8691 123.805 23.6445 123.719 23.4414C123.633 23.2344 123.5 23.0703 123.32 22.9492C123.141 22.8242 122.908 22.7617 122.623 22.7617C122.393 22.7617 122.191 22.8125 122.02 22.9141C121.852 23.0117 121.711 23.1523 121.598 23.3359C121.488 23.5156 121.406 23.7305 121.352 23.9805C121.297 24.2305 121.27 24.5078 121.27 24.8125V25.0469C121.27 25.3125 121.305 25.5586 121.375 25.7852C121.449 26.0117 121.557 26.209 121.697 26.377C121.842 26.541 122.014 26.6699 122.213 26.7637C122.416 26.8535 122.646 26.8984 122.904 26.8984C123.229 26.8984 123.521 26.8359 123.783 26.7109C124.049 26.582 124.279 26.3926 124.475 26.1426L125.254 26.9512C125.121 27.1465 124.941 27.334 124.715 27.5137C124.492 27.6934 124.223 27.8398 123.906 27.9531C123.59 28.0625 123.225 28.1172 122.811 28.1172Z" fill="#69707D"/>
<path d="M138 24L130 36H126V12H130L138 24Z" fill="#69707D" fill-opacity="0.2"/>
<path d="M150 12H134L142 24L134 36H150V12Z" fill="#8EC2FF" fill-opacity="0.2"/>
<rect width="65" height="24" transform="translate(150 12)" fill="#8EC2FF" fill-opacity="0.2"/>
<path d="M152.531 19.4688V28H150.92V19.4688H152.531ZM155.672 23.0137V28H154.125V21.6602H155.578L155.672 23.0137ZM155.426 24.6016H154.969C154.973 24.1406 155.035 23.7227 155.156 23.3477C155.277 22.9727 155.447 22.6504 155.666 22.3809C155.889 22.1113 156.152 21.9043 156.457 21.7598C156.762 21.6152 157.102 21.543 157.477 21.543C157.781 21.543 158.057 21.5859 158.303 21.6719C158.549 21.7578 158.76 21.8945 158.936 22.082C159.115 22.2695 159.252 22.5156 159.346 22.8203C159.443 23.1211 159.492 23.4922 159.492 23.9336V28H157.934V23.9219C157.934 23.6328 157.891 23.4043 157.805 23.2363C157.723 23.0684 157.602 22.9492 157.441 22.8789C157.285 22.8086 157.092 22.7734 156.861 22.7734C156.623 22.7734 156.414 22.8223 156.234 22.9199C156.059 23.0137 155.91 23.1445 155.789 23.3125C155.672 23.4805 155.582 23.6738 155.52 23.8926C155.457 24.1113 155.426 24.3477 155.426 24.6016ZM163.857 21.6602V22.7734H160.225V21.6602H163.857ZM161.197 20.1016H162.75V26.1719C162.75 26.3594 162.775 26.5039 162.826 26.6055C162.877 26.707 162.953 26.7754 163.055 26.8105C163.156 26.8457 163.277 26.8633 163.418 26.8633C163.52 26.8633 163.613 26.8574 163.699 26.8457C163.785 26.834 163.857 26.8223 163.916 26.8105L163.922 27.9707C163.793 28.0137 163.646 28.0488 163.482 28.0762C163.322 28.1035 163.141 28.1172 162.938 28.1172C162.59 28.1172 162.285 28.0586 162.023 27.9414C161.762 27.8203 161.559 27.627 161.414 27.3613C161.27 27.0918 161.197 26.7363 161.197 26.2949V20.1016ZM167.736 28.1172C167.256 28.1172 166.824 28.0391 166.441 27.8828C166.059 27.7266 165.732 27.5098 165.463 27.2324C165.197 26.9512 164.992 26.625 164.848 26.2539C164.707 25.8789 164.637 25.4766 164.637 25.0469V24.8125C164.637 24.3242 164.707 23.8809 164.848 23.4824C164.988 23.0801 165.188 22.7344 165.445 22.4453C165.703 22.1562 166.012 21.9336 166.371 21.7773C166.73 21.6211 167.127 21.543 167.561 21.543C168.01 21.543 168.406 21.6191 168.75 21.7715C169.094 21.9199 169.381 22.1309 169.611 22.4043C169.842 22.6777 170.016 23.0059 170.133 23.3887C170.25 23.7676 170.309 24.1875 170.309 24.6484V25.2988H165.34V24.2324H168.785V24.1152C168.777 23.8691 168.73 23.6445 168.645 23.4414C168.559 23.2344 168.426 23.0703 168.246 22.9492C168.066 22.8242 167.834 22.7617 167.549 22.7617C167.318 22.7617 167.117 22.8125 166.945 22.9141C166.777 23.0117 166.637 23.1523 166.523 23.3359C166.414 23.5156 166.332 23.7305 166.277 23.9805C166.223 24.2305 166.195 24.5078 166.195 24.8125V25.0469C166.195 25.3125 166.23 25.5586 166.301 25.7852C166.375 26.0117 166.482 26.209 166.623 26.377C166.768 26.541 166.939 26.6699 167.139 26.7637C167.342 26.8535 167.572 26.8984 167.83 26.8984C168.154 26.8984 168.447 26.8359 168.709 26.7109C168.975 26.582 169.205 26.3926 169.4 26.1426L170.18 26.9512C170.047 27.1465 169.867 27.334 169.641 27.5137C169.418 27.6934 169.148 27.8398 168.832 27.9531C168.516 28.0625 168.15 28.1172 167.736 28.1172ZM175.377 21.6602H176.783V27.8066C176.783 28.3809 176.658 28.8672 176.408 29.2656C176.162 29.668 175.816 29.9727 175.371 30.1797C174.926 30.3906 174.408 30.4961 173.818 30.4961C173.564 30.4961 173.289 30.4609 172.992 30.3906C172.699 30.3203 172.416 30.209 172.143 30.0566C171.873 29.9082 171.648 29.7148 171.469 29.4766L172.166 28.5625C172.377 28.8086 172.615 28.9941 172.881 29.1191C173.146 29.248 173.434 29.3125 173.742 29.3125C174.055 29.3125 174.32 29.2539 174.539 29.1367C174.762 29.0234 174.932 28.8555 175.049 28.6328C175.17 28.4141 175.23 28.1445 175.23 27.8242V23.1074L175.377 21.6602ZM171.094 24.9062V24.7832C171.094 24.2988 171.152 23.8594 171.27 23.4648C171.387 23.0664 171.555 22.7246 171.773 22.4395C171.996 22.1543 172.264 21.9336 172.576 21.7773C172.893 21.6211 173.248 21.543 173.643 21.543C174.061 21.543 174.412 21.6191 174.697 21.7715C174.986 21.9238 175.225 22.1406 175.412 22.4219C175.604 22.7031 175.752 23.0371 175.857 23.4238C175.967 23.8066 176.051 24.2285 176.109 24.6895V25.0234C176.055 25.4727 175.967 25.8848 175.846 26.2598C175.729 26.6348 175.572 26.9629 175.377 27.2441C175.182 27.5215 174.939 27.7363 174.65 27.8887C174.361 28.041 174.021 28.1172 173.631 28.1172C173.24 28.1172 172.889 28.0371 172.576 27.877C172.264 27.7168 171.996 27.4922 171.773 27.2031C171.555 26.9141 171.387 26.5742 171.27 26.1836C171.152 25.793 171.094 25.3672 171.094 24.9062ZM172.641 24.7832V24.9062C172.641 25.1797 172.668 25.4355 172.723 25.6738C172.777 25.9121 172.861 26.123 172.975 26.3066C173.088 26.4863 173.23 26.627 173.402 26.7285C173.574 26.8301 173.779 26.8809 174.018 26.8809C174.338 26.8809 174.6 26.8145 174.803 26.6816C175.01 26.5449 175.166 26.3594 175.271 26.125C175.381 25.8867 175.451 25.6191 175.482 25.3223V24.4023C175.463 24.168 175.42 23.9512 175.354 23.752C175.291 23.5527 175.203 23.3809 175.09 23.2363C174.977 23.0918 174.832 22.9785 174.656 22.8965C174.48 22.8145 174.271 22.7734 174.029 22.7734C173.795 22.7734 173.59 22.8262 173.414 22.9316C173.238 23.0332 173.094 23.1758 172.98 23.3594C172.867 23.543 172.781 23.7559 172.723 23.998C172.668 24.2402 172.641 24.502 172.641 24.7832ZM179.725 22.9551V28H178.178V21.6602H179.643L179.725 22.9551ZM181.652 21.6191L181.629 23.0605C181.543 23.0449 181.445 23.0332 181.336 23.0254C181.23 23.0176 181.131 23.0137 181.037 23.0137C180.799 23.0137 180.59 23.0469 180.41 23.1133C180.23 23.1758 180.08 23.2676 179.959 23.3887C179.842 23.5098 179.752 23.6582 179.689 23.834C179.627 24.0059 179.592 24.2012 179.584 24.4199L179.25 24.3789C179.25 23.9766 179.291 23.6035 179.373 23.2598C179.455 22.916 179.574 22.6152 179.73 22.3574C179.887 22.0996 180.082 21.9004 180.316 21.7598C180.555 21.6152 180.828 21.543 181.137 21.543C181.223 21.543 181.314 21.5508 181.412 21.5664C181.514 21.5781 181.594 21.5957 181.652 21.6191ZM185.795 26.6523V23.7285C185.795 23.5137 185.758 23.3281 185.684 23.1719C185.609 23.0156 185.496 22.8945 185.344 22.8086C185.191 22.7227 184.998 22.6797 184.764 22.6797C184.557 22.6797 184.375 22.7148 184.219 22.7852C184.066 22.8555 183.949 22.9551 183.867 23.084C183.785 23.209 183.744 23.3535 183.744 23.5176H182.191C182.191 23.2559 182.254 23.0078 182.379 22.7734C182.504 22.5352 182.682 22.3242 182.912 22.1406C183.146 21.9531 183.426 21.8066 183.75 21.7012C184.078 21.5957 184.445 21.543 184.852 21.543C185.332 21.543 185.76 21.625 186.135 21.7891C186.514 21.9492 186.811 22.1914 187.025 22.5156C187.244 22.8398 187.354 23.248 187.354 23.7402V26.5059C187.354 26.8223 187.373 27.0938 187.412 27.3203C187.455 27.543 187.518 27.7363 187.6 27.9004V28H186.023C185.949 27.8398 185.893 27.6367 185.854 27.3906C185.814 27.1406 185.795 26.8945 185.795 26.6523ZM186.012 24.1387L186.023 25.0586H185.045C184.803 25.0586 184.59 25.084 184.406 25.1348C184.223 25.1816 184.072 25.252 183.955 25.3457C183.838 25.4355 183.75 25.5449 183.691 25.6738C183.633 25.7988 183.604 25.9414 183.604 26.1016C183.604 26.2578 183.639 26.3984 183.709 26.5234C183.783 26.6484 183.889 26.748 184.025 26.8223C184.166 26.8926 184.33 26.9277 184.518 26.9277C184.791 26.9277 185.029 26.873 185.232 26.7637C185.436 26.6504 185.594 26.5137 185.707 26.3535C185.82 26.1934 185.881 26.041 185.889 25.8965L186.334 26.5645C186.279 26.7246 186.197 26.8945 186.088 27.0742C185.979 27.2539 185.838 27.4219 185.666 27.5781C185.494 27.7344 185.287 27.8633 185.045 27.9648C184.803 28.0664 184.521 28.1172 184.201 28.1172C183.791 28.1172 183.424 28.0352 183.1 27.8711C182.775 27.707 182.52 27.4824 182.332 27.1973C182.145 26.9121 182.051 26.5879 182.051 26.2246C182.051 25.8887 182.113 25.5918 182.238 25.334C182.363 25.0762 182.549 24.8594 182.795 24.6836C183.041 24.5039 183.346 24.3691 183.709 24.2793C184.076 24.1855 184.496 24.1387 184.969 24.1387H186.012ZM191.748 21.6602V22.7734H188.115V21.6602H191.748ZM189.088 20.1016H190.641V26.1719C190.641 26.3594 190.666 26.5039 190.717 26.6055C190.768 26.707 190.844 26.7754 190.945 26.8105C191.047 26.8457 191.168 26.8633 191.309 26.8633C191.41 26.8633 191.504 26.8574 191.59 26.8457C191.676 26.834 191.748 26.8223 191.807 26.8105L191.812 27.9707C191.684 28.0137 191.537 28.0488 191.373 28.0762C191.213 28.1035 191.031 28.1172 190.828 28.1172C190.48 28.1172 190.176 28.0586 189.914 27.9414C189.652 27.8203 189.449 27.627 189.305 27.3613C189.16 27.0918 189.088 26.7363 189.088 26.2949V20.1016ZM194.42 21.6602V28H192.867V21.6602H194.42ZM192.762 20.002C192.762 19.7715 192.84 19.5801 192.996 19.4277C193.156 19.2754 193.371 19.1992 193.641 19.1992C193.91 19.1992 194.123 19.2754 194.279 19.4277C194.439 19.5801 194.52 19.7715 194.52 20.002C194.52 20.2285 194.439 20.418 194.279 20.5703C194.123 20.7227 193.91 20.7988 193.641 20.7988C193.371 20.7988 193.156 20.7227 192.996 20.5703C192.84 20.418 192.762 20.2285 192.762 20.002ZM195.621 24.8945V24.7715C195.621 24.3066 195.688 23.8789 195.82 23.4883C195.953 23.0938 196.146 22.752 196.4 22.4629C196.654 22.1738 196.965 21.9492 197.332 21.7891C197.699 21.625 198.117 21.543 198.586 21.543C199.062 21.543 199.484 21.625 199.852 21.7891C200.223 21.9492 200.535 22.1738 200.789 22.4629C201.043 22.752 201.236 23.0938 201.369 23.4883C201.502 23.8789 201.568 24.3066 201.568 24.7715V24.8945C201.568 25.3555 201.502 25.7832 201.369 26.1777C201.236 26.5684 201.043 26.9102 200.789 27.2031C200.535 27.4922 200.225 27.7168 199.857 27.877C199.49 28.0371 199.07 28.1172 198.598 28.1172C198.129 28.1172 197.709 28.0371 197.338 27.877C196.967 27.7168 196.654 27.4922 196.4 27.2031C196.146 26.9102 195.953 26.5684 195.82 26.1777C195.688 25.7832 195.621 25.3555 195.621 24.8945ZM197.168 24.7715V24.8945C197.168 25.1719 197.195 25.4316 197.25 25.6738C197.305 25.916 197.389 26.1289 197.502 26.3125C197.615 26.4961 197.762 26.6406 197.941 26.7461C198.125 26.8477 198.344 26.8984 198.598 26.8984C198.848 26.8984 199.062 26.8477 199.242 26.7461C199.422 26.6406 199.568 26.4961 199.682 26.3125C199.799 26.1289 199.885 25.916 199.939 25.6738C199.994 25.4316 200.021 25.1719 200.021 24.8945V24.7715C200.021 24.498 199.994 24.2422 199.939 24.0039C199.885 23.7617 199.799 23.5488 199.682 23.3652C199.568 23.1777 199.42 23.0312 199.236 22.9258C199.057 22.8164 198.84 22.7617 198.586 22.7617C198.336 22.7617 198.121 22.8164 197.941 22.9258C197.762 23.0312 197.615 23.1777 197.502 23.3652C197.389 23.5488 197.305 23.7617 197.25 24.0039C197.195 24.2422 197.168 24.498 197.168 24.7715ZM204.211 23.0137V28H202.664V21.6602H204.117L204.211 23.0137ZM203.965 24.6016H203.508C203.512 24.1406 203.574 23.7227 203.695 23.3477C203.816 22.9727 203.986 22.6504 204.205 22.3809C204.428 22.1113 204.691 21.9043 204.996 21.7598C205.301 21.6152 205.641 21.543 206.016 21.543C206.32 21.543 206.596 21.5859 206.842 21.6719C207.088 21.7578 207.299 21.8945 207.475 22.082C207.654 22.2695 207.791 22.5156 207.885 22.8203C207.982 23.1211 208.031 23.4922 208.031 23.9336V28H206.473V23.9219C206.473 23.6328 206.43 23.4043 206.344 23.2363C206.262 23.0684 206.141 22.9492 205.98 22.8789C205.824 22.8086 205.631 22.7734 205.4 22.7734C205.162 22.7734 204.953 22.8223 204.773 22.9199C204.598 23.0137 204.449 23.1445 204.328 23.3125C204.211 23.4805 204.121 23.6738 204.059 23.8926C203.996 24.1113 203.965 24.3477 203.965 24.6016ZM212.883 26.2656C212.883 26.1328 212.848 26.0137 212.777 25.9082C212.707 25.8027 212.574 25.707 212.379 25.6211C212.188 25.5312 211.906 25.4473 211.535 25.3691C211.207 25.2988 210.904 25.2109 210.627 25.1055C210.35 25 210.111 24.873 209.912 24.7246C209.713 24.5723 209.557 24.3945 209.443 24.1914C209.334 23.9844 209.279 23.7461 209.279 23.4766C209.279 23.2148 209.336 22.9688 209.449 22.7383C209.562 22.5039 209.727 22.2988 209.941 22.123C210.156 21.9434 210.418 21.8027 210.727 21.7012C211.035 21.5957 211.383 21.543 211.77 21.543C212.309 21.543 212.771 21.6309 213.158 21.8066C213.549 21.9824 213.848 22.2246 214.055 22.5332C214.262 22.8379 214.365 23.1816 214.365 23.5645H212.818C212.818 23.3965 212.779 23.2441 212.701 23.1074C212.627 22.9707 212.512 22.8613 212.355 22.7793C212.199 22.6934 212.002 22.6504 211.764 22.6504C211.549 22.6504 211.367 22.6855 211.219 22.7559C211.074 22.8262 210.965 22.918 210.891 23.0312C210.816 23.1445 210.779 23.2695 210.779 23.4062C210.779 23.5078 210.799 23.5996 210.838 23.6816C210.881 23.7598 210.949 23.832 211.043 23.8984C211.137 23.9648 211.264 24.0254 211.424 24.0801C211.588 24.1348 211.789 24.1875 212.027 24.2383C212.5 24.332 212.912 24.457 213.264 24.6133C213.619 24.7656 213.896 24.9688 214.096 25.2227C214.295 25.4766 214.395 25.8008 214.395 26.1953C214.395 26.4766 214.334 26.7344 214.213 26.9688C214.092 27.1992 213.916 27.4004 213.686 27.5723C213.455 27.7441 213.18 27.8789 212.859 27.9766C212.539 28.0703 212.178 28.1172 211.775 28.1172C211.193 28.1172 210.701 28.0137 210.299 27.8066C209.896 27.5957 209.592 27.3301 209.385 27.0098C209.178 26.6855 209.074 26.3496 209.074 26.002H210.557C210.568 26.248 210.635 26.4453 210.756 26.5938C210.877 26.7422 211.029 26.8496 211.213 26.916C211.4 26.9785 211.598 27.0098 211.805 27.0098C212.039 27.0098 212.236 26.9785 212.396 26.916C212.557 26.8496 212.678 26.7617 212.76 26.6523C212.842 26.5391 212.883 26.4102 212.883 26.2656Z" fill="#00A8FF"/>
<path d="M227 24L219 36H215V12H219L227 24Z" fill="#8EC2FF" fill-opacity="0.2"/>
<path d="M963.827 19.3182V29.5H962.29V19.3182H963.827ZM967.431 24.9659V29.5H965.945V21.8636H967.371V23.1065H967.466C967.642 22.7022 967.917 22.3774 968.291 22.1321C968.669 21.8868 969.145 21.7642 969.718 21.7642C970.238 21.7642 970.694 21.8736 971.085 22.0923C971.476 22.3078 971.78 22.6293 971.995 23.0568C972.21 23.4844 972.318 24.013 972.318 24.6428V29.5H970.832V24.8217C970.832 24.2682 970.688 23.8357 970.399 23.5241C970.111 23.2093 969.715 23.0518 969.211 23.0518C968.866 23.0518 968.56 23.1264 968.291 23.2756C968.026 23.4247 967.816 23.6435 967.66 23.9318C967.507 24.2169 967.431 24.5616 967.431 24.9659ZM980.034 23.728L978.687 23.9666C978.63 23.7943 978.541 23.6302 978.418 23.4744C978.299 23.3187 978.137 23.1911 977.931 23.0916C977.726 22.9922 977.469 22.9425 977.161 22.9425C976.74 22.9425 976.388 23.0369 976.107 23.2259C975.825 23.4115 975.684 23.6518 975.684 23.9467C975.684 24.2019 975.778 24.4074 975.967 24.5632C976.156 24.719 976.461 24.8466 976.882 24.946L978.095 25.2244C978.798 25.3868 979.321 25.6371 979.666 25.9751C980.011 26.3132 980.183 26.7524 980.183 27.2926C980.183 27.75 980.051 28.1577 979.786 28.5156C979.524 28.8703 979.157 29.1487 978.687 29.3509C978.219 29.553 977.678 29.6541 977.061 29.6541C976.206 29.6541 975.508 29.4718 974.968 29.1072C974.428 28.7393 974.096 28.2173 973.974 27.5412L975.411 27.3224C975.5 27.697 975.684 27.9804 975.962 28.1726C976.241 28.3615 976.604 28.456 977.051 28.456C977.538 28.456 977.928 28.3549 978.219 28.1527C978.511 27.9472 978.657 27.697 978.657 27.402C978.657 27.1634 978.567 26.9628 978.388 26.8004C978.213 26.638 977.943 26.5154 977.578 26.4325L976.286 26.1491C975.573 25.9867 975.046 25.7282 974.705 25.3736C974.366 25.0189 974.197 24.5698 974.197 24.0263C974.197 23.5755 974.323 23.1811 974.575 22.843C974.827 22.505 975.175 22.2415 975.619 22.0526C976.063 21.8603 976.572 21.7642 977.146 21.7642C977.971 21.7642 978.621 21.9432 979.094 22.3011C979.568 22.6558 979.882 23.1314 980.034 23.728ZM981.818 32.3636V21.8636H983.269V23.1016H983.394C983.48 22.9425 983.604 22.7585 983.767 22.5497C983.929 22.3409 984.154 22.1586 984.443 22.0028C984.731 21.8438 985.112 21.7642 985.586 21.7642C986.203 21.7642 986.753 21.92 987.237 22.2315C987.721 22.5431 988.1 22.9922 988.375 23.5788C988.654 24.1655 988.793 24.8714 988.793 25.6967C988.793 26.522 988.655 27.2296 988.38 27.8196C988.105 28.4062 987.727 28.8587 987.247 29.1768C986.766 29.4917 986.218 29.6491 985.601 29.6491C985.137 29.6491 984.758 29.5713 984.463 29.4155C984.171 29.2597 983.942 29.0774 983.776 28.8686C983.611 28.6598 983.483 28.4742 983.394 28.3118H983.304V32.3636H981.818ZM983.274 25.6818C983.274 26.2187 983.352 26.6894 983.508 27.0938C983.664 27.4981 983.889 27.8146 984.184 28.0433C984.479 28.2687 984.84 28.3814 985.268 28.3814C985.712 28.3814 986.083 28.2637 986.382 28.0284C986.68 27.7898 986.905 27.4666 987.058 27.0589C987.213 26.6513 987.291 26.1922 987.291 25.6818C987.291 25.178 987.215 24.7256 987.063 24.3246C986.914 23.9235 986.688 23.607 986.387 23.375C986.088 23.143 985.715 23.027 985.268 23.027C984.837 23.027 984.472 23.138 984.174 23.3601C983.879 23.5821 983.655 23.892 983.503 24.2898C983.351 24.6875 983.274 25.1515 983.274 25.6818ZM993.749 29.6541C992.997 29.6541 992.349 29.4934 991.806 29.1719C991.265 28.8471 990.848 28.3913 990.553 27.8047C990.261 27.2147 990.115 26.5237 990.115 25.7315C990.115 24.9493 990.261 24.2599 990.553 23.6634C990.848 23.0668 991.259 22.6011 991.786 22.2663C992.316 21.9316 992.936 21.7642 993.645 21.7642C994.076 21.7642 994.494 21.8355 994.898 21.978C995.302 22.1205 995.665 22.3442 995.987 22.6491C996.308 22.9541 996.562 23.3501 996.747 23.8374C996.933 24.3213 997.026 24.9096 997.026 25.6023V26.1293H990.955V25.0156H995.569C995.569 24.6245 995.49 24.2782 995.33 23.9766C995.171 23.6716 994.948 23.4313 994.659 23.2557C994.374 23.08 994.039 22.9922 993.655 22.9922C993.237 22.9922 992.873 23.0949 992.561 23.3004C992.253 23.5026 992.014 23.7678 991.845 24.0959C991.68 24.4207 991.597 24.7737 991.597 25.1548V26.0249C991.597 26.5353 991.686 26.9695 991.865 27.3274C992.048 27.6854 992.301 27.9588 992.626 28.1477C992.951 28.3333 993.33 28.4261 993.764 28.4261C994.046 28.4261 994.303 28.3864 994.535 28.3068C994.767 28.224 994.968 28.1013 995.137 27.9389C995.306 27.7765 995.435 27.576 995.524 27.3374L996.931 27.5909C996.819 28.0052 996.616 28.3681 996.325 28.6797C996.036 28.9879 995.673 29.2282 995.236 29.4006C994.802 29.5696 994.306 29.6541 993.749 29.6541ZM1001.89 29.6541C1001.15 29.6541 1000.52 29.4867 999.983 29.152C999.452 28.8139 999.045 28.3482 998.76 27.755C998.475 27.1617 998.332 26.4822 998.332 25.7166C998.332 24.9411 998.478 24.2566 998.77 23.6634C999.061 23.0668 999.472 22.6011 1000 22.2663C1000.53 21.9316 1001.16 21.7642 1001.88 21.7642C1002.46 21.7642 1002.97 21.8719 1003.43 22.0874C1003.88 22.2995 1004.25 22.5978 1004.53 22.9822C1004.81 23.3667 1004.98 23.8158 1005.03 24.3295H1003.58C1003.5 23.9716 1003.32 23.6634 1003.04 23.4048C1002.75 23.1463 1002.38 23.017 1001.9 23.017C1001.49 23.017 1001.12 23.1264 1000.81 23.3452C1000.5 23.5606 1000.26 23.8688 1000.09 24.2699C999.92 24.6676 999.833 25.1383 999.833 25.6818C999.833 26.2386 999.918 26.7192 1000.09 27.1236C1000.26 27.5279 1000.49 27.8411 1000.8 28.0632C1001.11 28.2853 1001.48 28.3963 1001.9 28.3963C1002.18 28.3963 1002.44 28.3449 1002.67 28.2422C1002.9 28.1361 1003.09 27.9853 1003.25 27.7898C1003.41 27.5942 1003.52 27.3589 1003.58 27.0838H1005.03C1004.98 27.5777 1004.81 28.0185 1004.55 28.4062C1004.28 28.794 1003.92 29.099 1003.47 29.321C1003.02 29.5431 1002.49 29.6541 1001.89 29.6541ZM1010.18 21.8636V23.0568H1006.01V21.8636H1010.18ZM1007.13 20.0341H1008.62V27.2578C1008.62 27.5462 1008.66 27.7633 1008.75 27.9091C1008.83 28.0516 1008.94 28.1494 1009.08 28.2024C1009.22 28.2521 1009.37 28.277 1009.53 28.277C1009.65 28.277 1009.76 28.2687 1009.84 28.2521C1009.93 28.2356 1010 28.2223 1010.05 28.2124L1010.32 29.4403C1010.24 29.4735 1010.11 29.5066 1009.95 29.5398C1009.8 29.5762 1009.6 29.5961 1009.36 29.5994C1008.97 29.6061 1008.6 29.5365 1008.26 29.3906C1007.93 29.2448 1007.65 29.0194 1007.44 28.7145C1007.23 28.4096 1007.13 28.0268 1007.13 27.5661V20.0341Z" fill="#F0F0FF"/>
<path d="M1037.38 29.5H1035.74L1039.41 19.3182H1041.18L1044.85 29.5H1043.22L1040.34 21.1676H1040.26L1037.38 29.5ZM1037.65 25.5128H1042.94V26.8054H1037.65V25.5128ZM1048.93 29.6491C1048.32 29.6491 1047.77 29.4917 1047.28 29.1768C1046.8 28.8587 1046.43 28.4062 1046.15 27.8196C1045.88 27.2296 1045.74 26.522 1045.74 25.6967C1045.74 24.8714 1045.88 24.1655 1046.16 23.5788C1046.43 22.9922 1046.81 22.5431 1047.3 22.2315C1047.78 21.92 1048.33 21.7642 1048.94 21.7642C1049.42 21.7642 1049.8 21.8438 1050.09 22.0028C1050.38 22.1586 1050.6 22.3409 1050.76 22.5497C1050.93 22.7585 1051.05 22.9425 1051.14 23.1016H1051.23V19.3182H1052.72V29.5H1051.27V28.3118H1051.14C1051.05 28.4742 1050.92 28.6598 1050.75 28.8686C1050.59 29.0774 1050.36 29.2597 1050.07 29.4155C1049.78 29.5713 1049.4 29.6491 1048.93 29.6491ZM1049.26 28.3814C1049.69 28.3814 1050.05 28.2687 1050.35 28.0433C1050.64 27.8146 1050.87 27.4981 1051.02 27.0938C1051.18 26.6894 1051.26 26.2187 1051.26 25.6818C1051.26 25.1515 1051.18 24.6875 1051.03 24.2898C1050.87 23.892 1050.65 23.5821 1050.36 23.3601C1050.06 23.138 1049.7 23.027 1049.26 23.027C1048.81 23.027 1048.44 23.143 1048.14 23.375C1047.85 23.607 1047.62 23.9235 1047.47 24.3246C1047.32 24.7256 1047.24 25.178 1047.24 25.6818C1047.24 26.1922 1047.32 26.6513 1047.47 27.0589C1047.62 27.4666 1047.85 27.7898 1048.15 28.0284C1048.45 28.2637 1048.82 28.3814 1049.26 28.3814ZM1057.7 29.6491C1057.08 29.6491 1056.53 29.4917 1056.05 29.1768C1055.57 28.8587 1055.19 28.4062 1054.91 27.8196C1054.64 27.2296 1054.51 26.522 1054.51 25.6967C1054.51 24.8714 1054.64 24.1655 1054.92 23.5788C1055.2 22.9922 1055.58 22.5431 1056.06 22.2315C1056.55 21.92 1057.09 21.7642 1057.71 21.7642C1058.18 21.7642 1058.56 21.8438 1058.85 22.0028C1059.14 22.1586 1059.37 22.3409 1059.53 22.5497C1059.69 22.7585 1059.82 22.9425 1059.91 23.1016H1059.99V19.3182H1061.48V29.5H1060.03V28.3118H1059.91C1059.82 28.4742 1059.69 28.6598 1059.52 28.8686C1059.35 29.0774 1059.12 29.2597 1058.83 29.4155C1058.54 29.5713 1058.16 29.6491 1057.7 29.6491ZM1058.03 28.3814C1058.45 28.3814 1058.81 28.2687 1059.11 28.0433C1059.41 27.8146 1059.63 27.4981 1059.79 27.0938C1059.94 26.6894 1060.02 26.2187 1060.02 25.6818C1060.02 25.1515 1059.94 24.6875 1059.79 24.2898C1059.64 23.892 1059.41 23.5821 1059.12 23.3601C1058.82 23.138 1058.46 23.027 1058.03 23.027C1057.58 23.027 1057.21 23.143 1056.91 23.375C1056.61 23.607 1056.38 23.9235 1056.23 24.3246C1056.08 24.7256 1056.01 25.178 1056.01 25.6818C1056.01 26.1922 1056.08 26.6513 1056.24 27.0589C1056.39 27.4666 1056.61 27.7898 1056.91 28.0284C1057.21 28.2637 1057.59 28.3814 1058.03 28.3814Z" fill="#F0F0FF"/>
<path d="M1097.26 24.4091C1097.26 25.4962 1097.06 26.4309 1096.66 27.2131C1096.27 27.992 1095.72 28.5919 1095.03 29.0128C1094.34 29.4304 1093.56 29.6392 1092.68 29.6392C1091.8 29.6392 1091.01 29.4304 1090.32 29.0128C1089.63 28.5919 1089.08 27.9903 1088.68 27.2081C1088.29 26.4259 1088.09 25.4929 1088.09 24.4091C1088.09 23.322 1088.29 22.389 1088.68 21.6101C1089.08 20.8279 1089.63 20.228 1090.32 19.8104C1091.01 19.3894 1091.8 19.179 1092.68 19.179C1093.56 19.179 1094.34 19.3894 1095.03 19.8104C1095.72 20.228 1096.27 20.8279 1096.66 21.6101C1097.06 22.389 1097.26 23.322 1097.26 24.4091ZM1095.74 24.4091C1095.74 23.5805 1095.61 22.8828 1095.34 22.3161C1095.07 21.746 1094.71 21.3151 1094.24 21.0234C1093.78 20.7285 1093.26 20.581 1092.68 20.581C1092.09 20.581 1091.57 20.7285 1091.11 21.0234C1090.65 21.3151 1090.28 21.746 1090.01 22.3161C1089.75 22.8828 1089.61 23.5805 1089.61 24.4091C1089.61 25.2377 1089.75 25.937 1090.01 26.5071C1090.28 27.0739 1090.65 27.5047 1091.11 27.7997C1091.57 28.0914 1092.09 28.2372 1092.68 28.2372C1093.26 28.2372 1093.78 28.0914 1094.24 27.7997C1094.71 27.5047 1095.07 27.0739 1095.34 26.5071C1095.61 25.937 1095.74 25.2377 1095.74 24.4091ZM1099.06 32.3636V21.8636H1100.51V23.1016H1100.63C1100.72 22.9425 1100.84 22.7585 1101.01 22.5497C1101.17 22.3409 1101.39 22.1586 1101.68 22.0028C1101.97 21.8438 1102.35 21.7642 1102.83 21.7642C1103.44 21.7642 1103.99 21.92 1104.48 22.2315C1104.96 22.5431 1105.34 22.9922 1105.61 23.5788C1105.89 24.1655 1106.03 24.8714 1106.03 25.6967C1106.03 26.522 1105.89 27.2296 1105.62 27.8196C1105.34 28.4062 1104.97 28.8587 1104.49 29.1768C1104.01 29.4917 1103.46 29.6491 1102.84 29.6491C1102.38 29.6491 1102 29.5713 1101.7 29.4155C1101.41 29.2597 1101.18 29.0774 1101.02 28.8686C1100.85 28.6598 1100.72 28.4742 1100.63 28.3118H1100.54V32.3636H1099.06ZM1100.51 25.6818C1100.51 26.2187 1100.59 26.6894 1100.75 27.0938C1100.9 27.4981 1101.13 27.8146 1101.42 28.0433C1101.72 28.2687 1102.08 28.3814 1102.51 28.3814C1102.95 28.3814 1103.32 28.2637 1103.62 28.0284C1103.92 27.7898 1104.14 27.4666 1104.3 27.0589C1104.45 26.6513 1104.53 26.1922 1104.53 25.6818C1104.53 25.178 1104.45 24.7256 1104.3 24.3246C1104.15 23.9235 1103.93 23.607 1103.63 23.375C1103.33 23.143 1102.95 23.027 1102.51 23.027C1102.08 23.027 1101.71 23.138 1101.41 23.3601C1101.12 23.5821 1100.89 23.892 1100.74 24.2898C1100.59 24.6875 1100.51 25.1515 1100.51 25.6818ZM1111.26 21.8636V23.0568H1107.09V21.8636H1111.26ZM1108.21 20.0341H1109.7V27.2578C1109.7 27.5462 1109.74 27.7633 1109.83 27.9091C1109.91 28.0516 1110.02 28.1494 1110.16 28.2024C1110.3 28.2521 1110.45 28.277 1110.61 28.277C1110.73 28.277 1110.83 28.2687 1110.92 28.2521C1111.01 28.2356 1111.08 28.2223 1111.13 28.2124L1111.4 29.4403C1111.32 29.4735 1111.19 29.5066 1111.03 29.5398C1110.87 29.5762 1110.68 29.5961 1110.44 29.5994C1110.05 29.6061 1109.68 29.5365 1109.34 29.3906C1109.01 29.2448 1108.73 29.0194 1108.52 28.7145C1108.31 28.4096 1108.21 28.0268 1108.21 27.5661V20.0341ZM1112.91 29.5V21.8636H1114.39V29.5H1112.91ZM1113.66 20.6854C1113.4 20.6854 1113.18 20.5992 1112.99 20.4268C1112.81 20.2512 1112.72 20.0424 1112.72 19.8004C1112.72 19.5552 1112.81 19.3464 1112.99 19.174C1113.18 18.9983 1113.4 18.9105 1113.66 18.9105C1113.92 18.9105 1114.14 18.9983 1114.32 19.174C1114.5 19.3464 1114.6 19.5552 1114.6 19.8004C1114.6 20.0424 1114.5 20.2512 1114.32 20.4268C1114.14 20.5992 1113.92 20.6854 1113.66 20.6854ZM1119.61 29.6541C1118.89 29.6541 1118.27 29.4901 1117.74 29.1619C1117.2 28.8338 1116.79 28.3748 1116.49 27.7848C1116.2 27.1948 1116.05 26.5054 1116.05 25.7166C1116.05 24.9245 1116.2 24.2318 1116.49 23.6385C1116.79 23.0452 1117.2 22.5845 1117.74 22.2564C1118.27 21.9283 1118.89 21.7642 1119.61 21.7642C1120.33 21.7642 1120.95 21.9283 1121.48 22.2564C1122.02 22.5845 1122.43 23.0452 1122.73 23.6385C1123.02 24.2318 1123.17 24.9245 1123.17 25.7166C1123.17 26.5054 1123.02 27.1948 1122.73 27.7848C1122.43 28.3748 1122.02 28.8338 1121.48 29.1619C1120.95 29.4901 1120.33 29.6541 1119.61 29.6541ZM1119.61 28.4062C1120.08 28.4062 1120.46 28.2836 1120.77 28.0384C1121.07 27.7931 1121.3 27.4666 1121.44 27.0589C1121.59 26.6513 1121.67 26.2022 1121.67 25.7116C1121.67 25.2244 1121.59 24.777 1121.44 24.3693C1121.3 23.9583 1121.07 23.6286 1120.77 23.38C1120.46 23.1314 1120.08 23.0071 1119.61 23.0071C1119.15 23.0071 1118.76 23.1314 1118.45 23.38C1118.15 23.6286 1117.92 23.9583 1117.77 24.3693C1117.62 24.777 1117.55 25.2244 1117.55 25.7116C1117.55 26.2022 1117.62 26.6513 1117.77 27.0589C1117.92 27.4666 1118.15 27.7931 1118.45 28.0384C1118.76 28.2836 1119.15 28.4062 1119.61 28.4062ZM1126.31 24.9659V29.5H1124.83V21.8636H1126.26V23.1065H1126.35C1126.53 22.7022 1126.8 22.3774 1127.17 22.1321C1127.55 21.8868 1128.03 21.7642 1128.6 21.7642C1129.12 21.7642 1129.58 21.8736 1129.97 22.0923C1130.36 22.3078 1130.66 22.6293 1130.88 23.0568C1131.09 23.4844 1131.2 24.013 1131.2 24.6428V29.5H1129.72V24.8217C1129.72 24.2682 1129.57 23.8357 1129.28 23.5241C1128.99 23.2093 1128.6 23.0518 1128.09 23.0518C1127.75 23.0518 1127.44 23.1264 1127.17 23.2756C1126.91 23.4247 1126.7 23.6435 1126.54 23.9318C1126.39 24.2169 1126.31 24.5616 1126.31 24.9659ZM1138.92 23.728L1137.57 23.9666C1137.51 23.7943 1137.42 23.6302 1137.3 23.4744C1137.18 23.3187 1137.02 23.1911 1136.81 23.0916C1136.61 22.9922 1136.35 22.9425 1136.04 22.9425C1135.62 22.9425 1135.27 23.0369 1134.99 23.2259C1134.71 23.4115 1134.57 23.6518 1134.57 23.9467C1134.57 24.2019 1134.66 24.4074 1134.85 24.5632C1135.04 24.719 1135.34 24.8466 1135.77 24.946L1136.98 25.2244C1137.68 25.3868 1138.21 25.6371 1138.55 25.9751C1138.89 26.3132 1139.07 26.7524 1139.07 27.2926C1139.07 27.75 1138.93 28.1577 1138.67 28.5156C1138.41 28.8703 1138.04 29.1487 1137.57 29.3509C1137.1 29.553 1136.56 29.6541 1135.94 29.6541C1135.09 29.6541 1134.39 29.4718 1133.85 29.1072C1133.31 28.7393 1132.98 28.2173 1132.86 27.5412L1134.29 27.3224C1134.38 27.697 1134.57 27.9804 1134.85 28.1726C1135.12 28.3615 1135.49 28.456 1135.93 28.456C1136.42 28.456 1136.81 28.3549 1137.1 28.1527C1137.39 27.9472 1137.54 27.697 1137.54 27.402C1137.54 27.1634 1137.45 26.9628 1137.27 26.8004C1137.1 26.638 1136.83 26.5154 1136.46 26.4325L1135.17 26.1491C1134.46 25.9867 1133.93 25.7282 1133.59 25.3736C1133.25 25.0189 1133.08 24.5698 1133.08 24.0263C1133.08 23.5755 1133.21 23.1811 1133.46 22.843C1133.71 22.505 1134.06 22.2415 1134.5 22.0526C1134.95 21.8603 1135.46 21.7642 1136.03 21.7642C1136.85 21.7642 1137.5 21.9432 1137.98 22.3011C1138.45 22.6558 1138.77 23.1314 1138.92 23.728Z" fill="#F0F0FF"/>
<path d="M1170.81 21.9929C1170.76 21.5223 1170.54 21.1577 1170.16 20.8991C1169.77 20.6373 1169.29 20.5064 1168.7 20.5064C1168.29 20.5064 1167.93 20.5727 1167.62 20.7053C1167.32 20.8345 1167.08 21.0135 1166.91 21.2422C1166.74 21.4676 1166.66 21.7244 1166.66 22.0128C1166.66 22.2547 1166.72 22.4635 1166.83 22.6392C1166.95 22.8149 1167.1 22.9624 1167.28 23.0817C1167.47 23.1977 1167.67 23.2955 1167.89 23.375C1168.1 23.4512 1168.31 23.5142 1168.51 23.5639L1169.5 23.8224C1169.83 23.902 1170.16 24.0097 1170.5 24.1456C1170.85 24.2815 1171.16 24.4605 1171.45 24.6825C1171.75 24.9046 1171.98 25.1797 1172.16 25.5078C1172.34 25.8359 1172.43 26.2287 1172.43 26.6861C1172.43 27.2628 1172.28 27.7749 1171.99 28.2223C1171.69 28.6697 1171.26 29.0227 1170.7 29.2812C1170.14 29.5398 1169.46 29.669 1168.66 29.669C1167.9 29.669 1167.24 29.5481 1166.69 29.3061C1166.13 29.0642 1165.69 28.7211 1165.38 28.277C1165.06 27.8295 1164.89 27.2992 1164.86 26.6861H1166.4C1166.43 27.054 1166.55 27.3606 1166.76 27.6058C1166.97 27.8478 1167.24 28.0284 1167.57 28.1477C1167.9 28.2637 1168.26 28.3217 1168.65 28.3217C1169.09 28.3217 1169.48 28.2538 1169.81 28.1179C1170.15 27.9787 1170.42 27.7865 1170.62 27.5412C1170.81 27.2926 1170.91 27.0026 1170.91 26.6712C1170.91 26.3696 1170.83 26.1226 1170.65 25.9304C1170.48 25.7382 1170.25 25.5791 1169.96 25.4531C1169.67 25.3272 1169.35 25.2161 1168.98 25.12L1167.78 24.7919C1166.96 24.5698 1166.32 24.2434 1165.84 23.8125C1165.37 23.3816 1165.13 22.8116 1165.13 22.1023C1165.13 21.5156 1165.29 21.0036 1165.61 20.5661C1165.93 20.1286 1166.36 19.7888 1166.9 19.5469C1167.44 19.3016 1168.06 19.179 1168.74 19.179C1169.43 19.179 1170.04 19.3 1170.56 19.5419C1171.09 19.7839 1171.51 20.117 1171.82 20.5412C1172.12 20.9621 1172.28 21.446 1172.29 21.9929H1170.81ZM1175.64 24.9659V29.5H1174.15V19.3182H1175.62V23.1065H1175.71C1175.89 22.6955 1176.16 22.3691 1176.53 22.1271C1176.9 21.8852 1177.38 21.7642 1177.97 21.7642C1178.5 21.7642 1178.95 21.8719 1179.34 22.0874C1179.74 22.3028 1180.04 22.6243 1180.26 23.0518C1180.48 23.4761 1180.59 24.0064 1180.59 24.6428V29.5H1179.1V24.8217C1179.1 24.2616 1178.96 23.8274 1178.67 23.5192C1178.38 23.2076 1177.98 23.0518 1177.47 23.0518C1177.11 23.0518 1176.8 23.1264 1176.52 23.2756C1176.25 23.4247 1176.03 23.6435 1175.87 23.9318C1175.71 24.2169 1175.64 24.5616 1175.64 24.9659ZM1184.79 29.669C1184.31 29.669 1183.87 29.5795 1183.48 29.4006C1183.09 29.2183 1182.78 28.9548 1182.55 28.6101C1182.33 28.2654 1182.21 27.8428 1182.21 27.3423C1182.21 26.9115 1182.3 26.5568 1182.46 26.2784C1182.63 26 1182.85 25.7796 1183.13 25.6172C1183.42 25.4548 1183.73 25.3321 1184.08 25.2493C1184.43 25.1664 1184.78 25.1035 1185.14 25.0604C1185.6 25.0073 1185.97 24.9643 1186.26 24.9311C1186.54 24.8946 1186.75 24.8366 1186.88 24.7571C1187.01 24.6776 1187.07 24.5483 1187.07 24.3693V24.3345C1187.07 23.9003 1186.95 23.5639 1186.7 23.3253C1186.46 23.0866 1186.1 22.9673 1185.62 22.9673C1185.12 22.9673 1184.72 23.0784 1184.44 23.3004C1184.15 23.5192 1183.95 23.7628 1183.84 24.0312L1182.45 23.7131C1182.61 23.2491 1182.85 22.8745 1183.17 22.5895C1183.49 22.3011 1183.86 22.0923 1184.28 21.9631C1184.7 21.8305 1185.14 21.7642 1185.6 21.7642C1185.9 21.7642 1186.23 21.8007 1186.57 21.8736C1186.91 21.9432 1187.23 22.0724 1187.53 22.2614C1187.83 22.4503 1188.08 22.7204 1188.27 23.0717C1188.47 23.4197 1188.56 23.8722 1188.56 24.429V29.5H1187.11V28.456H1187.05C1186.95 28.6482 1186.81 28.8371 1186.62 29.0227C1186.43 29.2083 1186.18 29.3625 1185.88 29.4851C1185.58 29.6077 1185.21 29.669 1184.79 29.669ZM1185.12 28.4759C1185.53 28.4759 1185.88 28.3946 1186.17 28.2322C1186.47 28.0698 1186.69 27.8577 1186.84 27.5959C1187 27.3307 1187.08 27.0473 1187.08 26.7457V25.7614C1187.02 25.8144 1186.92 25.8641 1186.77 25.9105C1186.62 25.9536 1186.45 25.9917 1186.26 26.0249C1186.06 26.0547 1185.88 26.0829 1185.69 26.1094C1185.51 26.1326 1185.36 26.1525 1185.24 26.169C1184.95 26.2055 1184.68 26.2668 1184.45 26.353C1184.21 26.4392 1184.02 26.5634 1183.88 26.7259C1183.74 26.8849 1183.67 27.0971 1183.67 27.3622C1183.67 27.7301 1183.81 28.0085 1184.08 28.1974C1184.35 28.383 1184.7 28.4759 1185.12 28.4759ZM1190.54 29.5V21.8636H1191.98V23.0767H1192.06C1192.2 22.6657 1192.44 22.3426 1192.79 22.1072C1193.15 21.8686 1193.55 21.7493 1194 21.7493C1194.09 21.7493 1194.2 21.7526 1194.33 21.7592C1194.45 21.7659 1194.56 21.7741 1194.63 21.7841V23.206C1194.57 23.1894 1194.46 23.1712 1194.31 23.1513C1194.16 23.1281 1194.01 23.1165 1193.85 23.1165C1193.5 23.1165 1193.19 23.1911 1192.91 23.3402C1192.64 23.486 1192.43 23.6899 1192.27 23.9517C1192.11 24.2102 1192.03 24.5052 1192.03 24.8366V29.5H1190.54ZM1198.93 29.6541C1198.18 29.6541 1197.53 29.4934 1196.99 29.1719C1196.45 28.8471 1196.03 28.3913 1195.74 27.8047C1195.44 27.2147 1195.3 26.5237 1195.3 25.7315C1195.3 24.9493 1195.44 24.2599 1195.74 23.6634C1196.03 23.0668 1196.44 22.6011 1196.97 22.2663C1197.5 21.9316 1198.12 21.7642 1198.83 21.7642C1199.26 21.7642 1199.68 21.8355 1200.08 21.978C1200.49 22.1205 1200.85 22.3442 1201.17 22.6491C1201.49 22.9541 1201.75 23.3501 1201.93 23.8374C1202.12 24.3213 1202.21 24.9096 1202.21 25.6023V26.1293H1196.14V25.0156H1200.75C1200.75 24.6245 1200.67 24.2782 1200.51 23.9766C1200.35 23.6716 1200.13 23.4313 1199.84 23.2557C1199.56 23.08 1199.22 22.9922 1198.84 22.9922C1198.42 22.9922 1198.06 23.0949 1197.74 23.3004C1197.44 23.5026 1197.2 23.7678 1197.03 24.0959C1196.86 24.4207 1196.78 24.7737 1196.78 25.1548V26.0249C1196.78 26.5353 1196.87 26.9695 1197.05 27.3274C1197.23 27.6854 1197.48 27.9588 1197.81 28.1477C1198.13 28.3333 1198.51 28.4261 1198.95 28.4261C1199.23 28.4261 1199.49 28.3864 1199.72 28.3068C1199.95 28.224 1200.15 28.1013 1200.32 27.9389C1200.49 27.7765 1200.62 27.576 1200.71 27.3374L1202.11 27.5909C1202 28.0052 1201.8 28.3681 1201.51 28.6797C1201.22 28.9879 1200.86 29.2282 1200.42 29.4006C1199.99 29.5696 1199.49 29.6541 1198.93 29.6541Z" fill="#F0F0FF"/>
<path d="M1236.94 22.6293H1235.38C1235.32 22.2978 1235.21 22.0062 1235.05 21.7543C1234.89 21.5024 1234.69 21.2886 1234.45 21.1129C1234.22 20.9373 1233.96 20.8047 1233.66 20.7152C1233.38 20.6257 1233.07 20.581 1232.74 20.581C1232.16 20.581 1231.63 20.7285 1231.17 21.0234C1230.71 21.3184 1230.34 21.7509 1230.07 22.321C1229.81 22.8911 1229.68 23.5871 1229.68 24.4091C1229.68 25.2377 1229.81 25.937 1230.07 26.5071C1230.34 27.0772 1230.71 27.508 1231.17 27.7997C1231.64 28.0914 1232.16 28.2372 1232.74 28.2372C1233.06 28.2372 1233.37 28.1941 1233.65 28.108C1233.95 28.0185 1234.21 27.8875 1234.44 27.7152C1234.68 27.5429 1234.88 27.3324 1235.04 27.0838C1235.21 26.8319 1235.32 26.5436 1235.38 26.2188L1236.94 26.2237C1236.85 26.7242 1236.69 27.1849 1236.45 27.6058C1236.22 28.0234 1235.91 28.3847 1235.54 28.6896C1235.18 28.9912 1234.75 29.2249 1234.28 29.3906C1233.81 29.5563 1233.29 29.6392 1232.73 29.6392C1231.85 29.6392 1231.06 29.4304 1230.37 29.0128C1229.68 28.5919 1229.14 27.9903 1228.74 27.2081C1228.35 26.4259 1228.15 25.4929 1228.15 24.4091C1228.15 23.322 1228.35 22.389 1228.75 21.6101C1229.15 20.8279 1229.69 20.228 1230.38 19.8104C1231.07 19.3894 1231.85 19.179 1232.73 19.179C1233.27 19.179 1233.77 19.2569 1234.24 19.4126C1234.71 19.5651 1235.13 19.7905 1235.51 20.0888C1235.88 20.3838 1236.19 20.745 1236.44 21.1726C1236.68 21.5968 1236.85 22.0824 1236.94 22.6293ZM1240.88 29.669C1240.39 29.669 1239.96 29.5795 1239.56 29.4006C1239.17 29.2183 1238.86 28.9548 1238.63 28.6101C1238.41 28.2654 1238.3 27.8428 1238.3 27.3423C1238.3 26.9115 1238.38 26.5568 1238.55 26.2784C1238.71 26 1238.93 25.7796 1239.22 25.6172C1239.5 25.4548 1239.81 25.3321 1240.16 25.2493C1240.51 25.1664 1240.86 25.1035 1241.22 25.0604C1241.68 25.0073 1242.05 24.9643 1242.34 24.9311C1242.62 24.8946 1242.83 24.8366 1242.96 24.7571C1243.09 24.6776 1243.15 24.5483 1243.15 24.3693V24.3345C1243.15 23.9003 1243.03 23.5639 1242.79 23.3253C1242.54 23.0866 1242.18 22.9673 1241.7 22.9673C1241.2 22.9673 1240.81 23.0784 1240.52 23.3004C1240.23 23.5192 1240.04 23.7628 1239.93 24.0312L1238.53 23.7131C1238.7 23.2491 1238.94 22.8745 1239.26 22.5895C1239.58 22.3011 1239.95 22.0923 1240.36 21.9631C1240.78 21.8305 1241.22 21.7642 1241.68 21.7642C1241.99 21.7642 1242.31 21.8007 1242.65 21.8736C1243 21.9432 1243.32 22.0724 1243.62 22.2614C1243.92 22.4503 1244.16 22.7204 1244.36 23.0717C1244.55 23.4197 1244.65 23.8722 1244.65 24.429V29.5H1243.19V28.456H1243.13C1243.04 28.6482 1242.89 28.8371 1242.7 29.0227C1242.51 29.2083 1242.26 29.3625 1241.96 29.4851C1241.66 29.6077 1241.3 29.669 1240.88 29.669ZM1241.2 28.4759C1241.61 28.4759 1241.96 28.3946 1242.25 28.2322C1242.55 28.0698 1242.77 27.8577 1242.93 27.5959C1243.08 27.3307 1243.16 27.0473 1243.16 26.7457V25.7614C1243.11 25.8144 1243 25.8641 1242.85 25.9105C1242.7 25.9536 1242.53 25.9917 1242.34 26.0249C1242.15 26.0547 1241.96 26.0829 1241.78 26.1094C1241.59 26.1326 1241.44 26.1525 1241.32 26.169C1241.03 26.2055 1240.77 26.2668 1240.53 26.353C1240.29 26.4392 1240.1 26.5634 1239.96 26.7259C1239.82 26.8849 1239.75 27.0971 1239.75 27.3622C1239.75 27.7301 1239.89 28.0085 1240.16 28.1974C1240.43 28.383 1240.78 28.4759 1241.2 28.4759ZM1248.11 24.9659V29.5H1246.63V21.8636H1248.05V23.1065H1248.15C1248.32 22.7022 1248.6 22.3774 1248.97 22.1321C1249.35 21.8868 1249.83 21.7642 1250.4 21.7642C1250.92 21.7642 1251.37 21.8736 1251.77 22.0923C1252.16 22.3078 1252.46 22.6293 1252.68 23.0568C1252.89 23.4844 1253 24.013 1253 24.6428V29.5H1251.51V24.8217C1251.51 24.2682 1251.37 23.8357 1251.08 23.5241C1250.79 23.2093 1250.4 23.0518 1249.89 23.0518C1249.55 23.0518 1249.24 23.1264 1248.97 23.2756C1248.71 23.4247 1248.5 23.6435 1248.34 23.9318C1248.19 24.2169 1248.11 24.5616 1248.11 24.9659ZM1258.21 29.6541C1257.47 29.6541 1256.83 29.4867 1256.3 29.152C1255.77 28.8139 1255.36 28.3482 1255.08 27.755C1254.79 27.1617 1254.65 26.4822 1254.65 25.7166C1254.65 24.9411 1254.8 24.2566 1255.09 23.6634C1255.38 23.0668 1255.79 22.6011 1256.32 22.2663C1256.85 21.9316 1257.47 21.7642 1258.19 21.7642C1258.77 21.7642 1259.29 21.8719 1259.75 22.0874C1260.2 22.2995 1260.57 22.5978 1260.84 22.9822C1261.13 23.3667 1261.29 23.8158 1261.35 24.3295H1259.9C1259.82 23.9716 1259.64 23.6634 1259.35 23.4048C1259.07 23.1463 1258.69 23.017 1258.22 23.017C1257.8 23.017 1257.44 23.1264 1257.13 23.3452C1256.82 23.5606 1256.58 23.8688 1256.41 24.2699C1256.24 24.6676 1256.15 25.1383 1256.15 25.6818C1256.15 26.2386 1256.24 26.7192 1256.4 27.1236C1256.57 27.5279 1256.81 27.8411 1257.12 28.0632C1257.43 28.2853 1257.8 28.3963 1258.22 28.3963C1258.5 28.3963 1258.76 28.3449 1258.98 28.2422C1259.22 28.1361 1259.41 27.9853 1259.57 27.7898C1259.73 27.5942 1259.84 27.3589 1259.9 27.0838H1261.35C1261.29 27.5777 1261.13 28.0185 1260.86 28.4062C1260.6 28.794 1260.24 29.099 1259.79 29.321C1259.34 29.5431 1258.81 29.6541 1258.21 29.6541ZM1266.23 29.6541C1265.47 29.6541 1264.83 29.4934 1264.28 29.1719C1263.74 28.8471 1263.33 28.3913 1263.03 27.8047C1262.74 27.2147 1262.59 26.5237 1262.59 25.7315C1262.59 24.9493 1262.74 24.2599 1263.03 23.6634C1263.33 23.0668 1263.74 22.6011 1264.26 22.2663C1264.79 21.9316 1265.41 21.7642 1266.12 21.7642C1266.55 21.7642 1266.97 21.8355 1267.38 21.978C1267.78 22.1205 1268.14 22.3442 1268.46 22.6491C1268.79 22.9541 1269.04 23.3501 1269.22 23.8374C1269.41 24.3213 1269.5 24.9096 1269.5 25.6023V26.1293H1263.43V25.0156H1268.05C1268.05 24.6245 1267.97 24.2782 1267.81 23.9766C1267.65 23.6716 1267.43 23.4313 1267.14 23.2557C1266.85 23.08 1266.52 22.9922 1266.13 22.9922C1265.71 22.9922 1265.35 23.0949 1265.04 23.3004C1264.73 23.5026 1264.49 23.7678 1264.32 24.0959C1264.16 24.4207 1264.07 24.7737 1264.07 25.1548V26.0249C1264.07 26.5353 1264.16 26.9695 1264.34 27.3274C1264.53 27.6854 1264.78 27.9588 1265.1 28.1477C1265.43 28.3333 1265.81 28.4261 1266.24 28.4261C1266.52 28.4261 1266.78 28.3864 1267.01 28.3068C1267.24 28.224 1267.45 28.1013 1267.61 27.9389C1267.78 27.7765 1267.91 27.576 1268 27.3374L1269.41 27.5909C1269.3 28.0052 1269.09 28.3681 1268.8 28.6797C1268.51 28.9879 1268.15 29.2282 1267.71 29.4006C1267.28 29.5696 1266.78 29.6541 1266.23 29.6541ZM1272.64 19.3182V29.5H1271.15V19.3182H1272.64Z" fill="#F0F0FF"/>
<rect x="1290" y="8" width="142" height="32.0001" rx="4" fill="#053C5A"/>
<path d="M1313.38 17C1313.64 17 1313.73 17.0094 1313.83 17.0322C1313.93 17.055 1314.01 17.0917 1314.1 17.1455C1314.19 17.1993 1314.26 17.256 1314.44 17.4385L1316.56 19.5615C1316.74 19.744 1316.8 19.8143 1316.85 19.9004C1316.91 19.9865 1316.94 20.074 1316.97 20.1729C1316.99 20.2718 1317 20.3613 1317 20.6191V29.7178C1317 30.1635 1316.95 30.3253 1316.87 30.4883C1316.78 30.6512 1316.65 30.7791 1316.49 30.8662C1316.33 30.9534 1316.16 31 1315.72 31H1304.28C1303.84 31 1303.67 30.9534 1303.51 30.8662C1303.35 30.7791 1303.22 30.6512 1303.13 30.4883C1303.05 30.3253 1303 30.1635 1303 29.7178V18.2822C1303 17.8365 1303.05 17.6747 1303.13 17.5117C1303.22 17.3488 1303.35 17.2209 1303.51 17.1338C1303.67 17.0466 1303.84 17 1304.28 17H1313.38ZM1304.01 18.0078C1304 18.0373 1304 18.1019 1304 18.2822V29.7178C1304 29.8981 1304 29.9627 1304.01 29.9922C1304.04 29.9973 1304.1 30 1304.28 30H1315.72C1315.9 30 1315.96 29.9973 1315.99 29.9922C1316 29.9627 1316 29.8981 1316 29.7178V20.6191C1316 20.4897 1316 20.4404 1316 20.416C1315.98 20.397 1315.95 20.3606 1315.85 20.2686L1313.73 18.1455C1313.64 18.0534 1313.6 18.0194 1313.58 18.0039C1313.56 18.0015 1313.51 18 1313.38 18H1312.99C1313 18.0796 1313 18.1724 1313 18.2822V20.7178C1313 21.1635 1312.95 21.3253 1312.87 21.4883C1312.78 21.6512 1312.65 21.7791 1312.49 21.8662C1312.33 21.9534 1312.16 22 1311.72 22H1308.28C1307.84 22 1307.67 21.9534 1307.51 21.8662C1307.35 21.7791 1307.22 21.6512 1307.13 21.4883C1307.05 21.3253 1307 21.1635 1307 20.7178V18.2822C1307 18.1724 1307 18.0796 1307.01 18H1304.28C1304.1 18 1304.04 18.0027 1304.01 18.0078ZM1310 24C1311.1 24 1312 24.8954 1312 26C1312 27.1046 1311.1 28 1310 28C1308.9 28 1308 27.1046 1308 26C1308 24.8954 1308.9 24 1310 24ZM1310 25C1309.45 25 1309 25.4477 1309 26C1309 26.5523 1309.45 27 1310 27C1310.55 27 1311 26.5523 1311 26C1311 25.4477 1310.55 25 1310 25ZM1308.01 18.0078C1308 18.0373 1308 18.1019 1308 18.2822V20.7178C1308 20.8981 1308 20.9627 1308.01 20.9922C1308.04 20.9973 1308.1 21 1308.28 21H1311.72C1311.9 21 1311.96 20.9973 1311.99 20.9922C1312 20.9627 1312 20.8981 1312 20.7178V18.2822C1312 18.1019 1312 18.0373 1311.99 18.0078C1311.96 18.0027 1311.9 18 1311.72 18H1308.28C1308.1 18 1308.04 18.0027 1308.01 18.0078Z" fill="#F0F0FF"/>
<path d="M1332.99 21.9929C1332.94 21.5223 1332.72 21.1577 1332.33 20.8991C1331.95 20.6373 1331.46 20.5064 1330.88 20.5064C1330.46 20.5064 1330.1 20.5727 1329.8 20.7053C1329.49 20.8345 1329.26 21.0135 1329.09 21.2422C1328.92 21.4676 1328.84 21.7244 1328.84 22.0128C1328.84 22.2547 1328.89 22.4635 1329.01 22.6392C1329.12 22.8149 1329.27 22.9624 1329.46 23.0817C1329.65 23.1977 1329.85 23.2955 1330.07 23.375C1330.28 23.4512 1330.49 23.5142 1330.69 23.5639L1331.68 23.8224C1332.01 23.902 1332.34 24.0097 1332.68 24.1456C1333.02 24.2815 1333.34 24.4605 1333.63 24.6825C1333.92 24.9046 1334.16 25.1797 1334.34 25.5078C1334.52 25.8359 1334.61 26.2287 1334.61 26.6861C1334.61 27.2628 1334.46 27.7749 1334.16 28.2223C1333.87 28.6697 1333.44 29.0227 1332.87 29.2812C1332.31 29.5398 1331.64 29.669 1330.84 29.669C1330.08 29.669 1329.42 29.5481 1328.86 29.3061C1328.31 29.0642 1327.87 28.7211 1327.56 28.277C1327.24 27.8295 1327.07 27.2992 1327.03 26.6861H1328.57C1328.6 27.054 1328.72 27.3606 1328.93 27.6058C1329.14 27.8478 1329.41 28.0284 1329.74 28.1477C1330.07 28.2637 1330.44 28.3217 1330.83 28.3217C1331.27 28.3217 1331.65 28.2538 1331.99 28.1179C1332.33 27.9787 1332.6 27.7865 1332.8 27.5412C1332.99 27.2926 1333.09 27.0026 1333.09 26.6712C1333.09 26.3696 1333 26.1226 1332.83 25.9304C1332.66 25.7382 1332.43 25.5791 1332.14 25.4531C1331.85 25.3272 1331.52 25.2161 1331.16 25.12L1329.96 24.7919C1329.14 24.5698 1328.49 24.2434 1328.02 23.8125C1327.54 23.3816 1327.31 22.8116 1327.31 22.1023C1327.31 21.5156 1327.47 21.0036 1327.78 20.5661C1328.1 20.1286 1328.53 19.7888 1329.08 19.5469C1329.62 19.3016 1330.23 19.179 1330.92 19.179C1331.61 19.179 1332.21 19.3 1332.74 19.5419C1333.27 19.7839 1333.69 20.117 1333.99 20.5412C1334.3 20.9621 1334.46 21.446 1334.47 21.9929H1332.99ZM1338.55 29.669C1338.06 29.669 1337.63 29.5795 1337.24 29.4006C1336.85 29.2183 1336.54 28.9548 1336.31 28.6101C1336.08 28.2654 1335.97 27.8428 1335.97 27.3423C1335.97 26.9115 1336.05 26.5568 1336.22 26.2784C1336.38 26 1336.61 25.7796 1336.89 25.6172C1337.17 25.4548 1337.48 25.3321 1337.83 25.2493C1338.18 25.1664 1338.54 25.1035 1338.9 25.0604C1339.35 25.0073 1339.73 24.9643 1340.01 24.9311C1340.3 24.8946 1340.5 24.8366 1340.63 24.7571C1340.76 24.6776 1340.83 24.5483 1340.83 24.3693V24.3345C1340.83 23.9003 1340.7 23.5639 1340.46 23.3253C1340.22 23.0866 1339.85 22.9673 1339.37 22.9673C1338.87 22.9673 1338.48 23.0784 1338.19 23.3004C1337.91 23.5192 1337.71 23.7628 1337.6 24.0312L1336.2 23.7131C1336.37 23.2491 1336.61 22.8745 1336.93 22.5895C1337.25 22.3011 1337.62 22.0923 1338.04 21.9631C1338.45 21.8305 1338.89 21.7642 1339.35 21.7642C1339.66 21.7642 1339.98 21.8007 1340.32 21.8736C1340.67 21.9432 1340.99 22.0724 1341.29 22.2614C1341.59 22.4503 1341.84 22.7204 1342.03 23.0717C1342.22 23.4197 1342.32 23.8722 1342.32 24.429V29.5H1340.87V28.456H1340.81C1340.71 28.6482 1340.57 28.8371 1340.37 29.0227C1340.18 29.2083 1339.93 29.3625 1339.63 29.4851C1339.33 29.6077 1338.97 29.669 1338.55 29.669ZM1338.87 28.4759C1339.28 28.4759 1339.63 28.3946 1339.93 28.2322C1340.22 28.0698 1340.44 27.8577 1340.6 27.5959C1340.75 27.3307 1340.83 27.0473 1340.83 26.7457V25.7614C1340.78 25.8144 1340.67 25.8641 1340.52 25.9105C1340.37 25.9536 1340.2 25.9917 1340.01 26.0249C1339.82 26.0547 1339.63 26.0829 1339.45 26.1094C1339.27 26.1326 1339.11 26.1525 1338.99 26.169C1338.7 26.2055 1338.44 26.2668 1338.2 26.353C1337.97 26.4392 1337.78 26.5634 1337.63 26.7259C1337.49 26.8849 1337.43 27.0971 1337.43 27.3622C1337.43 27.7301 1337.56 28.0085 1337.83 28.1974C1338.1 28.383 1338.45 28.4759 1338.87 28.4759ZM1350.56 21.8636L1347.79 29.5H1346.2L1343.42 21.8636H1345.02L1346.95 27.7401H1347.03L1348.96 21.8636H1350.56ZM1354.98 29.6541C1354.23 29.6541 1353.58 29.4934 1353.04 29.1719C1352.5 28.8471 1352.08 28.3913 1351.79 27.8047C1351.5 27.2147 1351.35 26.5237 1351.35 25.7315C1351.35 24.9493 1351.5 24.2599 1351.79 23.6634C1352.08 23.0668 1352.49 22.6011 1353.02 22.2663C1353.55 21.9316 1354.17 21.7642 1354.88 21.7642C1355.31 21.7642 1355.73 21.8355 1356.13 21.978C1356.54 22.1205 1356.9 22.3442 1357.22 22.6491C1357.54 22.9541 1357.8 23.3501 1357.98 23.8374C1358.17 24.3213 1358.26 24.9096 1358.26 25.6023V26.1293H1352.19V25.0156H1356.8C1356.8 24.6245 1356.72 24.2782 1356.57 23.9766C1356.41 23.6716 1356.18 23.4313 1355.89 23.2557C1355.61 23.08 1355.27 22.9922 1354.89 22.9922C1354.47 22.9922 1354.11 23.0949 1353.8 23.3004C1353.49 23.5026 1353.25 23.7678 1353.08 24.0959C1352.91 24.4207 1352.83 24.7737 1352.83 25.1548V26.0249C1352.83 26.5353 1352.92 26.9695 1353.1 27.3274C1353.28 27.6854 1353.54 27.9588 1353.86 28.1477C1354.19 28.3333 1354.57 28.4261 1355 28.4261C1355.28 28.4261 1355.54 28.3864 1355.77 28.3068C1356 28.224 1356.2 28.1013 1356.37 27.9389C1356.54 27.7765 1356.67 27.576 1356.76 27.3374L1358.17 27.5909C1358.05 28.0052 1357.85 28.3681 1357.56 28.6797C1357.27 28.9879 1356.91 29.2282 1356.47 29.4006C1356.04 29.5696 1355.54 29.6541 1354.98 29.6541ZM1366.83 29.6541C1366.09 29.6541 1365.46 29.4867 1364.92 29.152C1364.39 28.8139 1363.99 28.3482 1363.7 27.755C1363.41 27.1617 1363.27 26.4822 1363.27 25.7166C1363.27 24.9411 1363.42 24.2566 1363.71 23.6634C1364 23.0668 1364.41 22.6011 1364.94 22.2663C1365.47 21.9316 1366.1 21.7642 1366.82 21.7642C1367.4 21.7642 1367.91 21.8719 1368.37 22.0874C1368.82 22.2995 1369.19 22.5978 1369.47 22.9822C1369.75 23.3667 1369.92 23.8158 1369.97 24.3295H1368.52C1368.44 23.9716 1368.26 23.6634 1367.98 23.4048C1367.69 23.1463 1367.32 23.017 1366.84 23.017C1366.43 23.017 1366.06 23.1264 1365.75 23.3452C1365.45 23.5606 1365.2 23.8688 1365.03 24.2699C1364.86 24.6676 1364.77 25.1383 1364.77 25.6818C1364.77 26.2386 1364.86 26.7192 1365.03 27.1236C1365.2 27.5279 1365.44 27.8411 1365.74 28.0632C1366.05 28.2853 1366.42 28.3963 1366.84 28.3963C1367.12 28.3963 1367.38 28.3449 1367.61 28.2422C1367.84 28.1361 1368.03 27.9853 1368.19 27.7898C1368.35 27.5942 1368.46 27.3589 1368.52 27.0838H1369.97C1369.92 27.5777 1369.76 28.0185 1369.49 28.4062C1369.22 28.794 1368.86 29.099 1368.41 29.321C1367.96 29.5431 1367.44 29.6541 1366.83 29.6541ZM1373.05 24.9659V29.5H1371.56V19.3182H1373.03V23.1065H1373.12C1373.3 22.6955 1373.57 22.3691 1373.94 22.1271C1374.31 21.8852 1374.79 21.7642 1375.38 21.7642C1375.91 21.7642 1376.36 21.8719 1376.75 22.0874C1377.15 22.3028 1377.45 22.6243 1377.67 23.0518C1377.89 23.4761 1378 24.0064 1378 24.6428V29.5H1376.51V24.8217C1376.51 24.2616 1376.37 23.8274 1376.08 23.5192C1375.79 23.2076 1375.39 23.0518 1374.87 23.0518C1374.52 23.0518 1374.21 23.1264 1373.93 23.2756C1373.66 23.4247 1373.44 23.6435 1373.28 23.9318C1373.12 24.2169 1373.05 24.5616 1373.05 24.9659ZM1382.2 29.669C1381.72 29.669 1381.28 29.5795 1380.89 29.4006C1380.5 29.2183 1380.19 28.9548 1379.96 28.6101C1379.74 28.2654 1379.62 27.8428 1379.62 27.3423C1379.62 26.9115 1379.71 26.5568 1379.87 26.2784C1380.04 26 1380.26 25.7796 1380.54 25.6172C1380.82 25.4548 1381.14 25.3321 1381.49 25.2493C1381.84 25.1664 1382.19 25.1035 1382.55 25.0604C1383.01 25.0073 1383.38 24.9643 1383.66 24.9311C1383.95 24.8946 1384.16 24.8366 1384.29 24.7571C1384.42 24.6776 1384.48 24.5483 1384.48 24.3693V24.3345C1384.48 23.9003 1384.36 23.5639 1384.11 23.3253C1383.87 23.0866 1383.51 22.9673 1383.03 22.9673C1382.53 22.9673 1382.13 23.0784 1381.85 23.3004C1381.56 23.5192 1381.36 23.7628 1381.25 24.0312L1379.86 23.7131C1380.02 23.2491 1380.26 22.8745 1380.58 22.5895C1380.9 22.3011 1381.27 22.0923 1381.69 21.9631C1382.11 21.8305 1382.55 21.7642 1383.01 21.7642C1383.31 21.7642 1383.64 21.8007 1383.98 21.8736C1384.32 21.9432 1384.64 22.0724 1384.94 22.2614C1385.24 22.4503 1385.49 22.7204 1385.68 23.0717C1385.88 23.4197 1385.97 23.8722 1385.97 24.429V29.5H1384.52V28.456H1384.46C1384.36 28.6482 1384.22 28.8371 1384.03 29.0227C1383.84 29.2083 1383.59 29.3625 1383.29 29.4851C1382.99 29.6077 1382.62 29.669 1382.2 29.669ZM1382.53 28.4759C1382.94 28.4759 1383.29 28.3946 1383.58 28.2322C1383.88 28.0698 1384.1 27.8577 1384.25 27.5959C1384.41 27.3307 1384.48 27.0473 1384.48 26.7457V25.7614C1384.43 25.8144 1384.33 25.8641 1384.18 25.9105C1384.03 25.9536 1383.86 25.9917 1383.66 26.0249C1383.47 26.0547 1383.29 26.0829 1383.1 26.1094C1382.92 26.1326 1382.77 26.1525 1382.65 26.169C1382.36 26.2055 1382.09 26.2668 1381.86 26.353C1381.62 26.4392 1381.43 26.5634 1381.29 26.7259C1381.15 26.8849 1381.08 27.0971 1381.08 27.3622C1381.08 27.7301 1381.22 28.0085 1381.49 28.1974C1381.76 28.383 1382.11 28.4759 1382.53 28.4759ZM1389.44 24.9659V29.5H1387.95V21.8636H1389.38V23.1065H1389.47C1389.65 22.7022 1389.92 22.3774 1390.3 22.1321C1390.68 21.8868 1391.15 21.7642 1391.72 21.7642C1392.25 21.7642 1392.7 21.8736 1393.09 22.0923C1393.48 22.3078 1393.79 22.6293 1394 23.0568C1394.22 23.4844 1394.33 24.013 1394.33 24.6428V29.5H1392.84V24.8217C1392.84 24.2682 1392.69 23.8357 1392.41 23.5241C1392.12 23.2093 1391.72 23.0518 1391.22 23.0518C1390.87 23.0518 1390.57 23.1264 1390.3 23.2756C1390.03 23.4247 1389.82 23.6435 1389.67 23.9318C1389.51 24.2169 1389.44 24.5616 1389.44 24.9659ZM1399.52 32.5227C1398.91 32.5227 1398.39 32.4432 1397.95 32.2841C1397.52 32.125 1397.17 31.9145 1396.89 31.6527C1396.62 31.3909 1396.41 31.1042 1396.27 30.7926L1397.55 30.2656C1397.64 30.4115 1397.76 30.5656 1397.91 30.728C1398.06 30.8937 1398.27 31.0346 1398.53 31.1506C1398.79 31.2666 1399.12 31.3246 1399.54 31.3246C1400.1 31.3246 1400.56 31.187 1400.93 30.9119C1401.3 30.6402 1401.48 30.206 1401.48 29.6094V28.108H1401.39C1401.3 28.2704 1401.17 28.451 1401 28.6499C1400.84 28.8487 1400.61 29.0211 1400.32 29.1669C1400.02 29.3127 1399.64 29.3857 1399.18 29.3857C1398.57 29.3857 1398.03 29.2448 1397.55 28.9631C1397.07 28.678 1396.68 28.2588 1396.4 27.7053C1396.12 27.1484 1395.99 26.464 1395.99 25.652C1395.99 24.84 1396.12 24.1439 1396.4 23.5639C1396.68 22.9839 1397.06 22.5398 1397.54 22.2315C1398.03 21.92 1398.57 21.7642 1399.19 21.7642C1399.66 21.7642 1400.04 21.8438 1400.34 22.0028C1400.63 22.1586 1400.85 22.3409 1401.02 22.5497C1401.18 22.7585 1401.31 22.9425 1401.4 23.1016H1401.51V21.8636H1402.97V29.669C1402.97 30.3253 1402.81 30.8639 1402.51 31.2848C1402.2 31.7057 1401.79 32.0173 1401.27 32.2195C1400.75 32.4216 1400.17 32.5227 1399.52 32.5227ZM1399.51 28.1527C1399.93 28.1527 1400.29 28.0533 1400.59 27.8544C1400.89 27.6522 1401.11 27.3639 1401.27 26.9893C1401.42 26.6115 1401.5 26.1591 1401.5 25.6321C1401.5 25.1184 1401.42 24.666 1401.27 24.2749C1401.12 23.8838 1400.89 23.5788 1400.6 23.3601C1400.3 23.138 1399.94 23.027 1399.51 23.027C1399.06 23.027 1398.69 23.143 1398.39 23.375C1398.09 23.6037 1397.86 23.9152 1397.71 24.3097C1397.56 24.7041 1397.49 25.1449 1397.49 25.6321C1397.49 26.1326 1397.56 26.5717 1397.72 26.9496C1397.87 27.3274 1398.09 27.6224 1398.39 27.8345C1398.69 28.0466 1399.06 28.1527 1399.51 28.1527ZM1408.25 29.6541C1407.5 29.6541 1406.85 29.4934 1406.31 29.1719C1405.77 28.8471 1405.35 28.3913 1405.05 27.8047C1404.76 27.2147 1404.62 26.5237 1404.62 25.7315C1404.62 24.9493 1404.76 24.2599 1405.05 23.6634C1405.35 23.0668 1405.76 22.6011 1406.29 22.2663C1406.82 21.9316 1407.44 21.7642 1408.15 21.7642C1408.58 21.7642 1408.99 21.8355 1409.4 21.978C1409.8 22.1205 1410.17 22.3442 1410.49 22.6491C1410.81 22.9541 1411.06 23.3501 1411.25 23.8374C1411.43 24.3213 1411.53 24.9096 1411.53 25.6023V26.1293H1405.46V25.0156H1410.07C1410.07 24.6245 1409.99 24.2782 1409.83 23.9766C1409.67 23.6716 1409.45 23.4313 1409.16 23.2557C1408.88 23.08 1408.54 22.9922 1408.16 22.9922C1407.74 22.9922 1407.37 23.0949 1407.06 23.3004C1406.75 23.5026 1406.52 23.7678 1406.35 24.0959C1406.18 24.4207 1406.1 24.7737 1406.1 25.1548V26.0249C1406.1 26.5353 1406.19 26.9695 1406.37 27.3274C1406.55 27.6854 1406.8 27.9588 1407.13 28.1477C1407.45 28.3333 1407.83 28.4261 1408.27 28.4261C1408.55 28.4261 1408.8 28.3864 1409.04 28.3068C1409.27 28.224 1409.47 28.1013 1409.64 27.9389C1409.81 27.7765 1409.94 27.576 1410.03 27.3374L1411.43 27.5909C1411.32 28.0052 1411.12 28.3681 1410.83 28.6797C1410.54 28.9879 1410.17 29.2282 1409.74 29.4006C1409.3 29.5696 1408.81 29.6541 1408.25 29.6541ZM1418.9 23.728L1417.55 23.9666C1417.49 23.7943 1417.41 23.6302 1417.28 23.4744C1417.16 23.3187 1417 23.1911 1416.8 23.0916C1416.59 22.9922 1416.33 22.9425 1416.02 22.9425C1415.6 22.9425 1415.25 23.0369 1414.97 23.2259C1414.69 23.4115 1414.55 23.6518 1414.55 23.9467C1414.55 24.2019 1414.64 24.4074 1414.83 24.5632C1415.02 24.719 1415.33 24.8466 1415.75 24.946L1416.96 25.2244C1417.66 25.3868 1418.19 25.6371 1418.53 25.9751C1418.88 26.3132 1419.05 26.7524 1419.05 27.2926C1419.05 27.75 1418.91 28.1577 1418.65 28.5156C1418.39 28.8703 1418.02 29.1487 1417.55 29.3509C1417.08 29.553 1416.54 29.6541 1415.93 29.6541C1415.07 29.6541 1414.37 29.4718 1413.83 29.1072C1413.29 28.7393 1412.96 28.2173 1412.84 27.5412L1414.27 27.3224C1414.36 27.697 1414.55 27.9804 1414.83 28.1726C1415.11 28.3615 1415.47 28.456 1415.92 28.456C1416.4 28.456 1416.79 28.3549 1417.08 28.1527C1417.38 27.9472 1417.52 27.697 1417.52 27.402C1417.52 27.1634 1417.43 26.9628 1417.25 26.8004C1417.08 26.638 1416.81 26.5154 1416.44 26.4325L1415.15 26.1491C1414.44 25.9867 1413.91 25.7282 1413.57 25.3736C1413.23 25.0189 1413.06 24.5698 1413.06 24.0263C1413.06 23.5755 1413.19 23.1811 1413.44 22.843C1413.69 22.505 1414.04 22.2415 1414.48 22.0526C1414.93 21.8603 1415.44 21.7642 1416.01 21.7642C1416.84 21.7642 1417.48 21.9432 1417.96 22.3011C1418.43 22.6558 1418.75 23.1314 1418.9 23.728Z" fill="#F0F0FF"/>
<defs>
<clipPath id="clip0_4294_59570">
<path d="M8 18C8 14.6863 10.6863 12 14 12H61V36H14C10.6863 36 8 33.3137 8 30V18Z" fill="white"/>
</clipPath>
</defs>
</svg>
