<svg width="32" height="32" viewBox="0 0 32 32" fill="none" xmlns="http://www.w3.org/2000/svg">
<g clip-path="url(#clip0_0_274)">
<path fill-rule="evenodd" clip-rule="evenodd" d="M0.551758 16C0.551758 24.5322 7.46817 31.4483 16 31.4483C24.5319 31.4483 31.4483 24.5322 31.4483 16C31.4483 7.46817 24.5319 0.551758 16 0.551758C7.46817 0.551758 0.551758 7.46817 0.551758 16Z" fill="white"/>
<path fill-rule="evenodd" clip-rule="evenodd" d="M16.0002 3.86206C22.7037 3.86206 28.1382 9.29654 28.1382 16C28.1382 22.7037 22.7037 28.1379 16.0002 28.1379C9.29679 28.1379 3.8623 22.7037 3.8623 16C3.8623 9.29654 9.29679 3.86206 16.0002 3.86206Z" fill="#1A8CFF"/>
<path opacity="0.5" d="M0 16C0 24.837 7.16331 32 16 32C24.8367 32 32 24.837 32 16C32 7.16331 24.8367 0 16 0C7.16331 0 0 7.16331 0 16ZM0.551724 16C0.551724 7.46897 7.46731 0.551724 16 0.551724C24.5327 0.551724 31.4483 7.46897 31.4483 16C31.4483 24.531 24.533 31.4483 16 31.4483C7.46703 31.4483 0.551724 24.531 0.551724 16Z" fill="black"/>
<path fill-rule="evenodd" clip-rule="evenodd" d="M31.4265 15.1724C31.4409 15.4464 31.4483 15.7225 31.4483 16C31.4483 24.5319 24.5319 31.4483 16 31.4483C7.46817 31.4483 0.551758 24.5319 0.551758 16C0.551758 15.7225 0.559206 15.4464 0.573551 15.1724C1.00362 23.3195 7.74597 29.7931 16 29.7931C24.1904 29.7931 30.8924 23.419 31.4152 15.3606L31.4265 15.1724ZM16 2.20691C23.4654 2.20691 29.5173 8.25877 29.5173 15.7242C29.5173 19.8979 27.6257 23.6295 24.6533 26.1093C27.1366 23.7928 28.6897 20.4916 28.6897 16.8276C28.6897 9.81932 23.0083 4.13794 16 4.13794C8.99176 4.13794 3.31038 9.81932 3.31038 16.8276C3.31038 20.4916 4.86321 23.7928 7.34652 26.1093C4.37438 23.6295 2.48279 19.8977 2.48279 15.7242C2.48279 8.25877 8.53465 2.20691 16 2.20691Z" fill="black" fill-opacity="0.052"/>
<path opacity="0.256" d="M16.0002 3.86206C22.7048 3.86206 28.1382 9.29737 28.1382 16C28.1382 22.7029 22.7048 28.1379 16.0002 28.1379C9.36299 28.1379 3.97099 22.811 3.86396 16.2008L3.8623 16C3.8623 9.29737 9.29568 3.86206 16.0002 3.86206ZM16.0002 4.41378C9.60134 4.41378 4.41403 9.6011 4.41403 16C4.41403 22.3992 9.60134 27.5862 16.0002 27.5862C22.3991 27.5862 27.5864 22.3992 27.5864 16C27.5864 9.6011 22.3991 4.41378 16.0002 4.41378Z" fill="black"/>
<path d="M16.0615 6.34479C14.7842 6.34016 13.5186 6.58833 12.3376 7.075C11.1566 7.56167 10.0836 8.27722 9.18042 9.18042C8.27722 10.0836 7.56167 11.1566 7.075 12.3376C6.58833 13.5186 6.34016 14.7842 6.34479 16.0615C6.34479 21.3525 10.6877 25.6551 16.0615 25.6551C21.3324 25.6551 25.6551 21.3324 25.6551 16.0615C25.6551 10.6877 21.3522 6.34479 16.0615 6.34479ZM16.0609 6.89651C21.0275 6.89651 25.1034 10.9724 25.1034 16.0609C25.1034 21.0278 21.0275 25.1034 16.0609 25.1034C10.9724 25.1034 6.89651 21.0278 6.89651 16.0609C6.89196 14.8562 7.12589 13.6624 7.58483 12.5485C8.04377 11.4345 8.71864 10.4224 9.57054 9.57054C10.4224 8.71864 11.4345 8.04377 12.5485 7.58483C13.6624 7.12589 14.8562 6.89196 16.0609 6.89651Z" fill="black" fill-opacity="0.25"/>
<path fill-rule="evenodd" clip-rule="evenodd" d="M16.061 6.89655C21.0276 6.89655 25.1034 10.9724 25.1034 16.061C25.1034 21.0279 21.0276 25.1034 16.061 25.1034C10.9724 25.1034 6.89655 21.0279 6.89655 16.061C6.89199 14.8562 7.12592 13.6624 7.58486 12.5485C8.0438 11.4346 8.71868 10.4225 9.57058 9.57058C10.4225 8.71868 11.4346 8.0438 12.5485 7.58486C13.6624 7.12592 14.8562 6.89199 16.061 6.89655Z" fill="#F7F7F7"/>
<path fill-rule="evenodd" clip-rule="evenodd" d="M20.1382 16C20.1382 18.2852 18.2855 20.1379 16.0002 20.1379C13.715 20.1379 11.8623 18.2852 11.8623 16C11.8623 13.7148 13.715 11.8621 16.0002 11.8621C18.2855 11.8621 20.1382 13.7148 20.1382 16Z" fill="black" fill-opacity="0.05"/>
<path d="M16.0002 11.3103C13.4101 11.3103 11.3105 13.4099 11.3105 16C11.3105 18.59 13.4101 20.6896 16.0002 20.6896C18.5903 20.6896 20.6899 18.59 20.6899 16C20.6899 13.4099 18.5903 11.3103 16.0002 11.3103ZM16.0002 11.862C18.2854 11.862 20.1381 13.7147 20.1381 16C20.1381 18.2852 18.2854 20.1379 16.0002 20.1379C13.715 20.1379 11.8623 18.2852 11.8623 16C11.8623 13.7147 13.715 11.862 16.0002 11.862Z" fill="white"/>
<path d="M16.0002 11.8621C18.2855 11.8621 20.1382 13.7148 20.1382 16C20.1382 18.2852 18.2855 20.1379 16.0002 20.1379C13.715 20.1379 11.8623 18.2852 11.8623 16C11.8623 13.7148 13.715 11.8621 16.0002 11.8621ZM16.0002 12.4138C14.0195 12.4138 12.414 14.0193 12.414 16C12.414 17.9807 14.0195 19.5862 16.0002 19.5862C17.9809 19.5862 19.5864 17.9807 19.5864 16C19.5864 14.0193 17.9809 12.4138 16.0002 12.4138Z" fill="black" fill-opacity="0.15"/>
<path d="M17.5383 8.82764H14.4614C13.7794 8.82764 13.2412 9.42488 13.2412 10.1441V13.1212C13.2412 13.3921 13.3389 13.6536 13.516 13.85L13.9684 14.3518C13.9786 14.3634 13.9786 14.3962 13.9684 14.4081L13.516 14.9096C13.3377 15.1104 13.2398 15.3701 13.2412 15.6387V21.8563C13.2412 22.5752 13.7794 23.1725 14.4614 23.1725H17.5383C18.2203 23.1725 18.7585 22.5752 18.7585 21.8561V18.8789C18.7598 18.6105 18.662 18.3509 18.4837 18.1501L18.0313 17.6483C18.0211 17.6367 18.0211 17.6039 18.0313 17.5921L18.4837 17.0905C18.662 16.8897 18.7599 16.63 18.7585 16.3614V10.1441C18.7585 9.42488 18.2203 8.82764 17.5383 8.82764ZM17.5033 9.38984C17.8917 9.38984 18.2067 9.74681 18.2067 10.1871V16.3592C18.2067 16.4999 18.1571 16.6351 18.0694 16.7349L17.6296 17.2332C17.4465 17.4406 17.4465 17.7772 17.6296 17.9849L18.0694 18.4828C18.1574 18.5824 18.2067 18.7176 18.2067 18.8585V21.813C18.2067 22.253 17.8917 22.6103 17.5033 22.6103H14.4964C14.108 22.6103 13.793 22.253 13.793 21.813V15.6406C13.793 15.4999 13.8426 15.3647 13.9303 15.2649L14.3701 14.7667C14.5532 14.5592 14.5532 14.2227 14.3701 14.0149L13.9303 13.5173C13.8405 13.4127 13.7917 13.2791 13.793 13.1413V10.1868C13.793 9.74681 14.108 9.38957 14.4964 9.38957L17.5033 9.38984Z" fill="white"/>
<path fill-rule="evenodd" clip-rule="evenodd" d="M13.793 13.1366V10.178C13.793 9.73691 14.108 9.37939 14.4964 9.37939H17.5033C17.8917 9.37939 18.2068 9.73691 18.2068 10.1777V16.3598C18.2079 16.4977 18.1591 16.6314 18.0694 16.7361L17.6297 17.2354C17.4465 17.4431 17.4465 17.7799 17.6297 17.9879L18.0694 18.487C18.1574 18.5868 18.2068 18.7223 18.2068 18.8633V21.8224C18.2068 22.2633 17.8917 22.6208 17.5033 22.6208H14.4964C14.108 22.6208 13.793 22.2633 13.793 21.8224V15.6404C13.793 15.4994 13.8426 15.3639 13.9304 15.2641L14.3701 14.7648C14.5533 14.557 14.5533 14.2202 14.3701 14.0122L13.9304 13.5132C13.8406 13.4085 13.7918 13.2745 13.793 13.1366Z" fill="#0A2D4D"/>
<path d="M17.5033 9.37939C17.8917 9.37939 18.2068 9.73691 18.2068 10.1777V16.3598C18.2079 16.4977 18.1591 16.6314 18.0694 16.7361L17.6297 17.2354C17.4465 17.4431 17.4465 17.7799 17.6297 17.9879L18.0694 18.487C18.1574 18.5868 18.2068 18.7223 18.2068 18.8633V21.8224C18.2068 22.2633 17.8917 22.6208 17.5033 22.6208H14.4964C14.108 22.6208 13.793 22.2633 13.793 21.8224V15.6404C13.793 15.4994 13.8426 15.3639 13.9304 15.2641L14.3701 14.7648C14.5533 14.557 14.5533 14.2202 14.3701 14.0122L13.9304 13.5132C13.8406 13.4085 13.7918 13.2748 13.793 13.1369V10.1777C13.793 9.73691 14.108 9.37939 14.4964 9.37939H17.5033ZM17.4239 9.94602L14.5759 9.94243C14.4644 9.94243 14.3596 10.0473 14.3461 10.1951L14.3447 10.2277V13.1601C14.3447 13.1689 14.3466 13.1764 14.3489 13.1816L14.3527 13.1879L14.8137 13.6828C15.174 14.0699 15.1861 14.6762 14.8509 15.0784L14.8137 15.1206L14.353 15.6155C14.3502 15.6183 14.3475 15.6241 14.3461 15.6315L14.345 15.6434V21.7725C14.345 21.9267 14.4424 22.0415 14.5524 22.0561L14.5762 22.0577L17.4242 22.0613C17.5356 22.0613 17.6404 21.9568 17.654 21.8086L17.6553 21.7764V18.8437C17.6554 18.8363 17.654 18.829 17.6512 18.8222L17.6473 18.8158L17.1866 18.3209C16.8264 17.9339 16.8142 17.3278 17.1494 16.9256L17.1866 16.8831L17.6473 16.3882C17.6501 16.3855 17.6529 16.3799 17.6542 16.3725L17.6553 16.3604V10.2313C17.6553 10.0773 17.558 9.96229 17.4479 9.94767L17.4239 9.94602Z" fill="black" fill-opacity="0.4"/>
</g>
<defs>
<clipPath id="clip0_0_274">
<rect width="32" height="32" fill="white"/>
</clipPath>
</defs>
</svg>
