<svg width="160" height="35" viewBox="0 0 160 35" fill="none" xmlns="http://www.w3.org/2000/svg">
<path d="M40.4515 7.30972H34.5371C34.385 7.30972 34.309 7.44402 34.309 7.71263V10.4524H39.0503V12.2736H34.309V15.0456C34.309 15.3035 34.385 15.4324 34.5371 15.4324H40.4189V17.2214L34.5371 17.3503C32.8861 17.3503 32.0605 16.5821 32.0605 15.0456V7.71263C32.0714 6.1547 32.8969 5.37574 34.5371 5.37574L40.4515 5.50467V7.30972Z" fill="#F0F0FF"/>
<path d="M47.2905 5.35962V14.1915C47.2905 14.9865 47.3067 15.3841 47.3393 15.3841H52.7649V17.3181H47.3393C45.7752 17.3181 44.9931 16.2759 44.9931 14.1915V5.35962H47.2905Z" fill="#F0F0FF"/>
<path d="M56.6554 5.39186L59.1971 11.2421H59.0016L61.6573 5.39186H64.0687L60.191 13.434V17.3503H57.8611V13.434L54.1462 5.39186H56.6554Z" fill="#F0F0FF"/>
<path d="M75.5221 5.55302V7.34195L71.905 7.30972C70.6233 7.30972 69.9824 7.54609 69.9824 8.01884V9.19535C70.0259 9.60363 70.4875 9.92596 71.3673 10.1623L72.8826 10.6136C74.9029 11.1293 75.9185 12.1124 75.9294 13.5629V14.5138C75.9402 16.4155 74.6422 17.3664 72.0353 17.3664L67.8969 17.2052V15.4002L71.9376 15.4485C73.0564 15.4485 73.6266 15.137 73.6484 14.5138V13.5629C73.6484 13.1224 73.1704 12.7678 72.2146 12.4992L70.4712 11.9352C68.7224 11.4087 67.8046 10.5008 67.7177 9.21146V8.01884C67.7177 6.25677 69.1135 5.37574 71.905 5.37574L75.5221 5.55302Z" fill="#F0F0FF"/>
<path d="M83.2727 5.37574V17.3503H81.0406V5.37574H83.2727Z" fill="#F0F0FF"/>
<path d="M91.144 5.35962V13.1278C91.144 14.6427 91.8012 15.4002 93.1155 15.4002H93.4087C94.7882 15.4002 95.478 14.6427 95.478 13.1278V5.35962H97.7264V13.1278C97.7264 15.9213 96.2872 17.3181 93.4087 17.3181H93.1155C90.2913 17.3181 88.8793 15.9213 88.8793 13.1278V5.35962H91.144Z" fill="#F0F0FF"/>
<path d="M103.421 17.3181V6.0204C103.421 5.56914 103.704 5.34351 104.268 5.34351H106.501C106.957 5.34351 107.266 5.54228 107.429 5.93982L109.287 13.1117H109.433L111.177 5.95593C111.34 5.55839 111.644 5.35962 112.089 5.35962H114.37C114.891 5.35962 115.152 5.57988 115.152 6.0204V17.3181H112.92V8.01884L112.725 8.05108L110.769 14.7072C110.585 15.1907 110.27 15.4324 109.824 15.4324H108.945C108.488 15.4324 108.152 15.1961 107.934 14.7233L105.881 8.05108H105.653V17.3181H103.421Z" fill="#F0F0FF"/>
<path d="M36.8841 27.7681L36.3028 26.1602H33.4504L32.8509 27.7681H32.0605L34.2044 21.4547C34.2952 21.1883 34.4405 21.055 34.6404 21.055H35.0946C35.2944 21.055 35.4398 21.1883 35.5306 21.4547L37.6744 27.7681H36.8841ZM36.0484 25.3699L34.9674 22.1723H34.8039L33.7047 25.3699H36.0484Z" fill="#F0F0FF"/>
<path d="M44.9832 27.7681H44.1929V22.89H44.9105L44.9923 23.4259C45.3556 23.0686 45.6675 22.89 45.9279 22.89H46.5638C47.5933 22.89 48.1081 23.6076 48.1081 25.0429V27.7681H47.3269V25.0429C47.3269 24.0739 47.0725 23.5894 46.5638 23.5894H45.9279C45.6615 23.6016 45.3466 23.7802 44.9832 24.1254V27.7681Z" fill="#F0F0FF"/>
<path d="M57.6531 25.4607H55.9454C55.6547 25.5153 55.4942 25.7969 55.4639 26.3056C55.4639 26.8567 55.6547 27.1322 56.0362 27.1322C56.4662 27.1201 57.0052 26.9202 57.6531 26.5327V25.4607ZM56.5449 22.89C57.8106 22.9445 58.4434 23.5107 58.4434 24.5887V27.7681H57.7531L57.7076 27.2049C57.0354 27.5743 56.4783 27.762 56.0362 27.7681C55.1278 27.7681 54.6736 27.2654 54.6736 26.2601C54.6918 25.2912 55.1127 24.7885 55.9363 24.7522H57.6531V24.3343C57.6531 23.9165 57.423 23.6712 56.9628 23.5985C56.7387 23.5864 56.5146 23.5804 56.2905 23.5804H55.1278V22.9808C55.5699 22.9203 56.0422 22.89 56.5449 22.89Z" fill="#F0F0FF"/>
<path d="M66.3349 20.8643V26.2783C66.3349 26.7931 66.5014 27.0504 66.8345 27.0504L67.5521 27.0232V27.65L66.8345 27.7499C65.9745 27.7499 65.5446 27.2533 65.5446 26.2601V20.8643H66.3349Z" fill="#F0F0FF"/>
<path d="M75.602 26.9505L76.9918 22.89H77.8276L76.1561 27.7862C75.7685 28.9429 75.0509 29.5273 74.0032 29.5394V28.9581C74.6512 28.8975 75.0872 28.5069 75.3113 27.7862H75.2205C75.1599 27.7862 75.0994 27.7105 75.0388 27.5591L73.2129 22.89H74.0759L75.4839 26.8506C75.5021 26.9172 75.5263 26.9505 75.5566 26.9505H75.602Z" fill="#F0F0FF"/>
<path d="M85.4907 21.7272V22.89H86.8533V23.5531H85.4907V26.4782C85.5089 26.8476 85.6573 27.0383 85.9359 27.0504L86.8806 27.0232V27.65L85.7905 27.7499C85.0638 27.7499 84.7004 27.2957 84.7004 26.3873V23.5531H83.9737V22.89H84.7004V21.7272H85.4907Z" fill="#F0F0FF"/>
<path d="M94.493 22.89V27.7499H93.7027V22.89H94.493ZM94.493 20.8643V21.6546H93.7027V20.8643H94.493Z" fill="#F0F0FF"/>
<path d="M104.871 27.7136L103.127 27.8135C101.891 27.8135 101.273 26.9959 101.273 25.3608C101.273 23.7197 101.891 22.8991 103.127 22.8991L104.871 22.999V23.6803L103.154 23.653C102.427 23.653 102.064 24.2223 102.064 25.3608C102.064 26.5054 102.427 27.0777 103.154 27.0777L104.871 27.0504V27.7136Z" fill="#F0F0FF"/>
<path d="M114.861 22.9536V23.6349L112.926 23.6258C112.351 23.6258 112.063 23.7257 112.063 23.9256V24.4433C112.093 24.6553 112.293 24.7916 112.663 24.8521L113.816 25.0611C114.622 25.2003 115.025 25.5788 115.025 26.1965V26.6689C115.025 27.3956 114.525 27.759 113.526 27.759L111.382 27.6954V27.005L113.489 27.0232C114.01 27.0232 114.271 26.9051 114.271 26.6689V26.1965C114.264 25.9785 114.059 25.8362 113.653 25.7696L112.39 25.5425C111.706 25.3669 111.346 25.0065 111.309 24.4615L111.318 23.9256C111.318 23.2352 111.854 22.89 112.926 22.89L114.861 22.9536Z" fill="#F0F0FF"/>
<path d="M6.31341 17.3649L24.3116 7.00073V13.7288L4.89404 24.9112L12.1551 29.0928L24.3116 22.092V28.0005L12.1551 34.9999L0 28.0005V21.001L6.31341 17.3649Z" fill="#FF3D33"/>
<path fill-rule="evenodd" clip-rule="evenodd" d="M9.87158 12.6853L4.02851 16.05L0 13.7289V7.00084L12.1551 0L17.1966 2.90414L5.04155 9.90359L9.87158 12.6853Z" fill="#00A8FF"/>
<path d="M144.166 16.8816C144.157 16.9196 144.152 16.9592 144.152 17C144.152 17.0114 144.153 17.0227 144.153 17.0339C144.14 17.4348 144.286 17.8402 144.592 18.1462L146.713 20.2675C146.909 20.4628 147.225 20.4628 147.42 20.2675C147.616 20.0723 147.616 19.7557 147.42 19.5604L145.36 17.5H157.652C157.928 17.5 158.152 17.2761 158.152 17C158.152 16.7239 157.928 16.5 157.652 16.5H145.531L147.42 14.6107C147.616 14.4154 147.616 14.0988 147.42 13.9036C147.225 13.7083 146.909 13.7083 146.713 13.9036L144.592 16.0249C144.351 16.2658 144.209 16.5682 144.166 16.8816ZM157.652 12.5H150.652C150.376 12.5 150.152 12.7239 150.152 13C150.152 13.2761 150.376 13.5 150.652 13.5H157.652C157.928 13.5 158.152 13.2761 158.152 13C158.152 12.7239 157.928 12.5 157.652 12.5ZM157.652 20.5H150.652C150.376 20.5 150.152 20.7239 150.152 21C150.152 21.2761 150.376 21.5 150.652 21.5H157.652C157.928 21.5 158.152 21.2761 158.152 21C158.152 20.7239 157.928 20.5 157.652 20.5Z" fill="#B5B5B5"/>
</svg>
