<svg width="16" height="16" viewBox="0 0 16 16" fill="none" xmlns="http://www.w3.org/2000/svg">
<path d="M1.01409 7.38164C1.00488 7.41958 1 7.45922 1 7.5C1 7.51141 1.00038 7.52273 1.00113 7.53395C0.987425 7.93484 1.13358 8.34018 1.43959 8.64619L3.56091 10.7675C3.75618 10.9628 4.07276 10.9628 4.26802 10.7675C4.46328 10.5723 4.46328 10.2557 4.26802 10.0604L2.20761 8H14.5C14.7761 8 15 7.77614 15 7.5C15 7.22386 14.7761 7 14.5 7H2.37868L4.26802 5.11066C4.46328 4.9154 4.46328 4.59882 4.26802 4.40355C4.07276 4.20829 3.75618 4.20829 3.56091 4.40355L1.43959 6.52487C1.19868 6.76578 1.05685 7.06825 1.01409 7.38164ZM14.5 3H7.5C7.22386 3 7 3.22386 7 3.5C7 3.77614 7.22386 4 7.5 4H14.5C14.7761 4 15 3.77614 15 3.5C15 3.22386 14.7761 3 14.5 3ZM14.5 11H7.5C7.22386 11 7 11.2239 7 11.5C7 11.7761 7.22386 12 7.5 12H14.5C14.7761 12 15 11.7761 15 11.5C15 11.2239 14.7761 11 14.5 11Z" fill="#B5B5B5"/>
</svg>
