<svg width="16" height="16" viewBox="0 0 16 16" fill="none" xmlns="http://www.w3.org/2000/svg">
<path d="M13.8207 3.33333H10.7053C10.6194 3.33333 10.5514 3.36537 10.5002 3.42946C10.4361 3.4897 10.404 3.56018 10.404 3.64093C10.404 3.72168 10.4361 3.79476 10.5002 3.85885L11.4617 4.82653L9.30145 6.99271L8.17324 5.86475C7.9976 5.68915 7.78606 5.60202 7.53863 5.60202C7.29119 5.60202 7.07965 5.68915 6.90401 5.86475L3.58991 9.17166L4.85914 10.4406L7.53863 7.76814L8.66683 8.89604C8.84632 9.07163 9.06042 9.15883 9.30785 9.15883C9.55144 9.15883 9.76042 9.07163 9.93606 8.89604L12.7309 6.10188L13.6091 6.98627C13.6604 7.05035 13.7309 7.0824 13.8207 7.0824C13.9014 7.0824 13.9707 7.05675 14.0258 7.00548C14.0899 6.94139 14.122 6.86452 14.122 6.77479V3.64093C14.122 3.56018 14.0899 3.4897 14.0258 3.42946C13.9707 3.36537 13.9027 3.33333 13.8207 3.33333ZM14.6668 13.5359V12.4849H2.38478V3.35899H1.3335V13.0104C1.3335 13.1552 1.38734 13.2822 1.49375 13.3885C1.59247 13.4872 1.71427 13.5359 1.85914 13.5359H14.6668Z" fill="#B5B5B5"/>
</svg>
