<svg width="16" height="16" viewBox="0 0 16 16" fill="none" xmlns="http://www.w3.org/2000/svg">
<g clip-path="url(#clip0_0_4498)">
<path fill-rule="evenodd" clip-rule="evenodd" d="M13.6571 3.05C13.7049 3.00388 13.743 2.9487 13.7692 2.8877C13.7954 2.8267 13.8092 2.76109 13.8098 2.6947C13.8103 2.62831 13.7977 2.56247 13.7725 2.50102C13.7474 2.43957 13.7103 2.38375 13.6633 2.3368C13.6164 2.28986 13.5606 2.25273 13.4991 2.22759C13.4377 2.20245 13.3718 2.1898 13.3054 2.19037C13.239 2.19095 13.1734 2.20474 13.1124 2.23095C13.0514 2.25715 12.9963 2.29524 12.9501 2.343L12.5841 2.709C11.7301 1.96919 10.7096 1.44713 9.60991 1.18741C8.51022 0.9277 7.36401 0.938058 6.2692 1.2176C5.17439 1.49714 4.16352 2.03756 3.32296 2.79269C2.4824 3.54781 1.83713 4.49519 1.44228 5.55389C1.04743 6.6126 0.914736 7.75115 1.05554 8.87228C1.19634 9.99341 1.60645 11.0638 2.25084 11.992C2.89522 12.9202 3.75472 13.6786 4.7559 14.2024C5.75709 14.7262 6.8702 14.9999 8.00013 15C7.76078 14.6817 7.56035 14.3359 7.40313 13.97C6.46756 13.8764 5.56707 13.5643 4.77429 13.0588C3.98151 12.5533 3.31863 11.8685 2.83912 11.0597C2.35961 10.2509 2.07689 9.34077 2.01375 8.40265C1.95062 7.46453 2.10885 6.52471 2.47567 5.65897C2.84249 4.79324 3.40764 4.02583 4.12554 3.41864C4.84343 2.81145 5.69398 2.38148 6.60858 2.1634C7.52319 1.94532 8.47624 1.94524 9.39088 2.16317C10.3055 2.3811 11.1561 2.81093 11.8741 3.418L11.1641 4.128C10.5739 3.64606 9.88134 3.30541 9.13933 3.13205C8.39732 2.95869 7.6255 2.95722 6.88284 3.12774C6.14018 3.29827 5.44631 3.63628 4.85425 4.11596C4.26219 4.59564 3.78759 5.2043 3.46672 5.89544C3.14585 6.58657 2.98718 7.3419 3.00285 8.10373C3.01852 8.86556 3.2081 9.61373 3.55712 10.2911C3.90613 10.9685 4.40535 11.5571 5.01663 12.012C5.62791 12.4669 6.33509 12.7762 7.08413 12.916C7.02068 12.5725 6.99319 12.2232 7.00213 11.874C6.06181 11.6283 5.24301 11.0488 4.6986 10.2437C4.15418 9.43865 3.92134 8.46294 4.04355 7.49876C4.16576 6.53458 4.63465 5.64782 5.36271 5.00401C6.09078 4.36019 7.02825 4.00332 8.00013 4C8.88864 3.99834 9.75215 4.29404 10.4531 4.84L9.73813 5.554C9.12506 5.11682 8.36999 4.92617 7.62286 5.01991C6.87573 5.11366 6.19117 5.48493 5.7051 6.06003C5.21903 6.63512 4.96701 7.37198 4.99906 8.12428C5.03112 8.87659 5.34491 9.58934 5.87813 10.121C5.92456 10.1675 5.97968 10.2044 6.04036 10.2296C6.10104 10.2547 6.16608 10.2677 6.23178 10.2678C6.29748 10.2678 6.36254 10.2549 6.42326 10.2298C6.48397 10.2047 6.53915 10.1679 6.58563 10.1215C6.63212 10.0751 6.66901 10.02 6.6942 9.95927C6.71938 9.8986 6.73237 9.83355 6.73241 9.76785C6.73246 9.70216 6.71956 9.63709 6.69447 9.57638C6.66937 9.51566 6.63256 9.46049 6.58613 9.414C6.24197 9.06978 6.03516 8.61186 6.00446 8.12606C5.97376 7.64027 6.12128 7.15996 6.41936 6.77514C6.71745 6.39033 7.14564 6.12744 7.62368 6.03573C8.10173 5.94403 8.59681 6.02981 9.01613 6.277L8.25913 7.034C8.0465 6.977 7.821 6.99177 7.61761 7.076C7.41422 7.16023 7.24431 7.30922 7.13423 7.49987C7.02415 7.69051 6.98005 7.91215 7.00878 8.13041C7.03751 8.34867 7.13746 8.55135 7.29312 8.70701C7.44879 8.86267 7.65147 8.96262 7.86973 8.99135C8.08799 9.02008 8.30963 8.97599 8.50027 8.86591C8.69091 8.75583 8.8399 8.58592 8.92414 8.38253C9.00837 8.17914 9.02313 7.95364 8.96613 7.741L10.1211 6.586L12.5811 4.126C13.3668 5.05164 13.8517 6.19477 13.9711 7.403C14.3381 7.561 14.6841 7.763 15.0001 8C15.0001 6.364 14.4301 4.729 13.2901 3.416L13.6571 3.05ZM16.0001 12C16.0001 13.0609 15.5787 14.0783 14.8286 14.8284C14.0784 15.5786 13.061 16 12.0001 16C10.9393 16 9.92185 15.5786 9.17171 14.8284C8.42156 14.0783 8.00013 13.0609 8.00013 12C8.00013 10.9391 8.42156 9.92172 9.17171 9.17157C9.92185 8.42143 10.9393 8 12.0001 8C13.061 8 14.0784 8.42143 14.8286 9.17157C15.5787 9.92172 16.0001 10.9391 16.0001 12ZM14.3541 10.646C14.4479 10.7398 14.5005 10.8669 14.5005 10.9995C14.5005 11.1321 14.4479 11.2592 14.3541 11.353L11.8541 13.853C11.8077 13.8996 11.7525 13.9365 11.6918 13.9617C11.631 13.9869 11.5659 13.9999 11.5001 13.9999C11.4344 13.9999 11.3692 13.9869 11.3085 13.9617C11.2478 13.9365 11.1926 13.8996 11.1461 13.853L10.1461 12.853C10.0524 12.7591 9.99976 12.6318 9.99986 12.4991C9.99995 12.3665 10.0527 12.2393 10.1466 12.1455C10.2405 12.0517 10.3678 11.9991 10.5005 11.9992C10.6332 11.9993 10.7604 12.0521 10.8541 12.146L11.5001 12.793L13.6461 10.646C13.6926 10.5994 13.7478 10.5625 13.8085 10.5373C13.8692 10.5121 13.9344 10.4991 14.0001 10.4991C14.0659 10.4991 14.131 10.5121 14.1918 10.5373C14.2525 10.5625 14.3077 10.5994 14.3541 10.646Z" fill="#B5B5B5"/>
</g>
<defs>
<clipPath id="clip0_0_4498">
<rect width="16" height="16" fill="white"/>
</clipPath>
</defs>
</svg>
