<svg width="16" height="16" viewBox="0 0 16 16" fill="none" xmlns="http://www.w3.org/2000/svg">
<path d="M2.0463 2.04706C4.77407 -0.682398 9.21574 -0.682306 11.9456 2.04706C14.555 4.65715 14.6696 8.83386 12.2884 11.581L15.8535 15.1452C16.0485 15.3412 16.0485 15.6573 15.8535 15.8533C15.7556 15.9502 15.6278 15.9997 15.4999 15.9998C15.3719 15.9998 15.2434 15.9503 15.1454 15.8533L11.2726 11.9795C11.2611 11.9699 11.2502 11.9592 11.2394 11.9483C11.0445 11.7533 11.0445 11.4371 11.2394 11.2421C13.5781 8.90176 13.578 5.09467 11.2394 2.75422C8.89754 0.414788 5.0913 0.413788 2.75346 2.75422C0.414758 5.09466 0.414662 8.90172 2.75346 11.2421C3.88736 12.3752 5.39361 12.9993 6.99642 12.9993C7.27235 12.9993 7.49651 13.2233 7.49651 13.4993C7.49634 13.7752 7.27224 13.9994 6.99642 13.9994C5.12755 13.9994 3.36921 13.2705 2.0463 11.9483C-0.682043 9.21883 -0.682155 4.77644 2.0463 2.04706Z" fill="#ABB4C4"/>
</svg>
