<svg width="13" height="14" viewBox="0 0 13 14" fill="none" xmlns="http://www.w3.org/2000/svg">
<path d="M6.5 0C6.72941 0 6.95173 0.079049 7.12988 0.223633L12.6299 4.69531C12.7455 4.78915 12.8393 4.90751 12.9033 5.04199C12.9673 5.17644 13.0001 5.32375 13 5.47266V13C12.9999 13.2652 12.8945 13.5195 12.707 13.707C12.5195 13.8946 12.2652 14 12 14H1C0.734811 14 0.4805 13.8946 0.292969 13.707C0.105527 13.5195 0.000105749 13.2652 0 13V5.47266C8.84948e-05 5.32394 0.0336987 5.17722 0.0976562 5.04297C0.161663 4.90867 0.254622 4.79002 0.370117 4.69629L5.87012 0.223633C6.04827 0.079049 6.27059 0 6.5 0ZM1 5.47168V13H12V5.47266L6.5 1L1 5.47168Z" fill="#B5B5B5"/>
</svg>
