<svg width="38" height="38" viewBox="0 0 38 38" fill="none" xmlns="http://www.w3.org/2000/svg">
<path d="M1.26667 0C1.96623 0 2.53333 0.567106 2.53333 1.26667V35.4667H36.7333C37.4329 35.4667 38 36.0338 38 36.7333C38 37.4329 37.4329 38 36.7333 38H1.26667C0.567106 38 0 37.4329 0 36.7333V1.26667C0 0.567106 0.567106 0 1.26667 0ZM11.873 16.4884C12.5085 17.0421 13.2836 17.4393 14.1382 17.6215L8.73307 28.4327C8.42029 29.0583 7.65959 29.3123 7.03396 28.9997C6.40838 28.687 6.15438 27.9263 6.46693 27.3006L11.873 16.4884ZM25.3333 22.8C26.7325 22.8 27.8667 23.9342 27.8667 25.3333C27.8667 26.7325 26.7325 27.8667 25.3333 27.8667C23.9342 27.8667 22.8 26.7325 22.8 25.3333C22.8 23.9342 23.9342 22.8 25.3333 22.8ZM23.1701 20.7506C22.3914 21.1188 21.721 21.6795 21.2216 22.3715L17.2385 17.3068C18.0278 16.9596 18.7115 16.4162 19.2286 15.7393L23.1701 20.7506ZM32.0576 6.28089C32.6841 6.85111 33.4539 7.26664 34.3069 7.46641L28.4733 21.3572C27.8138 20.8357 27.0217 20.4743 26.1557 20.333L32.0576 6.28089ZM15.2 10.1333C16.5991 10.1333 17.7333 11.2675 17.7333 12.6667C17.7333 14.0658 16.5991 15.2 15.2 15.2C13.8009 15.2 12.6667 14.0658 12.6667 12.6667C12.6667 11.2675 13.8009 10.1333 15.2 10.1333ZM35.4667 0C36.8658 0 38 1.13421 38 2.53333C38 3.93245 36.8658 5.06667 35.4667 5.06667C34.0675 5.06667 32.9333 3.93245 32.9333 2.53333C32.9333 1.13421 34.0675 0 35.4667 0Z" fill="#006AA2"/>
</svg>
