<svg width="38" height="38" viewBox="0 0 38 38" fill="none" xmlns="http://www.w3.org/2000/svg">
<path d="M27.8645 17.7333C30.5519 17.7333 33.1297 18.8008 35.0301 20.701C36.9304 22.6014 37.9978 25.1791 37.9978 27.8666C37.9978 30.5542 36.9304 33.1319 35.0301 35.0322C33.1297 36.9325 30.5519 38 27.8645 38C25.1772 37.9999 22.6001 36.9323 20.6998 35.0322C18.7995 33.1319 17.7311 30.5542 17.7311 27.8666C17.7311 25.1791 18.7995 22.6014 20.6998 20.701C22.6001 18.8009 25.1772 17.7334 27.8645 17.7333ZM13.3462 0.551073C16.1197 -0.157079 19.0234 -0.182995 21.8092 0.474874C24.595 1.13279 27.1803 2.45523 29.3439 4.32931L30.2711 3.40207C30.388 3.28109 30.5283 3.18445 30.6828 3.11806C30.8373 3.05174 31.0035 3.0166 31.1717 3.01514C31.3398 3.01369 31.5068 3.04647 31.6625 3.11014C31.8179 3.1738 31.9593 3.26748 32.0781 3.38624C32.197 3.50517 32.2915 3.64718 32.3552 3.80285C32.4187 3.95827 32.4506 4.12481 32.4492 4.2927C32.4478 4.46089 32.4127 4.62801 32.3463 4.78254C32.2799 4.93691 32.1831 5.07649 32.0623 5.19322L31.1331 6.12047C34.021 9.44672 35.4645 13.5888 35.4645 17.7333C34.664 17.1329 33.7876 16.6214 32.8579 16.2212C32.5553 13.1605 31.3271 10.2644 29.337 7.91953L23.1045 14.151L20.1783 17.0772C20.3227 17.6157 20.2857 18.1869 20.0725 18.7021C19.8591 19.2173 19.4817 19.6483 18.9987 19.9272C18.5159 20.206 17.9543 20.3175 17.4016 20.2448C16.8486 20.1721 16.3343 19.9188 15.9399 19.5244C15.5457 19.1301 15.2923 18.6166 15.2195 18.0638C15.1467 17.5109 15.2593 16.9495 15.5382 16.4666C15.817 15.9837 16.2471 15.6063 16.7623 15.3929C17.2774 15.1796 17.8486 15.1417 18.3872 15.286L20.305 13.3682C19.2429 12.7422 17.9889 12.5245 16.7781 12.7566C15.5672 12.9889 14.4824 13.6553 13.7272 14.6299C12.9721 15.6048 12.5975 16.8222 12.6753 18.0529C12.7531 19.2835 13.278 20.4436 14.1498 21.3156C14.2672 21.4333 14.3604 21.5736 14.4239 21.7272C14.4874 21.8809 14.52 22.0459 14.5199 22.2121C14.5197 22.3785 14.4867 22.5434 14.4229 22.697C14.3591 22.8506 14.2655 22.9902 14.1478 23.1077C14.0302 23.2251 13.8907 23.3183 13.7371 23.3818C13.5833 23.4454 13.4177 23.4789 13.2512 23.4788C13.0849 23.4786 12.9199 23.4456 12.7663 23.3818C12.6127 23.318 12.4732 23.2244 12.3557 23.1067C11.0048 21.7598 10.2103 19.9538 10.1291 18.048C10.0479 16.1422 10.686 14.2758 11.9173 12.819C13.1486 11.3621 14.8834 10.4212 16.7761 10.1837C18.6687 9.94636 20.5817 10.429 22.1347 11.5365L23.9457 9.72751C22.1699 8.34451 19.9819 7.5957 17.7311 7.5999C15.2693 7.60838 12.8947 8.51241 11.0504 10.1431C9.20596 11.7741 8.01716 14.021 7.70757 16.4636C7.39805 18.9061 7.98804 21.378 9.3671 23.4174C10.7462 25.4569 12.8207 26.9245 15.2027 27.547C15.18 28.4317 15.2498 29.3169 15.4105 30.1872C13.5132 29.8329 11.722 29.0496 10.1736 27.8973C8.62503 26.7448 7.35971 25.2532 6.47553 23.5372C5.5915 21.8214 5.11106 19.9262 5.07131 17.9965C5.03162 16.0665 5.43406 14.1523 6.24694 12.4014C7.05982 10.6506 8.26215 9.10892 9.76195 7.8938C11.2618 6.67863 13.0195 5.82216 14.9009 5.39015C16.7823 4.95815 18.738 4.96186 20.6177 5.40104C22.4974 5.84023 24.2516 6.70364 25.7467 7.92448L27.5458 6.12541C25.727 4.58758 23.5719 3.49897 21.255 2.94686C18.9379 2.39478 16.5232 2.39442 14.2062 2.94686C11.8892 3.49933 9.73406 4.58918 7.91538 6.12739C6.09689 7.66555 4.66558 9.60964 3.73636 11.8027C2.80707 13.9959 2.40574 16.3769 2.56568 18.7535C2.72564 21.13 3.44194 23.4358 4.65667 25.4847C5.87137 27.5335 7.55087 29.2678 9.55908 30.5484C11.5675 31.8291 13.8489 32.6201 16.219 32.8571C16.6173 33.784 17.1248 34.6603 17.7311 35.4667C14.8687 35.4663 12.0488 34.7729 9.51257 33.4459C6.97628 32.1189 4.79877 30.1972 3.16636 27.8458C1.53406 25.4945 0.494903 22.7831 0.13822 19.943C-0.218466 17.1029 0.117658 14.2185 1.11791 11.5365C2.1182 8.85442 3.75334 6.45407 5.88277 4.54109C8.01212 2.62825 10.5729 1.25923 13.3462 0.551073ZM32.9311 24.0646C32.7648 24.0647 32.5999 24.0969 32.4462 24.1606C32.2924 24.2245 32.1522 24.3188 32.0346 24.4367L26.5978 29.8755L24.962 28.2367C24.7245 27.9989 24.4016 27.8649 24.0654 27.8647C23.7294 27.8645 23.4067 27.9973 23.1689 28.2348C22.931 28.4723 22.798 28.7952 22.7978 29.1313C22.7976 29.4674 22.9304 29.7901 23.1679 30.0279L25.7012 32.5612C25.8189 32.6791 25.959 32.7725 26.1129 32.8363C26.2666 32.9001 26.4314 32.9333 26.5978 32.9333C26.7644 32.9333 26.9298 32.9002 27.0837 32.8363C27.2375 32.7725 27.3777 32.6792 27.4953 32.5612L33.8287 26.2279C34.0661 25.9904 34.1987 25.6681 34.1988 25.3323C34.1988 24.9966 34.066 24.6742 33.8287 24.4367C33.711 24.3188 33.5709 24.2245 33.417 24.1606C33.2632 24.0968 33.0977 24.0646 32.9311 24.0646Z" fill="#006AA2"/>
</svg>
