<svg width="38" height="38" viewBox="0 0 38 38" fill="none" xmlns="http://www.w3.org/2000/svg">
<path d="M19 0C29.0678 0 37.3066 7.83049 37.9584 17.7333H38V20.2667H37.9584C37.3066 30.1694 29.0677 38 19 38C8.93227 38 0.693438 30.1694 0.0415625 20.2667H0V17.7333H0.0415625C0.693372 7.83049 8.93223 0 19 0ZM14.5964 30.4C15.8229 33.5406 17.4639 35.4667 19 35.4667C20.5361 35.4667 22.1771 33.5406 23.4036 30.4H14.5964ZM7.11807 30.4C8.99627 32.3571 11.3531 33.8512 14.0006 34.6938C13.1976 33.5169 12.4891 32.0645 11.9057 30.4H7.11807ZM26.0943 30.4C25.5109 32.0645 24.8024 33.5169 23.9994 34.6938C26.6469 33.8512 29.0037 32.3571 30.8819 30.4H26.0943ZM2.58083 20.2667C2.79264 23.0507 3.69741 25.6414 5.12208 27.8667H11.1556C10.5894 25.5716 10.237 22.9979 10.1531 20.2667H2.58083ZM12.6874 20.2667C12.7809 23.0704 13.1801 25.6547 13.773 27.8667H24.227C24.8199 25.6547 25.2191 23.0704 25.3126 20.2667H12.6874ZM27.8469 20.2667C27.763 22.9979 27.4106 25.5716 26.8444 27.8667H32.8779C34.3026 25.6414 35.2074 23.0507 35.4192 20.2667H27.8469ZM5.12208 10.1333C3.69741 12.3586 2.79262 14.9492 2.58083 17.7333H10.1531C10.237 15.0022 10.5894 12.4284 11.1556 10.1333H5.12208ZM13.773 10.1333C13.1801 12.3453 12.7809 14.9296 12.6874 17.7333H25.3126C25.2191 14.9296 24.8199 12.3453 24.227 10.1333H13.773ZM26.8444 10.1333C27.4106 12.4284 27.763 15.0022 27.8469 17.7333H35.4192C35.2074 14.9492 34.3026 12.3586 32.8779 10.1333H26.8444ZM14.0006 3.3062C11.3531 4.14886 8.99627 5.64288 7.11807 7.6H11.9057C12.4891 5.93553 13.1977 4.48305 14.0006 3.3062ZM19 2.53333C17.4639 2.53333 15.8229 4.45944 14.5964 7.6H23.4036C22.1771 4.45944 20.5361 2.53333 19 2.53333ZM23.9994 3.3062C24.8023 4.48305 25.5109 5.93553 26.0943 7.6H30.8819C29.0037 5.64288 26.6469 4.14886 23.9994 3.3062Z" fill="#006AA2"/>
</svg>
