<svg width="1229" height="177" viewBox="0 0 1229 177" fill="none" xmlns="http://www.w3.org/2000/svg">
<rect width="1229" height="177" fill="#19191A"/>
<path d="M31.3771 31.2727V56H26.1491V31.2727H31.3771ZM40.7253 45.2784V56H35.5819V37.4545H40.4838V40.7266H40.7012C41.1117 39.648 41.7999 38.7947 42.7658 38.1669C43.7317 37.531 44.9029 37.2131 46.2793 37.2131C47.5672 37.2131 48.69 37.4948 49.6479 38.0582C50.6058 38.6217 51.3503 39.4266 51.8816 40.473C52.4128 41.5114 52.6784 42.7509 52.6784 44.1918V56H47.535V45.1094C47.543 43.9744 47.2533 43.089 46.6657 42.4531C46.0781 41.8092 45.2691 41.4872 44.2388 41.4872C43.5466 41.4872 42.9348 41.6361 42.4036 41.9339C41.8804 42.2318 41.4699 42.6664 41.1721 43.2379C40.8823 43.8014 40.7334 44.4815 40.7253 45.2784ZM66.5966 37.4545V41.3182H55.4283V37.4545H66.5966ZM57.9638 33.0114H63.1072V50.3011C63.1072 50.776 63.1797 51.1463 63.3246 51.4119C63.4695 51.6695 63.6707 51.8506 63.9283 51.9553C64.1939 52.0599 64.4998 52.1122 64.8459 52.1122C65.0874 52.1122 65.3288 52.0921 65.5703 52.0518C65.8118 52.0036 65.9969 51.9673 66.1257 51.9432L66.9347 55.7706C66.6771 55.8511 66.3149 55.9437 65.848 56.0483C65.3812 56.161 64.8137 56.2294 64.1456 56.2536C62.906 56.3018 61.8194 56.1368 60.8857 55.7585C59.96 55.3802 59.2396 54.7926 58.7244 53.9957C58.2093 53.1989 57.9557 52.1927 57.9638 50.9773V33.0114ZM78.1996 56.3622C76.2919 56.3622 74.6499 55.9759 73.2734 55.2031C71.9051 54.4223 70.8506 53.3196 70.1101 51.8949C69.3696 50.4621 68.9993 48.7678 68.9993 46.8118C68.9993 44.9041 69.3696 43.2299 70.1101 41.7891C70.8506 40.3482 71.893 39.2254 73.2372 38.4205C74.5895 37.6155 76.1752 37.2131 77.9943 37.2131C79.2178 37.2131 80.3568 37.4103 81.4112 37.8047C82.4737 38.1911 83.3994 38.7746 84.1882 39.5554C84.9851 40.3362 85.6049 41.3182 86.0476 42.5014C86.4903 43.6766 86.7116 45.053 86.7116 46.6307V48.0433H71.0518V44.8558H81.87C81.87 44.1153 81.709 43.4593 81.3871 42.8878C81.0651 42.3163 80.6184 41.8696 80.0469 41.5476C79.4834 41.2176 78.8274 41.0526 78.0788 41.0526C77.2981 41.0526 76.6058 41.2337 76.0021 41.5959C75.4065 41.95 74.9396 42.429 74.6016 43.0327C74.2635 43.6283 74.0904 44.2924 74.0824 45.0249V48.0554C74.0824 48.973 74.2514 49.7659 74.5895 50.4339C74.9356 51.102 75.4226 51.6172 76.0504 51.9794C76.6783 52.3416 77.4228 52.5227 78.2841 52.5227C78.8556 52.5227 79.3788 52.4422 79.8537 52.2812C80.3286 52.1203 80.7351 51.8788 81.0732 51.5568C81.4112 51.2348 81.6688 50.8404 81.8459 50.3736L86.603 50.6875C86.3615 51.8305 85.8665 52.8286 85.1179 53.6818C84.3774 54.527 83.4195 55.187 82.2443 55.6619C81.0772 56.1288 79.7289 56.3622 78.1996 56.3622ZM98.4233 63.3409C96.7571 63.3409 95.3284 63.1115 94.1371 62.6527C92.9538 62.2019 92.0121 61.5862 91.3118 60.8054C90.6115 60.0246 90.1567 59.1473 89.9474 58.1733L94.7045 57.5334C94.8494 57.9036 95.0788 58.2498 95.3928 58.5717C95.7067 58.8937 96.1212 59.1513 96.6364 59.3445C97.1596 59.5457 97.7955 59.6463 98.544 59.6463C99.6629 59.6463 100.585 59.3726 101.309 58.8253C102.041 58.286 102.408 57.3804 102.408 56.1087V52.7159H102.19C101.965 53.2311 101.627 53.718 101.176 54.1768C100.725 54.6357 100.146 55.0099 99.4375 55.2997C98.7292 55.5895 97.884 55.7344 96.902 55.7344C95.5095 55.7344 94.2417 55.4124 93.0987 54.7685C91.9638 54.1165 91.0582 53.1224 90.3821 51.7862C89.714 50.442 89.38 48.7436 89.38 46.6911C89.38 44.5902 89.7221 42.8355 90.4062 41.4268C91.0904 40.0182 92 38.9638 93.1349 38.2635C94.2779 37.5632 95.5296 37.2131 96.8899 37.2131C97.9283 37.2131 98.7976 37.3902 99.4979 37.7443C100.198 38.0904 100.762 38.5251 101.188 39.0483C101.623 39.5634 101.957 40.0705 102.19 40.5696H102.384V37.4545H107.491V56.1811C107.491 57.7588 107.104 59.0788 106.332 60.1413C105.559 61.2038 104.488 62.0007 103.12 62.532C101.76 63.0713 100.194 63.3409 98.4233 63.3409ZM98.532 51.8707C99.361 51.8707 100.061 51.6655 100.633 51.255C101.212 50.8364 101.655 50.2408 101.961 49.468C102.275 48.6873 102.432 47.7536 102.432 46.6669C102.432 45.5803 102.279 44.6385 101.973 43.8416C101.667 43.0367 101.224 42.4129 100.645 41.9702C100.065 41.5275 99.361 41.3061 98.532 41.3061C97.6868 41.3061 96.9744 41.5355 96.3949 41.9943C95.8153 42.4451 95.3767 43.0729 95.0788 43.8778C94.781 44.6828 94.6321 45.6125 94.6321 46.6669C94.6321 47.7375 94.781 48.6631 95.0788 49.4439C95.3847 50.2166 95.8234 50.8163 96.3949 51.2429C96.9744 51.6615 97.6868 51.8707 98.532 51.8707ZM111.584 56V37.4545H116.57V40.6903H116.763C117.102 39.5393 117.669 38.67 118.466 38.0824C119.263 37.4867 120.18 37.1889 121.219 37.1889C121.476 37.1889 121.754 37.205 122.052 37.2372C122.35 37.2694 122.611 37.3137 122.837 37.37V41.9339C122.595 41.8615 122.261 41.7971 121.835 41.7408C121.408 41.6844 121.018 41.6562 120.663 41.6562C119.907 41.6562 119.231 41.8213 118.635 42.1513C118.047 42.4732 117.58 42.924 117.234 43.5036C116.896 44.0831 116.727 44.7512 116.727 45.5078V56H111.584ZM130.253 56.3501C129.07 56.3501 128.015 56.1449 127.09 55.7344C126.164 55.3158 125.432 54.7 124.892 53.8871C124.361 53.0661 124.095 52.0438 124.095 50.8203C124.095 49.79 124.285 48.9247 124.663 48.2244C125.041 47.5241 125.556 46.9607 126.208 46.5341C126.86 46.1075 127.601 45.7855 128.43 45.5682C129.267 45.3509 130.144 45.1979 131.062 45.1094C132.141 44.9967 133.01 44.892 133.67 44.7955C134.33 44.6908 134.809 44.5379 135.107 44.3366C135.405 44.1354 135.553 43.8376 135.553 43.4432V43.3707C135.553 42.6061 135.312 42.0144 134.829 41.5959C134.354 41.1773 133.678 40.968 132.801 40.968C131.875 40.968 131.138 41.1733 130.591 41.5838C130.044 41.9863 129.682 42.4934 129.504 43.1051L124.747 42.7188C124.989 41.5919 125.464 40.6179 126.172 39.7969C126.88 38.9678 127.794 38.3319 128.913 37.8892C130.04 37.4384 131.344 37.2131 132.825 37.2131C133.855 37.2131 134.841 37.3338 135.783 37.5753C136.733 37.8168 137.574 38.1911 138.306 38.6982C139.047 39.2053 139.63 39.8572 140.057 40.6541C140.484 41.4429 140.697 42.3887 140.697 43.4915V56H135.819V53.4283H135.674C135.376 54.0078 134.978 54.5189 134.479 54.9616C133.98 55.3963 133.38 55.7384 132.68 55.9879C131.98 56.2294 131.171 56.3501 130.253 56.3501ZM131.726 52.8004C132.483 52.8004 133.151 52.6515 133.73 52.3537C134.31 52.0478 134.765 51.6373 135.095 51.1222C135.425 50.607 135.59 50.0234 135.59 49.3714V47.4034C135.429 47.508 135.207 47.6046 134.926 47.6932C134.652 47.7737 134.342 47.8501 133.996 47.9226C133.65 47.987 133.304 48.0473 132.958 48.1037C132.611 48.152 132.298 48.1963 132.016 48.2365C131.412 48.325 130.885 48.4659 130.434 48.6591C129.983 48.8523 129.633 49.1139 129.384 49.4439C129.134 49.7659 129.009 50.1683 129.009 50.6513C129.009 51.3516 129.263 51.8868 129.77 52.2571C130.285 52.6193 130.937 52.8004 131.726 52.8004ZM154.552 37.4545V41.3182H143.383V37.4545H154.552ZM145.919 33.0114H151.062V50.3011C151.062 50.776 151.135 51.1463 151.28 51.4119C151.425 51.6695 151.626 51.8506 151.883 51.9553C152.149 52.0599 152.455 52.1122 152.801 52.1122C153.042 52.1122 153.284 52.0921 153.525 52.0518C153.767 52.0036 153.952 51.9673 154.081 51.9432L154.89 55.7706C154.632 55.8511 154.27 55.9437 153.803 56.0483C153.336 56.161 152.769 56.2294 152.101 56.2536C150.861 56.3018 149.774 56.1368 148.841 55.7585C147.915 55.3802 147.195 54.7926 146.68 53.9957C146.164 53.1989 145.911 52.1927 145.919 50.9773V33.0114ZM157.902 56V37.4545H163.046V56H157.902ZM160.486 35.0639C159.721 35.0639 159.065 34.8104 158.518 34.3033C157.979 33.7881 157.709 33.1723 157.709 32.456C157.709 31.7476 157.979 31.1399 158.518 30.6328C159.065 30.1177 159.721 29.8601 160.486 29.8601C161.251 29.8601 161.903 30.1177 162.442 30.6328C162.989 31.1399 163.263 31.7476 163.263 32.456C163.263 33.1723 162.989 33.7881 162.442 34.3033C161.903 34.8104 161.251 35.0639 160.486 35.0639ZM175.545 56.3622C173.67 56.3622 172.048 55.9638 170.679 55.1669C169.319 54.362 168.269 53.2431 167.528 51.8104C166.788 50.3696 166.417 48.6993 166.417 46.7997C166.417 44.884 166.788 43.2098 167.528 41.777C168.269 40.3362 169.319 39.2173 170.679 38.4205C172.048 37.6155 173.67 37.2131 175.545 37.2131C177.421 37.2131 179.038 37.6155 180.399 38.4205C181.767 39.2173 182.822 40.3362 183.562 41.777C184.303 43.2098 184.673 44.884 184.673 46.7997C184.673 48.6993 184.303 50.3696 183.562 51.8104C182.822 53.2431 181.767 54.362 180.399 55.1669C179.038 55.9638 177.421 56.3622 175.545 56.3622ZM175.569 52.3778C176.422 52.3778 177.135 52.1364 177.706 51.6534C178.278 51.1624 178.708 50.4943 178.998 49.6491C179.296 48.804 179.445 47.8421 179.445 46.7635C179.445 45.6849 179.296 44.723 178.998 43.8778C178.708 43.0327 178.278 42.3646 177.706 41.8736C177.135 41.3826 176.422 41.1371 175.569 41.1371C174.708 41.1371 173.984 41.3826 173.396 41.8736C172.816 42.3646 172.378 43.0327 172.08 43.8778C171.79 44.723 171.645 45.6849 171.645 46.7635C171.645 47.8421 171.79 48.804 172.08 49.6491C172.378 50.4943 172.816 51.1624 173.396 51.6534C173.984 52.1364 174.708 52.3778 175.569 52.3778ZM193.161 45.2784V56H188.017V37.4545H192.919V40.7266H193.137C193.547 39.648 194.235 38.7947 195.201 38.1669C196.167 37.531 197.338 37.2131 198.715 37.2131C200.003 37.2131 201.126 37.4948 202.083 38.0582C203.041 38.6217 203.786 39.4266 204.317 40.473C204.848 41.5114 205.114 42.7509 205.114 44.1918V56H199.971V45.1094C199.979 43.9744 199.689 43.089 199.101 42.4531C198.514 41.8092 197.705 41.4872 196.674 41.4872C195.982 41.4872 195.37 41.6361 194.839 41.9339C194.316 42.2318 193.905 42.6664 193.608 43.2379C193.318 43.8014 193.169 44.4815 193.161 45.2784ZM224.598 42.7429L219.889 43.0327C219.809 42.6302 219.636 42.268 219.37 41.946C219.105 41.616 218.754 41.3544 218.32 41.1612C217.893 40.96 217.382 40.8594 216.786 40.8594C215.99 40.8594 215.317 41.0284 214.77 41.3665C214.223 41.6965 213.949 42.1392 213.949 42.6946C213.949 43.1373 214.126 43.5116 214.48 43.8175C214.834 44.1233 215.442 44.3688 216.303 44.554L219.66 45.2301C221.463 45.6004 222.807 46.196 223.693 47.017C224.578 47.8381 225.021 48.9167 225.021 50.2528C225.021 51.4683 224.663 52.5348 223.946 53.4524C223.238 54.37 222.264 55.0864 221.024 55.6016C219.793 56.1087 218.372 56.3622 216.762 56.3622C214.307 56.3622 212.351 55.8511 210.894 54.8288C209.445 53.7985 208.596 52.398 208.347 50.6271L213.406 50.3615C213.559 51.1101 213.929 51.6816 214.517 52.076C215.104 52.4624 215.857 52.6555 216.774 52.6555C217.676 52.6555 218.4 52.4825 218.948 52.1364C219.503 51.7822 219.785 51.3274 219.793 50.772C219.785 50.3052 219.588 49.9228 219.201 49.625C218.815 49.3191 218.219 49.0857 217.414 48.9247L214.203 48.2848C212.392 47.9226 211.043 47.2947 210.158 46.4013C209.28 45.5078 208.842 44.3688 208.842 42.9844C208.842 41.7931 209.164 40.7668 209.808 39.9055C210.46 39.0443 211.373 38.3802 212.548 37.9134C213.732 37.4465 215.116 37.2131 216.702 37.2131C219.044 37.2131 220.887 37.7081 222.232 38.6982C223.584 39.6882 224.373 41.0365 224.598 42.7429Z" fill="#F5F7FA"/>
<path d="M32.1875 93.3828H33.6875C33.6094 94.1016 33.4036 94.7448 33.0703 95.3125C32.737 95.8802 32.2656 96.3307 31.6562 96.6641C31.0469 96.9922 30.2865 97.1562 29.375 97.1562C28.7083 97.1562 28.1016 97.0312 27.5547 96.7812C27.013 96.5312 26.5469 96.1771 26.1562 95.7188C25.7656 95.2552 25.4635 94.7005 25.25 94.0547C25.0417 93.4036 24.9375 92.6797 24.9375 91.8828V90.75C24.9375 89.9531 25.0417 89.2318 25.25 88.5859C25.4635 87.9349 25.7682 87.3776 26.1641 86.9141C26.5651 86.4505 27.0469 86.0938 27.6094 85.8438C28.1719 85.5938 28.8047 85.4688 29.5078 85.4688C30.3672 85.4688 31.0938 85.6302 31.6875 85.9531C32.2812 86.276 32.7422 86.724 33.0703 87.2969C33.4036 87.8646 33.6094 88.5234 33.6875 89.2734H32.1875C32.1146 88.7422 31.9792 88.2865 31.7812 87.9062C31.5833 87.5208 31.3021 87.224 30.9375 87.0156C30.5729 86.8073 30.0964 86.7031 29.5078 86.7031C29.0026 86.7031 28.5573 86.7995 28.1719 86.9922C27.7917 87.1849 27.4714 87.4583 27.2109 87.8125C26.9557 88.1667 26.763 88.5911 26.6328 89.0859C26.5026 89.5807 26.4375 90.1302 26.4375 90.7344V91.8828C26.4375 92.4401 26.4948 92.9635 26.6094 93.4531C26.7292 93.9427 26.9089 94.3724 27.1484 94.7422C27.388 95.112 27.6927 95.4036 28.0625 95.6172C28.4323 95.8255 28.8698 95.9297 29.375 95.9297C30.0156 95.9297 30.526 95.8281 30.9062 95.625C31.2865 95.4219 31.5729 95.1302 31.7656 94.75C31.9635 94.3698 32.1042 93.9141 32.1875 93.3828ZM36.9688 85V97H35.5234V85H36.9688ZM36.625 92.4531L36.0234 92.4297C36.0286 91.8516 36.1146 91.3177 36.2812 90.8281C36.4479 90.3333 36.6823 89.9036 36.9844 89.5391C37.2865 89.1745 37.6458 88.8932 38.0625 88.6953C38.4844 88.4922 38.9505 88.3906 39.4609 88.3906C39.8776 88.3906 40.2526 88.4479 40.5859 88.5625C40.9193 88.6719 41.2031 88.849 41.4375 89.0938C41.6771 89.3385 41.8594 89.6562 41.9844 90.0469C42.1094 90.4323 42.1719 90.9036 42.1719 91.4609V97H40.7188V91.4453C40.7188 91.0026 40.6536 90.6484 40.5234 90.3828C40.3932 90.112 40.2031 89.9167 39.9531 89.7969C39.7031 89.6719 39.3958 89.6094 39.0312 89.6094C38.6719 89.6094 38.3438 89.6849 38.0469 89.8359C37.7552 89.987 37.5026 90.1953 37.2891 90.4609C37.0807 90.7266 36.9167 91.0312 36.7969 91.375C36.6823 91.7135 36.625 92.0729 36.625 92.4531ZM43.9531 92.8672V92.6875C43.9531 92.0781 44.0417 91.513 44.2188 90.9922C44.3958 90.4661 44.651 90.0104 44.9844 89.625C45.3177 89.2344 45.7214 88.9323 46.1953 88.7188C46.6693 88.5 47.2005 88.3906 47.7891 88.3906C48.3828 88.3906 48.9167 88.5 49.3906 88.7188C49.8698 88.9323 50.276 89.2344 50.6094 89.625C50.9479 90.0104 51.2057 90.4661 51.3828 90.9922C51.5599 91.513 51.6484 92.0781 51.6484 92.6875V92.8672C51.6484 93.4766 51.5599 94.0417 51.3828 94.5625C51.2057 95.0833 50.9479 95.5391 50.6094 95.9297C50.276 96.3151 49.8724 96.6172 49.3984 96.8359C48.9297 97.0495 48.3984 97.1562 47.8047 97.1562C47.2109 97.1562 46.6771 97.0495 46.2031 96.8359C45.7292 96.6172 45.3229 96.3151 44.9844 95.9297C44.651 95.5391 44.3958 95.0833 44.2188 94.5625C44.0417 94.0417 43.9531 93.4766 43.9531 92.8672ZM45.3984 92.6875V92.8672C45.3984 93.2891 45.4479 93.6875 45.5469 94.0625C45.6458 94.4323 45.7943 94.7604 45.9922 95.0469C46.1953 95.3333 46.4479 95.5599 46.75 95.7266C47.0521 95.888 47.4036 95.9688 47.8047 95.9688C48.2005 95.9688 48.5469 95.888 48.8438 95.7266C49.1458 95.5599 49.3958 95.3333 49.5938 95.0469C49.7917 94.7604 49.9401 94.4323 50.0391 94.0625C50.1432 93.6875 50.1953 93.2891 50.1953 92.8672V92.6875C50.1953 92.2708 50.1432 91.8776 50.0391 91.5078C49.9401 91.1328 49.7891 90.8021 49.5859 90.5156C49.388 90.224 49.138 89.9948 48.8359 89.8281C48.5391 89.6615 48.1901 89.5781 47.7891 89.5781C47.3932 89.5781 47.0443 89.6615 46.7422 89.8281C46.4453 89.9948 46.1953 90.224 45.9922 90.5156C45.7943 90.8021 45.6458 91.1328 45.5469 91.5078C45.4479 91.8776 45.3984 92.2708 45.3984 92.6875ZM53.0781 92.8672V92.6875C53.0781 92.0781 53.1667 91.513 53.3438 90.9922C53.5208 90.4661 53.776 90.0104 54.1094 89.625C54.4427 89.2344 54.8464 88.9323 55.3203 88.7188C55.7943 88.5 56.3255 88.3906 56.9141 88.3906C57.5078 88.3906 58.0417 88.5 58.5156 88.7188C58.9948 88.9323 59.401 89.2344 59.7344 89.625C60.0729 90.0104 60.3307 90.4661 60.5078 90.9922C60.6849 91.513 60.7734 92.0781 60.7734 92.6875V92.8672C60.7734 93.4766 60.6849 94.0417 60.5078 94.5625C60.3307 95.0833 60.0729 95.5391 59.7344 95.9297C59.401 96.3151 58.9974 96.6172 58.5234 96.8359C58.0547 97.0495 57.5234 97.1562 56.9297 97.1562C56.3359 97.1562 55.8021 97.0495 55.3281 96.8359C54.8542 96.6172 54.4479 96.3151 54.1094 95.9297C53.776 95.5391 53.5208 95.0833 53.3438 94.5625C53.1667 94.0417 53.0781 93.4766 53.0781 92.8672ZM54.5234 92.6875V92.8672C54.5234 93.2891 54.5729 93.6875 54.6719 94.0625C54.7708 94.4323 54.9193 94.7604 55.1172 95.0469C55.3203 95.3333 55.5729 95.5599 55.875 95.7266C56.1771 95.888 56.5286 95.9688 56.9297 95.9688C57.3255 95.9688 57.6719 95.888 57.9688 95.7266C58.2708 95.5599 58.5208 95.3333 58.7188 95.0469C58.9167 94.7604 59.0651 94.4323 59.1641 94.0625C59.2682 93.6875 59.3203 93.2891 59.3203 92.8672V92.6875C59.3203 92.2708 59.2682 91.8776 59.1641 91.5078C59.0651 91.1328 58.9141 90.8021 58.7109 90.5156C58.513 90.224 58.263 89.9948 57.9609 89.8281C57.6641 89.6615 57.3151 89.5781 56.9141 89.5781C56.5182 89.5781 56.1693 89.6615 55.8672 89.8281C55.5703 89.9948 55.3203 90.224 55.1172 90.5156C54.9193 90.8021 54.7708 91.1328 54.6719 91.5078C54.5729 91.8776 54.5234 92.2708 54.5234 92.6875ZM67.5078 94.7578C67.5078 94.5495 67.4609 94.3568 67.3672 94.1797C67.2786 93.9974 67.0938 93.8333 66.8125 93.6875C66.5365 93.5365 66.1198 93.4062 65.5625 93.2969C65.0938 93.1979 64.6693 93.0807 64.2891 92.9453C63.9141 92.8099 63.5938 92.6458 63.3281 92.4531C63.0677 92.2604 62.8672 92.0339 62.7266 91.7734C62.5859 91.513 62.5156 91.2083 62.5156 90.8594C62.5156 90.526 62.5885 90.2109 62.7344 89.9141C62.8854 89.6172 63.0964 89.3542 63.3672 89.125C63.6432 88.8958 63.974 88.7161 64.3594 88.5859C64.7448 88.4557 65.1745 88.3906 65.6484 88.3906C66.3255 88.3906 66.9036 88.5104 67.3828 88.75C67.862 88.9896 68.2292 89.3099 68.4844 89.7109C68.7396 90.1068 68.8672 90.5469 68.8672 91.0312H67.4219C67.4219 90.7969 67.3516 90.5703 67.2109 90.3516C67.0755 90.1276 66.875 89.9427 66.6094 89.7969C66.349 89.651 66.0286 89.5781 65.6484 89.5781C65.2474 89.5781 64.9219 89.6406 64.6719 89.7656C64.4271 89.8854 64.2474 90.0391 64.1328 90.2266C64.0234 90.4141 63.9688 90.612 63.9688 90.8203C63.9688 90.9766 63.9948 91.1172 64.0469 91.2422C64.1042 91.362 64.2031 91.474 64.3438 91.5781C64.4844 91.6771 64.6823 91.7708 64.9375 91.8594C65.1927 91.9479 65.5182 92.0365 65.9141 92.125C66.6068 92.2812 67.1771 92.4688 67.625 92.6875C68.0729 92.9062 68.4062 93.1745 68.625 93.4922C68.8438 93.8099 68.9531 94.1953 68.9531 94.6484C68.9531 95.0182 68.875 95.3568 68.7188 95.6641C68.5677 95.9714 68.3464 96.237 68.0547 96.4609C67.7682 96.6797 67.4245 96.8516 67.0234 96.9766C66.6276 97.0964 66.1823 97.1562 65.6875 97.1562C64.9427 97.1562 64.3125 97.0234 63.7969 96.7578C63.2812 96.4922 62.8906 96.1484 62.625 95.7266C62.3594 95.3047 62.2266 94.8594 62.2266 94.3906H63.6797C63.7005 94.7865 63.8151 95.1016 64.0234 95.3359C64.2318 95.5651 64.487 95.7292 64.7891 95.8281C65.0911 95.9219 65.3906 95.9688 65.6875 95.9688C66.0833 95.9688 66.4141 95.9167 66.6797 95.8125C66.9505 95.7083 67.1562 95.5651 67.2969 95.3828C67.4375 95.2005 67.5078 94.9922 67.5078 94.7578ZM74.3594 97.1562C73.7708 97.1562 73.237 97.0573 72.7578 96.8594C72.2839 96.6562 71.875 96.3724 71.5312 96.0078C71.1927 95.6432 70.9323 95.2109 70.75 94.7109C70.5677 94.2109 70.4766 93.6641 70.4766 93.0703V92.7422C70.4766 92.0547 70.5781 91.4427 70.7812 90.9062C70.9844 90.3646 71.2604 89.9062 71.6094 89.5312C71.9583 89.1562 72.3542 88.8724 72.7969 88.6797C73.2396 88.487 73.6979 88.3906 74.1719 88.3906C74.776 88.3906 75.2969 88.4948 75.7344 88.7031C76.1771 88.9115 76.5391 89.2031 76.8203 89.5781C77.1016 89.9479 77.3099 90.3854 77.4453 90.8906C77.5807 91.3906 77.6484 91.9375 77.6484 92.5312V93.1797H71.3359V92H76.2031V91.8906C76.1823 91.5156 76.1042 91.151 75.9688 90.7969C75.8385 90.4427 75.6302 90.151 75.3438 89.9219C75.0573 89.6927 74.6667 89.5781 74.1719 89.5781C73.8438 89.5781 73.5417 89.6484 73.2656 89.7891C72.9896 89.9245 72.7526 90.1276 72.5547 90.3984C72.3568 90.6693 72.2031 91 72.0938 91.3906C71.9844 91.7812 71.9297 92.2318 71.9297 92.7422V93.0703C71.9297 93.4714 71.9844 93.849 72.0938 94.2031C72.2083 94.5521 72.3724 94.8594 72.5859 95.125C72.8047 95.3906 73.0677 95.599 73.375 95.75C73.6875 95.901 74.0417 95.9766 74.4375 95.9766C74.9479 95.9766 75.3802 95.8724 75.7344 95.6641C76.0885 95.4557 76.3984 95.1771 76.6641 94.8281L77.5391 95.5234C77.3568 95.7995 77.125 96.0625 76.8438 96.3125C76.5625 96.5625 76.2161 96.7656 75.8047 96.9219C75.3984 97.0781 74.9167 97.1562 74.3594 97.1562ZM88.2891 95.5547V91.2031C88.2891 90.8698 88.2214 90.5807 88.0859 90.3359C87.9557 90.0859 87.7578 89.8932 87.4922 89.7578C87.2266 89.6224 86.8984 89.5547 86.5078 89.5547C86.1432 89.5547 85.8229 89.6172 85.5469 89.7422C85.276 89.8672 85.0625 90.0312 84.9062 90.2344C84.7552 90.4375 84.6797 90.6562 84.6797 90.8906H83.2344C83.2344 90.5885 83.3125 90.2891 83.4688 89.9922C83.625 89.6953 83.849 89.4271 84.1406 89.1875C84.4375 88.9427 84.7917 88.75 85.2031 88.6094C85.6198 88.4635 86.0833 88.3906 86.5938 88.3906C87.2083 88.3906 87.75 88.4948 88.2188 88.7031C88.6927 88.9115 89.0625 89.2266 89.3281 89.6484C89.599 90.0651 89.7344 90.5885 89.7344 91.2188V95.1562C89.7344 95.4375 89.7578 95.737 89.8047 96.0547C89.8568 96.3724 89.9323 96.6458 90.0312 96.875V97H88.5234C88.4505 96.8333 88.3932 96.612 88.3516 96.3359C88.3099 96.0547 88.2891 95.7943 88.2891 95.5547ZM88.5391 91.875L88.5547 92.8906H87.0938C86.6823 92.8906 86.3151 92.9245 85.9922 92.9922C85.6693 93.0547 85.3984 93.151 85.1797 93.2812C84.9609 93.4115 84.7943 93.5755 84.6797 93.7734C84.5651 93.9661 84.5078 94.1927 84.5078 94.4531C84.5078 94.7188 84.5677 94.9609 84.6875 95.1797C84.8073 95.3984 84.987 95.5729 85.2266 95.7031C85.4714 95.8281 85.7708 95.8906 86.125 95.8906C86.5677 95.8906 86.9583 95.7969 87.2969 95.6094C87.6354 95.4219 87.9036 95.1927 88.1016 94.9219C88.3047 94.651 88.4141 94.388 88.4297 94.1328L89.0469 94.8281C89.0104 95.0469 88.9115 95.2891 88.75 95.5547C88.5885 95.8203 88.3724 96.0755 88.1016 96.3203C87.8359 96.5599 87.5182 96.7604 87.1484 96.9219C86.7839 97.0781 86.3724 97.1562 85.9141 97.1562C85.3411 97.1562 84.8385 97.0443 84.4062 96.8203C83.9792 96.5964 83.6458 96.2969 83.4062 95.9219C83.1719 95.5417 83.0547 95.1172 83.0547 94.6484C83.0547 94.1953 83.1432 93.7969 83.3203 93.4531C83.4974 93.1042 83.7526 92.8151 84.0859 92.5859C84.4193 92.3516 84.8203 92.1745 85.2891 92.0547C85.7578 91.9349 86.2812 91.875 86.8594 91.875H88.5391ZM93.4531 90.3516V97H92.0078V88.5469H93.375L93.4531 90.3516ZM93.1094 92.4531L92.5078 92.4297C92.513 91.8516 92.599 91.3177 92.7656 90.8281C92.9323 90.3333 93.1667 89.9036 93.4688 89.5391C93.7708 89.1745 94.1302 88.8932 94.5469 88.6953C94.9688 88.4922 95.4349 88.3906 95.9453 88.3906C96.362 88.3906 96.737 88.4479 97.0703 88.5625C97.4036 88.6719 97.6875 88.849 97.9219 89.0938C98.1615 89.3385 98.3438 89.6562 98.4688 90.0469C98.5938 90.4323 98.6562 90.9036 98.6562 91.4609V97H97.2031V91.4453C97.2031 91.0026 97.138 90.6484 97.0078 90.3828C96.8776 90.112 96.6875 89.9167 96.4375 89.7969C96.1875 89.6719 95.8802 89.6094 95.5156 89.6094C95.1562 89.6094 94.8281 89.6849 94.5312 89.8359C94.2396 89.987 93.987 90.1953 93.7734 90.4609C93.5651 90.7266 93.401 91.0312 93.2812 91.375C93.1667 91.7135 93.1094 92.0729 93.1094 92.4531ZM106.391 88.5469V97H104.938V88.5469H106.391ZM104.828 86.3047C104.828 86.0703 104.898 85.8724 105.039 85.7109C105.185 85.5495 105.398 85.4688 105.68 85.4688C105.956 85.4688 106.167 85.5495 106.312 85.7109C106.464 85.8724 106.539 86.0703 106.539 86.3047C106.539 86.5286 106.464 86.7214 106.312 86.8828C106.167 87.0391 105.956 87.1172 105.68 87.1172C105.398 87.1172 105.185 87.0391 105.039 86.8828C104.898 86.7214 104.828 86.5286 104.828 86.3047ZM110.156 90.3516V97H108.711V88.5469H110.078L110.156 90.3516ZM109.812 92.4531L109.211 92.4297C109.216 91.8516 109.302 91.3177 109.469 90.8281C109.635 90.3333 109.87 89.9036 110.172 89.5391C110.474 89.1745 110.833 88.8932 111.25 88.6953C111.672 88.4922 112.138 88.3906 112.648 88.3906C113.065 88.3906 113.44 88.4479 113.773 88.5625C114.107 88.6719 114.391 88.849 114.625 89.0938C114.865 89.3385 115.047 89.6562 115.172 90.0469C115.297 90.4323 115.359 90.9036 115.359 91.4609V97H113.906V91.4453C113.906 91.0026 113.841 90.6484 113.711 90.3828C113.581 90.112 113.391 89.9167 113.141 89.7969C112.891 89.6719 112.583 89.6094 112.219 89.6094C111.859 89.6094 111.531 89.6849 111.234 89.8359C110.943 89.987 110.69 90.1953 110.477 90.4609C110.268 90.7266 110.104 91.0312 109.984 91.375C109.87 91.7135 109.812 92.0729 109.812 92.4531ZM121.094 88.5469V89.6562H116.523V88.5469H121.094ZM118.07 86.4922H119.516V94.9062C119.516 95.1927 119.56 95.4089 119.648 95.5547C119.737 95.7005 119.852 95.7969 119.992 95.8438C120.133 95.8906 120.284 95.9141 120.445 95.9141C120.565 95.9141 120.69 95.9036 120.82 95.8828C120.956 95.8568 121.057 95.8359 121.125 95.8203L121.133 97C121.018 97.0365 120.867 97.0703 120.68 97.1016C120.497 97.138 120.276 97.1562 120.016 97.1562C119.661 97.1562 119.336 97.0859 119.039 96.9453C118.742 96.8047 118.505 96.5703 118.328 96.2422C118.156 95.9089 118.07 95.4609 118.07 94.8984V86.4922ZM126.297 97.1562C125.708 97.1562 125.174 97.0573 124.695 96.8594C124.221 96.6562 123.812 96.3724 123.469 96.0078C123.13 95.6432 122.87 95.2109 122.688 94.7109C122.505 94.2109 122.414 93.6641 122.414 93.0703V92.7422C122.414 92.0547 122.516 91.4427 122.719 90.9062C122.922 90.3646 123.198 89.9062 123.547 89.5312C123.896 89.1562 124.292 88.8724 124.734 88.6797C125.177 88.487 125.635 88.3906 126.109 88.3906C126.714 88.3906 127.234 88.4948 127.672 88.7031C128.115 88.9115 128.477 89.2031 128.758 89.5781C129.039 89.9479 129.247 90.3854 129.383 90.8906C129.518 91.3906 129.586 91.9375 129.586 92.5312V93.1797H123.273V92H128.141V91.8906C128.12 91.5156 128.042 91.151 127.906 90.7969C127.776 90.4427 127.568 90.151 127.281 89.9219C126.995 89.6927 126.604 89.5781 126.109 89.5781C125.781 89.5781 125.479 89.6484 125.203 89.7891C124.927 89.9245 124.69 90.1276 124.492 90.3984C124.294 90.6693 124.141 91 124.031 91.3906C123.922 91.7812 123.867 92.2318 123.867 92.7422V93.0703C123.867 93.4714 123.922 93.849 124.031 94.2031C124.146 94.5521 124.31 94.8594 124.523 95.125C124.742 95.3906 125.005 95.599 125.312 95.75C125.625 95.901 125.979 95.9766 126.375 95.9766C126.885 95.9766 127.318 95.8724 127.672 95.6641C128.026 95.4557 128.336 95.1771 128.602 94.8281L129.477 95.5234C129.294 95.7995 129.062 96.0625 128.781 96.3125C128.5 96.5625 128.154 96.7656 127.742 96.9219C127.336 97.0781 126.854 97.1562 126.297 97.1562ZM136.75 88.5469H138.062V96.8203C138.062 97.5651 137.911 98.2005 137.609 98.7266C137.307 99.2526 136.885 99.651 136.344 99.9219C135.807 100.198 135.188 100.336 134.484 100.336C134.193 100.336 133.849 100.289 133.453 100.195C133.062 100.107 132.677 99.9531 132.297 99.7344C131.922 99.5208 131.607 99.2318 131.352 98.8672L132.109 98.0078C132.464 98.4349 132.833 98.7318 133.219 98.8984C133.609 99.0651 133.995 99.1484 134.375 99.1484C134.833 99.1484 135.229 99.0625 135.562 98.8906C135.896 98.7188 136.154 98.4635 136.336 98.125C136.523 97.7917 136.617 97.3802 136.617 96.8906V90.4062L136.75 88.5469ZM130.93 92.8672V92.7031C130.93 92.0573 131.005 91.4714 131.156 90.9453C131.312 90.4141 131.534 89.9583 131.82 89.5781C132.112 89.1979 132.464 88.9062 132.875 88.7031C133.286 88.4948 133.75 88.3906 134.266 88.3906C134.797 88.3906 135.26 88.4844 135.656 88.6719C136.057 88.8542 136.396 89.1224 136.672 89.4766C136.953 89.8255 137.174 90.2474 137.336 90.7422C137.497 91.237 137.609 91.7969 137.672 92.4219V93.1406C137.615 93.7604 137.503 94.3177 137.336 94.8125C137.174 95.3073 136.953 95.7292 136.672 96.0781C136.396 96.4271 136.057 96.6953 135.656 96.8828C135.255 97.0651 134.786 97.1562 134.25 97.1562C133.745 97.1562 133.286 97.0495 132.875 96.8359C132.469 96.6224 132.12 96.3229 131.828 95.9375C131.536 95.5521 131.312 95.099 131.156 94.5781C131.005 94.0521 130.93 93.4818 130.93 92.8672ZM132.375 92.7031V92.8672C132.375 93.2891 132.417 93.6849 132.5 94.0547C132.589 94.4245 132.721 94.75 132.898 95.0312C133.081 95.3125 133.312 95.5339 133.594 95.6953C133.875 95.8516 134.211 95.9297 134.602 95.9297C135.081 95.9297 135.477 95.8281 135.789 95.625C136.102 95.4219 136.349 95.1536 136.531 94.8203C136.719 94.487 136.865 94.125 136.969 93.7344V91.8516C136.911 91.5651 136.823 91.2891 136.703 91.0234C136.589 90.7526 136.438 90.513 136.25 90.3047C136.068 90.0911 135.841 89.9219 135.57 89.7969C135.299 89.6719 134.982 89.6094 134.617 89.6094C134.221 89.6094 133.88 89.6927 133.594 89.8594C133.312 90.0208 133.081 90.2448 132.898 90.5312C132.721 90.8125 132.589 91.1406 132.5 91.5156C132.417 91.8854 132.375 92.2812 132.375 92.7031ZM141.703 89.875V97H140.258V88.5469H141.664L141.703 89.875ZM144.344 88.5L144.336 89.8438C144.216 89.8177 144.102 89.8021 143.992 89.7969C143.888 89.7865 143.768 89.7812 143.633 89.7812C143.299 89.7812 143.005 89.8333 142.75 89.9375C142.495 90.0417 142.279 90.1875 142.102 90.375C141.924 90.5625 141.784 90.7865 141.68 91.0469C141.581 91.3021 141.516 91.5833 141.484 91.8906L141.078 92.125C141.078 91.6146 141.128 91.1354 141.227 90.6875C141.331 90.2396 141.49 89.8438 141.703 89.5C141.917 89.151 142.188 88.8802 142.516 88.6875C142.849 88.4896 143.245 88.3906 143.703 88.3906C143.807 88.3906 143.927 88.4036 144.062 88.4297C144.198 88.4505 144.292 88.474 144.344 88.5ZM150.352 95.5547V91.2031C150.352 90.8698 150.284 90.5807 150.148 90.3359C150.018 90.0859 149.82 89.8932 149.555 89.7578C149.289 89.6224 148.961 89.5547 148.57 89.5547C148.206 89.5547 147.885 89.6172 147.609 89.7422C147.339 89.8672 147.125 90.0312 146.969 90.2344C146.818 90.4375 146.742 90.6562 146.742 90.8906H145.297C145.297 90.5885 145.375 90.2891 145.531 89.9922C145.688 89.6953 145.911 89.4271 146.203 89.1875C146.5 88.9427 146.854 88.75 147.266 88.6094C147.682 88.4635 148.146 88.3906 148.656 88.3906C149.271 88.3906 149.812 88.4948 150.281 88.7031C150.755 88.9115 151.125 89.2266 151.391 89.6484C151.661 90.0651 151.797 90.5885 151.797 91.2188V95.1562C151.797 95.4375 151.82 95.737 151.867 96.0547C151.919 96.3724 151.995 96.6458 152.094 96.875V97H150.586C150.513 96.8333 150.456 96.612 150.414 96.3359C150.372 96.0547 150.352 95.7943 150.352 95.5547ZM150.602 91.875L150.617 92.8906H149.156C148.745 92.8906 148.378 92.9245 148.055 92.9922C147.732 93.0547 147.461 93.151 147.242 93.2812C147.023 93.4115 146.857 93.5755 146.742 93.7734C146.628 93.9661 146.57 94.1927 146.57 94.4531C146.57 94.7188 146.63 94.9609 146.75 95.1797C146.87 95.3984 147.049 95.5729 147.289 95.7031C147.534 95.8281 147.833 95.8906 148.188 95.8906C148.63 95.8906 149.021 95.7969 149.359 95.6094C149.698 95.4219 149.966 95.1927 150.164 94.9219C150.367 94.651 150.477 94.388 150.492 94.1328L151.109 94.8281C151.073 95.0469 150.974 95.2891 150.812 95.5547C150.651 95.8203 150.435 96.0755 150.164 96.3203C149.898 96.5599 149.581 96.7604 149.211 96.9219C148.846 97.0781 148.435 97.1562 147.977 97.1562C147.404 97.1562 146.901 97.0443 146.469 96.8203C146.042 96.5964 145.708 96.2969 145.469 95.9219C145.234 95.5417 145.117 95.1172 145.117 94.6484C145.117 94.1953 145.206 93.7969 145.383 93.4531C145.56 93.1042 145.815 92.8151 146.148 92.5859C146.482 92.3516 146.883 92.1745 147.352 92.0547C147.82 91.9349 148.344 91.875 148.922 91.875H150.602ZM157.609 88.5469V89.6562H153.039V88.5469H157.609ZM154.586 86.4922H156.031V94.9062C156.031 95.1927 156.076 95.4089 156.164 95.5547C156.253 95.7005 156.367 95.7969 156.508 95.8438C156.648 95.8906 156.799 95.9141 156.961 95.9141C157.081 95.9141 157.206 95.9036 157.336 95.8828C157.471 95.8568 157.573 95.8359 157.641 95.8203L157.648 97C157.534 97.0365 157.383 97.0703 157.195 97.1016C157.013 97.138 156.792 97.1562 156.531 97.1562C156.177 97.1562 155.852 97.0859 155.555 96.9453C155.258 96.8047 155.021 96.5703 154.844 96.2422C154.672 95.9089 154.586 95.4609 154.586 94.8984V86.4922ZM160.875 88.5469V97H159.422V88.5469H160.875ZM159.312 86.3047C159.312 86.0703 159.383 85.8724 159.523 85.7109C159.669 85.5495 159.883 85.4688 160.164 85.4688C160.44 85.4688 160.651 85.5495 160.797 85.7109C160.948 85.8724 161.023 86.0703 161.023 86.3047C161.023 86.5286 160.948 86.7214 160.797 86.8828C160.651 87.0391 160.44 87.1172 160.164 87.1172C159.883 87.1172 159.669 87.0391 159.523 86.8828C159.383 86.7214 159.312 86.5286 159.312 86.3047ZM162.812 92.8672V92.6875C162.812 92.0781 162.901 91.513 163.078 90.9922C163.255 90.4661 163.51 90.0104 163.844 89.625C164.177 89.2344 164.581 88.9323 165.055 88.7188C165.529 88.5 166.06 88.3906 166.648 88.3906C167.242 88.3906 167.776 88.5 168.25 88.7188C168.729 88.9323 169.135 89.2344 169.469 89.625C169.807 90.0104 170.065 90.4661 170.242 90.9922C170.419 91.513 170.508 92.0781 170.508 92.6875V92.8672C170.508 93.4766 170.419 94.0417 170.242 94.5625C170.065 95.0833 169.807 95.5391 169.469 95.9297C169.135 96.3151 168.732 96.6172 168.258 96.8359C167.789 97.0495 167.258 97.1562 166.664 97.1562C166.07 97.1562 165.536 97.0495 165.062 96.8359C164.589 96.6172 164.182 96.3151 163.844 95.9297C163.51 95.5391 163.255 95.0833 163.078 94.5625C162.901 94.0417 162.812 93.4766 162.812 92.8672ZM164.258 92.6875V92.8672C164.258 93.2891 164.307 93.6875 164.406 94.0625C164.505 94.4323 164.654 94.7604 164.852 95.0469C165.055 95.3333 165.307 95.5599 165.609 95.7266C165.911 95.888 166.263 95.9688 166.664 95.9688C167.06 95.9688 167.406 95.888 167.703 95.7266C168.005 95.5599 168.255 95.3333 168.453 95.0469C168.651 94.7604 168.799 94.4323 168.898 94.0625C169.003 93.6875 169.055 93.2891 169.055 92.8672V92.6875C169.055 92.2708 169.003 91.8776 168.898 91.5078C168.799 91.1328 168.648 90.8021 168.445 90.5156C168.247 90.224 167.997 89.9948 167.695 89.8281C167.398 89.6615 167.049 89.5781 166.648 89.5781C166.253 89.5781 165.904 89.6615 165.602 89.8281C165.305 89.9948 165.055 90.224 164.852 90.5156C164.654 90.8021 164.505 91.1328 164.406 91.5078C164.307 91.8776 164.258 92.2708 164.258 92.6875ZM173.766 90.3516V97H172.32V88.5469H173.688L173.766 90.3516ZM173.422 92.4531L172.82 92.4297C172.826 91.8516 172.911 91.3177 173.078 90.8281C173.245 90.3333 173.479 89.9036 173.781 89.5391C174.083 89.1745 174.443 88.8932 174.859 88.6953C175.281 88.4922 175.747 88.3906 176.258 88.3906C176.674 88.3906 177.049 88.4479 177.383 88.5625C177.716 88.6719 178 88.849 178.234 89.0938C178.474 89.3385 178.656 89.6562 178.781 90.0469C178.906 90.4323 178.969 90.9036 178.969 91.4609V97H177.516V91.4453C177.516 91.0026 177.451 90.6484 177.32 90.3828C177.19 90.112 177 89.9167 176.75 89.7969C176.5 89.6719 176.193 89.6094 175.828 89.6094C175.469 89.6094 175.141 89.6849 174.844 89.8359C174.552 89.987 174.299 90.1953 174.086 90.4609C173.878 90.7266 173.714 91.0312 173.594 91.375C173.479 91.7135 173.422 92.0729 173.422 92.4531ZM188.672 88.5469V89.6562H184.102V88.5469H188.672ZM185.648 86.4922H187.094V94.9062C187.094 95.1927 187.138 95.4089 187.227 95.5547C187.315 95.7005 187.43 95.7969 187.57 95.8438C187.711 95.8906 187.862 95.9141 188.023 95.9141C188.143 95.9141 188.268 95.9036 188.398 95.8828C188.534 95.8568 188.635 95.8359 188.703 95.8203L188.711 97C188.596 97.0365 188.445 97.0703 188.258 97.1016C188.076 97.138 187.854 97.1562 187.594 97.1562C187.24 97.1562 186.914 97.0859 186.617 96.9453C186.32 96.8047 186.083 96.5703 185.906 96.2422C185.734 95.9089 185.648 95.4609 185.648 94.8984V86.4922ZM189.828 92.8672V92.6875C189.828 92.0781 189.917 91.513 190.094 90.9922C190.271 90.4661 190.526 90.0104 190.859 89.625C191.193 89.2344 191.596 88.9323 192.07 88.7188C192.544 88.5 193.076 88.3906 193.664 88.3906C194.258 88.3906 194.792 88.5 195.266 88.7188C195.745 88.9323 196.151 89.2344 196.484 89.625C196.823 90.0104 197.081 90.4661 197.258 90.9922C197.435 91.513 197.523 92.0781 197.523 92.6875V92.8672C197.523 93.4766 197.435 94.0417 197.258 94.5625C197.081 95.0833 196.823 95.5391 196.484 95.9297C196.151 96.3151 195.747 96.6172 195.273 96.8359C194.805 97.0495 194.273 97.1562 193.68 97.1562C193.086 97.1562 192.552 97.0495 192.078 96.8359C191.604 96.6172 191.198 96.3151 190.859 95.9297C190.526 95.5391 190.271 95.0833 190.094 94.5625C189.917 94.0417 189.828 93.4766 189.828 92.8672ZM191.273 92.6875V92.8672C191.273 93.2891 191.323 93.6875 191.422 94.0625C191.521 94.4323 191.669 94.7604 191.867 95.0469C192.07 95.3333 192.323 95.5599 192.625 95.7266C192.927 95.888 193.279 95.9688 193.68 95.9688C194.076 95.9688 194.422 95.888 194.719 95.7266C195.021 95.5599 195.271 95.3333 195.469 95.0469C195.667 94.7604 195.815 94.4323 195.914 94.0625C196.018 93.6875 196.07 93.2891 196.07 92.8672V92.6875C196.07 92.2708 196.018 91.8776 195.914 91.5078C195.815 91.1328 195.664 90.8021 195.461 90.5156C195.263 90.224 195.013 89.9948 194.711 89.8281C194.414 89.6615 194.065 89.5781 193.664 89.5781C193.268 89.5781 192.919 89.6615 192.617 89.8281C192.32 89.9948 192.07 90.224 191.867 90.5156C191.669 90.8021 191.521 91.1328 191.422 91.5078C191.323 91.8776 191.273 92.2708 191.273 92.6875ZM208.227 94.7578C208.227 94.5495 208.18 94.3568 208.086 94.1797C207.997 93.9974 207.812 93.8333 207.531 93.6875C207.255 93.5365 206.839 93.4062 206.281 93.2969C205.812 93.1979 205.388 93.0807 205.008 92.9453C204.633 92.8099 204.312 92.6458 204.047 92.4531C203.786 92.2604 203.586 92.0339 203.445 91.7734C203.305 91.513 203.234 91.2083 203.234 90.8594C203.234 90.526 203.307 90.2109 203.453 89.9141C203.604 89.6172 203.815 89.3542 204.086 89.125C204.362 88.8958 204.693 88.7161 205.078 88.5859C205.464 88.4557 205.893 88.3906 206.367 88.3906C207.044 88.3906 207.622 88.5104 208.102 88.75C208.581 88.9896 208.948 89.3099 209.203 89.7109C209.458 90.1068 209.586 90.5469 209.586 91.0312H208.141C208.141 90.7969 208.07 90.5703 207.93 90.3516C207.794 90.1276 207.594 89.9427 207.328 89.7969C207.068 89.651 206.747 89.5781 206.367 89.5781C205.966 89.5781 205.641 89.6406 205.391 89.7656C205.146 89.8854 204.966 90.0391 204.852 90.2266C204.742 90.4141 204.688 90.612 204.688 90.8203C204.688 90.9766 204.714 91.1172 204.766 91.2422C204.823 91.362 204.922 91.474 205.062 91.5781C205.203 91.6771 205.401 91.7708 205.656 91.8594C205.911 91.9479 206.237 92.0365 206.633 92.125C207.326 92.2812 207.896 92.4688 208.344 92.6875C208.792 92.9062 209.125 93.1745 209.344 93.4922C209.562 93.8099 209.672 94.1953 209.672 94.6484C209.672 95.0182 209.594 95.3568 209.438 95.6641C209.286 95.9714 209.065 96.237 208.773 96.4609C208.487 96.6797 208.143 96.8516 207.742 96.9766C207.346 97.0964 206.901 97.1562 206.406 97.1562C205.661 97.1562 205.031 97.0234 204.516 96.7578C204 96.4922 203.609 96.1484 203.344 95.7266C203.078 95.3047 202.945 94.8594 202.945 94.3906H204.398C204.419 94.7865 204.534 95.1016 204.742 95.3359C204.951 95.5651 205.206 95.7292 205.508 95.8281C205.81 95.9219 206.109 95.9688 206.406 95.9688C206.802 95.9688 207.133 95.9167 207.398 95.8125C207.669 95.7083 207.875 95.5651 208.016 95.3828C208.156 95.2005 208.227 94.9922 208.227 94.7578ZM215.109 88.5469V89.6562H210.539V88.5469H215.109ZM212.086 86.4922H213.531V94.9062C213.531 95.1927 213.576 95.4089 213.664 95.5547C213.753 95.7005 213.867 95.7969 214.008 95.8438C214.148 95.8906 214.299 95.9141 214.461 95.9141C214.581 95.9141 214.706 95.9036 214.836 95.8828C214.971 95.8568 215.073 95.8359 215.141 95.8203L215.148 97C215.034 97.0365 214.883 97.0703 214.695 97.1016C214.513 97.138 214.292 97.1562 214.031 97.1562C213.677 97.1562 213.352 97.0859 213.055 96.9453C212.758 96.8047 212.521 96.5703 212.344 96.2422C212.172 95.9089 212.086 95.4609 212.086 94.8984V86.4922ZM221.789 95.5547V91.2031C221.789 90.8698 221.721 90.5807 221.586 90.3359C221.456 90.0859 221.258 89.8932 220.992 89.7578C220.727 89.6224 220.398 89.5547 220.008 89.5547C219.643 89.5547 219.323 89.6172 219.047 89.7422C218.776 89.8672 218.562 90.0312 218.406 90.2344C218.255 90.4375 218.18 90.6562 218.18 90.8906H216.734C216.734 90.5885 216.812 90.2891 216.969 89.9922C217.125 89.6953 217.349 89.4271 217.641 89.1875C217.938 88.9427 218.292 88.75 218.703 88.6094C219.12 88.4635 219.583 88.3906 220.094 88.3906C220.708 88.3906 221.25 88.4948 221.719 88.7031C222.193 88.9115 222.562 89.2266 222.828 89.6484C223.099 90.0651 223.234 90.5885 223.234 91.2188V95.1562C223.234 95.4375 223.258 95.737 223.305 96.0547C223.357 96.3724 223.432 96.6458 223.531 96.875V97H222.023C221.951 96.8333 221.893 96.612 221.852 96.3359C221.81 96.0547 221.789 95.7943 221.789 95.5547ZM222.039 91.875L222.055 92.8906H220.594C220.182 92.8906 219.815 92.9245 219.492 92.9922C219.169 93.0547 218.898 93.151 218.68 93.2812C218.461 93.4115 218.294 93.5755 218.18 93.7734C218.065 93.9661 218.008 94.1927 218.008 94.4531C218.008 94.7188 218.068 94.9609 218.188 95.1797C218.307 95.3984 218.487 95.5729 218.727 95.7031C218.971 95.8281 219.271 95.8906 219.625 95.8906C220.068 95.8906 220.458 95.7969 220.797 95.6094C221.135 95.4219 221.404 95.1927 221.602 94.9219C221.805 94.651 221.914 94.388 221.93 94.1328L222.547 94.8281C222.51 95.0469 222.411 95.2891 222.25 95.5547C222.089 95.8203 221.872 96.0755 221.602 96.3203C221.336 96.5599 221.018 96.7604 220.648 96.9219C220.284 97.0781 219.872 97.1562 219.414 97.1562C218.841 97.1562 218.339 97.0443 217.906 96.8203C217.479 96.5964 217.146 96.2969 216.906 95.9219C216.672 95.5417 216.555 95.1172 216.555 94.6484C216.555 94.1953 216.643 93.7969 216.82 93.4531C216.997 93.1042 217.253 92.8151 217.586 92.5859C217.919 92.3516 218.32 92.1745 218.789 92.0547C219.258 91.9349 219.781 91.875 220.359 91.875H222.039ZM226.953 89.875V97H225.508V88.5469H226.914L226.953 89.875ZM229.594 88.5L229.586 89.8438C229.466 89.8177 229.352 89.8021 229.242 89.7969C229.138 89.7865 229.018 89.7812 228.883 89.7812C228.549 89.7812 228.255 89.8333 228 89.9375C227.745 90.0417 227.529 90.1875 227.352 90.375C227.174 90.5625 227.034 90.7865 226.93 91.0469C226.831 91.3021 226.766 91.5833 226.734 91.8906L226.328 92.125C226.328 91.6146 226.378 91.1354 226.477 90.6875C226.581 90.2396 226.74 89.8438 226.953 89.5C227.167 89.151 227.438 88.8802 227.766 88.6875C228.099 88.4896 228.495 88.3906 228.953 88.3906C229.057 88.3906 229.177 88.4036 229.312 88.4297C229.448 88.4505 229.542 88.474 229.594 88.5ZM234.859 88.5469V89.6562H230.289V88.5469H234.859ZM231.836 86.4922H233.281V94.9062C233.281 95.1927 233.326 95.4089 233.414 95.5547C233.503 95.7005 233.617 95.7969 233.758 95.8438C233.898 95.8906 234.049 95.9141 234.211 95.9141C234.331 95.9141 234.456 95.9036 234.586 95.8828C234.721 95.8568 234.823 95.8359 234.891 95.8203L234.898 97C234.784 97.0365 234.633 97.0703 234.445 97.1016C234.263 97.138 234.042 97.1562 233.781 97.1562C233.427 97.1562 233.102 97.0859 232.805 96.9453C232.508 96.8047 232.271 96.5703 232.094 96.2422C231.922 95.9089 231.836 95.4609 231.836 94.8984V86.4922ZM243.906 95.9688C244.25 95.9688 244.568 95.8984 244.859 95.7578C245.151 95.6172 245.391 95.4245 245.578 95.1797C245.766 94.9297 245.872 94.6458 245.898 94.3281H247.273C247.247 94.8281 247.078 95.2943 246.766 95.7266C246.458 96.1536 246.055 96.5 245.555 96.7656C245.055 97.026 244.505 97.1562 243.906 97.1562C243.271 97.1562 242.716 97.0443 242.242 96.8203C241.773 96.5964 241.383 96.2891 241.07 95.8984C240.763 95.5078 240.531 95.0599 240.375 94.5547C240.224 94.0443 240.148 93.5052 240.148 92.9375V92.6094C240.148 92.0417 240.224 91.5052 240.375 91C240.531 90.4896 240.763 90.0391 241.07 89.6484C241.383 89.2578 241.773 88.9505 242.242 88.7266C242.716 88.5026 243.271 88.3906 243.906 88.3906C244.568 88.3906 245.146 88.526 245.641 88.7969C246.135 89.0625 246.523 89.4271 246.805 89.8906C247.091 90.349 247.247 90.8698 247.273 91.4531H245.898C245.872 91.1042 245.773 90.7891 245.602 90.5078C245.435 90.2266 245.206 90.0026 244.914 89.8359C244.628 89.6641 244.292 89.5781 243.906 89.5781C243.464 89.5781 243.091 89.6667 242.789 89.8438C242.492 90.0156 242.255 90.25 242.078 90.5469C241.906 90.8385 241.781 91.1641 241.703 91.5234C241.63 91.8776 241.594 92.2396 241.594 92.6094V92.9375C241.594 93.3073 241.63 93.6719 241.703 94.0312C241.776 94.3906 241.898 94.7161 242.07 95.0078C242.247 95.2995 242.484 95.5339 242.781 95.7109C243.083 95.8828 243.458 95.9688 243.906 95.9688ZM248.516 92.8672V92.6875C248.516 92.0781 248.604 91.513 248.781 90.9922C248.958 90.4661 249.214 90.0104 249.547 89.625C249.88 89.2344 250.284 88.9323 250.758 88.7188C251.232 88.5 251.763 88.3906 252.352 88.3906C252.945 88.3906 253.479 88.5 253.953 88.7188C254.432 88.9323 254.839 89.2344 255.172 89.625C255.51 90.0104 255.768 90.4661 255.945 90.9922C256.122 91.513 256.211 92.0781 256.211 92.6875V92.8672C256.211 93.4766 256.122 94.0417 255.945 94.5625C255.768 95.0833 255.51 95.5391 255.172 95.9297C254.839 96.3151 254.435 96.6172 253.961 96.8359C253.492 97.0495 252.961 97.1562 252.367 97.1562C251.773 97.1562 251.24 97.0495 250.766 96.8359C250.292 96.6172 249.885 96.3151 249.547 95.9297C249.214 95.5391 248.958 95.0833 248.781 94.5625C248.604 94.0417 248.516 93.4766 248.516 92.8672ZM249.961 92.6875V92.8672C249.961 93.2891 250.01 93.6875 250.109 94.0625C250.208 94.4323 250.357 94.7604 250.555 95.0469C250.758 95.3333 251.01 95.5599 251.312 95.7266C251.615 95.888 251.966 95.9688 252.367 95.9688C252.763 95.9688 253.109 95.888 253.406 95.7266C253.708 95.5599 253.958 95.3333 254.156 95.0469C254.354 94.7604 254.503 94.4323 254.602 94.0625C254.706 93.6875 254.758 93.2891 254.758 92.8672V92.6875C254.758 92.2708 254.706 91.8776 254.602 91.5078C254.503 91.1328 254.352 90.8021 254.148 90.5156C253.951 90.224 253.701 89.9948 253.398 89.8281C253.102 89.6615 252.753 89.5781 252.352 89.5781C251.956 89.5781 251.607 89.6615 251.305 89.8281C251.008 89.9948 250.758 90.224 250.555 90.5156C250.357 90.8021 250.208 91.1328 250.109 91.5078C250.01 91.8776 249.961 92.2708 249.961 92.6875ZM259.594 85V97H258.141V85H259.594ZM263.484 85V97H262.031V85H263.484ZM269.312 97.1562C268.724 97.1562 268.19 97.0573 267.711 96.8594C267.237 96.6562 266.828 96.3724 266.484 96.0078C266.146 95.6432 265.885 95.2109 265.703 94.7109C265.521 94.2109 265.43 93.6641 265.43 93.0703V92.7422C265.43 92.0547 265.531 91.4427 265.734 90.9062C265.938 90.3646 266.214 89.9062 266.562 89.5312C266.911 89.1562 267.307 88.8724 267.75 88.6797C268.193 88.487 268.651 88.3906 269.125 88.3906C269.729 88.3906 270.25 88.4948 270.688 88.7031C271.13 88.9115 271.492 89.2031 271.773 89.5781C272.055 89.9479 272.263 90.3854 272.398 90.8906C272.534 91.3906 272.602 91.9375 272.602 92.5312V93.1797H266.289V92H271.156V91.8906C271.135 91.5156 271.057 91.151 270.922 90.7969C270.792 90.4427 270.583 90.151 270.297 89.9219C270.01 89.6927 269.62 89.5781 269.125 89.5781C268.797 89.5781 268.495 89.6484 268.219 89.7891C267.943 89.9245 267.706 90.1276 267.508 90.3984C267.31 90.6693 267.156 91 267.047 91.3906C266.938 91.7812 266.883 92.2318 266.883 92.7422V93.0703C266.883 93.4714 266.938 93.849 267.047 94.2031C267.161 94.5521 267.326 94.8594 267.539 95.125C267.758 95.3906 268.021 95.599 268.328 95.75C268.641 95.901 268.995 95.9766 269.391 95.9766C269.901 95.9766 270.333 95.8724 270.688 95.6641C271.042 95.4557 271.352 95.1771 271.617 94.8281L272.492 95.5234C272.31 95.7995 272.078 96.0625 271.797 96.3125C271.516 96.5625 271.169 96.7656 270.758 96.9219C270.352 97.0781 269.87 97.1562 269.312 97.1562ZM277.672 95.9688C278.016 95.9688 278.333 95.8984 278.625 95.7578C278.917 95.6172 279.156 95.4245 279.344 95.1797C279.531 94.9297 279.638 94.6458 279.664 94.3281H281.039C281.013 94.8281 280.844 95.2943 280.531 95.7266C280.224 96.1536 279.82 96.5 279.32 96.7656C278.82 97.026 278.271 97.1562 277.672 97.1562C277.036 97.1562 276.482 97.0443 276.008 96.8203C275.539 96.5964 275.148 96.2891 274.836 95.8984C274.529 95.5078 274.297 95.0599 274.141 94.5547C273.99 94.0443 273.914 93.5052 273.914 92.9375V92.6094C273.914 92.0417 273.99 91.5052 274.141 91C274.297 90.4896 274.529 90.0391 274.836 89.6484C275.148 89.2578 275.539 88.9505 276.008 88.7266C276.482 88.5026 277.036 88.3906 277.672 88.3906C278.333 88.3906 278.911 88.526 279.406 88.7969C279.901 89.0625 280.289 89.4271 280.57 89.8906C280.857 90.349 281.013 90.8698 281.039 91.4531H279.664C279.638 91.1042 279.539 90.7891 279.367 90.5078C279.201 90.2266 278.971 90.0026 278.68 89.8359C278.393 89.6641 278.057 89.5781 277.672 89.5781C277.229 89.5781 276.857 89.6667 276.555 89.8438C276.258 90.0156 276.021 90.25 275.844 90.5469C275.672 90.8385 275.547 91.1641 275.469 91.5234C275.396 91.8776 275.359 92.2396 275.359 92.6094V92.9375C275.359 93.3073 275.396 93.6719 275.469 94.0312C275.542 94.3906 275.664 94.7161 275.836 95.0078C276.013 95.2995 276.25 95.5339 276.547 95.7109C276.849 95.8828 277.224 95.9688 277.672 95.9688ZM286.203 88.5469V89.6562H281.633V88.5469H286.203ZM283.18 86.4922H284.625V94.9062C284.625 95.1927 284.669 95.4089 284.758 95.5547C284.846 95.7005 284.961 95.7969 285.102 95.8438C285.242 95.8906 285.393 95.9141 285.555 95.9141C285.674 95.9141 285.799 95.9036 285.93 95.8828C286.065 95.8568 286.167 95.8359 286.234 95.8203L286.242 97C286.128 97.0365 285.977 97.0703 285.789 97.1016C285.607 97.138 285.385 97.1562 285.125 97.1562C284.771 97.1562 284.445 97.0859 284.148 96.9453C283.852 96.8047 283.615 96.5703 283.438 96.2422C283.266 95.9089 283.18 95.4609 283.18 94.8984V86.4922ZM289.469 88.5469V97H288.016V88.5469H289.469ZM287.906 86.3047C287.906 86.0703 287.977 85.8724 288.117 85.7109C288.263 85.5495 288.477 85.4688 288.758 85.4688C289.034 85.4688 289.245 85.5495 289.391 85.7109C289.542 85.8724 289.617 86.0703 289.617 86.3047C289.617 86.5286 289.542 86.7214 289.391 86.8828C289.245 87.0391 289.034 87.1172 288.758 87.1172C288.477 87.1172 288.263 87.0391 288.117 86.8828C287.977 86.7214 287.906 86.5286 287.906 86.3047ZM293.234 90.3516V97H291.789V88.5469H293.156L293.234 90.3516ZM292.891 92.4531L292.289 92.4297C292.294 91.8516 292.38 91.3177 292.547 90.8281C292.714 90.3333 292.948 89.9036 293.25 89.5391C293.552 89.1745 293.911 88.8932 294.328 88.6953C294.75 88.4922 295.216 88.3906 295.727 88.3906C296.143 88.3906 296.518 88.4479 296.852 88.5625C297.185 88.6719 297.469 88.849 297.703 89.0938C297.943 89.3385 298.125 89.6562 298.25 90.0469C298.375 90.4323 298.438 90.9036 298.438 91.4609V97H296.984V91.4453C296.984 91.0026 296.919 90.6484 296.789 90.3828C296.659 90.112 296.469 89.9167 296.219 89.7969C295.969 89.6719 295.661 89.6094 295.297 89.6094C294.938 89.6094 294.609 89.6849 294.312 89.8359C294.021 89.987 293.768 90.1953 293.555 90.4609C293.346 90.7266 293.182 91.0312 293.062 91.375C292.948 91.7135 292.891 92.0729 292.891 92.4531ZM306.109 88.5469H307.422V96.8203C307.422 97.5651 307.271 98.2005 306.969 98.7266C306.667 99.2526 306.245 99.651 305.703 99.9219C305.167 100.198 304.547 100.336 303.844 100.336C303.552 100.336 303.208 100.289 302.812 100.195C302.422 100.107 302.036 99.9531 301.656 99.7344C301.281 99.5208 300.966 99.2318 300.711 98.8672L301.469 98.0078C301.823 98.4349 302.193 98.7318 302.578 98.8984C302.969 99.0651 303.354 99.1484 303.734 99.1484C304.193 99.1484 304.589 99.0625 304.922 98.8906C305.255 98.7188 305.513 98.4635 305.695 98.125C305.883 97.7917 305.977 97.3802 305.977 96.8906V90.4062L306.109 88.5469ZM300.289 92.8672V92.7031C300.289 92.0573 300.365 91.4714 300.516 90.9453C300.672 90.4141 300.893 89.9583 301.18 89.5781C301.471 89.1979 301.823 88.9062 302.234 88.7031C302.646 88.4948 303.109 88.3906 303.625 88.3906C304.156 88.3906 304.62 88.4844 305.016 88.6719C305.417 88.8542 305.755 89.1224 306.031 89.4766C306.312 89.8255 306.534 90.2474 306.695 90.7422C306.857 91.237 306.969 91.7969 307.031 92.4219V93.1406C306.974 93.7604 306.862 94.3177 306.695 94.8125C306.534 95.3073 306.312 95.7292 306.031 96.0781C305.755 96.4271 305.417 96.6953 305.016 96.8828C304.615 97.0651 304.146 97.1562 303.609 97.1562C303.104 97.1562 302.646 97.0495 302.234 96.8359C301.828 96.6224 301.479 96.3229 301.188 95.9375C300.896 95.5521 300.672 95.099 300.516 94.5781C300.365 94.0521 300.289 93.4818 300.289 92.8672ZM301.734 92.7031V92.8672C301.734 93.2891 301.776 93.6849 301.859 94.0547C301.948 94.4245 302.081 94.75 302.258 95.0312C302.44 95.3125 302.672 95.5339 302.953 95.6953C303.234 95.8516 303.57 95.9297 303.961 95.9297C304.44 95.9297 304.836 95.8281 305.148 95.625C305.461 95.4219 305.708 95.1536 305.891 94.8203C306.078 94.487 306.224 94.125 306.328 93.7344V91.8516C306.271 91.5651 306.182 91.2891 306.062 91.0234C305.948 90.7526 305.797 90.513 305.609 90.3047C305.427 90.0911 305.201 89.9219 304.93 89.7969C304.659 89.6719 304.341 89.6094 303.977 89.6094C303.581 89.6094 303.24 89.6927 302.953 89.8594C302.672 90.0208 302.44 90.2448 302.258 90.5312C302.081 90.8125 301.948 91.1406 301.859 91.5156C301.776 91.8854 301.734 92.2812 301.734 92.7031ZM318.57 95.5547V91.2031C318.57 90.8698 318.503 90.5807 318.367 90.3359C318.237 90.0859 318.039 89.8932 317.773 89.7578C317.508 89.6224 317.18 89.5547 316.789 89.5547C316.424 89.5547 316.104 89.6172 315.828 89.7422C315.557 89.8672 315.344 90.0312 315.188 90.2344C315.036 90.4375 314.961 90.6562 314.961 90.8906H313.516C313.516 90.5885 313.594 90.2891 313.75 89.9922C313.906 89.6953 314.13 89.4271 314.422 89.1875C314.719 88.9427 315.073 88.75 315.484 88.6094C315.901 88.4635 316.365 88.3906 316.875 88.3906C317.49 88.3906 318.031 88.4948 318.5 88.7031C318.974 88.9115 319.344 89.2266 319.609 89.6484C319.88 90.0651 320.016 90.5885 320.016 91.2188V95.1562C320.016 95.4375 320.039 95.737 320.086 96.0547C320.138 96.3724 320.214 96.6458 320.312 96.875V97H318.805C318.732 96.8333 318.674 96.612 318.633 96.3359C318.591 96.0547 318.57 95.7943 318.57 95.5547ZM318.82 91.875L318.836 92.8906H317.375C316.964 92.8906 316.596 92.9245 316.273 92.9922C315.951 93.0547 315.68 93.151 315.461 93.2812C315.242 93.4115 315.076 93.5755 314.961 93.7734C314.846 93.9661 314.789 94.1927 314.789 94.4531C314.789 94.7188 314.849 94.9609 314.969 95.1797C315.089 95.3984 315.268 95.5729 315.508 95.7031C315.753 95.8281 316.052 95.8906 316.406 95.8906C316.849 95.8906 317.24 95.7969 317.578 95.6094C317.917 95.4219 318.185 95.1927 318.383 94.9219C318.586 94.651 318.695 94.388 318.711 94.1328L319.328 94.8281C319.292 95.0469 319.193 95.2891 319.031 95.5547C318.87 95.8203 318.654 96.0755 318.383 96.3203C318.117 96.5599 317.799 96.7604 317.43 96.9219C317.065 97.0781 316.654 97.1562 316.195 97.1562C315.622 97.1562 315.12 97.0443 314.688 96.8203C314.26 96.5964 313.927 96.2969 313.688 95.9219C313.453 95.5417 313.336 95.1172 313.336 94.6484C313.336 94.1953 313.424 93.7969 313.602 93.4531C313.779 93.1042 314.034 92.8151 314.367 92.5859C314.701 92.3516 315.102 92.1745 315.57 92.0547C316.039 91.9349 316.562 91.875 317.141 91.875H318.82ZM323.734 90.3516V97H322.289V88.5469H323.656L323.734 90.3516ZM323.391 92.4531L322.789 92.4297C322.794 91.8516 322.88 91.3177 323.047 90.8281C323.214 90.3333 323.448 89.9036 323.75 89.5391C324.052 89.1745 324.411 88.8932 324.828 88.6953C325.25 88.4922 325.716 88.3906 326.227 88.3906C326.643 88.3906 327.018 88.4479 327.352 88.5625C327.685 88.6719 327.969 88.849 328.203 89.0938C328.443 89.3385 328.625 89.6562 328.75 90.0469C328.875 90.4323 328.938 90.9036 328.938 91.4609V97H327.484V91.4453C327.484 91.0026 327.419 90.6484 327.289 90.3828C327.159 90.112 326.969 89.9167 326.719 89.7969C326.469 89.6719 326.161 89.6094 325.797 89.6094C325.438 89.6094 325.109 89.6849 324.812 89.8359C324.521 89.987 324.268 90.1953 324.055 90.4609C323.846 90.7266 323.682 91.0312 323.562 91.375C323.448 91.7135 323.391 92.0729 323.391 92.4531ZM336.461 95.3594V85H337.914V97H336.586L336.461 95.3594ZM330.773 92.8672V92.7031C330.773 92.0573 330.852 91.4714 331.008 90.9453C331.169 90.4141 331.396 89.9583 331.688 89.5781C331.984 89.1979 332.336 88.9062 332.742 88.7031C333.154 88.4948 333.612 88.3906 334.117 88.3906C334.648 88.3906 335.112 88.4844 335.508 88.6719C335.909 88.8542 336.247 89.1224 336.523 89.4766C336.805 89.8255 337.026 90.2474 337.188 90.7422C337.349 91.237 337.461 91.7969 337.523 92.4219V93.1406C337.466 93.7604 337.354 94.3177 337.188 94.8125C337.026 95.3073 336.805 95.7292 336.523 96.0781C336.247 96.4271 335.909 96.6953 335.508 96.8828C335.107 97.0651 334.638 97.1562 334.102 97.1562C333.607 97.1562 333.154 97.0495 332.742 96.8359C332.336 96.6224 331.984 96.3229 331.688 95.9375C331.396 95.5521 331.169 95.099 331.008 94.5781C330.852 94.0521 330.773 93.4818 330.773 92.8672ZM332.227 92.7031V92.8672C332.227 93.2891 332.268 93.6849 332.352 94.0547C332.44 94.4245 332.576 94.75 332.758 95.0312C332.94 95.3125 333.172 95.5339 333.453 95.6953C333.734 95.8516 334.07 95.9297 334.461 95.9297C334.94 95.9297 335.333 95.8281 335.641 95.625C335.953 95.4219 336.203 95.1536 336.391 94.8203C336.578 94.487 336.724 94.125 336.828 93.7344V91.8516C336.766 91.5651 336.674 91.2891 336.555 91.0234C336.44 90.7526 336.289 90.513 336.102 90.3047C335.919 90.0911 335.693 89.9219 335.422 89.7969C335.156 89.6719 334.841 89.6094 334.477 89.6094C334.081 89.6094 333.74 89.6927 333.453 89.8594C333.172 90.0208 332.94 90.2448 332.758 90.5312C332.576 90.8125 332.44 91.1406 332.352 91.5156C332.268 91.8854 332.227 92.2812 332.227 92.7031ZM349.117 95.5547V91.2031C349.117 90.8698 349.049 90.5807 348.914 90.3359C348.784 90.0859 348.586 89.8932 348.32 89.7578C348.055 89.6224 347.727 89.5547 347.336 89.5547C346.971 89.5547 346.651 89.6172 346.375 89.7422C346.104 89.8672 345.891 90.0312 345.734 90.2344C345.583 90.4375 345.508 90.6562 345.508 90.8906H344.062C344.062 90.5885 344.141 90.2891 344.297 89.9922C344.453 89.6953 344.677 89.4271 344.969 89.1875C345.266 88.9427 345.62 88.75 346.031 88.6094C346.448 88.4635 346.911 88.3906 347.422 88.3906C348.036 88.3906 348.578 88.4948 349.047 88.7031C349.521 88.9115 349.891 89.2266 350.156 89.6484C350.427 90.0651 350.562 90.5885 350.562 91.2188V95.1562C350.562 95.4375 350.586 95.737 350.633 96.0547C350.685 96.3724 350.76 96.6458 350.859 96.875V97H349.352C349.279 96.8333 349.221 96.612 349.18 96.3359C349.138 96.0547 349.117 95.7943 349.117 95.5547ZM349.367 91.875L349.383 92.8906H347.922C347.51 92.8906 347.143 92.9245 346.82 92.9922C346.497 93.0547 346.227 93.151 346.008 93.2812C345.789 93.4115 345.622 93.5755 345.508 93.7734C345.393 93.9661 345.336 94.1927 345.336 94.4531C345.336 94.7188 345.396 94.9609 345.516 95.1797C345.635 95.3984 345.815 95.5729 346.055 95.7031C346.299 95.8281 346.599 95.8906 346.953 95.8906C347.396 95.8906 347.786 95.7969 348.125 95.6094C348.464 95.4219 348.732 95.1927 348.93 94.9219C349.133 94.651 349.242 94.388 349.258 94.1328L349.875 94.8281C349.839 95.0469 349.74 95.2891 349.578 95.5547C349.417 95.8203 349.201 96.0755 348.93 96.3203C348.664 96.5599 348.346 96.7604 347.977 96.9219C347.612 97.0781 347.201 97.1562 346.742 97.1562C346.169 97.1562 345.667 97.0443 345.234 96.8203C344.807 96.5964 344.474 96.2969 344.234 95.9219C344 95.5417 343.883 95.1172 343.883 94.6484C343.883 94.1953 343.971 93.7969 344.148 93.4531C344.326 93.1042 344.581 92.8151 344.914 92.5859C345.247 92.3516 345.648 92.1745 346.117 92.0547C346.586 91.9349 347.109 91.875 347.688 91.875H349.367ZM354.281 90.3516V97H352.836V88.5469H354.203L354.281 90.3516ZM353.938 92.4531L353.336 92.4297C353.341 91.8516 353.427 91.3177 353.594 90.8281C353.76 90.3333 353.995 89.9036 354.297 89.5391C354.599 89.1745 354.958 88.8932 355.375 88.6953C355.797 88.4922 356.263 88.3906 356.773 88.3906C357.19 88.3906 357.565 88.4479 357.898 88.5625C358.232 88.6719 358.516 88.849 358.75 89.0938C358.99 89.3385 359.172 89.6562 359.297 90.0469C359.422 90.4323 359.484 90.9036 359.484 91.4609V97H358.031V91.4453C358.031 91.0026 357.966 90.6484 357.836 90.3828C357.706 90.112 357.516 89.9167 357.266 89.7969C357.016 89.6719 356.708 89.6094 356.344 89.6094C355.984 89.6094 355.656 89.6849 355.359 89.8359C355.068 89.987 354.815 90.1953 354.602 90.4609C354.393 90.7266 354.229 91.0312 354.109 91.375C353.995 91.7135 353.938 92.0729 353.938 92.4531ZM366.664 95.5547V91.2031C366.664 90.8698 366.596 90.5807 366.461 90.3359C366.331 90.0859 366.133 89.8932 365.867 89.7578C365.602 89.6224 365.273 89.5547 364.883 89.5547C364.518 89.5547 364.198 89.6172 363.922 89.7422C363.651 89.8672 363.438 90.0312 363.281 90.2344C363.13 90.4375 363.055 90.6562 363.055 90.8906H361.609C361.609 90.5885 361.688 90.2891 361.844 89.9922C362 89.6953 362.224 89.4271 362.516 89.1875C362.812 88.9427 363.167 88.75 363.578 88.6094C363.995 88.4635 364.458 88.3906 364.969 88.3906C365.583 88.3906 366.125 88.4948 366.594 88.7031C367.068 88.9115 367.438 89.2266 367.703 89.6484C367.974 90.0651 368.109 90.5885 368.109 91.2188V95.1562C368.109 95.4375 368.133 95.737 368.18 96.0547C368.232 96.3724 368.307 96.6458 368.406 96.875V97H366.898C366.826 96.8333 366.768 96.612 366.727 96.3359C366.685 96.0547 366.664 95.7943 366.664 95.5547ZM366.914 91.875L366.93 92.8906H365.469C365.057 92.8906 364.69 92.9245 364.367 92.9922C364.044 93.0547 363.773 93.151 363.555 93.2812C363.336 93.4115 363.169 93.5755 363.055 93.7734C362.94 93.9661 362.883 94.1927 362.883 94.4531C362.883 94.7188 362.943 94.9609 363.062 95.1797C363.182 95.3984 363.362 95.5729 363.602 95.7031C363.846 95.8281 364.146 95.8906 364.5 95.8906C364.943 95.8906 365.333 95.7969 365.672 95.6094C366.01 95.4219 366.279 95.1927 366.477 94.9219C366.68 94.651 366.789 94.388 366.805 94.1328L367.422 94.8281C367.385 95.0469 367.286 95.2891 367.125 95.5547C366.964 95.8203 366.747 96.0755 366.477 96.3203C366.211 96.5599 365.893 96.7604 365.523 96.9219C365.159 97.0781 364.747 97.1562 364.289 97.1562C363.716 97.1562 363.214 97.0443 362.781 96.8203C362.354 96.5964 362.021 96.2969 361.781 95.9219C361.547 95.5417 361.43 95.1172 361.43 94.6484C361.43 94.1953 361.518 93.7969 361.695 93.4531C361.872 93.1042 362.128 92.8151 362.461 92.5859C362.794 92.3516 363.195 92.1745 363.664 92.0547C364.133 91.9349 364.656 91.875 365.234 91.875H366.914ZM371.953 85V97H370.5V85H371.953ZM376.648 96.125L379 88.5469H380.547L377.156 98.3047C377.078 98.513 376.974 98.737 376.844 98.9766C376.719 99.2214 376.557 99.4531 376.359 99.6719C376.161 99.8906 375.922 100.068 375.641 100.203C375.365 100.344 375.034 100.414 374.648 100.414C374.534 100.414 374.388 100.398 374.211 100.367C374.034 100.336 373.909 100.31 373.836 100.289L373.828 99.1172C373.87 99.1224 373.935 99.1276 374.023 99.1328C374.117 99.1432 374.182 99.1484 374.219 99.1484C374.547 99.1484 374.826 99.1042 375.055 99.0156C375.284 98.9323 375.477 98.7891 375.633 98.5859C375.794 98.388 375.932 98.1146 376.047 97.7656L376.648 96.125ZM374.922 88.5469L377.117 95.1094L377.492 96.6328L376.453 97.1641L373.344 88.5469H374.922ZM388.148 95.8125V97H382V95.8125H388.148ZM387.922 89.5703L382.328 97H381.445V95.9375L387 88.5469H387.922V89.5703ZM387.281 88.5469V89.7422H381.508V88.5469H387.281ZM391.359 88.5469V97H389.906V88.5469H391.359ZM389.797 86.3047C389.797 86.0703 389.867 85.8724 390.008 85.7109C390.154 85.5495 390.367 85.4688 390.648 85.4688C390.924 85.4688 391.135 85.5495 391.281 85.7109C391.432 85.8724 391.508 86.0703 391.508 86.3047C391.508 86.5286 391.432 86.7214 391.281 86.8828C391.135 87.0391 390.924 87.1172 390.648 87.1172C390.367 87.1172 390.154 87.0391 390.008 86.8828C389.867 86.7214 389.797 86.5286 389.797 86.3047ZM395.125 90.3516V97H393.68V88.5469H395.047L395.125 90.3516ZM394.781 92.4531L394.18 92.4297C394.185 91.8516 394.271 91.3177 394.438 90.8281C394.604 90.3333 394.839 89.9036 395.141 89.5391C395.443 89.1745 395.802 88.8932 396.219 88.6953C396.641 88.4922 397.107 88.3906 397.617 88.3906C398.034 88.3906 398.409 88.4479 398.742 88.5625C399.076 88.6719 399.359 88.849 399.594 89.0938C399.833 89.3385 400.016 89.6562 400.141 90.0469C400.266 90.4323 400.328 90.9036 400.328 91.4609V97H398.875V91.4453C398.875 91.0026 398.81 90.6484 398.68 90.3828C398.549 90.112 398.359 89.9167 398.109 89.7969C397.859 89.6719 397.552 89.6094 397.188 89.6094C396.828 89.6094 396.5 89.6849 396.203 89.8359C395.911 89.987 395.659 90.1953 395.445 90.4609C395.237 90.7266 395.073 91.0312 394.953 91.375C394.839 91.7135 394.781 92.0729 394.781 92.4531ZM408 88.5469H409.312V96.8203C409.312 97.5651 409.161 98.2005 408.859 98.7266C408.557 99.2526 408.135 99.651 407.594 99.9219C407.057 100.198 406.438 100.336 405.734 100.336C405.443 100.336 405.099 100.289 404.703 100.195C404.312 100.107 403.927 99.9531 403.547 99.7344C403.172 99.5208 402.857 99.2318 402.602 98.8672L403.359 98.0078C403.714 98.4349 404.083 98.7318 404.469 98.8984C404.859 99.0651 405.245 99.1484 405.625 99.1484C406.083 99.1484 406.479 99.0625 406.812 98.8906C407.146 98.7188 407.404 98.4635 407.586 98.125C407.773 97.7917 407.867 97.3802 407.867 96.8906V90.4062L408 88.5469ZM402.18 92.8672V92.7031C402.18 92.0573 402.255 91.4714 402.406 90.9453C402.562 90.4141 402.784 89.9583 403.07 89.5781C403.362 89.1979 403.714 88.9062 404.125 88.7031C404.536 88.4948 405 88.3906 405.516 88.3906C406.047 88.3906 406.51 88.4844 406.906 88.6719C407.307 88.8542 407.646 89.1224 407.922 89.4766C408.203 89.8255 408.424 90.2474 408.586 90.7422C408.747 91.237 408.859 91.7969 408.922 92.4219V93.1406C408.865 93.7604 408.753 94.3177 408.586 94.8125C408.424 95.3073 408.203 95.7292 407.922 96.0781C407.646 96.4271 407.307 96.6953 406.906 96.8828C406.505 97.0651 406.036 97.1562 405.5 97.1562C404.995 97.1562 404.536 97.0495 404.125 96.8359C403.719 96.6224 403.37 96.3229 403.078 95.9375C402.786 95.5521 402.562 95.099 402.406 94.5781C402.255 94.0521 402.18 93.4818 402.18 92.8672ZM403.625 92.7031V92.8672C403.625 93.2891 403.667 93.6849 403.75 94.0547C403.839 94.4245 403.971 94.75 404.148 95.0312C404.331 95.3125 404.562 95.5339 404.844 95.6953C405.125 95.8516 405.461 95.9297 405.852 95.9297C406.331 95.9297 406.727 95.8281 407.039 95.625C407.352 95.4219 407.599 95.1536 407.781 94.8203C407.969 94.487 408.115 94.125 408.219 93.7344V91.8516C408.161 91.5651 408.073 91.2891 407.953 91.0234C407.839 90.7526 407.688 90.513 407.5 90.3047C407.318 90.0911 407.091 89.9219 406.82 89.7969C406.549 89.6719 406.232 89.6094 405.867 89.6094C405.471 89.6094 405.13 89.6927 404.844 89.8594C404.562 90.0208 404.331 90.2448 404.148 90.5312C403.971 90.8125 403.839 91.1406 403.75 91.5156C403.667 91.8854 403.625 92.2812 403.625 92.7031ZM417.852 96.125L420.203 88.5469H421.75L418.359 98.3047C418.281 98.513 418.177 98.737 418.047 98.9766C417.922 99.2214 417.76 99.4531 417.562 99.6719C417.365 99.8906 417.125 100.068 416.844 100.203C416.568 100.344 416.237 100.414 415.852 100.414C415.737 100.414 415.591 100.398 415.414 100.367C415.237 100.336 415.112 100.31 415.039 100.289L415.031 99.1172C415.073 99.1224 415.138 99.1276 415.227 99.1328C415.32 99.1432 415.385 99.1484 415.422 99.1484C415.75 99.1484 416.029 99.1042 416.258 99.0156C416.487 98.9323 416.68 98.7891 416.836 98.5859C416.997 98.388 417.135 98.1146 417.25 97.7656L417.852 96.125ZM416.125 88.5469L418.32 95.1094L418.695 96.6328L417.656 97.1641L414.547 88.5469H416.125ZM422.547 92.8672V92.6875C422.547 92.0781 422.635 91.513 422.812 90.9922C422.99 90.4661 423.245 90.0104 423.578 89.625C423.911 89.2344 424.315 88.9323 424.789 88.7188C425.263 88.5 425.794 88.3906 426.383 88.3906C426.977 88.3906 427.51 88.5 427.984 88.7188C428.464 88.9323 428.87 89.2344 429.203 89.625C429.542 90.0104 429.799 90.4661 429.977 90.9922C430.154 91.513 430.242 92.0781 430.242 92.6875V92.8672C430.242 93.4766 430.154 94.0417 429.977 94.5625C429.799 95.0833 429.542 95.5391 429.203 95.9297C428.87 96.3151 428.466 96.6172 427.992 96.8359C427.523 97.0495 426.992 97.1562 426.398 97.1562C425.805 97.1562 425.271 97.0495 424.797 96.8359C424.323 96.6172 423.917 96.3151 423.578 95.9297C423.245 95.5391 422.99 95.0833 422.812 94.5625C422.635 94.0417 422.547 93.4766 422.547 92.8672ZM423.992 92.6875V92.8672C423.992 93.2891 424.042 93.6875 424.141 94.0625C424.24 94.4323 424.388 94.7604 424.586 95.0469C424.789 95.3333 425.042 95.5599 425.344 95.7266C425.646 95.888 425.997 95.9688 426.398 95.9688C426.794 95.9688 427.141 95.888 427.438 95.7266C427.74 95.5599 427.99 95.3333 428.188 95.0469C428.385 94.7604 428.534 94.4323 428.633 94.0625C428.737 93.6875 428.789 93.2891 428.789 92.8672V92.6875C428.789 92.2708 428.737 91.8776 428.633 91.5078C428.534 91.1328 428.383 90.8021 428.18 90.5156C427.982 90.224 427.732 89.9948 427.43 89.8281C427.133 89.6615 426.784 89.5781 426.383 89.5781C425.987 89.5781 425.638 89.6615 425.336 89.8281C425.039 89.9948 424.789 90.224 424.586 90.5156C424.388 90.8021 424.24 91.1328 424.141 91.5078C424.042 91.8776 423.992 92.2708 423.992 92.6875ZM437.227 95.0469V88.5469H438.68V97H437.297L437.227 95.0469ZM437.5 93.2656L438.102 93.25C438.102 93.8125 438.042 94.3333 437.922 94.8125C437.807 95.2865 437.62 95.6979 437.359 96.0469C437.099 96.3958 436.758 96.6693 436.336 96.8672C435.914 97.0599 435.401 97.1562 434.797 97.1562C434.385 97.1562 434.008 97.0964 433.664 96.9766C433.326 96.8568 433.034 96.6719 432.789 96.4219C432.544 96.1719 432.354 95.8464 432.219 95.4453C432.089 95.0443 432.023 94.5625 432.023 94V88.5469H433.469V94.0156C433.469 94.3958 433.51 94.7109 433.594 94.9609C433.682 95.2057 433.799 95.401 433.945 95.5469C434.096 95.6875 434.263 95.7865 434.445 95.8438C434.633 95.901 434.826 95.9297 435.023 95.9297C435.638 95.9297 436.125 95.8125 436.484 95.5781C436.844 95.3385 437.102 95.0182 437.258 94.6172C437.419 94.2109 437.5 93.7604 437.5 93.2656ZM442.328 89.875V97H440.883V88.5469H442.289L442.328 89.875ZM444.969 88.5L444.961 89.8438C444.841 89.8177 444.727 89.8021 444.617 89.7969C444.513 89.7865 444.393 89.7812 444.258 89.7812C443.924 89.7812 443.63 89.8333 443.375 89.9375C443.12 90.0417 442.904 90.1875 442.727 90.375C442.549 90.5625 442.409 90.7865 442.305 91.0469C442.206 91.3021 442.141 91.5833 442.109 91.8906L441.703 92.125C441.703 91.6146 441.753 91.1354 441.852 90.6875C441.956 90.2396 442.115 89.8438 442.328 89.5C442.542 89.151 442.812 88.8802 443.141 88.6875C443.474 88.4896 443.87 88.3906 444.328 88.3906C444.432 88.3906 444.552 88.4036 444.688 88.4297C444.823 88.4505 444.917 88.474 444.969 88.5ZM455.602 95.3594V85H457.055V97H455.727L455.602 95.3594ZM449.914 92.8672V92.7031C449.914 92.0573 449.992 91.4714 450.148 90.9453C450.31 90.4141 450.536 89.9583 450.828 89.5781C451.125 89.1979 451.477 88.9062 451.883 88.7031C452.294 88.4948 452.753 88.3906 453.258 88.3906C453.789 88.3906 454.253 88.4844 454.648 88.6719C455.049 88.8542 455.388 89.1224 455.664 89.4766C455.945 89.8255 456.167 90.2474 456.328 90.7422C456.49 91.237 456.602 91.7969 456.664 92.4219V93.1406C456.607 93.7604 456.495 94.3177 456.328 94.8125C456.167 95.3073 455.945 95.7292 455.664 96.0781C455.388 96.4271 455.049 96.6953 454.648 96.8828C454.247 97.0651 453.779 97.1562 453.242 97.1562C452.747 97.1562 452.294 97.0495 451.883 96.8359C451.477 96.6224 451.125 96.3229 450.828 95.9375C450.536 95.5521 450.31 95.099 450.148 94.5781C449.992 94.0521 449.914 93.4818 449.914 92.8672ZM451.367 92.7031V92.8672C451.367 93.2891 451.409 93.6849 451.492 94.0547C451.581 94.4245 451.716 94.75 451.898 95.0312C452.081 95.3125 452.312 95.5339 452.594 95.6953C452.875 95.8516 453.211 95.9297 453.602 95.9297C454.081 95.9297 454.474 95.8281 454.781 95.625C455.094 95.4219 455.344 95.1536 455.531 94.8203C455.719 94.487 455.865 94.125 455.969 93.7344V91.8516C455.906 91.5651 455.815 91.2891 455.695 91.0234C455.581 90.7526 455.43 90.513 455.242 90.3047C455.06 90.0911 454.833 89.9219 454.562 89.7969C454.297 89.6719 453.982 89.6094 453.617 89.6094C453.221 89.6094 452.88 89.6927 452.594 89.8594C452.312 90.0208 452.081 90.2448 451.898 90.5312C451.716 90.8125 451.581 91.1406 451.492 91.5156C451.409 91.8854 451.367 92.2812 451.367 92.7031ZM464.289 95.5547V91.2031C464.289 90.8698 464.221 90.5807 464.086 90.3359C463.956 90.0859 463.758 89.8932 463.492 89.7578C463.227 89.6224 462.898 89.5547 462.508 89.5547C462.143 89.5547 461.823 89.6172 461.547 89.7422C461.276 89.8672 461.062 90.0312 460.906 90.2344C460.755 90.4375 460.68 90.6562 460.68 90.8906H459.234C459.234 90.5885 459.312 90.2891 459.469 89.9922C459.625 89.6953 459.849 89.4271 460.141 89.1875C460.438 88.9427 460.792 88.75 461.203 88.6094C461.62 88.4635 462.083 88.3906 462.594 88.3906C463.208 88.3906 463.75 88.4948 464.219 88.7031C464.693 88.9115 465.062 89.2266 465.328 89.6484C465.599 90.0651 465.734 90.5885 465.734 91.2188V95.1562C465.734 95.4375 465.758 95.737 465.805 96.0547C465.857 96.3724 465.932 96.6458 466.031 96.875V97H464.523C464.451 96.8333 464.393 96.612 464.352 96.3359C464.31 96.0547 464.289 95.7943 464.289 95.5547ZM464.539 91.875L464.555 92.8906H463.094C462.682 92.8906 462.315 92.9245 461.992 92.9922C461.669 93.0547 461.398 93.151 461.18 93.2812C460.961 93.4115 460.794 93.5755 460.68 93.7734C460.565 93.9661 460.508 94.1927 460.508 94.4531C460.508 94.7188 460.568 94.9609 460.688 95.1797C460.807 95.3984 460.987 95.5729 461.227 95.7031C461.471 95.8281 461.771 95.8906 462.125 95.8906C462.568 95.8906 462.958 95.7969 463.297 95.6094C463.635 95.4219 463.904 95.1927 464.102 94.9219C464.305 94.651 464.414 94.388 464.43 94.1328L465.047 94.8281C465.01 95.0469 464.911 95.2891 464.75 95.5547C464.589 95.8203 464.372 96.0755 464.102 96.3203C463.836 96.5599 463.518 96.7604 463.148 96.9219C462.784 97.0781 462.372 97.1562 461.914 97.1562C461.341 97.1562 460.839 97.0443 460.406 96.8203C459.979 96.5964 459.646 96.2969 459.406 95.9219C459.172 95.5417 459.055 95.1172 459.055 94.6484C459.055 94.1953 459.143 93.7969 459.32 93.4531C459.497 93.1042 459.753 92.8151 460.086 92.5859C460.419 92.3516 460.82 92.1745 461.289 92.0547C461.758 91.9349 462.281 91.875 462.859 91.875H464.539ZM471.547 88.5469V89.6562H466.977V88.5469H471.547ZM468.523 86.4922H469.969V94.9062C469.969 95.1927 470.013 95.4089 470.102 95.5547C470.19 95.7005 470.305 95.7969 470.445 95.8438C470.586 95.8906 470.737 95.9141 470.898 95.9141C471.018 95.9141 471.143 95.9036 471.273 95.8828C471.409 95.8568 471.51 95.8359 471.578 95.8203L471.586 97C471.471 97.0365 471.32 97.0703 471.133 97.1016C470.951 97.138 470.729 97.1562 470.469 97.1562C470.115 97.1562 469.789 97.0859 469.492 96.9453C469.195 96.8047 468.958 96.5703 468.781 96.2422C468.609 95.9089 468.523 95.4609 468.523 94.8984V86.4922ZM478.227 95.5547V91.2031C478.227 90.8698 478.159 90.5807 478.023 90.3359C477.893 90.0859 477.695 89.8932 477.43 89.7578C477.164 89.6224 476.836 89.5547 476.445 89.5547C476.081 89.5547 475.76 89.6172 475.484 89.7422C475.214 89.8672 475 90.0312 474.844 90.2344C474.693 90.4375 474.617 90.6562 474.617 90.8906H473.172C473.172 90.5885 473.25 90.2891 473.406 89.9922C473.562 89.6953 473.786 89.4271 474.078 89.1875C474.375 88.9427 474.729 88.75 475.141 88.6094C475.557 88.4635 476.021 88.3906 476.531 88.3906C477.146 88.3906 477.688 88.4948 478.156 88.7031C478.63 88.9115 479 89.2266 479.266 89.6484C479.536 90.0651 479.672 90.5885 479.672 91.2188V95.1562C479.672 95.4375 479.695 95.737 479.742 96.0547C479.794 96.3724 479.87 96.6458 479.969 96.875V97H478.461C478.388 96.8333 478.331 96.612 478.289 96.3359C478.247 96.0547 478.227 95.7943 478.227 95.5547ZM478.477 91.875L478.492 92.8906H477.031C476.62 92.8906 476.253 92.9245 475.93 92.9922C475.607 93.0547 475.336 93.151 475.117 93.2812C474.898 93.4115 474.732 93.5755 474.617 93.7734C474.503 93.9661 474.445 94.1927 474.445 94.4531C474.445 94.7188 474.505 94.9609 474.625 95.1797C474.745 95.3984 474.924 95.5729 475.164 95.7031C475.409 95.8281 475.708 95.8906 476.062 95.8906C476.505 95.8906 476.896 95.7969 477.234 95.6094C477.573 95.4219 477.841 95.1927 478.039 94.9219C478.242 94.651 478.352 94.388 478.367 94.1328L478.984 94.8281C478.948 95.0469 478.849 95.2891 478.688 95.5547C478.526 95.8203 478.31 96.0755 478.039 96.3203C477.773 96.5599 477.456 96.7604 477.086 96.9219C476.721 97.0781 476.31 97.1562 475.852 97.1562C475.279 97.1562 474.776 97.0443 474.344 96.8203C473.917 96.5964 473.583 96.2969 473.344 95.9219C473.109 95.5417 472.992 95.1172 472.992 94.6484C472.992 94.1953 473.081 93.7969 473.258 93.4531C473.435 93.1042 473.69 92.8151 474.023 92.5859C474.357 92.3516 474.758 92.1745 475.227 92.0547C475.695 91.9349 476.219 91.875 476.797 91.875H478.477ZM481.969 96.2344C481.969 95.9896 482.044 95.7839 482.195 95.6172C482.352 95.4453 482.576 95.3594 482.867 95.3594C483.159 95.3594 483.38 95.4453 483.531 95.6172C483.688 95.7839 483.766 95.9896 483.766 96.2344C483.766 96.474 483.688 96.6771 483.531 96.8438C483.38 97.0104 483.159 97.0938 482.867 97.0938C482.576 97.0938 482.352 97.0104 482.195 96.8438C482.044 96.6771 481.969 96.474 481.969 96.2344Z" fill="#ABB4C4"/>
<g filter="url(#filter0_i_1_7827)">
<g filter="url(#filter1_i_1_7827)">
<rect width="166" height="47" transform="translate(24 128.5)" fill="#19191A"/>
<path d="M29.3473 158.5V146.864H34.0064C34.8625 146.864 35.5765 146.991 36.1484 147.244C36.7204 147.498 37.1503 147.85 37.4382 148.301C37.7261 148.748 37.87 149.263 37.87 149.847C37.87 150.301 37.7791 150.701 37.5973 151.045C37.4155 151.386 37.1655 151.667 36.8473 151.886C36.5329 152.102 36.1731 152.256 35.7678 152.347V152.46C36.2109 152.479 36.6257 152.604 37.0121 152.835C37.4022 153.066 37.7185 153.39 37.9609 153.807C38.2034 154.22 38.3246 154.712 38.3246 155.284C38.3246 155.902 38.1712 156.453 37.8643 156.938C37.5613 157.419 37.1125 157.799 36.5178 158.08C35.9231 158.36 35.1901 158.5 34.3189 158.5H29.3473ZM31.8075 156.489H33.8132C34.4988 156.489 34.9988 156.358 35.3132 156.097C35.6276 155.831 35.7848 155.479 35.7848 155.04C35.7848 154.718 35.7071 154.434 35.5518 154.188C35.3965 153.941 35.175 153.748 34.8871 153.608C34.603 153.468 34.264 153.398 33.87 153.398H31.8075V156.489ZM31.8075 151.733H33.6314C33.9685 151.733 34.2678 151.674 34.5291 151.557C34.7943 151.436 35.0026 151.265 35.1541 151.045C35.3094 150.826 35.3871 150.562 35.3871 150.256C35.3871 149.835 35.2375 149.496 34.9382 149.239C34.6428 148.981 34.2223 148.852 33.6768 148.852H31.8075V151.733ZM39.88 158.5V149.773H42.2266V151.295H42.3175C42.4766 150.754 42.7436 150.345 43.1186 150.068C43.4936 149.788 43.9254 149.648 44.4141 149.648C44.5353 149.648 44.666 149.655 44.8061 149.67C44.9463 149.686 45.0694 149.706 45.1754 149.733V151.881C45.0618 151.847 44.9046 151.816 44.7038 151.79C44.5031 151.763 44.3194 151.75 44.1527 151.75C43.7966 151.75 43.4785 151.828 43.1982 151.983C42.9216 152.134 42.7019 152.347 42.5391 152.619C42.38 152.892 42.3004 153.206 42.3004 153.562V158.5H39.88ZM49.9638 158.67C49.0812 158.67 48.3179 158.483 47.674 158.108C47.0339 157.729 46.5395 157.203 46.1911 156.528C45.8426 155.85 45.6683 155.064 45.6683 154.17C45.6683 153.269 45.8426 152.481 46.1911 151.807C46.5395 151.129 47.0339 150.602 47.674 150.227C48.3179 149.848 49.0812 149.659 49.9638 149.659C50.8464 149.659 51.6077 149.848 52.2479 150.227C52.8918 150.602 53.388 151.129 53.7365 151.807C54.085 152.481 54.2592 153.269 54.2592 154.17C54.2592 155.064 54.085 155.85 53.7365 156.528C53.388 157.203 52.8918 157.729 52.2479 158.108C51.6077 158.483 50.8464 158.67 49.9638 158.67ZM49.9751 156.795C50.3767 156.795 50.7119 156.682 50.9808 156.455C51.2498 156.223 51.4524 155.909 51.5888 155.511C51.7289 155.114 51.799 154.661 51.799 154.153C51.799 153.646 51.7289 153.193 51.5888 152.795C51.4524 152.398 51.2498 152.083 50.9808 151.852C50.7119 151.621 50.3767 151.506 49.9751 151.506C49.5698 151.506 49.2289 151.621 48.9524 151.852C48.6797 152.083 48.4732 152.398 48.3331 152.795C48.1967 153.193 48.1286 153.646 48.1286 154.153C48.1286 154.661 48.1967 155.114 48.3331 155.511C48.4732 155.909 48.6797 156.223 48.9524 156.455C49.2289 156.682 49.5698 156.795 49.9751 156.795ZM57.3359 158.5L54.9609 149.773H57.4098L58.7621 155.636H58.8416L60.2507 149.773H62.6541L64.0859 155.602H64.1598L65.4893 149.773H67.9325L65.5632 158.5H63.0007L61.5007 153.011H61.3928L59.8928 158.5H57.3359ZM76.4851 152.261L74.2692 152.398C74.2313 152.208 74.1499 152.038 74.0249 151.886C73.8999 151.731 73.7351 151.608 73.5305 151.517C73.3298 151.422 73.0893 151.375 72.8089 151.375C72.4339 151.375 72.1177 151.455 71.8601 151.614C71.6025 151.769 71.4737 151.977 71.4737 152.239C71.4737 152.447 71.5571 152.623 71.7237 152.767C71.8904 152.911 72.1764 153.027 72.5817 153.114L74.1612 153.432C75.0097 153.606 75.6423 153.886 76.0589 154.273C76.4756 154.659 76.6839 155.167 76.6839 155.795C76.6839 156.367 76.5154 156.869 76.1783 157.301C75.8449 157.733 75.3866 158.07 74.8033 158.312C74.2237 158.551 73.5552 158.67 72.7976 158.67C71.6423 158.67 70.7218 158.43 70.0362 157.949C69.3544 157.464 68.9548 156.805 68.8374 155.972L71.218 155.847C71.29 156.199 71.4643 156.468 71.7408 156.653C72.0173 156.835 72.3714 156.926 72.8033 156.926C73.2275 156.926 73.5684 156.845 73.826 156.682C74.0874 156.515 74.2199 156.301 74.2237 156.04C74.2199 155.82 74.1271 155.64 73.9453 155.5C73.7635 155.356 73.4832 155.246 73.1044 155.17L71.593 154.869C70.7408 154.699 70.1063 154.403 69.6896 153.983C69.2768 153.562 69.0703 153.027 69.0703 152.375C69.0703 151.814 69.2218 151.331 69.5249 150.926C69.8317 150.521 70.2616 150.208 70.8146 149.989C71.3714 149.769 72.023 149.659 72.7692 149.659C73.8714 149.659 74.7389 149.892 75.3714 150.358C76.0078 150.824 76.379 151.458 76.4851 152.261ZM82.1854 158.67C81.2876 158.67 80.5149 158.489 79.8672 158.125C79.2232 157.758 78.727 157.239 78.3786 156.568C78.0301 155.894 77.8558 155.097 77.8558 154.176C77.8558 153.278 78.0301 152.491 78.3786 151.812C78.727 151.134 79.2176 150.606 79.8501 150.227C80.4865 149.848 81.2327 149.659 82.0888 149.659C82.6645 149.659 83.2005 149.752 83.6967 149.938C84.1967 150.119 84.6323 150.394 85.0036 150.761C85.3786 151.129 85.6702 151.591 85.8786 152.148C86.0869 152.701 86.1911 153.348 86.1911 154.091V154.756H78.8217V153.256H83.9126C83.9126 152.907 83.8369 152.598 83.6854 152.33C83.5339 152.061 83.3236 151.85 83.0547 151.699C82.7895 151.544 82.4808 151.466 82.1286 151.466C81.7611 151.466 81.4354 151.551 81.1513 151.722C80.871 151.888 80.6513 152.114 80.4922 152.398C80.3331 152.678 80.2517 152.991 80.2479 153.335V154.761C80.2479 155.193 80.3274 155.566 80.4865 155.881C80.6494 156.195 80.8786 156.438 81.174 156.608C81.4695 156.778 81.8198 156.864 82.2251 156.864C82.4941 156.864 82.7403 156.826 82.9638 156.75C83.1873 156.674 83.3786 156.561 83.5376 156.409C83.6967 156.258 83.8179 156.072 83.9013 155.852L86.1399 156C86.0263 156.538 85.7933 157.008 85.4411 157.409C85.0926 157.807 84.6418 158.117 84.0888 158.341C83.5395 158.561 82.9051 158.67 82.1854 158.67ZM93.9794 146.864V158.5H91.5192V146.864H93.9794ZM98.3786 153.455V158.5H95.9581V149.773H98.2649V151.312H98.3672C98.5604 150.805 98.8842 150.403 99.3388 150.108C99.7933 149.809 100.344 149.659 100.992 149.659C101.598 149.659 102.127 149.792 102.577 150.057C103.028 150.322 103.379 150.701 103.629 151.193C103.879 151.682 104.004 152.265 104.004 152.943V158.5H101.583V153.375C101.587 152.841 101.451 152.424 101.174 152.125C100.897 151.822 100.517 151.67 100.032 151.67C99.7062 151.67 99.4183 151.741 99.1683 151.881C98.9221 152.021 98.7289 152.225 98.5888 152.494C98.4524 152.759 98.3823 153.08 98.3786 153.455ZM110.553 149.773V151.591H105.298V149.773H110.553ZM106.491 147.682H108.911V155.818C108.911 156.042 108.945 156.216 109.013 156.341C109.082 156.462 109.176 156.547 109.298 156.597C109.423 156.646 109.567 156.67 109.729 156.67C109.843 156.67 109.957 156.661 110.07 156.642C110.184 156.619 110.271 156.602 110.332 156.591L110.712 158.392C110.591 158.43 110.421 158.473 110.201 158.523C109.981 158.576 109.714 158.608 109.4 158.619C108.817 158.642 108.305 158.564 107.866 158.386C107.43 158.208 107.091 157.932 106.849 157.557C106.606 157.182 106.487 156.708 106.491 156.136V147.682ZM116.013 158.67C115.116 158.67 114.343 158.489 113.695 158.125C113.051 157.758 112.555 157.239 112.207 156.568C111.858 155.894 111.684 155.097 111.684 154.176C111.684 153.278 111.858 152.491 112.207 151.812C112.555 151.134 113.046 150.606 113.678 150.227C114.315 149.848 115.061 149.659 115.917 149.659C116.493 149.659 117.029 149.752 117.525 149.938C118.025 150.119 118.46 150.394 118.832 150.761C119.207 151.129 119.498 151.591 119.707 152.148C119.915 152.701 120.019 153.348 120.019 154.091V154.756H112.65V153.256H117.741C117.741 152.907 117.665 152.598 117.513 152.33C117.362 152.061 117.152 151.85 116.883 151.699C116.618 151.544 116.309 151.466 115.957 151.466C115.589 151.466 115.263 151.551 114.979 151.722C114.699 151.888 114.479 152.114 114.32 152.398C114.161 152.678 114.08 152.991 114.076 153.335V154.761C114.076 155.193 114.156 155.566 114.315 155.881C114.478 156.195 114.707 156.438 115.002 156.608C115.298 156.778 115.648 156.864 116.053 156.864C116.322 156.864 116.568 156.826 116.792 156.75C117.015 156.674 117.207 156.561 117.366 156.409C117.525 156.258 117.646 156.072 117.729 155.852L119.968 156C119.854 156.538 119.621 157.008 119.269 157.409C118.921 157.807 118.47 158.117 117.917 158.341C117.368 158.561 116.733 158.67 116.013 158.67ZM125.531 161.955C124.746 161.955 124.074 161.847 123.513 161.631C122.957 161.419 122.513 161.129 122.184 160.761C121.854 160.394 121.64 159.981 121.542 159.523L123.781 159.222C123.849 159.396 123.957 159.559 124.104 159.71C124.252 159.862 124.447 159.983 124.69 160.074C124.936 160.169 125.235 160.216 125.587 160.216C126.114 160.216 126.548 160.087 126.888 159.83C127.233 159.576 127.406 159.15 127.406 158.551V156.955H127.303C127.197 157.197 127.038 157.426 126.826 157.642C126.614 157.858 126.341 158.034 126.008 158.17C125.674 158.307 125.277 158.375 124.815 158.375C124.159 158.375 123.563 158.223 123.025 157.92C122.491 157.614 122.065 157.146 121.746 156.517C121.432 155.884 121.275 155.085 121.275 154.119C121.275 153.131 121.436 152.305 121.758 151.642C122.08 150.979 122.508 150.483 123.042 150.153C123.58 149.824 124.169 149.659 124.809 149.659C125.298 149.659 125.707 149.742 126.036 149.909C126.366 150.072 126.631 150.277 126.832 150.523C127.036 150.765 127.193 151.004 127.303 151.239H127.394V149.773H129.798V158.585C129.798 159.328 129.616 159.949 129.252 160.449C128.888 160.949 128.385 161.324 127.741 161.574C127.101 161.828 126.364 161.955 125.531 161.955ZM125.582 156.557C125.972 156.557 126.301 156.46 126.57 156.267C126.843 156.07 127.051 155.79 127.195 155.426C127.343 155.059 127.417 154.619 127.417 154.108C127.417 153.597 127.345 153.153 127.201 152.778C127.057 152.4 126.849 152.106 126.576 151.898C126.303 151.689 125.972 151.585 125.582 151.585C125.184 151.585 124.849 151.693 124.576 151.909C124.303 152.121 124.097 152.417 123.957 152.795C123.817 153.174 123.746 153.612 123.746 154.108C123.746 154.612 123.817 155.047 123.957 155.415C124.101 155.778 124.307 156.061 124.576 156.261C124.849 156.458 125.184 156.557 125.582 156.557ZM131.724 158.5V149.773H134.07V151.295H134.161C134.32 150.754 134.587 150.345 134.962 150.068C135.337 149.788 135.769 149.648 136.258 149.648C136.379 149.648 136.51 149.655 136.65 149.67C136.79 149.686 136.913 149.706 137.019 149.733V151.881C136.906 151.847 136.748 151.816 136.548 151.79C136.347 151.763 136.163 151.75 135.996 151.75C135.64 151.75 135.322 151.828 135.042 151.983C134.765 152.134 134.546 152.347 134.383 152.619C134.224 152.892 134.144 153.206 134.144 153.562V158.5H131.724ZM140.509 158.665C139.952 158.665 139.456 158.568 139.021 158.375C138.585 158.178 138.24 157.888 137.987 157.506C137.737 157.119 137.612 156.638 137.612 156.062C137.612 155.578 137.701 155.17 137.879 154.841C138.057 154.511 138.299 154.246 138.606 154.045C138.913 153.845 139.261 153.693 139.651 153.591C140.045 153.489 140.458 153.417 140.89 153.375C141.397 153.322 141.807 153.273 142.117 153.227C142.428 153.178 142.653 153.106 142.793 153.011C142.933 152.917 143.004 152.777 143.004 152.591V152.557C143.004 152.197 142.89 151.919 142.663 151.722C142.439 151.525 142.121 151.426 141.708 151.426C141.272 151.426 140.926 151.523 140.668 151.716C140.411 151.905 140.24 152.144 140.157 152.432L137.918 152.25C138.032 151.72 138.255 151.261 138.589 150.875C138.922 150.485 139.352 150.186 139.879 149.977C140.409 149.765 141.022 149.659 141.719 149.659C142.204 149.659 142.668 149.716 143.112 149.83C143.558 149.943 143.954 150.119 144.299 150.358C144.647 150.597 144.922 150.903 145.123 151.278C145.324 151.65 145.424 152.095 145.424 152.614V158.5H143.129V157.29H143.06C142.92 157.562 142.733 157.803 142.498 158.011C142.263 158.216 141.981 158.377 141.651 158.494C141.322 158.608 140.941 158.665 140.509 158.665ZM141.202 156.994C141.558 156.994 141.873 156.924 142.146 156.784C142.418 156.64 142.632 156.447 142.788 156.205C142.943 155.962 143.021 155.687 143.021 155.381V154.455C142.945 154.504 142.841 154.549 142.708 154.591C142.579 154.629 142.433 154.665 142.271 154.699C142.108 154.729 141.945 154.758 141.782 154.784C141.619 154.807 141.471 154.828 141.339 154.847C141.055 154.888 140.807 154.955 140.594 155.045C140.382 155.136 140.218 155.259 140.1 155.415C139.983 155.566 139.924 155.756 139.924 155.983C139.924 156.312 140.043 156.564 140.282 156.739C140.524 156.909 140.831 156.994 141.202 156.994ZM151.944 149.773V151.591H146.688V149.773H151.944ZM147.881 147.682H150.302V155.818C150.302 156.042 150.336 156.216 150.404 156.341C150.472 156.462 150.567 156.547 150.688 156.597C150.813 156.646 150.957 156.67 151.12 156.67C151.234 156.67 151.347 156.661 151.461 156.642C151.575 156.619 151.662 156.602 151.722 156.591L152.103 158.392C151.982 158.43 151.811 158.473 151.592 158.523C151.372 158.576 151.105 158.608 150.79 158.619C150.207 158.642 149.696 158.564 149.256 158.386C148.821 158.208 148.482 157.932 148.239 157.557C147.997 157.182 147.878 156.708 147.881 156.136V147.682ZM153.521 158.5V149.773H155.941V158.5H153.521ZM154.737 148.648C154.377 148.648 154.068 148.528 153.81 148.29C153.557 148.047 153.43 147.758 153.43 147.42C153.43 147.087 153.557 146.801 153.81 146.562C154.068 146.32 154.377 146.199 154.737 146.199C155.096 146.199 155.403 146.32 155.657 146.562C155.915 146.801 156.043 147.087 156.043 147.42C156.043 147.758 155.915 148.047 155.657 148.29C155.403 148.528 155.096 148.648 154.737 148.648ZM161.823 158.67C160.941 158.67 160.177 158.483 159.533 158.108C158.893 157.729 158.399 157.203 158.05 156.528C157.702 155.85 157.528 155.064 157.528 154.17C157.528 153.269 157.702 152.481 158.05 151.807C158.399 151.129 158.893 150.602 159.533 150.227C160.177 149.848 160.941 149.659 161.823 149.659C162.706 149.659 163.467 149.848 164.107 150.227C164.751 150.602 165.247 151.129 165.596 151.807C165.944 152.481 166.119 153.269 166.119 154.17C166.119 155.064 165.944 155.85 165.596 156.528C165.247 157.203 164.751 157.729 164.107 158.108C163.467 158.483 162.706 158.67 161.823 158.67ZM161.835 156.795C162.236 156.795 162.571 156.682 162.84 156.455C163.109 156.223 163.312 155.909 163.448 155.511C163.588 155.114 163.658 154.661 163.658 154.153C163.658 153.646 163.588 153.193 163.448 152.795C163.312 152.398 163.109 152.083 162.84 151.852C162.571 151.621 162.236 151.506 161.835 151.506C161.429 151.506 161.088 151.621 160.812 151.852C160.539 152.083 160.333 152.398 160.192 152.795C160.056 153.193 159.988 153.646 159.988 154.153C159.988 154.661 160.056 155.114 160.192 155.511C160.333 155.909 160.539 156.223 160.812 156.455C161.088 156.682 161.429 156.795 161.835 156.795ZM170.113 153.455V158.5H167.692V149.773H169.999V151.312H170.102C170.295 150.805 170.619 150.403 171.073 150.108C171.528 149.809 172.079 149.659 172.727 149.659C173.333 149.659 173.861 149.792 174.312 150.057C174.763 150.322 175.113 150.701 175.363 151.193C175.613 151.682 175.738 152.265 175.738 152.943V158.5H173.317V153.375C173.321 152.841 173.185 152.424 172.908 152.125C172.632 151.822 172.251 151.67 171.766 151.67C171.441 151.67 171.153 151.741 170.903 151.881C170.656 152.021 170.463 152.225 170.323 152.494C170.187 152.759 170.117 153.08 170.113 153.455ZM184.907 152.261L182.691 152.398C182.653 152.208 182.572 152.038 182.447 151.886C182.322 151.731 182.157 151.608 181.952 151.517C181.752 151.422 181.511 151.375 181.231 151.375C180.856 151.375 180.54 151.455 180.282 151.614C180.024 151.769 179.896 151.977 179.896 152.239C179.896 152.447 179.979 152.623 180.146 152.767C180.312 152.911 180.598 153.027 181.004 153.114L182.583 153.432C183.432 153.606 184.064 153.886 184.481 154.273C184.897 154.659 185.106 155.167 185.106 155.795C185.106 156.367 184.937 156.869 184.6 157.301C184.267 157.733 183.808 158.07 183.225 158.312C182.646 158.551 181.977 158.67 181.219 158.67C180.064 158.67 179.144 158.43 178.458 157.949C177.776 157.464 177.377 156.805 177.259 155.972L179.64 155.847C179.712 156.199 179.886 156.468 180.163 156.653C180.439 156.835 180.793 156.926 181.225 156.926C181.649 156.926 181.99 156.845 182.248 156.682C182.509 156.515 182.642 156.301 182.646 156.04C182.642 155.82 182.549 155.64 182.367 155.5C182.185 155.356 181.905 155.246 181.526 155.17L180.015 154.869C179.163 154.699 178.528 154.403 178.112 153.983C177.699 153.562 177.492 153.027 177.492 152.375C177.492 151.814 177.644 151.331 177.947 150.926C178.254 150.521 178.683 150.208 179.237 149.989C179.793 149.769 180.445 149.659 181.191 149.659C182.293 149.659 183.161 149.892 183.793 150.358C184.43 150.824 184.801 151.458 184.907 152.261Z" fill="#00A8FF"/>
</g>
<path d="M219.089 146.364H222.124L225.328 154.182H225.464L228.669 146.364H231.703V158H229.317V150.426H229.22L226.209 157.943H224.584L221.572 150.398H221.476V158H219.089V146.364ZM236.173 158.165C235.616 158.165 235.12 158.068 234.685 157.875C234.249 157.678 233.904 157.388 233.651 157.006C233.401 156.619 233.276 156.138 233.276 155.562C233.276 155.078 233.365 154.67 233.543 154.341C233.721 154.011 233.963 153.746 234.27 153.545C234.577 153.345 234.925 153.193 235.315 153.091C235.709 152.989 236.122 152.917 236.554 152.875C237.062 152.822 237.471 152.773 237.781 152.727C238.092 152.678 238.317 152.606 238.457 152.511C238.598 152.417 238.668 152.277 238.668 152.091V152.057C238.668 151.697 238.554 151.419 238.327 151.222C238.103 151.025 237.785 150.926 237.372 150.926C236.937 150.926 236.59 151.023 236.332 151.216C236.075 151.405 235.904 151.644 235.821 151.932L233.582 151.75C233.696 151.22 233.92 150.761 234.253 150.375C234.586 149.985 235.016 149.686 235.543 149.477C236.073 149.265 236.687 149.159 237.384 149.159C237.868 149.159 238.332 149.216 238.776 149.33C239.223 149.443 239.618 149.619 239.963 149.858C240.312 150.097 240.586 150.403 240.787 150.778C240.988 151.15 241.088 151.595 241.088 152.114V158H238.793V156.79H238.724C238.584 157.062 238.397 157.303 238.162 157.511C237.927 157.716 237.645 157.877 237.315 157.994C236.986 158.108 236.605 158.165 236.173 158.165ZM236.866 156.494C237.223 156.494 237.537 156.424 237.81 156.284C238.082 156.14 238.296 155.947 238.452 155.705C238.607 155.462 238.685 155.187 238.685 154.881V153.955C238.609 154.004 238.505 154.049 238.372 154.091C238.243 154.129 238.098 154.165 237.935 154.199C237.772 154.229 237.609 154.258 237.446 154.284C237.283 154.307 237.135 154.328 237.003 154.347C236.719 154.388 236.471 154.455 236.259 154.545C236.046 154.636 235.882 154.759 235.764 154.915C235.647 155.066 235.588 155.256 235.588 155.483C235.588 155.812 235.707 156.064 235.946 156.239C236.188 156.409 236.495 156.494 236.866 156.494ZM245.386 152.955V158H242.966V149.273H245.273V150.812H245.375C245.568 150.305 245.892 149.903 246.347 149.608C246.801 149.309 247.352 149.159 248 149.159C248.606 149.159 249.134 149.292 249.585 149.557C250.036 149.822 250.386 150.201 250.636 150.693C250.886 151.182 251.011 151.765 251.011 152.443V158H248.591V152.875C248.595 152.341 248.458 151.924 248.182 151.625C247.905 151.322 247.525 151.17 247.04 151.17C246.714 151.17 246.426 151.241 246.176 151.381C245.93 151.521 245.737 151.725 245.597 151.994C245.46 152.259 245.39 152.58 245.386 152.955ZM255.408 158.165C254.851 158.165 254.355 158.068 253.919 157.875C253.483 157.678 253.139 157.388 252.885 157.006C252.635 156.619 252.51 156.138 252.51 155.562C252.51 155.078 252.599 154.67 252.777 154.341C252.955 154.011 253.197 153.746 253.504 153.545C253.811 153.345 254.16 153.193 254.55 153.091C254.944 152.989 255.357 152.917 255.788 152.875C256.296 152.822 256.705 152.773 257.016 152.727C257.326 152.678 257.552 152.606 257.692 152.511C257.832 152.417 257.902 152.277 257.902 152.091V152.057C257.902 151.697 257.788 151.419 257.561 151.222C257.338 151.025 257.019 150.926 256.607 150.926C256.171 150.926 255.824 151.023 255.567 151.216C255.309 151.405 255.139 151.644 255.055 151.932L252.817 151.75C252.93 151.22 253.154 150.761 253.487 150.375C253.821 149.985 254.25 149.686 254.777 149.477C255.307 149.265 255.921 149.159 256.618 149.159C257.103 149.159 257.567 149.216 258.01 149.33C258.457 149.443 258.853 149.619 259.197 149.858C259.546 150.097 259.821 150.403 260.021 150.778C260.222 151.15 260.322 151.595 260.322 152.114V158H258.027V156.79H257.959C257.819 157.062 257.631 157.303 257.396 157.511C257.161 157.716 256.879 157.877 256.55 157.994C256.22 158.108 255.839 158.165 255.408 158.165ZM256.101 156.494C256.457 156.494 256.771 156.424 257.044 156.284C257.317 156.14 257.531 155.947 257.686 155.705C257.841 155.462 257.919 155.187 257.919 154.881V153.955C257.843 154.004 257.739 154.049 257.607 154.091C257.478 154.129 257.332 154.165 257.169 154.199C257.006 154.229 256.843 154.258 256.68 154.284C256.518 154.307 256.37 154.328 256.237 154.347C255.953 154.388 255.705 154.455 255.493 154.545C255.281 154.636 255.116 154.759 254.999 154.915C254.881 155.066 254.822 155.256 254.822 155.483C254.822 155.812 254.942 156.064 255.18 156.239C255.423 156.409 255.73 156.494 256.101 156.494ZM266.132 161.455C265.348 161.455 264.676 161.347 264.115 161.131C263.558 160.919 263.115 160.629 262.786 160.261C262.456 159.894 262.242 159.481 262.143 159.023L264.382 158.722C264.45 158.896 264.558 159.059 264.706 159.21C264.854 159.362 265.049 159.483 265.291 159.574C265.537 159.669 265.837 159.716 266.189 159.716C266.715 159.716 267.149 159.587 267.49 159.33C267.835 159.076 268.007 158.65 268.007 158.051V156.455H267.905C267.799 156.697 267.64 156.926 267.428 157.142C267.215 157.358 266.943 157.534 266.609 157.67C266.276 157.807 265.878 157.875 265.416 157.875C264.761 157.875 264.164 157.723 263.626 157.42C263.092 157.114 262.666 156.646 262.348 156.017C262.034 155.384 261.876 154.585 261.876 153.619C261.876 152.631 262.037 151.805 262.359 151.142C262.681 150.479 263.109 149.983 263.643 149.653C264.181 149.324 264.77 149.159 265.411 149.159C265.899 149.159 266.308 149.242 266.638 149.409C266.967 149.572 267.232 149.777 267.433 150.023C267.638 150.265 267.795 150.504 267.905 150.739H267.996V149.273H270.399V158.085C270.399 158.828 270.217 159.449 269.854 159.949C269.49 160.449 268.986 160.824 268.342 161.074C267.702 161.328 266.965 161.455 266.132 161.455ZM266.183 156.057C266.573 156.057 266.903 155.96 267.172 155.767C267.445 155.57 267.653 155.29 267.797 154.926C267.945 154.559 268.018 154.119 268.018 153.608C268.018 153.097 267.946 152.653 267.803 152.278C267.659 151.9 267.45 151.606 267.178 151.398C266.905 151.189 266.573 151.085 266.183 151.085C265.786 151.085 265.45 151.193 265.178 151.409C264.905 151.621 264.698 151.917 264.558 152.295C264.418 152.674 264.348 153.112 264.348 153.608C264.348 154.112 264.418 154.547 264.558 154.915C264.702 155.278 264.909 155.561 265.178 155.761C265.45 155.958 265.786 156.057 266.183 156.057ZM276.303 158.17C275.405 158.17 274.632 157.989 273.984 157.625C273.34 157.258 272.844 156.739 272.496 156.068C272.147 155.394 271.973 154.597 271.973 153.676C271.973 152.778 272.147 151.991 272.496 151.312C272.844 150.634 273.335 150.106 273.967 149.727C274.604 149.348 275.35 149.159 276.206 149.159C276.782 149.159 277.318 149.252 277.814 149.438C278.314 149.619 278.75 149.894 279.121 150.261C279.496 150.629 279.787 151.091 279.996 151.648C280.204 152.201 280.308 152.848 280.308 153.591V154.256H272.939V152.756H278.03C278.03 152.407 277.954 152.098 277.803 151.83C277.651 151.561 277.441 151.35 277.172 151.199C276.907 151.044 276.598 150.966 276.246 150.966C275.878 150.966 275.553 151.051 275.268 151.222C274.988 151.388 274.768 151.614 274.609 151.898C274.45 152.178 274.369 152.491 274.365 152.835V154.261C274.365 154.693 274.445 155.066 274.604 155.381C274.767 155.695 274.996 155.938 275.291 156.108C275.587 156.278 275.937 156.364 276.342 156.364C276.611 156.364 276.857 156.326 277.081 156.25C277.304 156.174 277.496 156.061 277.655 155.909C277.814 155.758 277.935 155.572 278.018 155.352L280.257 155.5C280.143 156.038 279.911 156.508 279.558 156.909C279.21 157.307 278.759 157.617 278.206 157.841C277.657 158.061 277.022 158.17 276.303 158.17Z" fill="#ABB4C4"/>
</g>
<defs>
<filter id="filter0_i_1_7827" x="24" y="128" width="1181" height="48" filterUnits="userSpaceOnUse" color-interpolation-filters="sRGB">
<feFlood flood-opacity="0" result="BackgroundImageFix"/>
<feBlend mode="normal" in="SourceGraphic" in2="BackgroundImageFix" result="shape"/>
<feColorMatrix in="SourceAlpha" type="matrix" values="0 0 0 0 0 0 0 0 0 0 0 0 0 0 0 0 0 0 127 0" result="hardAlpha"/>
<feOffset dy="-1"/>
<feComposite in2="hardAlpha" operator="arithmetic" k2="-1" k3="1"/>
<feColorMatrix type="matrix" values="0 0 0 0 0.827451 0 0 0 0 0.854902 0 0 0 0 0.901961 0 0 0 1 0"/>
<feBlend mode="normal" in2="shape" result="effect1_innerShadow_1_7827"/>
</filter>
<filter id="filter1_i_1_7827" x="24" y="128.5" width="166" height="47" filterUnits="userSpaceOnUse" color-interpolation-filters="sRGB">
<feFlood flood-opacity="0" result="BackgroundImageFix"/>
<feBlend mode="normal" in="SourceGraphic" in2="BackgroundImageFix" result="shape"/>
<feColorMatrix in="SourceAlpha" type="matrix" values="0 0 0 0 0 0 0 0 0 0 0 0 0 0 0 0 0 0 127 0" result="hardAlpha"/>
<feOffset dy="-2"/>
<feComposite in2="hardAlpha" operator="arithmetic" k2="-1" k3="1"/>
<feColorMatrix type="matrix" values="0 0 0 0 0 0 0 0 0 0.443137 0 0 0 0 0.760784 0 0 0 1 0"/>
<feBlend mode="normal" in2="shape" result="effect1_innerShadow_1_7827"/>
</filter>
</defs>
</svg>
